<?xml version="1.0" encoding="utf-8"?>
<!-- Generator: Adobe Illustrator 25.2.0, SVG Export Plug-In . SVG Version: 6.00 Build 0)  -->
<svg version="1.1" id="ILLUSTRATION" xmlns="http://www.w3.org/2000/svg" xmlns:xlink="http://www.w3.org/1999/xlink" x="0px"
	 y="0px" viewBox="0 0 595.28 841.89" style="enable-background:new 0 0 595.28 841.89;" xml:space="preserve">
<style type="text/css">
	.st0{fill:#EAA757;}
	.st1{fill:#E5E4E4;}
	.st2{fill:#DB953A;}
	.st3{fill:#B0867D;}
	.st4{fill:#CF9B88;}
	.st5{fill:#EEC0B2;}
	.st6{fill:#ADA850;}
	.st7{fill:#77823E;}
	.st8{fill:#5E6D39;}
	.st9{fill:#4B5B26;}
	.st10{fill:#68831E;}
	.st11{fill:#A6AA56;}
	.st12{fill:#626F2A;}
	.st13{fill:#979F50;}
	.st14{fill:#A8886D;}
	.st15{fill:#D0A98A;}
	.st16{fill:#E9CCB9;}
	.st17{fill:#B1BCA0;}
	.st18{fill:#487C4E;}
	.st19{fill:#95BC8B;}
	.st20{fill:#8C9678;}
	.st21{fill:#3C6841;}
	.st22{fill:#608858;}
	.st23{fill:#6E9865;}
	.st24{fill:#232323;}
	.st25{fill:#565656;}
	.st26{fill:#0F0F0F;}
	.st27{fill:#EAE9E8;}
	.st28{fill:#3B383D;}
	.st29{fill:#474747;}
	.st30{fill:#636363;}
	.st31{fill:#E0D4D2;}
	.st32{fill:#CCC2C0;}
	.st33{fill:#D7B0B1;}
	.st34{fill:#BC9280;}
	.st35{fill:#E7D3C1;}
	.st36{fill:#E0AA96;}
	.st37{fill:#CECAC8;}
	.st38{fill:#F1B8A0;}
	.st39{fill:#E4DCD8;}
	.st40{fill:#8E5E48;}
	.st41{fill:#8C7369;}
	.st42{fill:#C1A395;}
	.st43{fill:#9B8379;}
	.st44{fill:#E0E0E0;}
	.st45{fill:#77615A;}
	.st46{fill:#FFFFFF;}
	.st47{fill:#B1816E;}
	.st48{fill:#DDDAD7;}
	.st49{fill:#0A0A0A;}
	.st50{fill:#6D443C;}
	.st51{fill:#825044;}
	.st52{fill:#282828;}
	.st53{fill:#D3A190;}
	.st54{fill:#1B1E1F;}
	.st55{fill:#E5E2E1;}
	.st56{fill:#9E7364;}
	.st57{fill:#D3D3D3;}
	.st58{fill:#0F0A11;}
	.st59{fill:#7F5150;}
	.st60{opacity:0.72;fill:#1C1C1E;}
	.st61{fill:#B1ABA3;}
	.st62{fill:#C1BDB9;}
	.st63{fill:#7E6D57;}
	.st64{fill:#68543E;}
	.st65{fill:#7F5E39;}
	.st66{fill:#6D4E2F;}
	.st67{fill:#938270;}
</style>
<g id="_x37__1_">
	<g id="_x31__1408_">
		<path id="_x31__1409_" class="st3" d="M235.17,628.39c0-4.11,25-7.44,55.84-7.44c30.84,0,55.84,3.33,55.84,7.44
			c0,0,23.08,49.85,15.26,67.79c-7.82,17.93-26.8,30.49-26.8,30.49s-12.1,7.35-44.3,7.35s-44.3-7.35-44.3-7.35
			s-18.98-12.55-26.8-30.49C212.1,678.24,235.17,628.39,235.17,628.39z"/>
		<path id="_x32__1392_" class="st4" d="M235.17,628.39c0,4.11,25,7.44,55.84,7.44c30.84,0,55.84-3.33,55.84-7.44
			c0,0,23.08,49.85,15.26,67.79c-7.82,17.93-26.8,30.49-26.8,30.49s-12.1,7.35-44.3,7.35s-44.3-7.35-44.3-7.35
			s-18.98-12.55-26.8-30.49C212.1,678.24,235.17,628.39,235.17,628.39z"/>
		<path id="_x33__604_" class="st5" d="M251.19,636.2c-15.42-2.06-18.59-4.61-18.59-7.81c0-3.2,3.16-5.76,18.59-7.81
			c10.66-1.42,24.8-2.2,39.82-2.2c15.02,0,29.17,0.78,39.82,2.2c15.42,2.06,18.59,4.61,18.59,7.81c0,3.2-3.16,5.76-18.59,7.81
			c-10.66,1.42-24.8,2.2-39.82,2.2C275.99,638.41,261.84,637.62,251.19,636.2z M291.01,623.51c-27.88,0-46.67,2.62-52.12,4.87
			c5.44,2.26,24.24,4.87,52.12,4.87c27.88,0,46.67-2.62,52.12-4.87C337.69,626.13,318.89,623.51,291.01,623.51z"/>
	</g>
	<g id="_x32__1382_">
		<g id="_x31__1406_">
			<path id="_x31__1407_" class="st6" d="M266.48,632.51c-1.65-10.01-3.33-20.01-5.09-29.99c-0.96-5.27-1.89-10.61-3.04-15.73
				l-0.43-1.91c-0.17-0.62-0.39-1.22-0.58-1.84l-0.59-1.83l-0.7-1.86l-1.43-3.72l-1.53-3.71c-4.13-9.88-8.59-19.68-13.09-29.45
				c-9.03-19.53-18.35-38.95-27.79-58.3l2.62-1.31c9.74,19.23,19.34,38.51,28.67,57.96c4.65,9.73,9.27,19.47,13.58,29.41l1.61,3.74
				l1.52,3.8l0.75,1.91l0.67,2c0.22,0.67,0.46,1.34,0.66,2.01l0.49,2.02c1.29,5.37,2.28,10.63,3.33,15.94
				c1.99,10.39,3.89,20.78,5.75,31.18C270.02,632.73,268.21,632.62,266.48,632.51z"/>
			<path id="_x32__1391_" class="st7" d="M84.24,426.09c0,0-2.23-2.18,0.34-4.1c2.57-1.92,8.62-9.13,18.72-8.6
				c10.1,0.53,24.98,8.24,30.88,5.53c5.9-2.71,17.12-8.85,24.46-6.31c7.33,2.55,12.35,5.42,12.35,5.42s-4.81,12.07-7,14.8
				c-2.19,2.73-9.76,7.19-9.05,7.12c0.7-0.08,9.37-1.6,12.41-5.7c3.04-4.11,8.06-13.56,8.06-13.56s14.55,5.39,21.23,6.51
				c6.68,1.12,12.81,0.52,18.41,10.02c5.6,9.5,22.68,26.29,23.86,37.46c1.19,11.16-11.7,31.38-15.16,32.97
				c-3.46,1.59-17.66,3.93-23.7,1.52c-6.03-2.4-8.73,0.31-12.63-6.03c-3.9-6.34-20.68-23.02-24.2-25.85
				c-3.51-2.82-10.28-16.47-18.89-19.66s-17.23-3.17-23.42-6.98c-6.19-3.81-9.9-6.54-15.08-7.61s-9.55-2.02-9.55-2.02l4.64-7.06
				l-6.26,1.4c0,0-8.87,1.61-12.7-0.82c-3.83-2.43-4.64-5.26-4.12-5.75C78.36,428.31,84.24,426.09,84.24,426.09z"/>
		</g>
		<path id="_x32__1390_" class="st8" d="M362.38,342.29c0,0-0.77-20.05,2.84-25.27c3.61-5.21,2.02-4.15,4.26-8.35
			s1.03-10.36,4.41-14.6c3.38-4.24,5.33-3.77,7.63-8.68c2.3-4.91,3.98-11.51,6.51-13.48c2.53-1.97,6.38-5.17,10.92-10.37
			c4.54-5.2,1.1-4.17,10.52-9.12c9.42-4.96,5.91-6.21,20.73-12.66c14.82-6.45,34.13-11.41,34.67-8.09c0.55,3.32-3.98,4.61-9.53,8.43
			s-5.53,2.9-7.41,8.63s-4.39,9.76-9.45,13.7s-11.07,2.81-13.59,7.77c-2.52,4.96-2.57,7.73-7.73,11.23
			c-5.16,3.5-2.49,10.01-6.39,15.98s-6.81,8.26-7.51,11.18c-0.7,2.92,1.86,6-1.31,11.11c-3.18,5.11-6.59,4.3-7.93,10.36
			c-1.34,6.06-4.45,13.46-7.68,15.36c-3.23,1.9-11.58,7.53-14.65,6.18C368.61,350.26,362.38,342.29,362.38,342.29z"/>
		<g id="_x33__603_">
			<path id="_x31__1405_" class="st6" d="M341.42,591.51l-1.38,3.19c-0.93,2.13-1.86,4.25-2.67,6.41c-0.84,2.15-1.72,4.29-2.4,6.47
				l-1.1,3.25c-0.33,1.09-0.59,2.2-0.89,3.3c-1.45,5.57-2.54,11.3-3.47,17.09c-1.88,0.24-3.92,0.47-6.12,0.68
				c0.31-1.78,0.64-3.56,1-5.34c0.23-1.16,0.43-2.33,0.69-3.49l0.8-3.48l0.81-3.48l1-3.47c0.34-1.15,0.65-2.32,1.02-3.46l1.23-3.38
				c0.78-2.27,1.72-4.45,2.64-6.64c0.89-2.21,1.89-4.35,2.89-6.5l1.49-3.22l1.57-3.17c4.17-8.46,8.64-16.75,13.32-24.9
				c4.67-8.16,9.51-16.21,14.52-24.16c2.51-3.97,5.06-7.92,7.69-11.82l1.98-2.92l2.04-2.89c0.67-0.97,1.4-1.92,2.12-2.87
				c0.67-0.95,1.54-1.91,2.37-2.86l2.07,2.07c-0.68,0.84-1.38,1.62-2.04,2.6c-0.67,0.93-1.35,1.85-1.99,2.83l-1.94,2.89l-1.89,2.94
				c-2.52,3.92-4.96,7.9-7.37,11.91c-4.8,8.01-9.43,16.13-13.88,24.33c-4.46,8.2-8.7,16.51-12.62,24.95L341.42,591.51z"/>
			<path id="_x32__1389_" class="st9" d="M357.63,554.73c0,0-26.87-5.57-29.11-12.19c-2.24-6.62,25.15-64.34,34.11-77.33
				s48.29-16.27,48.29-16.27l-14.33-2.15c0,0,22.84-15.67,27.77-18.81c4.93-3.13,19.71,7.17,20.6,13.88s-8.06,24.18-8.06,24.18
				s-9.7,5.37-16.42,6.72c-6.72,1.34-19.26,2.84-19.26,2.84s13.14,1.34,20.6-0.45c7.46-1.79,12.09-4.18,12.09-4.18
				s-6.27,5.08-5.82,11.35s0.75,13.73-1.94,17.17c-2.69,3.43-5.67,4.93-5.82,11.94s0,10.45-1.79,13.14
				c-1.79,2.69-16.12-0.6-21.94-0.15c-5.82,0.45-16.27-2.24-16.27-2.24s10.6,4.18,15.08,4.78s16.57,4.33,16.57,4.33
				s-4.78,15.23-14.03,20.75c-9.26,5.52-16.57,7.91-22.84,7.02C368.82,558.16,357.63,554.73,357.63,554.73z"/>
		</g>
		<g id="_x34__233_">
			<path id="_x31__1404_" class="st10" d="M328.4,603.43l-4.16,16.67l-1.95,8.35l-0.84,3.61c-1.4,0.12-2.85,0.24-4.36,0.34l0.15-0.7
				l1.01-4.19l2.01-8.39l4.28-16.69L329,585.8c6.02-22.15,12.3-44.22,18.69-66.26c6.4-22.03,27.52-90.71,34.15-112.68l2.81,0.84
				c-6.48,21.99-27.45,90.71-33.69,112.77c-6.24,22.07-12.37,44.16-18.22,66.32L328.4,603.43z"/>
			<path id="_x32__1388_" class="st7" d="M489.74,290.94c0,0,1.12-2.91-2.02-3.58c-3.13-0.67-11.64-4.7-20.6,0
				c-8.96,4.7-19.26,17.91-25.75,17.91s-19.26-0.9-24.86,4.48c-5.6,5.37-8.96,10.08-8.96,10.08s9.4,8.96,12.54,10.52
				c3.13,1.57,11.87,2.46,11.2,2.69c-0.67,0.22-9.18,2.46-13.66,0c-4.48-2.46-12.99-8.96-12.99-8.96s-10.97,10.97-16.57,14.78
				c-5.6,3.81-11.42,5.82-12.54,16.79s-9.63,33.36-6.05,44c3.58,10.64,23.74,23.63,27.54,23.63c3.81,0,17.69-3.81,22.17-8.51
				s8.06-3.36,8.96-10.75s9.18-29.56,11.2-33.59s2.46-19.26,8.96-25.75s14.33-10.08,18.36-16.12s6.27-10.08,10.52-13.21
				c4.25-3.13,7.84-5.82,7.84-5.82l-7.17-4.48l6.27-1.34c0,0,8.73-2.24,11.2-6.05s2.02-6.72,1.34-6.94
				C496.01,290.5,489.74,290.94,489.74,290.94z"/>
		</g>
		<g id="_x35__114_">
			<path id="_x31__1403_" class="st10" d="M300.62,589.31c-0.09,5.84-0.18,11.68-0.2,17.51c-0.04,2.92,0.01,5.82,0.04,8.72
				l0.02,2.17l0.1,2.11l0.21,4.33c0.18,3.04,0.25,6.02,0.27,8.98c-1.9,0.05-3.86,0.08-5.86,0.1c0.03-2.95,0-5.87-0.12-8.73
				l-0.15-4.43l-0.07-2.27l0.01-2.21c0.02-2.95,0.02-5.9,0.1-8.83c0.11-5.87,0.29-11.73,0.48-17.58
				c0.79-23.41,1.86-46.79,2.95-70.18c1.11-23.38,15.98-104.47,17.22-127.84l2.93,0.13c-0.87,23.38-15.37,104.48-16.1,127.87
				C301.73,542.54,301.04,565.93,300.62,589.31z"/>
			<path id="_x32__1387_" class="st11" d="M340.61,402.31c0-1.49,26.87-75.24,29.86-82.4c2.99-7.17,2.99-32.25,0-40.31
				c-2.99-8.06-0.7-17.02-1.85-26.87s-2.93-18.21-5.02-22.39s-2.09-11.35-3.28-11.35c-1.19,0-10.15,0.6-15.53-1.19
				s-10.75-2.09-10.75-2.09s9.26-1.79,12.24-1.79s9.85,0.9,11.94-1.49c2.09-2.39,4.18-11.05,0.9-13.14
				c-3.28-2.09-14.33-1.19-15.53-1.19c-1.19,0-10.45-4.78-17.02-2.69c-6.57,2.09-21.5,17.32-25.08,23.29
				c-3.58,5.97-13.14,13.73-15.53,15.53c-2.39,1.79-11.94,8.66-12.54,14.63s0,11.35,0,11.35s12.24,5.97,21.2,5.37
				s18.51-2.39,18.51-2.39s-9.26,5.08-17.32,5.08c-8.06,0-23.68,0.3-23.68,0.3s-1.29,9.85,0,21.8c1.29,11.94,1.59,14.33,3.98,31.65
				c2.39,17.32,6.57,46.87,14.93,63c8.36,16.12,17.91,25.68,29.56,24.18C332.25,407.68,340.61,402.31,340.61,402.31z"/>
		</g>
		<g id="_x36__43_">
			<path id="_x31__1402_" class="st6" d="M285.06,633.22c-0.12-1.73-0.25-3.45-0.4-5.18l-0.87-9c-0.58-6-1.32-12-1.97-18l-2.2-17.99
				c-3.04-23.98-6.37-47.93-9.82-71.87c-3.46-23.93-7.02-47.86-10.72-71.76l2.89-0.46c3.85,23.89,7.56,47.8,11.17,71.72
				c3.6,23.93,7.08,47.87,10.27,71.87l2.32,18.01c0.69,6.02,1.46,12.02,2.08,18.06l0.93,9.05c0.18,1.86,0.32,3.73,0.47,5.59
				C287.8,633.25,286.42,633.24,285.06,633.22z"/>
			<path id="_x32__1386_" class="st7" d="M262.38,414.55c0,0,13.44,11.05,20.3,3.88c6.87-7.17,24.48-28.66,20-51.35
				s-6.57-31.95-8.06-44.49c-1.49-12.54,0.9-5.67-2.99-19.11s-6.15-15.23-8.75-24.48c-2.6-9.26-4.88-28.96-10.76-35.23
				c-5.88-6.27-4.38-3.28-9.76-9.85c-5.37-6.57-9.26-14.93-14.63-18.81s-14.03-8.06-16.42-8.36c-2.39-0.3-12.54,0.3-14.03,5.97
				c-1.49,5.67-2.09,8.36,0,12.54c2.09,4.18,13.73,9.26,15.23,23.89s20.3,88.67,23.29,101.81c2.99,13.14,0.65,58.85,1.27,60.35
				C257.7,412.8,262.38,414.55,262.38,414.55z"/>
			<path id="_x33__602_" class="st9" d="M257.08,411.3c0,0,3.36-3.13,7.39-9.63c4.03-6.49,7.17-14.44,6.16-22.06
				c-1.01-7.61-2.35-20.15-2.58-30.9c-0.22-10.75,4.93-8.73-1.12-18.36c-6.05-9.63-9.4-13.44-10.75-21.27
				c-1.34-7.84-2.02-8.96-2.69-17.24c-0.67-8.29-1.12-12.09-2.69-15.45c-1.57-3.36-6.05-17.02-10.97-24.18
				c-4.93-7.17-4.03-8.06-7.84-15.45c-3.81-7.39-11.68-9.33-13.66-14.78s0.6-10.45-1.04-9.26c-1.64,1.19-6.12,7.46-2.54,13.51
				c3.58,6.05,7.39,10.3,8.06,19.03c0.67,8.73,1.79,12.99,3.36,24.41c1.57,11.42,3.58,38.74,5.6,47.7s14.33,59.79,16.12,70.76
				c0,0,3.19,20.15,4.93,22.22C254.57,412.42,257.08,411.3,257.08,411.3z"/>
		</g>
		<g id="_x37_">
			<path id="_x31__1401_" class="st12" d="M256.24,631.64c-0.6-3.41-1.23-6.82-1.9-10.21l-1.57-8.98l-1.21-8.97
				c-0.41-2.99-0.68-5.98-1.03-8.97l-0.49-4.48l-0.43-4.48c-2.27-23.91-3.89-47.84-5.31-71.77c-1.41-23.94-2.63-47.87-3.64-71.83
				l2.93-0.14c1.35,23.91,2.91,47.82,4.65,71.7c1.76,23.88,3.71,47.76,6.31,71.52l0.49,4.46l0.55,4.44c0.38,2.96,0.7,5.93,1.14,8.87
				l1.31,8.82l1.65,8.7c0.85,3.95,1.62,7.91,2.36,11.88C259.99,632.02,258.06,631.83,256.24,631.64z"/>
			<path id="_x32__1385_" class="st13" d="M179.38,343.49l23.89-7.17c0,0-8.66-5.97-17.02-5.67c-8.36,0.3-14.03,1.17-17.02-0.01
				c-2.99-1.18-12.84-2.1-13.73,0c-0.9,2.1-5.08,5.39-3.58,12.85s1.79,14.03,2.69,14.03c0.9,0,4.92-4.78,7.54,1.79
				c2.61,6.57,3.81,12.24,3.81,12.24s-2.39,3.88,8.36,4.78s23.59,2.69,24.78,1.49c1.19-1.19-9.29,5.37-13.1,5.49
				c-3.81,0.11-15.11-4.81-15.67-4.93c-0.56-0.11,8.62,15.45,10.97,22.17c2.35,6.72,8.06,10.86,9.18,15
				c1.12,4.14,4.68,8.24,6.03,9.81c1.34,1.57,5.39,2.17,7.63,5.19s8.3,19.71,11.82,25.19s5.53,13.88,8.67,13.88s4.25,0,4.25,0
				s-0.45,4.03,4.14,2.8c4.59-1.23,10.41-3.81,11.53-3.81c1.12,0,6.61,2.13,11.2-0.22c4.59-2.35,19.59-12.43,20.49-13.77
				c0.9-1.34,15.05-17.88,5.43-42.62c-1.46,0-34.87-52.77-34.87-52.77s-12.19-15.69-19.36-18.16c-7.17-2.46-21.39,0.24-26.77,1.36
				S179.38,343.49,179.38,343.49z"/>
		</g>
		<g id="_x38_">
			<path id="_x31__1400_" class="st12" d="M313.41,626.64l-0.48,6.03c-1.86,0.11-3.79,0.2-5.79,0.28l0.65-6.76l3.41-35.48
				l13.62-141.9l2.92,0.26l-11.46,142.05L313.41,626.64z"/>
			<g id="_x32__1383_">
				<path id="_x31__1399_" class="st8" d="M279.47,435.86c1.94-11.98,6.18-37.93,8.53-47.19c2.35-9.25,3.19-9.41,7.09-17.43
					c3.9-8.01,6.65-17.01,11.03-25.89c3.54-7.17,6.61-9.98,10.02-13.22c3.11,3.76,6.55,7.8,7.31,8.25
					c1.44,0.86,16.36,6.93,16.86,7.27c0.51,0.34-13.42-12.85-17.02-15.97c-1.06-0.92-2.03-2.65-2.86-4.63
					c2.55-5.17,2.53-13.24,5.21-19.07c3.2-6.94,16.41-17.62,16.41-17.62l5.47,3.34l3.51-5.57c0,0,2.71,2.23,6.65,4.55
					c3.94,2.32,9.4,6.33,11.45,9.18c2.05,2.85,3.02,11.68,4.66,17.2c1.64,5.51,4.32,5.49,8.04,10.72
					c3.72,5.22,1.18,14.24,3.06,22.02c1.88,7.78,0.82,8.15,1.71,15.4c0.89,7.25,3.38,9.69,4.65,17.42
					c1.27,7.73-5.59,51.9-7.08,57.18c-1.48,5.28-7.42,23.94-11.77,30.99c-4.35,7.06-3.58,11.85-6.85,19.69
					c-3.27,7.84-4.04,4.41-10.04,7.48c-6,3.07-22.37,4.43-29.56,2.09c-7.19-2.34-5.12-0.84-10.82,0.97
					c-5.7,1.81-15.81-3.22-20.75-6.07c-4.93-2.84-10.82-17.44-12.17-26.75C280.87,460.89,277.53,447.84,279.47,435.86z"/>
				<path id="_x32__1384_" class="st11" d="M378.12,335.32c-2.79-6.35-4.32-16.25-4.32-16.25c1.64,5.51,4.32,5.49,8.04,10.72
					c3.72,5.22,1.18,14.24,3.06,22.02c1.88,7.78,0.82,8.15,1.71,15.4c0.89,7.25,3.38,9.69,4.65,17.42
					c1.27,7.73-5.59,51.9-7.08,57.18c-1.48,5.28-7.42,23.94-11.77,30.99c-4.35,7.06-3.58,11.85-6.85,19.69
					c-3.27,7.84-4.04,4.41-10.04,7.48c-2.81,1.44-7.9,2.5-13.26,2.99c0,0,0,0,0,0s5.66-2.63,10.48-7.45
					c4.82-4.82,8.38-7.62,10.92-15.74c2.54-8.12,5.58-15.23,7.62-20.56s7.87-23.86,10.83-35.91c2.96-12.05-1.44-11.05-1.44-17.9
					c0-6.85-1.52-14.47-1.52-22.08s3.81-15.74,2.79-23.35C380.91,352.32,380.91,341.66,378.12,335.32z"/>
			</g>
			<path id="_x33__601_" class="st7" d="M306.42,491.03c0,0-3.81-19.71-8.51-23.96c-4.7-4.25-2.91-3.58-6.05-7.17
				c-3.13-3.58-3.36-9.85-7.61-13.21s-6.05-2.46-9.4-6.72c-3.36-4.25-6.49-10.3-9.4-11.64s-7.39-3.58-12.99-7.61
				c-5.6-4.03-2.02-3.81-12.32-6.49c-10.3-2.69-7.17-4.7-23.06-7.61s-35.83-3.36-35.6,0s4.93,3.58,11.2,6.05
				c6.27,2.46,6.05,1.57,9.18,6.72c3.13,5.15,6.49,8.51,12.32,11.2c5.82,2.69,11.42,0.22,15,4.48c3.58,4.25,4.25,6.94,10.08,9.18
				c5.82,2.24,4.7,9.18,9.85,14.11c5.15,4.93,8.51,6.49,9.85,9.18c1.34,2.69-0.45,6.27,3.81,10.52c4.25,4.25,7.39,2.69,10.08,8.29
				c2.69,5.6,7.39,12.09,10.97,13.21c3.58,1.12,12.99,4.7,15.67,2.69C302.17,500.21,306.42,491.03,306.42,491.03z"/>
		</g>
	</g>
</g>
</svg>
