<?xml version="1.0" encoding="utf-8"?>
<!-- Generator: Adobe Illustrator 25.2.0, SVG Export Plug-In . SVG Version: 6.00 Build 0)  -->
<svg version="1.1" id="ILLUSTRATION" xmlns="http://www.w3.org/2000/svg" xmlns:xlink="http://www.w3.org/1999/xlink" x="0px"
	 y="0px" viewBox="0 0 595.28 841.89" style="enable-background:new 0 0 595.28 841.89;" xml:space="preserve">
<style type="text/css">
	.st0{fill:#EAA757;}
	.st1{fill:#E5E4E4;}
	.st2{fill:#DB953A;}
	.st3{fill:#B0867D;}
	.st4{fill:#CF9B88;}
	.st5{fill:#EEC0B2;}
	.st6{fill:#ADA850;}
	.st7{fill:#77823E;}
	.st8{fill:#5E6D39;}
	.st9{fill:#4B5B26;}
	.st10{fill:#68831E;}
	.st11{fill:#A6AA56;}
	.st12{fill:#626F2A;}
	.st13{fill:#979F50;}
	.st14{fill:#A8886D;}
	.st15{fill:#D0A98A;}
	.st16{fill:#E9CCB9;}
	.st17{fill:#B1BCA0;}
	.st18{fill:#487C4E;}
	.st19{fill:#95BC8B;}
	.st20{fill:#8C9678;}
	.st21{fill:#3C6841;}
	.st22{fill:#608858;}
	.st23{fill:#6E9865;}
	.st24{fill:#232323;}
	.st25{fill:#565656;}
	.st26{fill:#0F0F0F;}
	.st27{fill:#EAE9E8;}
	.st28{fill:#3B383D;}
	.st29{fill:#474747;}
	.st30{fill:#636363;}
	.st31{fill:#E0D4D2;}
	.st32{fill:#CCC2C0;}
	.st33{fill:#D7B0B1;}
	.st34{fill:#BC9280;}
	.st35{fill:#E7D3C1;}
	.st36{fill:#E0AA96;}
	.st37{fill:#CECAC8;}
	.st38{fill:#F1B8A0;}
	.st39{fill:#E4DCD8;}
	.st40{fill:#8E5E48;}
	.st41{fill:#8C7369;}
	.st42{fill:#C1A395;}
	.st43{fill:#9B8379;}
	.st44{fill:#E0E0E0;}
	.st45{fill:#77615A;}
	.st46{fill:#FFFFFF;}
	.st47{fill:#B1816E;}
	.st48{fill:#DDDAD7;}
	.st49{fill:#0A0A0A;}
	.st50{fill:#6D443C;}
	.st51{fill:#825044;}
	.st52{fill:#282828;}
	.st53{fill:#D3A190;}
	.st54{fill:#1B1E1F;}
	.st55{fill:#E5E2E1;}
	.st56{fill:#9E7364;}
	.st57{fill:#D3D3D3;}
	.st58{fill:#0F0A11;}
	.st59{fill:#7F5150;}
	.st60{opacity:0.72;fill:#1C1C1E;}
	.st61{fill:#B1ABA3;}
	.st62{fill:#C1BDB9;}
	.st63{fill:#7E6D57;}
	.st64{fill:#68543E;}
	.st65{fill:#7F5E39;}
	.st66{fill:#6D4E2F;}
	.st67{fill:#938270;}
</style>
<g id="_x36_">
	<g id="_x31__1451_">
		<g id="_x31__1454_">
			<ellipse id="_x31__1455_" class="st14" cx="319.9" cy="618.39" rx="72.98" ry="12.37"/>
			<path id="_x32__1428_" class="st15" d="M399.65,649.49c-2.33-8.46-6.77-31.1-6.77-31.1c0,6.83-32.67,12.37-72.98,12.37
				s-72.98-5.54-72.98-12.37c0,0-4.44,22.63-6.77,31.1c-2.33,8.46-10.15,22.85-10.15,22.85s8.88,14.81,12.69,27.5
				c3.81,12.69,4.23,26.44,4.23,26.44c0,9.46,32.67,17.13,72.98,17.13s72.98-7.67,72.98-17.13c0,0,0.42-13.75,4.23-26.44
				c3.81-12.69,12.69-27.5,12.69-27.5S401.98,657.95,399.65,649.49z"/>
			<path id="_x33__619_" class="st14" d="M316.73,688.83c-34.17,0-63.46-8.25-86.72-16.52c0,0.01-0.01,0.02-0.01,0.02
				s8.88,14.81,12.69,27.5c3.81,12.69,4.23,26.44,4.23,26.44c0,9.46,32.67,17.13,72.98,17.13s72.98-7.67,72.98-17.13
				c0,0,0.42-13.75,4.23-26.44c3.81-12.69,12.69-27.5,12.69-27.5s-0.1-0.19-0.28-0.52C384.95,679.63,352.39,688.83,316.73,688.83z"
				/>
		</g>
		<g id="_x32__1426_">
			<path id="_x31__1453_" class="st16" d="M319.9,632.16c-29.9,0-74.37-3.67-74.37-13.77c0-10.1,44.48-13.77,74.37-13.77
				c29.9,0,74.37,3.67,74.37,13.77C394.27,628.49,349.8,632.16,319.9,632.16z M319.9,607.41c-19.42,0-37.66,1.28-51.37,3.6
				c-15.96,2.71-20.21,5.91-20.21,7.38s4.26,4.67,20.21,7.38c13.71,2.32,31.95,3.61,51.37,3.61c19.42,0,37.66-1.28,51.37-3.61
				c15.96-2.71,20.21-5.91,20.21-7.38s-4.26-4.67-20.21-7.38C357.56,608.69,339.32,607.41,319.9,607.41z"/>
			<path id="_x32__1427_" class="st16" d="M371.44,627.69l-2.75-0.48c0.93-5.33,5.91-32.03,12.74-34.49
				c3.34-1.21,6.12-0.91,8.28,0.88c6.86,5.7,3.98,24.81,3.63,26.97l-2.75-0.45c0.88-5.44,2.12-20.41-2.66-24.38
				c-1.36-1.13-3.17-1.26-5.55-0.4C378.49,596.75,373.64,615.11,371.44,627.69z"/>
			<path id="_x33__617_" class="st16" d="M247.24,616.47c-0.18-2.91-1.49-28.51,8.46-32.58c3.81-1.56,7.07-1.39,9.71,0.51
				c7.67,5.52,6.57,24.17,6.52,24.96l-2.78-0.18c0.32-4.96-0.03-18.69-5.37-22.52c-1.83-1.31-4.13-1.38-7.03-0.19
				c-6.88,2.81-7.19,22.48-6.73,29.82L247.24,616.47z"/>
		</g>
		<g id="_x33__613_">
			<path id="_x31__1452_" class="st16" d="M324.22,639.42c-3.03,0-6.17-0.04-9.43-0.12c-21.95-0.54-39.63-3.33-50.6-5.57
				c-8.8-1.8-19.28-4.61-20.12-5.67c-0.26-0.32-0.36-0.76-0.28-1.16c0.16-0.75,0.9-1.24,1.65-1.09c0.21,0.04,0.39,0.13,0.55,0.25
				c2.46,1.13,29.39,9.49,68.87,10.45c49.48,1.21,72.96-7.6,78.97-10.33c0.7-0.32,1.53-0.01,1.84,0.69c0.32,0.7,0.01,1.53-0.69,1.84
				C387.62,632.06,366.58,639.42,324.22,639.42z M246.52,627.45C246.52,627.45,246.52,627.46,246.52,627.45
				C246.52,627.46,246.52,627.45,246.52,627.45z M246.52,627.45C246.52,627.45,246.52,627.45,246.52,627.45
				C246.52,627.45,246.52,627.45,246.52,627.45z M246.54,627.13c0,0.1,0,0.21-0.03,0.32C246.54,627.34,246.55,627.23,246.54,627.13z
				"/>
			<path id="_x32__1424_" class="st16" d="M323.11,652.09c-2.7,0-5.47-0.03-8.32-0.1c-41.92-1.03-72.35-11.32-72.65-11.42
				c-0.73-0.25-1.12-1.04-0.87-1.77c0.25-0.73,1.04-1.11,1.77-0.87c0.3,0.1,30.34,10.26,71.81,11.27
				c51.05,1.26,77.04-9.3,81.73-11.42c0.7-0.32,1.53-0.01,1.84,0.69c0.32,0.7,0.01,1.53-0.69,1.84
				C393.22,642.37,369.31,652.09,323.11,652.09z"/>
			<path id="_x33__616_" class="st16" d="M322.48,664.78c-2.51,0-5.07-0.03-7.69-0.09c-40.88-1-74.99-11.44-76.15-12.9
				c-0.26-0.32-0.36-0.75-0.28-1.16c0.16-0.75,0.9-1.24,1.65-1.09c0.2,0.04,0.38,0.12,0.53,0.23c2.54,1.14,34.57,11.15,74.32,12.12
				c52.66,1.29,81.47-11.04,84.58-12.45c0.7-0.32,1.53-0.01,1.84,0.69c0.32,0.7,0.01,1.53-0.69,1.84
				C397.58,653.35,370.9,664.78,322.48,664.78z M241.09,651.19C241.09,651.19,241.09,651.19,241.09,651.19
				C241.09,651.19,241.09,651.19,241.09,651.19z M241.1,651.18C241.09,651.18,241.09,651.19,241.1,651.18
				C241.09,651.19,241.09,651.18,241.1,651.18z M241.12,650.81c0.01,0.12,0,0.24-0.02,0.37
				C241.12,651.05,241.13,650.93,241.12,650.81z"/>
			<path id="_x34__239_" class="st16" d="M321.59,677.46c-2.23,0-4.49-0.03-6.8-0.08c-21.98-0.54-42.35-4.32-55.56-7.4
				c-11.55-2.69-24.14-6.47-24.95-7.49c-0.26-0.32-0.36-0.75-0.28-1.16c0.15-0.75,0.9-1.24,1.65-1.09c0.2,0.04,0.38,0.12,0.53,0.23
				c2.74,1.27,38.85,13.13,78.68,14.11c54.02,1.33,87.59-13.61,88.99-14.24c0.7-0.32,1.53-0.01,1.84,0.69
				c0.32,0.7,0.01,1.53-0.69,1.84C403.64,663.5,372.26,677.46,321.59,677.46z M236.74,661.89
				C236.74,661.89,236.74,661.89,236.74,661.89C236.74,661.89,236.74,661.89,236.74,661.89z M236.74,661.89
				C236.74,661.89,236.74,661.89,236.74,661.89C236.74,661.89,236.74,661.89,236.74,661.89z M236.74,661.88
				C236.74,661.88,236.74,661.88,236.74,661.88C236.74,661.88,236.74,661.88,236.74,661.88z M236.76,661.66
				c0,0.07-0.01,0.15-0.02,0.22C236.75,661.81,236.76,661.73,236.76,661.66z"/>
			<path id="_x35__121_" class="st16" d="M320.74,690.14c-1.96,0-3.94-0.02-5.95-0.07c-21.99-0.54-43.83-4.86-58.27-8.39
				c-12.59-3.08-26.78-7.43-27.6-8.47c-0.26-0.32-0.36-0.75-0.28-1.16c0.16-0.75,0.89-1.24,1.65-1.09c0.2,0.04,0.37,0.12,0.52,0.23
				c2.97,1.38,43.87,15.1,84.06,16.09c54.09,1.33,93.98-16.04,94.37-16.22c0.7-0.32,1.53-0.01,1.84,0.69
				c0.32,0.7,0.01,1.53-0.69,1.84C410,673.77,372.41,690.14,320.74,690.14z M231.37,672.61
				C231.36,672.61,231.36,672.61,231.37,672.61C231.36,672.61,231.36,672.61,231.37,672.61z M231.37,672.6
				C231.37,672.61,231.37,672.61,231.37,672.6C231.37,672.61,231.37,672.61,231.37,672.6z M231.37,672.6
				C231.37,672.6,231.37,672.6,231.37,672.6C231.37,672.6,231.37,672.6,231.37,672.6z M231.39,672.4c0,0.07-0.01,0.13-0.02,0.2
				C231.38,672.53,231.39,672.47,231.39,672.4z M231.39,672.4L231.39,672.4L231.39,672.4z"/>
			<path id="_x36__50_" class="st16" d="M322.53,702.86c-2.53,0-5.11-0.03-7.74-0.1c-22-0.54-41.31-3.43-53.63-5.77
				c-7.34-1.39-22.15-4.64-23.11-5.85c-0.26-0.32-0.36-0.75-0.28-1.16c0.16-0.75,0.9-1.24,1.65-1.09c0.18,0.04,0.34,0.11,0.49,0.2
				c2.52,1.01,34.34,9.88,74.96,10.87c54.71,1.34,84.65-11.93,85.9-12.5c0.7-0.32,1.53-0.01,1.84,0.69c0.32,0.7,0.01,1.53-0.69,1.84
				C400.7,690.57,372.98,702.85,322.53,702.86z M240.42,689.72c0.11,0.25,0.14,0.54,0.08,0.83
				C240.57,690.24,240.52,689.95,240.42,689.72z"/>
			<path id="_x37__26_" class="st16" d="M323.07,715.55c-2.68,0-5.44-0.03-8.28-0.1c-40.48-0.99-71.06-9.76-72.22-11.22
				c-0.26-0.32-0.36-0.75-0.28-1.16c0.16-0.75,0.9-1.24,1.65-1.09c0.2,0.04,0.38,0.12,0.53,0.23c2.49,1.09,30.96,9.48,70.39,10.45
				c48.93,1.21,74.33-8.49,80.94-11.49c0.7-0.32,1.53-0.01,1.84,0.69c0.32,0.7,0.01,1.53-0.69,1.84
				C390.59,706.6,367.23,715.55,323.07,715.55z M245.02,703.63C245.02,703.63,245.02,703.63,245.02,703.63
				C245.02,703.63,245.02,703.63,245.02,703.63z M245.03,703.12c0.03,0.16,0.03,0.34-0.01,0.51
				C245.06,703.45,245.06,703.28,245.03,703.12z"/>
			<path id="_x38__17_" class="st16" d="M324.43,728.26c-3.1,0-6.31-0.04-9.64-0.12c-21.95-0.54-39.39-3.27-50.15-5.47
				c-8.62-1.76-18.82-4.48-19.68-5.57c-0.26-0.32-0.36-0.76-0.28-1.16c0.16-0.75,0.89-1.24,1.65-1.09c0.21,0.04,0.4,0.13,0.56,0.25
				c2.62,1.24,28.4,9.27,67.98,10.24c48.1,1.18,70.77-6.61,78.28-10.02c0.7-0.32,1.53-0.01,1.84,0.69c0.32,0.7,0.01,1.53-0.69,1.84
				C387.13,721.12,366.57,728.26,324.43,728.26z M247.41,716.51C247.41,716.51,247.41,716.51,247.41,716.51
				C247.41,716.51,247.41,716.51,247.41,716.51z M247.41,716.5C247.41,716.5,247.41,716.51,247.41,716.5
				C247.41,716.51,247.41,716.5,247.41,716.5z M247.41,716.5C247.41,716.5,247.41,716.5,247.41,716.5
				C247.41,716.5,247.41,716.5,247.41,716.5z M247.44,716.22c0,0.09-0.01,0.19-0.03,0.28C247.43,716.4,247.44,716.31,247.44,716.22z
				"/>
			<path id="_x39__14_" class="st16" d="M320.97,742.19c-2.32,0-4.69-0.03-7.13-0.08c-52.79-1.21-67.22-13.67-67.81-14.2
				c-0.57-0.52-0.62-1.4-0.1-1.97c0.51-0.57,1.39-0.62,1.96-0.11c0.23,0.2,14.69,12.31,66.01,13.49c47.8,1.11,70.09-9.1,77.42-12.45
				l0.68-0.31c0.7-0.32,1.53-0.01,1.84,0.69c0.32,0.7,0.01,1.53-0.69,1.84l-0.67,0.31C385.39,732.65,364.53,742.19,320.97,742.19z"
				/>
		</g>
	</g>
	<g id="_x32__1409_">
		<g id="_x31__1448_">
			<path id="_x31__1449_" class="st17" d="M268.34,216.33c0.37,0.27,0.75,0.57,1.13,0.86c0.76,0.61,1.51,1.25,2.26,1.9
				c1.49,1.31,2.95,2.68,4.4,4.06c2.89,2.77,5.7,5.65,8.43,8.6c5.45,5.9,10.58,12.1,15.26,18.58c4.66,6.48,8.9,13.27,12.05,20.45
				c1.56,3.58,2.83,7.26,3.57,10.98c0.37,1.8,0.62,3.87,0.91,5.84c0.3,1.99,0.52,4,0.78,6c1.96,16.04,3.39,32.21,5.02,48.41
				c0.83,8.1,1.68,16.21,2.9,24.36l0.48,3.06c0.17,1.02,0.38,2.05,0.56,3.08l0.29,1.54l0.36,1.56l0.36,1.56
				c0.05,0.24,0.14,0.56,0.17,0.74l0.1,0.59l0.11,0.59c0.04,0.19,0.08,0.39,0.09,0.64l0.13,1.42c0.1,0.93,0.14,1.92,0.18,2.91
				c0.11,1.96,0.12,3.97,0.16,5.97c0.08,8.03-0.13,16.14-0.38,24.23c-0.26,8.1-0.58,16.2-0.96,24.31
				c-0.37,8.11-0.78,16.21-1.21,24.32l-1.28,24.32c-0.88,16.22-1.86,32.43-2.83,48.64l-1.71,93.53c0.11,0,0.23,0,0.34,0
				c1.5,0,2.99-0.01,4.48-0.03c0.71-34.5,1.39-84.48,2.08-93.15c1.25-16.21,2.38-32.42,3.48-48.64c1.11-16.22,2.08-32.45,2.88-48.7
				c0.41-8.12,0.77-16.25,1.06-24.39c0.28-8.14,0.53-16.28,0.48-24.5c-0.03-2.06-0.03-4.11-0.14-6.21
				c-0.04-1.04-0.07-2.08-0.18-3.17l-0.14-1.62c-0.01-0.26-0.06-0.56-0.12-0.87l-0.16-0.91l-0.17-0.91
				c-0.06-0.31-0.11-0.49-0.17-0.74l-0.33-1.41l-0.33-1.41l-0.28-1.45c-0.18-0.97-0.38-1.93-0.55-2.92l-0.48-2.96
				c-1.23-7.91-2.11-15.97-2.98-24.03c-1.73-16.13-3.15-32.33-5.33-48.53c-0.29-2.03-0.55-4.05-0.88-6.08
				c-0.33-2.04-0.58-4-1.06-6.18c-0.91-4.24-2.38-8.26-4.12-12.1c-3.5-7.67-8.03-14.66-12.94-21.3
				c-4.96-6.61-10.38-12.8-16.08-18.71c-2.86-2.95-5.79-5.82-8.83-8.6c-1.53-1.38-3.08-2.74-4.68-4.06
				c-0.81-0.66-1.62-1.31-2.47-1.95c-0.43-0.32-0.86-0.63-1.32-0.95l-0.72-0.47c-0.27-0.16-0.58-0.33-0.87-0.48l-1.79,3.7l0.45,0.28
				L268.34,216.33z"/>
			<path id="_x32__1423_" class="st18" d="M187.22,129.17c0,0-0.05,4.74,0.09,8.98c0.14,4.25,0.09,6.38,0.09,6.38s11.06,6,15.45,6.2
				c4.39,0.2,30.33,11.27,29.57,14.77c-0.75,3.5-21.94-4.68-24.86-6.91c-2.92-2.23-20.91-7.73-20.91-7.73s-1.19,5.31,1.62,8.96
				c2.81,3.65,9.53,10.16,9.53,10.16s-0.31,5.82,0.79,8.92c1.1,3.1,7.42,9.04,8.04,9.34c0.62,0.3,16.36,0.44,24.44,4.81
				c8.07,4.37,6.32,8.55-1.3,6.74c-7.61-1.81-22.82-9.33-22.82-9.33s7.22,12.13,7.94,14.91c0.72,2.77,0.39,8.36,3.18,9.18
				c2.79,0.82,33.45-1.54,32.93,3.23c-0.52,4.78-9.87,6.08-13.11,5.54c-3.24-0.54-18.91-3.88-18.91-3.88s2.65,5.92,8.62,10.47
				c5.96,4.56,18.13,1.71,24.17,7.2c6.05,5.5,6.52,10.89,11.13,10.84c4.61-0.05,16.03-5.91,16.13-8.88
				c0.09-2.96-9.97-16.39-9.97-16.39c1.92,0.3,32.78,22.88,42.56,7.82s8.08-42.35,8.08-42.35s-8.42,14.39-15.45,16.55
				s-9.32,0.67-9.46-0.9c-0.14-1.56,10.21-4.93,16-11.15c5.8-6.23,8.69-10.03,8.56-10.22c-0.13-0.19-0.82-6.98-7-10.06
				c-6.19-3.08-11.99-3.59-11.99-3.59s-2.8,16.92-7.75,21.54c-4.95,4.62-9.76,4.22-10,1.99c-0.24-2.23,15.54-18.64,16.67-23.63
				c1.14-4.99,1.64-12.17-0.5-15.05c-2.15-2.88-16.73-11.69-16.73-11.69s3.75,20.96,2.06,25.92c-1.69,4.96-4.35,11.42-7,11.38
				c-2.65-0.04-1.07-3.57,0.96-8.76c2.02-5.19,4.3-10.67,3.85-18.87c-0.45-8.2-2.42-14.41-3.14-15.37
				c-0.72-0.96-4.03-5.04-11.56-6.35c-7.53-1.3-10.31-0.66-10.31-0.66s12.54,21.36,12.19,27.31c-0.34,5.94-5.11,20.42-9.01,20.41
				c-3.9-0.01-3.54-8.62-3.15-14.15c0.4-5.53-2.14-19.5-3.49-22.69c-1.35-3.19-1.15-12.38-3.77-15.22
				c-2.62-2.84-17.16-5.71-19.87-5.08c-2.7,0.63,13.64,19.53,13.56,23.08c-0.08,3.56-1.87,4.66-3.42,2.35
				c-1.54-2.31-10.96-24.1-13.59-24.42c-2.63-0.32-19.08-2.65-25.48-1.49c-6.4,1.16-10.16,2.79-10.16,2.79s4.23,7.67,7.74,8.66
				c3.52,0.99,18.73,9.81,19.64,13.4c0.91,3.59-20.8-7.86-25-9.85C188.92,132.33,187.22,129.17,187.22,129.17z M271.85,187.44
				c2.55,1.37,1.85,11.55-3.35,10.23c-5.2-1.31-9.58-1.28-7.45-5.37C263.17,188.21,269.31,186.07,271.85,187.44z"/>
		</g>
		<g id="_x32__1421_">
			<path id="_x31__1446_" class="st17" d="M336.24,629.06c0.44-28.33,0.86-65.28,1.28-67.98c1.2-7.87,2.23-15.77,3.19-23.69
				c0.87-7.93,1.74-15.85,2.27-23.88c0.16-2,0.22-4.04,0.33-6.06c0.06-1,0.05-2.07,0.08-3.1l0.05-2.95
				c0.07-3.73,0.35-7.73,0.62-11.64c1.14-15.75,2.61-31.58,4.09-47.38l4.5-47.43l4.56-47.45l1.13-11.87
				c0.19-1.96,0.36-4.02,0.57-5.83c0.23-1.88,0.53-3.8,0.84-5.73c1.27-7.72,2.84-15.49,4.46-23.24c3.28-15.5,6.73-31,10.26-46.48
				l10.8-46.41l-3.98-1.03c-2.14,7.66-4.29,15.31-6.35,23l-6.12,23.06c-4.03,15.39-8,30.79-11.6,46.32
				c-1.81,7.77-3.56,15.54-5.05,23.47c-0.36,1.99-0.7,3.99-0.99,6.05c-0.29,2.14-0.47,4.04-0.7,6.02l-1.32,11.84
				c-1.78,15.79-3.54,31.59-5.21,47.39c-3.37,31.63-6.7,63.2-9.19,95.03c-0.28,4.01-0.58,7.95-0.68,12.16l-0.04,3.01
				c-0.02,0.95,0,1.88-0.05,2.86c-0.09,1.95-0.15,3.87-0.27,5.84c-0.44,7.83-0.94,15.74-1.54,23.63
				c-0.52,7.91-1.11,15.82-1.58,23.75c-0.18,2.87-0.35,40.36-0.51,68.91C332.16,629.2,334.21,629.14,336.24,629.06z"/>
			<path id="_x32__1422_" class="st19" d="M460.98,157.3c-7.29,4.78-22.38,9.55-28.66,9.3s-12.82-1.51-11.82-3.02
				c1.76-1.76,12.07-6.03,23.89-8.05c11.82-2.01,30.17-11.57,30.93-12.07c0.75-0.5,1.76-3.02-1.51-4.02
				c-3.27-1.01-23.13,4.53-30.93,6.79c-7.79,2.26-22.63,5.53-24.39,4.53c-1.76-1.01,3.52-5.28,8.05-6.54
				c4.53-1.26,41.74-10.81,41.23-14.83c-0.5-4.02-11.69-5.41-12.07-5.53c-0.38-0.13-24.39,12.95-25.77,10.18
				c-1.38-2.77,22.75-20.24,23.13-20.62c0.38-0.38-6.41-1.76-11.69-1.13c-5.28,0.63-6.91,0.63-6.91,0.63s-11.06-4.53-15.21-5.03
				c-4.15-0.5-18.86,5.53-18.86,5.53l1.26-5.56c0,0-4.53-4.12-10.69-3.74c-6.16,0.38-12.7,5.53-12.7,5.53s-4.02,21.62,0,27.66
				c4.02,6.03,12.57,12.7,12.82,16.97c0.25,4.27-4.78,7.04-7.92,5.41s-17.1-15.59-18.35-24.64c-1.26-9.05-0.88-15.84-1.01-16.22
				s-4.02-5.03-10.31-4.15c-6.29,0.88-14.21,7.17-14.21,7.17s8.05,20.87,11.57,23.76s13.95,11.44,12.7,14.58
				c-1.26,3.14-9.18,0.63-13.58-5.78c-4.4-6.41-12.32-26.65-12.95-26.53c-0.63,0.13-7.79,1.13-11.82,5.53
				c-4.02,4.4-7.29,5.91-6.03,8.55c1.26,2.64,3.14,10.94,12.7,15.21c9.55,4.27,26.65,14.21,25.27,17.6s-7.67,2.51-10.31-0.25
				c-2.64-2.77-19.49-18.61-24.64-19.86c-5.15-1.26-17.73,1.26-18.35,4.53c-0.63,3.27,1.01,5.03,8.3,8.05
				c7.29,3.02,37.08,15.21,34.32,18.86c-2.77,3.65-4.78,4.4-12.32,1.38c-7.54-3.02-31.18-18.98-31.18-18.98s-4.65,18.48,8.93,31.55
				c13.58,13.07,34.7,18.1,43.24,15.84c8.55-2.26,26.65-3.52,26.65-3.52s18.35,17.35,26.4,14.33c8.05-3.02,9.3-7.79,17.85-10.31
				c8.55-2.51,16.59-4.02,20.37-4.02c3.77,0,11.06-6.03,11.57-7.04c0.5-1.01-11.57-1.51-17.35-3.02s-12.07-2.26-6.79-4.53
				c5.28-2.26,31.18-3.52,32.43-5.53c1.26-2.01,3.52-8.8,4.78-13.33c1.26-4.53,1.76-6.54,1.76-6.54s-14.83,5.03-20.11,6.29
				c-5.28,1.26-20.87,7.04-30.93,4.53c-10.06-2.51-2.51-5.53,1.01-6.29c3.52-0.75,24.89-2.77,35.45-6.54
				c10.56-3.77,19.86-8.05,19.86-9.05c0-1.01,0-9.05,0-9.05S468.27,152.52,460.98,157.3z M386.31,179.05c0,1.76-7.54,0.63-13.7-2.51
				c-6.16-3.14-1.26-6.54,1.76-7.29c3.02-0.75,7.54,3.39,10.31,4.78C387.44,175.4,386.31,177.29,386.31,179.05z M405.29,136.3
				c-0.5,3.02-7.54,1.51-9.81-3.14c-2.26-4.65,2.01-12.82,2.64-13.45c0,0,1.13,4.15,1.94,6.54
				C400.87,128.64,405.79,133.29,405.29,136.3z"/>
		</g>
		<g id="_x33__612_">
			<path id="_x31__1444_" class="st20" d="M444.03,244.27c-7.18,2.63-14.1,6.2-20.61,10.28c-6.51,4.11-12.63,8.86-18.15,14.27
				c-5.52,5.4-10.42,11.46-14.54,18.03l-1.51,2.48c-0.51,0.82-1.02,1.65-1.46,2.55l-0.68,1.32l-0.61,1.34l-0.61,1.34l-0.55,1.35
				c-1.45,3.61-2.68,7.27-3.75,10.96c-4.26,14.75-6.99,29.76-9.44,44.77c-2.41,15.02-4.37,30.1-6.12,45.19
				c-3.47,30.19-6.09,60.44-8.32,90.72c-1.56,21.51-2.92,93.27-4.07,139.11c2.53-0.22,4.99-0.48,7.36-0.75
				c0.88-45.76,1.97-116.66,3.26-137.92c1.86-30.24,4.11-60.45,7.21-90.57c1.56-15.05,3.33-30.08,5.54-45.03
				c2.25-14.93,4.79-29.86,8.78-44.31c1-3.61,2.15-7.16,3.49-10.6l0.5-1.29l0.55-1.26l0.55-1.26l0.61-1.21
				c0.38-0.81,0.86-1.61,1.34-2.4l1.42-2.39c3.86-6.32,8.48-12.19,13.74-17.46c5.25-5.27,11.12-9.95,17.38-14
				c6.29-4.04,12.88-7.55,19.91-10.22L444.03,244.27z"/>
			<path id="_x32__1420_" class="st21" d="M545.38,298.93c-3.77-3.27-10.81-7.79-8.3-10.81c2.51-3.02,11.19,8.67,15.46,12.45
				c4.27,3.77,19.11,16.47,19.11,16.47s-0.5-6.91-3.14-15.46c-2.64-8.55-15.59-22.5-15.59-22.5s-2.7-12.95-4.97-16.53
				c-2.26-3.58-11.69-7.17-22.99-6.79c-11.29,0.38-37.17,2.07-37.92-1.51c-0.75-3.58,7.17-10.37,16.97-12.26
				c9.81-1.89,21.5,10.56,20.93,7.54c-0.57-3.02-5.66-14.52-12.07-19.23c-6.41-4.71-13.2-3.02-13.2-3.02s-2.45-5.28-6.22-9.24
				c-3.77-3.96-12.07-7.35-21.68-6.22c-9.62,1.13-10.18,14.9-14.33,19.42c-4.15,4.53-6.6,1.7-6.41-4.34
				c0.19-6.03,11.31-12.07,12.07-12.07s-2.26-6.41-5.28-11.5c-3.02-5.09-15.09-9.62-15.09-9.62s-1.7,11.69-2.45,15.09
				s-3.58,18.48-8.11,15.27c-4.53-3.21,3.02-27.72,3.02-27.72s-6.98-0.19-14.14,2.07c-7.17,2.26-13.01,8.3-17.54,20.18
				c-4.53,11.88,22.06,33.56,22.63,35.64c0,0-7.35-3.71-10.25-1.7c-2.89,2.01-0.75,12.82,0.75,15.21
				c1.51,2.39,16.85,7.92,19.99,10.69c3.14,2.77,6.79,11.57,10.81,17.35c4.02,5.78,10.94,12.57,13.83,12.19
				c2.89-0.38-3.39-7.17-5.91-12.45c-2.51-5.28-6.29-19.61-4.78-22.5c1.51-2.89,6.03,7.29,8.05,12.19
				c2.01,4.9,18.98,20.11,20.37,22.38c1.38,2.26,6.29,0.63,8.93,2.96c2.64,2.34,17.1,6.21,17.1,6.21s-5.03-8.55-8.05-13.07
				c-3.02-4.53-15.84-13.58-19.61-16.97c-3.77-3.39-2.77-8.3,1.89-9.68c4.65-1.38,19.11,21.12,22,24.26
				c2.89,3.14,12.82,17.47,15.34,20.24c2.51,2.77,17.47,7.79,17.47,7.79s-7.42-9.3-11.31-13.83s0.63-7.54,1.63-6.91
				c1.01,0.63,13.58,19.36,14.96,20.74c1.38,1.38,12.07,0.38,12.32-0.88c0.25-1.26-19.74-26.53-27.28-32.06
				c-7.54-5.53-10.18-11.69-7.29-13.95c2.89-2.26,15.97,14.96,19.36,19.86c3.39,4.9,22.13,24.26,22.5,24.64
				c0.38,0.38,6.54-1.76,6.54-1.76s1.76-4.02,0.88-6.66C565.49,315.9,549.15,302.2,545.38,298.93z M465.55,259.08
				c-1.76,1.38-6.03-1.63-6.41-6.03c-0.38-4.4,2.95-5.59,5.03-4.9c2.07,0.69,4.02,3.77,5.1,5.64
				C470.36,255.64,467.31,257.69,465.55,259.08z M475.49,239.47c-3.02,3.02-6.03-1.76-3.52-7.42c2.51-5.66,17.22-4.27,17.6-4.27
				C489.57,227.78,478.5,236.45,475.49,239.47z M536.08,272.03c-4.4-3.02-16.59-2.51-20.62-4.15c-4.02-1.63-2.01-4.02,2.51-4.02
				c4.53,0,9.68,1.01,14.33,2.89c4.65,1.89,10.81,10.94,10.81,10.94S540.48,275.04,536.08,272.03z"/>
		</g>
		<g id="_x34__238_">
			<path id="_x31__1442_" class="st17" d="M349.97,628.28c8.32-66.07,24.17-201.47,33.01-214.24
				c11.86-17.13,37.52-31.17,48.01-36.42l-1.84-3.68c-10.77,5.38-37.15,19.84-49.55,37.75c-9.42,13.62-25.58,150.74-33.88,216.88
				C347.15,628.49,348.57,628.39,349.97,628.28z"/>
			<path id="_x32__1419_" class="st22" d="M554.89,336.68c-5.24-0.48-32.98-1.83-30.03-4.8c2.95-2.97,22.85-2.81,26.85-1.74
				c4,1.06,12.53-3.97,12.53-3.97s-2.72-3.76-8.29-8.57c-5.57-4.82-22.94-12.02-25.68-13.23c-2.75-1.2-24.48,14.6-27.31,15.96
				c-2.83,1.36-3.95-0.75-1.98-4.26c1.97-3.51,28.77-12.51,26.5-14.68c-2.27-2.17-18.09-7.76-22.28-6.49
				c-4.19,1.26-9.29,10.32-12.44,12.65c-3.15,2.33-13.67,14.48-16.47,20.1c-2.8,5.62-7.41,14.21-11.22,11.97
				c-3.81-2.24-0.12-19.09,2.97-25.08c3.09-5.99,27.61-19.58,27.61-19.58s-2.34-2.23-10.43-5.29c-8.08-3.06-13.67-1-14.92-0.47
				c-1.25,0.52-6.75,5.44-11.91,13.17c-5.16,7.73-6.1,14.38-7.12,20.6c-1.01,6.22-1.51,10.57-4.11,9.09
				c-2.6-1.48-1.47-9.31-0.26-15.12c1.21-5.8,16.93-24.06,16.93-24.06s-19.27,0.18-23.03,1.75c-3.75,1.57-7.4,8.86-9.16,14.38
				s4.14,30.6,2.63,32.63s-6.43-0.34-8.59-7.69c-2.17-7.35,4.86-25.45,4.86-25.45s-5.95-2.84-13.75-3.41
				c-7.8-0.56-12.38,5.67-12.62,5.77c-0.24,0.1,0.39,5.48,2.45,14.88c2.06,9.41,10.2,18.64,9.17,20.09
				c-1.04,1.44-4.14,1.57-9.74-4.58c-5.6-6.15-5.52-25.02-5.52-25.02s-17.38,25.6-16.52,45.91c0.86,20.31,43.93,16.08,45.97,16.89
				c0,0-17.53,7.28-19.15,10.22c-1.62,2.94,6.14,15.23,10.6,17.94c4.46,2.71,8.03-2.28,17.09-4.15c9.06-1.87,19.27,7.91,27.7,6.91
				c8.43-1.01,14.43-5.24,14.43-5.24s-17.19-5.77-20.66-7.11c-3.47-1.34-11.83-7.99-9.58-12.95s30.75,15,33.94,15.82
				c3.19,0.81,6.09-4.82,8.38-7.11c2.3-2.29,16.33-9.95,16.33-9.95s-19.16-1.43-27.61-4.05c-8.46-2.62-7.77-7.7,2.62-7.31
				c10.38,0.39,25.8,9.32,26.58,9.38c0.77,0.06,10.36-2.09,13.21-4.47c2.86-2.38,5.91-8.23,5.91-8.23s10.3-2.46,15.14-4.4
				c4.84-1.94,6.74-7.8,6.74-7.8s-20.7-5-24.82-4.51c-4.12,0.49-29.47-3.75-28.19-7.59c1.28-3.84,32.92,0.31,37.32,2.65
				c4.4,2.33,18.63,2.86,18.63,2.86s1.18-2.11,3.76-6.16c2.58-4.06,5.26-8.7,5.26-8.7S560.13,337.15,554.89,336.68z M455.32,354.02
				c-0.29,5.21-4.53,2.66-10.36,0.94c-5.82-1.72-0.64-12.03,2.63-11.9C450.86,343.19,455.61,348.82,455.32,354.02z"/>
		</g>
		<g id="_x35__120_">
			<path id="_x31__1440_" class="st20" d="M265.6,457.68l4.43,43.58l1.2,10.91c0.44,3.64,0.85,7.27,1.33,10.91
				c0.5,3.64,0.95,7.27,1.55,10.91c0.35,2.41,4.74,56.62,7.92,93.58c2.81,0.29,5.72,0.55,8.72,0.77
				c-4.35-37.25-10.79-92.88-11.18-95.26c-0.66-3.55-1.18-7.15-1.74-10.74c-0.55-3.59-1.03-7.2-1.54-10.8l-1.41-10.84
				c-3.67-28.93-6.42-58.02-10.79-86.97c-2.19-14.48-4.82-28.87-7.91-43.18c-3.07-14.3-6.47-28.55-10.53-42.62
				c-2.03-7.03-4.15-14.05-6.58-20.98c-0.58-1.74-1.23-3.46-1.87-5.18c-0.62-1.73-1.3-3.44-1.99-5.15
				c-0.35-0.85-0.68-1.71-1.04-2.56l-1.12-2.54c-0.73-1.68-1.53-3.42-2.48-5.06c-3.69-6.65-9.22-12.21-15.57-16.3
				c-3.18-2.04-6.55-3.78-10.06-5.16c-1.75-0.7-3.54-1.31-5.35-1.84c-1.84-0.52-3.61-0.98-5.62-1.3l-0.53,4.08
				c1.6,0.22,3.39,0.63,5.06,1.08c1.7,0.46,3.38,1.01,5.03,1.63c3.3,1.23,6.49,2.79,9.47,4.65c5.95,3.74,11.08,8.79,14.55,14.88
				c0.9,1.51,1.63,3.08,2.37,4.75l1.1,2.47c0.36,0.83,0.69,1.67,1.03,2.51c0.69,1.67,1.37,3.35,1.99,5.05
				c0.63,1.7,1.29,3.39,1.87,5.11c2.43,6.84,4.6,13.78,6.6,20.77c7.97,27.99,13.79,56.62,17.97,85.43
				C262.55,428.67,264.09,443.17,265.6,457.68z"/>
			<path id="_x32__1418_" class="st21" d="M228.04,263.02c1.51-0.63,14.96-8.55,13.7-9.93c-1.26-1.38-11.44-15.97-18.35-15.46
				c-6.91,0.5-27.91,21.5-29.42,20.87c-1.51-0.63-2.39-0.75-2.01-3.39c0.38-2.64,19.36-34.7,16.34-41.23
				c-3.02-6.54-21.87-11.06-21.87-11.06s-22.88-7.54-32.68-8.8s-18.35,2.01-18.35,2.01s15.21-1.51,22,6.29s13.45,15.46,9.05,17.6
				c-4.4,2.14-11.94-12.45-15.21-14.96c-3.27-2.51-18.61-9.18-22.75-8.93s-15.71,6.41-20.24,11.57c-4.53,5.15-4.53,9.55-4.53,9.55
				s-9.99-2.04-17.63,1.26s-18.2,21.78-18.2,21.78s-6.51-0.66-10.28,3.87s-6.41,25.64-6.41,25.64s30.45-19.42,45.35-18.95
				c14.9,0.47,33.75,9.81,32.34,12.26s-17.25-3.49-37.34,2.26c-20.08,5.75-43.4,6.82-45.92,9.71c-2.51,2.89-4.15,11.44-3.9,15.46
				s2.26,9.68,2.26,9.68s29.54-17.35,35.45-20.49c5.91-3.14,25.14-9.18,25.77-4.02s-5.41,5.03-14.71,6.79
				c-9.3,1.76-23.84,7.34-33.31,11.44c-9.48,4.1-13.33,10.94-13.33,10.94s-2.01,14.46,0.13,19.74c2.14,5.28,7.67,13.7,7.67,13.7
				s11.19-6.41,11.82-6.41c0.63,0,6.41,1.26,6.41,1.26s24.89-35.95,28.66-33.31c3.77,2.64-5.91,16.59-11.06,20.99
				s-13.58,25.27-13.58,25.27s8.17-3.9,13.33-4.53c5.15-0.63,8.67-0.25,8.67-0.25s20.74-27.53,23.38-36.46
				c2.64-8.93,3.39-19.86,7.67-22.5c4.27-2.64,6.16,6.03,3.27,10.06s-18.35,33.06-20.99,44.38c-2.64,11.31-2.64,15.34-2.39,15.71
				c0.25,0.38,2.01-10.43,11.44-14.33c9.43-3.9,15.84-16.22,18.35-21.37c2.51-5.15,11.69-31.55,14.33-37.08
				c2.64-5.53,6.91,0.25,3.65,7.42c-3.27,7.17-12.19,28.91-15.09,35.58c-2.89,6.66-5.66,17.47-5.66,17.47s10.81-12.82,16.47-14.96
				c5.66-2.14,9.81-1.01,12.82-4.53c3.02-3.52,7.29-36.08,9.81-44.38c2.51-8.3,7.67-4.53,7.67-1.51c0,3.02,0.88,20.62-3.27,27.15
				c-4.15,6.54-8.05,20.62-7.92,20.99c0.13,0.38,19.86-14.96,23.38-16.85c3.52-1.89,8.42-1.63,8.93-6.29
				c0.5-4.65-5.03-28.91-4.27-31.05c0.75-2.14,4.53-2.01,6.54,0.5c2.01,2.51,7.7,29.42,8.5,29.16c0.8-0.25,14.13-6.16,15.51-11.31
				C229.42,281.88,226.53,263.65,228.04,263.02z M132.09,245.92c-3.87,1.32-12.16-3.21-16.12-5.09c-3.96-1.89-27.34-6.98-27.34-6.98
				c1.13,0,22.41-4.81,36.2,0.94C130.96,237.25,135.96,244.6,132.09,245.92z M150.1,237.25c-3.39-0.38-6.79-6.03-8.96-7.45
				c0,0-3.36-3.83-3.8-6.35c-0.44-2.51,5.91-0.47,6.25-0.44c3.89,0.35,7.54,6.88,9.71,8.96
				C155.47,234.05,153.49,237.63,150.1,237.25z"/>
		</g>
		<g id="_x36__49_">
			<path id="_x31__1438_" class="st17" d="M266.22,465.08l1.59,3.69l1.47,3.83c1,2.54,1.89,5.15,2.82,7.74
				c0.94,2.58,1.79,5.21,2.68,7.82c3.51,10.46,6.85,21,10.11,31.57c3.26,10.57,6.45,21.16,9.6,31.77
				c1.43,4.87,2.85,46.62,4.26,77.36c2.35,0.12,4.75,0.22,7.18,0.3c-1.67-31.25-3.35-74.26-5.05-79.61
				c-3.32-10.58-6.69-21.14-10.12-31.68c-3.44-10.54-6.96-21.06-10.65-31.54c-0.94-2.62-1.84-5.24-2.83-7.85
				c-0.98-2.61-1.92-5.22-2.99-7.82l-1.57-3.9l-1.76-3.91c-1.23-2.57-2.56-5.07-3.98-7.51c-5.65-9.76-12.18-18.82-18.93-27.67
				c-6.78-8.83-13.86-17.41-21.13-25.81l-5.5-6.26c-0.9-1.02-1.89-2.13-2.94-3.15c-1.05-1.02-2.14-1.98-3.27-2.89
				c-4.53-3.63-9.59-6.4-14.8-8.65c-5.23-2.24-10.65-3.94-16.2-5.14c-2.77-0.6-5.58-1.06-8.44-1.34c-1.43-0.13-2.88-0.22-4.38-0.19
				c-0.75,0.02-1.51,0.05-2.34,0.17c-0.42,0.07-0.84,0.14-1.34,0.3c-0.12,0.03-0.25,0.08-0.39,0.14c-0.13,0.05-0.27,0.11-0.44,0.2
				c-0.28,0.15-0.7,0.41-1.08,0.9l3.29,2.47c-0.15,0.22-0.3,0.27-0.27,0.26c-0.01,0,0,0,0.04-0.01c0.02-0.01,0.05-0.02,0.1-0.03
				c0.16-0.05,0.42-0.11,0.69-0.14c0.55-0.08,1.17-0.11,1.8-0.12c1.27-0.02,2.59,0.06,3.91,0.19c2.65,0.26,5.31,0.72,7.95,1.29
				c5.27,1.16,10.46,2.81,15.4,4.95c4.93,2.15,9.63,4.83,13.73,8.16c1.02,0.84,2,1.71,2.93,2.64c0.93,0.92,1.77,1.88,2.7,2.95
				l5.4,6.27c7.14,8.41,14.09,16.99,20.71,25.79c6.59,8.81,12.95,17.82,18.31,27.29C263.84,460.24,265.09,462.64,266.22,465.08z"/>
			<path id="_x32__1416_" class="st23" d="M202.25,372.29c-2.53-6.54-7.81-9.28-6.54-13.29c1.27-4.01,4.85-8.86-0.42-12.66
				c-5.27-3.8-13.08,0.21-17.51,7.38c-4.43,7.17-8.65,25.32-8.65,25.32s1.27-45.36-6.96-48.31c-8.23-2.95-18.99,4.22-18.99,4.22
				s-33.96,9.92-38.82,13.92c-4.85,4.01-6.12,5.4-5.49,5.66c0.63,0.25-3.16,1.52-8.44,2.36c-5.27,0.84-8.86,31.86-8.86,31.86
				s-14.35,5.06-18.99,14.13c-4.64,9.07-2.95,22.78-2.95,22.78s-9.92,5.7-9.92,17.3c0,11.6,5.27,20.46,5.27,20.46
				s17.95-30.35,30.03-39.17c12.52-9.14,19.76-7.03,15.33-0.28c-4.43,6.75-20.25,17.09-27,24.68c-6.75,7.59-21.94,18.78-21.1,23.84
				c0.84,5.06,8.44,18.35,8.44,18.35s15.19-28.06,20.46-33.75c5.27-5.7,10.13-1.9,8.86-0.42c-1.27,1.48-27.42,37.55-27.42,37.55
				s4.01,10.8,11.6,19.22c7.59,8.42,7.59,8.42,7.59,8.42s15.82-28.06,15.61-33.75c-0.21-5.7-0.42-27.64,4.01-25.32
				c4.43,2.32-1.48,26.68-0.42,34.96s2.32,15.69,2.32,15.69l9.49-14.37c0,0,6.12-45.57,5.91-57.38
				c-0.21-11.81,0.63-15.61,2.95-14.35s1.05,44.51,1.27,50.42s7.59,22.57,7.59,22.57s-3.8-14.13,0.21-21.31
				c4.01-7.17,8.65-33.12,8.02-37.76c-0.63-4.64-6.12-28.27-2.95-28.69c3.16-0.42,8.86,21.52,8.65,28.69
				c-0.21,7.17-4.64,28.9-1.9,33.54c2.74,4.64,4.43,5.49,4.43,5.49s-2.11-12.87,2.32-20.67c4.43-7.81,6.96-8.23,8.86-13.71
				c1.9-5.49,5.06-13.08,5.06-13.08s9.28-9.7,13.5-13.5c4.22-3.8,7.17-9.07,7.17-9.07s3.16-7.81-4.64-17.51s-8.44-11.6-7.59-11.39
				c0.84,0.21,15.19,4.01,18.99,12.02c3.8,8.02,4.85,11.81,4.85,11.81S204.78,378.83,202.25,372.29z M111.32,383.68
				c-6.12,1.69-19.83,4.85-19.83,4.85c1.05-0.63,21.73-20.04,28.06-13.5C125.88,381.57,117.44,381.99,111.32,383.68z M126.2,400.54
				c-6,0.19-2.86-5.04-2.86-5.04s2.11-0.84,2.86-1.41c0.75-0.57,8.33-1.12,11.7,1.41C141.28,398.03,132.21,400.35,126.2,400.54z
				 M152.25,403.93c-0.42-9.28,0.42-11.39,3.8-8.86c3.38,2.53,3.8,30.87,3.8,30.87S152.67,413.22,152.25,403.93z"/>
		</g>
		<g id="_x37__25_">
			<path id="_x31__1432_" class="st20" d="M302.12,369.42c0.39,1.41,0.84,2.81,1.17,4.23l0.99,4.25c0.19,0.71,0.28,1.42,0.4,2.13
				l0.34,2.13c0.1,0.71,0.27,1.41,0.31,2.14l0.17,2.16c0.12,1.44,0.25,2.88,0.25,4.35l0.11,4.38l-0.05,4.41l-0.03,2.2l-0.08,2.21
				c-0.39,11.79-1.43,23.6-2.38,35.42c-0.97,11.83-1.98,23.67-2.58,35.58c-0.25,5.96-0.49,11.93-0.36,17.95
				c0.04,1.51,0.02,3,0.12,4.52l0.29,4.54c0.08,1.52,0.3,3,0.45,4.5c0.15,1.5,0.32,2.99,0.55,4.47l0.62,4.46l0.72,4.43
				c0.47,2.96,1.02,5.89,1.55,8.83c0.58,2.93,1.12,5.87,1.75,8.78c0.58,2.93,1.21,5.84,1.85,8.76c1.36,6.18,2.77,50.98,4.24,83.03
				c2.41,0.04,4.85,0.06,7.3,0.06c-1.98-32.4-3.83-77.98-5.54-84.54c-2.97-11.42-5.61-22.95-7.39-34.55
				c-0.25-1.45-0.44-2.9-0.61-4.35c-0.16-1.45-0.42-2.9-0.51-4.35l-0.33-4.34c-0.11-1.45-0.1-2.92-0.16-4.38
				c-0.19-5.84-0.02-11.74,0.16-17.64c0.46-11.8,1.34-23.62,2.19-35.45c0.85-11.84,1.69-23.7,2.09-35.63l0.08-2.24l0.02-2.25
				l0.04-4.49l-0.13-4.51c-0.01-1.5-0.15-3.02-0.28-4.53l-0.19-2.27c-0.04-0.76-0.22-1.51-0.33-2.26l-0.37-2.26
				c-0.13-0.75-0.23-1.51-0.43-2.24l-1.04-4.41c-0.35-1.47-0.81-2.89-1.21-4.34c-0.78-2.91-1.79-5.72-2.71-8.57
				c-0.99-2.82-1.99-5.64-3.05-8.43c-1.08-2.78-2.11-5.58-3.25-8.33l-1.68-4.14l-1.74-4.11c-2.33-5.48-4.75-10.92-7.26-16.32
				c-2.51-5.4-5.04-10.77-7.72-16.12l-3.66,1.87c5.35,10.51,10.39,21.25,15.05,32.1C294.49,347.15,298.89,358.15,302.12,369.42z"/>
			<path id="_x32__1415_" class="st19" d="M381.75,303.83c0,0-0.43-13.8-2.44-19.26c-2.01-5.46-12.65-7.48-12.65-7.48
				s-3.59-4.89-6.76-7.62s-23.72-2.01-28.75,0c-5.03,2.01-12.08,20.27-11.79,26.31c0.29,6.04-0.72,8.77-3.59,8.91
				c0,0-2.59-0.14-4.03-1.87c-1.44-1.73-2.01-11.64-5.18-18.4c-3.16-6.76-18.4-17.68-25.45-18.26c-7.04-0.57-14.28,6.33-14.28,6.33
				s-11.45,0.43-18.93,2.16c-7.48,1.73-14.58,11.07-14.58,11.07s23.34-4.31,29.96-1.87c6.61,2.44,8.91,6.18,4.46,7.76
				c-4.46,1.58-31.34-4.03-41.11-3.16c-9.78,0.86-18.4,11.93-19.98,21.42c-1.58,9.49,3.88,40.83,3.88,40.83s7.62-8.63,13.8-15.38
				c6.18-6.76,18.98-13.23,26.02-14.95c7.04-1.73,19.26-2.16,19.55,1.44s-19.26,5.03-33.06,8.91c-13.8,3.88-27.03,25.43-27.03,25.43
				l12.51,24.17c0,0,23.14-37.1,31.05-44.14c7.91-7.04,22.14-5.75,25.45-6.18c3.31-0.43,5.03-0.72,5.75,2.88
				c0.72,3.59-15.96,12.08-27.17,19.26c-11.21,7.19-20.7,28.19-20.7,28.19s15.38,15.23,16.24,16.67c0.86,1.44,0,6.04,0,6.04
				s12.79-0.29,18.98,1.29c6.18,1.58,18.4,11.07,21.28,9.78c2.88-1.29,12.51-15.09,13.37-15.24c0.86-0.14,11.21,5.03,14.66,4.31
				c3.45-0.72,10.78-12.94,17.97-14.66s7.19,5.18,7.19,5.18s0.86-6.61,2.73-13.36c1.87-6.75,12.37-9.79,12.37-9.79
				s3.3-12.22,5.31-19.12s9.82-9.49,9.82-9.49s-9.25-8.63-6.81-10.93c2.44-2.3,7.48,8.91,8.05,9.63c0.58,0.72,6.9-24.58,7.76-28.61
				C386.49,307.99,381.75,303.83,381.75,303.83z M261.99,307.28c-4.1,0.43-16.82,1.51-17.9,1.29c-1.08-0.22-0.86-3.88,2.16-6.25
				c3.02-2.37,16.39-0.65,17.68,0C263.94,302.32,266.09,306.84,261.99,307.28z M282.16,352.67c-0.65,0.65-21.89,25.23-21.89,25.23
				c1.62-3.67,11.11-29.76,17.9-30.51S282.8,352.02,282.16,352.67z M314.39,340.81c-4.96-3.02-7.12-4.2-7.12-6.68
				s7.12-3.67,9.6-1.29c2.48,2.37,9.6,22.86,9.6,22.86C325.82,354.93,319.35,343.83,314.39,340.81z M334.66,377.9
				c-3.02-2.05-2.16-9.16-2.16-9.16s6.47,7.12,6.68,7.76C339.41,377.14,337.68,379.95,334.66,377.9z M353.57,301.09
				c-6.76-1.15-12.08-4.6-12.08-4.6c0.29-0.43-1.44-6.04,8.34-3.16c9.78,2.88,22.71,12.36,22.71,12.36S360.33,302.24,353.57,301.09z
				"/>
		</g>
		<path id="_x32__1410_" class="st18" d="M381.67,446.25c14.53,3.33,44.94,31.29,44.94,31.29s-3.93-29.07-3.98-28.66
			c-0.05,0.41-14.04-7.26-19.99-10.27c-5.95-3.02-38.55-6.45-41.3-9.72c-2.76-3.27,4.98-3.63,20.09-2.43
			c15.11,1.2,38.44,14.84,38.44,14.84s-5.54-26.91-9.94-29.98c-4.4-3.07-37.58,2.95-42.67,2.56c-5.09-0.39-6.28-4.23,2.53-8.18
			c8.81-3.95,32.52,0.86,32.42,0.5c-0.1-0.36-9.56-12.97-18.19-19.93c-8.64-6.96-15.41-4.12-17.6-4.94
			c-2.19-0.82-2.81-2.99-9.4-5.04c-6.59-2.05-24.58,11.93-24.58,11.93c-10.24,8.13-2.1,38.1-2.1,38.1s-21.24-24.45-38.41-27.62
			c-17.17-3.17-33.8,26.54-37.82,36.3c-4.03,9.77-1.88,17.78-1.88,17.78s15.01-18.5,22.65-21.97c7.64-3.47,14.71-0.64,12.53,4.55
			s-27.92,14.45-29.23,15.34c-1.31,0.9-11.72,7.51-9.93,19.8c1.79,12.3,14.86,22.44,14.86,22.44s11.03-17.76,13.41-23.66
			c2.38-5.9,12.73-18.24,17.95-21.03c5.22-2.79,8.48-2.8,10.43,1.75c1.94,4.55-16.45,13.42-23.59,20.02
			c-7.14,6.6-18.11,26.44-18.1,26.95c0.02,0.52,9.7,12.54,9.7,12.54s14.53,15.74,14.9,16.16c0.38,0.42,22.13,13.98,22.13,13.98
			s0.12-35.97,3.81-47.86c3.68-11.89,19.44-24.98,23.23-20.83c3.79,4.15-6.68,14.7-11.33,25.03c-4.65,10.33,1.69,46.95,1.69,46.95
			s17.05,3.01,19.81,3.53c2.76,0.52,4.41,6.33,4.41,6.33s8.53-2.16,17.86-3.37c9.33-1.21,23.15,1.93,23.15,1.93
			s-1.81-2.23,1.24-8.98c3.05-6.75,11.17-14.53,11.18-14.93c0.02-0.4-21.54-23.42-21.54-23.42s-4.78-9.49,1.91-5.25
			c6.69,4.24,24.35,32.43,24.35,32.43s9.2-17.77,9.31-21.07c0.11-3.3-7.87-12.53-7.87-12.53s11.14,7.95,11.6,8.21
			c0.47,0.26,3.05-22.42,3.05-22.42s-7.34-8.37-16.32-16.54c-8.98-8.17-37.35-16.06-43.09-20.19
			C360.63,442.55,367.14,442.92,381.67,446.25z M306.51,474.03c-2.73,3.52-15.66,26.49-18.08,24.73
			c-2.41-1.77,10.92-35.44,18.07-33.74C313.65,466.72,309.23,470.51,306.51,474.03z M350.83,498.77l-4.2,27.59
			c-0.24-0.85-9.21-33.06-2.47-35.5C350.9,488.43,350.83,498.77,350.83,498.77z M398.7,485.59c0,0-18.98-9.78-23.5-11.89
			c-4.52-2.12-17.9-5.51-10.34-10.66S398.45,485.14,398.7,485.59z"/>
	</g>
</g>
</svg>
