<?xml version="1.0" encoding="utf-8"?>
<!-- Generator: Adobe Illustrator 25.2.0, SVG Export Plug-In . SVG Version: 6.00 Build 0)  -->
<svg version="1.1" id="ILLUSTRATION" xmlns="http://www.w3.org/2000/svg" xmlns:xlink="http://www.w3.org/1999/xlink" x="0px"
	 y="0px" viewBox="0 0 595.28 841.89" style="enable-background:new 0 0 595.28 841.89;" xml:space="preserve">
<style type="text/css">
	.st0{fill:#EAA757;}
	.st1{fill:#E5E4E4;}
	.st2{fill:#DB953A;}
	.st3{fill:#B0867D;}
	.st4{fill:#CF9B88;}
	.st5{fill:#EEC0B2;}
	.st6{fill:#ADA850;}
	.st7{fill:#77823E;}
	.st8{fill:#5E6D39;}
	.st9{fill:#4B5B26;}
	.st10{fill:#68831E;}
	.st11{fill:#A6AA56;}
	.st12{fill:#626F2A;}
	.st13{fill:#979F50;}
	.st14{fill:#A8886D;}
	.st15{fill:#D0A98A;}
	.st16{fill:#E9CCB9;}
	.st17{fill:#B1BCA0;}
	.st18{fill:#487C4E;}
	.st19{fill:#95BC8B;}
	.st20{fill:#8C9678;}
	.st21{fill:#3C6841;}
	.st22{fill:#608858;}
	.st23{fill:#6E9865;}
	.st24{fill:#232323;}
	.st25{fill:#565656;}
	.st26{fill:#0F0F0F;}
	.st27{fill:#EAE9E8;}
	.st28{fill:#3B383D;}
	.st29{fill:#474747;}
	.st30{fill:#636363;}
	.st31{fill:#E0D4D2;}
	.st32{fill:#CCC2C0;}
	.st33{fill:#D7B0B1;}
	.st34{fill:#BC9280;}
	.st35{fill:#E7D3C1;}
	.st36{fill:#E0AA96;}
	.st37{fill:#CECAC8;}
	.st38{fill:#F1B8A0;}
	.st39{fill:#E4DCD8;}
	.st40{fill:#8E5E48;}
	.st41{fill:#8C7369;}
	.st42{fill:#C1A395;}
	.st43{fill:#9B8379;}
	.st44{fill:#E0E0E0;}
	.st45{fill:#77615A;}
	.st46{fill:#FFFFFF;}
	.st47{fill:#B1816E;}
	.st48{fill:#DDDAD7;}
	.st49{fill:#0A0A0A;}
	.st50{fill:#6D443C;}
	.st51{fill:#825044;}
	.st52{fill:#282828;}
	.st53{fill:#D3A190;}
	.st54{fill:#1B1E1F;}
	.st55{fill:#E5E2E1;}
	.st56{fill:#9E7364;}
	.st57{fill:#D3D3D3;}
	.st58{fill:#0F0A11;}
	.st59{fill:#7F5150;}
	.st60{opacity:0.72;fill:#1C1C1E;}
	.st61{fill:#B1ABA3;}
	.st62{fill:#C1BDB9;}
	.st63{fill:#7E6D57;}
	.st64{fill:#68543E;}
	.st65{fill:#7F5E39;}
	.st66{fill:#6D4E2F;}
	.st67{fill:#938270;}
</style>
<g id="_x31__18_">
	<g id="_x31__1351_">
		<g id="_x31__1352_">
			<path id="_x31__1353_" class="st57" d="M302.01,755.58c0,0.9,1.96,8.59,1.96,8.59l1.21,6.78c0,0-12.66,6.78-14.02,9.19
				c-1.36,2.41-2.11,14.47-10.25,17.48c-8.14,3.01-33.46,1.36-35.12,0c-1.66-1.36-3.62-11.3,1.51-18.24
				c5.12-6.93,15.37-17.48,15.37-17.48s1.37-8.64,2.11-8.74c0.74-0.1,25.32-10.1,26.53-9.5S302.01,755.58,302.01,755.58z"/>
			<path id="_x32__1337_" class="st57" d="M421.23,767.49c0.75,2.86,3.92,8.44,3.92,8.44s8.89,17.41,8.74,23.4
				s-1.06,20.61-8.89,23.48c-7.84,2.86-25.47,3.62-29.99,0c-4.52-3.62-5.28-24.57-4.97-25.02c0.3-0.45-0.45-17.63-0.45-17.63
				l4.37-13.72L421.23,767.49z"/>
		</g>
		<path id="_x32__1336_" class="st58" d="M356.12,413.98l30.75,114.16l6.63,42.81l29.84,146.5l-4.22,24.42
			c0,0,15.68,13.26,12.66,20.2c-3.01,6.93-6.63,13.87-6.63,13.87s-17.48-5.73-22.01-4.22c-4.52,1.51-13.57,8.44-13.57,8.44
			s-12.66-13.87-13.57-14.17c-0.9-0.3-9.95-11.76-9.34-13.87c0.6-2.11,8.14-10.25,8.14-16.28c0-6.03-12.36-66.92-12.36-66.92
			s-14.77-60.29-15.37-62.7c-0.6-2.41-31.35-77.47-31.35-77.47s-24.97-53.05-27.41-50.94c-2.44,2.11-4.56,76.27-4.25,88.32
			c0.31,12.06,0.84,33.46-0.03,37.08s-1.47,6.63-1.47,6.63s7.54,21.1,8.74,27.13c1.21,6.03,1.81,26.23,1.81,26.23
			s10.25,57.88,10.55,62.1c0.3,4.22,0,10.55,0,10.55s7.84,9.95,6.63,14.47c-1.21,4.52-6.33,13.87-6.33,13.87s-10.4-9.19-17.33-11.15
			c-6.93-1.96-21.85,0.15-21.85,0.15s0.9-3.01,0.75-4.22c-0.15-1.21-3.01-4.52-2.26-7.84c0.75-3.32,7.54-9.8,6.48-9.95
			c-1.06-0.15-15.37,2.56-17.63-2.41c-2.26-4.97-1.21-32.41-1.81-43.56c-0.6-11.15-15.68-56.67-17.48-69.63
			s-28.89-149.22-28.89-149.22l5.11-95.74l116.63-8.56L356.12,413.98z"/>
	</g>
	<g id="_x32__1331_">
		<g id="_x31__1349_">
			<path id="_x31__1350_" class="st59" d="M295.33,88.22c0,0,2.71,7.03,2.81,10.45c0.1,3.42-1.41,7.23-1.41,7.23l-0.4,8.24
				c0,0,3.82-2.71,4.62-1.41s0,11.46-0.8,12.66c-0.8,1.21-1.58,8.04-1.84,9.65c-0.27,1.61-3.98,5.53-3.98,5.53l-3.22,7.13l2.21,20.2
				c0,0-28.54,12.06-29.34,11.56s-25.82-9.14-25.82-9.14s0-15.68-0.5-16.58s-3.92-13.57-3.92-13.57s-1.71,1.51-2.81,1.41
				c-1.11-0.1-6.03-5.31-6.53-7.73s0.4-3.42,0-3.73c-0.4-0.3-5.63-11.15-4.82-13.16s2.81-2.71,2.81-2.71l2.11-5.93l21.3-29.64
				L295.33,88.22z"/>
			<path id="_x32__1335_" class="st60" d="M297.26,128.27c0.08-0.23-3.09,6.18-5.35,9.72c-2.26,3.54-4.97,5.58-4.97,5.58
				s-8.97-7.76-19.44-8.37c-10.48-0.6-18.54,11.15-18.54,11.15s-5.12-3.47-8.44-6.78c-3.32-3.32-9.34-15.52-9.34-15.52l2.56,16.13
				c0,0,2.49,5.95,4.37,9.34c1.88,3.39,9.42,12.51,10.25,13.19c0.83,0.68,1.36,5.05,5.05,6.78c3.69,1.73,25.32-0.45,28.79-3.54
				c3.47-3.09,9.12-16.35,9.12-16.35l-0.21-1.88l3.22-7.13C294.32,140.58,297.19,128.49,297.26,128.27z M275.86,159.01
				c-7.76,2.03-14.62,1.06-18.24-1.13c-3.62-2.19-6.75-6.49-5.11-9.99c1.64-3.5,6.54-9.53,15.36-8.4
				c8.82,1.13,13.72,4.97,14.47,6.18S283.62,156.98,275.86,159.01z"/>
			<path id="_x33__581_" class="st61" d="M229.06,110.93c1.91-2.26,11.3-20.05,23.66-21.55c12.36-1.51,34.06,5.73,38.89,4.97
				s3.67-0.9,3.67-0.9s1.51,4.37,1.76,5.93c0.25,1.56-0.3,6.53-0.3,6.53s10.55-10.65,8.74-19.09s-15.37-27.28-39.34-28.79
				c-23.97-1.51-38.13,16.88-42.2,24.12c-4.07,7.23-7.39,24.94-3.69,28.79S227.15,113.19,229.06,110.93z"/>
		</g>
		<g id="_x32__1332_">
			<path id="_x31__1348_" class="st61" d="M368.38,386.86c-7.03-12.26-13.46-51.85-13.46-51.85s16.88,0.4,24.92-5.83
				c8.04-6.23,11.86-14.67,11.46-23.71c-0.4-9.04-2.01-15.27-2.01-15.27s1.81-4.02-0.6-7.44c-2.41-3.42-3.62-3.82-3.62-3.82
				s-1.21-16.88-4.02-20.3c-2.81-3.42-4.02-8.84-7.03-11.46s-4.62-4.42-4.62-4.42s5.43-15.68,4.02-24.12
				c-1.41-8.44-5.23-18.69-6.83-20.7c-1.61-2.01-0.8-14.27-2.41-16.08c-1.61-1.81-21.7-13.87-27.13-15.27
				c-5.43-1.41-33.63-3.56-33.63-3.56s-58.61,21.82-60.42,22.25c-1.81,0.43-15.88-3.22-15.88-3.22l-5.62-10.71l-54.07,20.66
				c0,0-11.15,28.03-16.28,43.71c-5.12,15.68-9.34,56.97-9.34,56.97s-7.84,19.9-8.14,24.12c-0.3,4.22,0,6.63,0,6.63
				s-4.22,8.14-2.81,12.56c1.41,4.42,3.62,6.43,3.62,6.43s5.22,16.88,7.44,19.69c2.21,2.81,6.03,8.13,6.03,8.13
				s4.42,13.77,7.03,15.78c2.61,2.01,5.02,2.01,5.02,2.01s3.22,8.24,5.63,10.25c2.41,2.01,9.24,4.82,9.85,4.82
				c0.6,0,9.6,5.55,9.6,5.55l10.9-1.53c0,0,2.81,6.23,1.21,14.87c-1.61,8.64-5.22,25.92-5.43,38.38
				c-0.2,12.46,1.81,52.05,4.62,56.67c2.81,4.62,28.74,4.02,38.79,3.82c10.05-0.2,25.32,4.62,31.95-4.42
				c6.63-9.04,21.23-127.41,21.23-127.41s35.04,46.42,42.48,61.5c7.44,15.07,22.71,66.72,32.36,67.73
				c9.65,1,30.14-12.46,34.57-15.47C402.14,499.8,375.41,399.12,368.38,386.86z M197.36,352.9l-5.33-8.84l-2.51-5.83
				c0,0,3.01-2.41,2.51-5.23c-0.5-2.81-2.51-8.44-2.51-8.44l5.02-12.66l4.02-12.46l3.22,40.19L197.36,352.9z"/>
			<path id="_x32__1334_" class="st58" d="M237.65,153.74c0,0,3.64,13.55,10.95,16.36c11.78,4.54,27.42-0.41,35.92-2.65
				s6.68-6.78,6.68-6.78l0.37-8.67c0,0,7.07-3.04,8.57,0.73s0.24,7.39,0.24,7.39l-5.16,57.82c0,0-16.07,78.58-16.52,78.88s0,0,0,0
				L250.61,250l-19.44-78.18v-11.15c0,0-1.36-3.52-0.35-6.93c1-3.42,4.64-7.29,4.64-7.29L237.65,153.74z"/>
			<g id="_x33__580_">
				<path id="_x31__1347_" class="st62" d="M278.71,296.83c-1.57-4.82-14.43-51.45-19.25-64.51c-4.82-13.06-28.29-71.64-28.29-71.64
					l-5.88,7.54c0,0-4.62,1.61-7.64,10.45c-3.01,8.84-4.22,31.95-4.22,31.95l14.67,4.42l-10.65,14.87c0,0,18.69,25.04,28.74,33.42
					C256.24,271.71,278.71,296.83,278.71,296.83z"/>
				<path id="_x32__1333_" class="st62" d="M300.39,160.13l25.13,24.36l-9.5,12.51l12.81,8.74c0,0-19.8,40.54-25.97,55.92
					c-6.18,15.37-24.16,35.17-24.16,35.17s11.14-64.82,11.55-75.56C291.21,195.74,300.39,160.13,300.39,160.13z"/>
			</g>
		</g>
	</g>
	<g id="_x33__566_">
		<path id="_x31__1346_" class="st59" d="M341.95,269.5c0.4,0.1,5.93,4.02,5.83,6.03c-0.1,2.01-1.31,6.53-1.31,6.53
			s3.11,2.61,3.42,5.02s-2.91,7.54-2.91,7.54s1.31,5.33,0.4,7.34c-0.9,2.01-4.72,7.18-4.72,7.18s-1.21,7.08-0.7,8.09
			s1.91,8.04,0.5,9.55c-1.41,1.51-2.91,3.42-4.12,2.61c-1.21-0.8-4.12-5.43-4.32-7.13s-1.61-10.15-1.61-10.15
			s-13.06-4.72-14.07-7.64c-1-2.91,3.42-17.68,3.72-18.39S341.95,269.5,341.95,269.5z"/>
		<g id="_x32__1326_">
			<g id="_x31__1344_">
				<g id="_x31__1345_">
					<path class="st63" d="M308.49,152c1.28,0,2.69-0.89,3.34-0.56c0.65,0.33,5.4,2.44,9.17,1.84c3.77-0.6,21.4-9.57,29.62-9.87
						c8.21-0.3,17.18,3.09,19.97,9.65c2.79,6.56,0,19.74,0,19.74l-12.13-3.62c0,0,5.05-12.66-2.94-14.66
						c-7.99-2-19.44,4.71-25.7,6.14c-6.26,1.43-19.9-0.83-19.9-0.83l-3.24-3.77L308.49,152z"/>
					<path class="st63" d="M360.43,166.99c-0.06-0.21-1.64-5.28-8.72-7.15c-3.09-0.82-8.26,0.47-13.27,1.71
						c-2.87,0.71-5.83,1.45-8.59,1.86c-4.74,0.7-8.55,0.28-11.31-1.23c-0.09-0.05,0.1,0.04,0.32,0.05c-0.95-0.07-2.71-1.72-3-2.05
						l1.98-1.73c0.33,0.38,1.19,1.03,1.51,1.21c0.17,0.05,0.31,0.13,0.46,0.21c2.8,1.54,6.8,1.36,9.66,0.94
						c2.63-0.39,5.53-1.11,8.33-1.81c5.57-1.39,10.84-2.7,14.58-1.71c8.58,2.28,10.5,8.7,10.57,8.97L360.43,166.99z"/>
				</g>
				<path id="_x32__1330_" class="st64" d="M299.3,149.22c0.15,0,6.07,0.17,6.07,0.17s7.39,1.79,7.24,1.79s-3.09,0.83-3.67,3.62
					c-0.67,3.23,0.98,5.05,0.98,5.05s-7.47-1.68-7.61-1.98c-0.14-0.3-5.33-5.85-5.33-5.85L299.3,149.22z"/>
				<path id="_x33__579_" class="st63" d="M289.8,146.66c0.25,0,3.87-0.55,4.17-0.5c0.3,0.05,11.76,3.34,11.76,3.34
					s-2.81-0.48-3.87,3.34c-0.76,2.76,0.45,5.02,0.45,5.02l-14.47-4.47L289.8,146.66z"/>
				<path id="_x34__218_" class="st58" d="M268.1,145.75l10.61-3.77l15.26,4.17c0,0-4.3,1.06-4.37,4.14
					c-0.08,3.09,0.15,6.71,0.15,6.71s-15.78-4.77-16.6-5.23C272.32,151.33,268.1,145.75,268.1,145.75z"/>
			</g>
			<g id="_x32__1328_">
				<path id="_x31__1343_" class="st65" d="M358.46,169.19l-2.14-0.34L206.6,486.24c-4.76,13.87-4.82,39.49,14.17,46.12
					s44.37-7.44,55.77-26.73c11.39-19.29,35.33-66.33,49.04-81.59c20.94-23.31,33.56-29.74,33.56-29.74s-1.51-26.83-1.81-27.73
					c-0.3-0.9-21.69-44.62-21.69-44.62s-6.8,18.97-26.74,48.35c-5.03,7.41-17.28,18.88-17.28,18.88l58.3-152.53l22.79-63.83h-2.11
					L358.46,169.19z"/>
				<path id="_x32__1329_" class="st66" d="M304.49,375.88L304.49,375.88c-5.64,6.5-12.88,13.29-12.88,13.29s-42.81,63-47.33,71.74
					c-4.52,8.74-5.43,10.55-2.11,10.55c3.32,0,28.34-43.71,32.26-49.14C278.35,416.9,304.49,375.88,304.49,375.88z"/>
			</g>
			<g id="_x33__578_">
				
					<ellipse id="_x31__1342_" transform="matrix(0.9504 -0.3112 0.3112 0.9504 -94.4708 126.7218)" class="st67" cx="349.91" cy="359.43" rx="19.13" ry="40.27"/>
				
					<ellipse id="_x32__1327_" transform="matrix(0.9504 -0.3112 0.3112 0.9504 -95.1322 125.4346)" class="st63" cx="345.55" cy="360.86" rx="10.96" ry="26.32"/>
			</g>
		</g>
		<g id="_x33__567_">
			<path id="_x31__1341_" class="st58" d="M204.34,370.33c5.65-0.53,10.07,5.06,11.51,6.49c1.43,1.43,8.91,5.19,8.91,5.19
				l-21.01,31.05c0,0-8.9,1.66-11.83,0.53s-6.86-4.9-6.86-4.9s-5.8-2.19-6.1-7.84c-0.3-5.65,4.52-14.39,9.87-19.82
				C194.17,375.61,198.69,370.86,204.34,370.33z"/>
			<path id="_x32__1325_" class="st59" d="M218.21,382.84c3.01-0.6,18.09-1.96,18.09-1.96s8.19-2.46,11.2-2.56
				c3.01-0.1,14.97-2.61,16.88-0.9c1.91,1.71,0.5,5.33-0.8,6.23c-1.31,0.9-7.74,1.91-7.74,1.91s-8.14,4.02-9.55,4.42
				c-1.41,0.4-3.22,0.7-3.22,0.7s14.37,8.94,15.37,10.35c1,1.41,2.51,5.83,0.3,7.74c-2.21,1.91-8.04,0.5-9.75-0.7
				c-1.71-1.21-2.91-3.01-2.91-3.01s-8.34-4.42-9.45-4.82c-1.11-0.4-3.92-0.1-4.12,1.31c-0.2,1.41,4.52,4.82,6.33,7.44
				c1.81,2.61,8.94,7.23,10.65,9.04s5.2,5.15,5.2,5.15s2.08,3.13,1.28,4.7c-1.31,2.56-4.27,3.17-6.88,1.76
				c-2.61-1.41-10.35-8.79-11.86-9.8s-7.34-6.63-8.44-6.83c-1.11-0.2-1.71,2.41-1.71,3.62c0,1.21,2.41,6.33,2.31,7.34
				s0.9,4.32,1,5.43c0.1,1.11,0,1.78,0,1.78s3.11,6.06,2.61,8.88c-0.5,2.81-2.41,4.12-4.12,3.72c-1.71-0.4-4.72-6.03-5.53-7.74
				c-0.8-1.71-3.42-9.95-4.02-10.85c-0.6-0.9-3.62-6.13-3.62-6.13s-7.13-0.9-9.24-2.81c-2.11-1.91-4.72-5.89-4.72-5.89
				s4.42-16.02,8.54-21.34C214.44,383.64,218.21,382.84,218.21,382.84z"/>
		</g>
	</g>
</g>
</svg>
