<?xml version="1.0" encoding="utf-8"?>
<!-- Generator: Adobe Illustrator 25.2.0, SVG Export Plug-In . SVG Version: 6.00 Build 0)  -->
<svg version="1.1" id="ILLUSTRATION" xmlns="http://www.w3.org/2000/svg" xmlns:xlink="http://www.w3.org/1999/xlink" x="0px"
	 y="0px" viewBox="0 0 850.85 841.89" style="enable-background:new 0 0 850.85 841.89;" xml:space="preserve">
<style type="text/css">
	.st0{fill:#EAA757;}
	.st1{fill:#E5E4E4;}
	.st2{fill:#DB953A;}
	.st3{fill:#B0867D;}
	.st4{fill:#CF9B88;}
	.st5{fill:#EEC0B2;}
	.st6{fill:#ADA850;}
	.st7{fill:#77823E;}
	.st8{fill:#5E6D39;}
	.st9{fill:#4B5B26;}
	.st10{fill:#68831E;}
	.st11{fill:#A6AA56;}
	.st12{fill:#626F2A;}
	.st13{fill:#979F50;}
	.st14{fill:#A8886D;}
	.st15{fill:#D0A98A;}
	.st16{fill:#E9CCB9;}
	.st17{fill:#B1BCA0;}
	.st18{fill:#487C4E;}
	.st19{fill:#95BC8B;}
	.st20{fill:#8C9678;}
	.st21{fill:#3C6841;}
	.st22{fill:#608858;}
	.st23{fill:#6E9865;}
	.st24{fill:#232323;}
	.st25{fill:#565656;}
	.st26{fill:#0F0F0F;}
	.st27{fill:#EAE9E8;}
	.st28{fill:#3B383D;}
	.st29{fill:#474747;}
	.st30{fill:#636363;}
	.st31{fill:#E0D4D2;}
	.st32{fill:#CCC2C0;}
	.st33{fill:#D7B0B1;}
	.st34{fill:#BC9280;}
	.st35{fill:#E7D3C1;}
	.st36{fill:#E0AA96;}
	.st37{fill:#CECAC8;}
	.st38{fill:#F1B8A0;}
	.st39{fill:#E4DCD8;}
	.st40{fill:#8E5E48;}
	.st41{fill:#8C7369;}
	.st42{fill:#C1A395;}
	.st43{fill:#9B8379;}
	.st44{fill:#E0E0E0;}
	.st45{fill:#77615A;}
	.st46{fill:#FFFFFF;}
	.st47{fill:#B1816E;}
	.st48{fill:#DDDAD7;}
	.st49{fill:#0A0A0A;}
	.st50{fill:#6D443C;}
	.st51{fill:#825044;}
	.st52{fill:#282828;}
	.st53{fill:#D3A190;}
	.st54{fill:#1B1E1F;}
	.st55{fill:#E5E2E1;}
	.st56{fill:#9E7364;}
	.st57{fill:#D3D3D3;}
	.st58{fill:#0F0A11;}
	.st59{fill:#7F5150;}
	.st60{opacity:0.72;fill:#1C1C1E;}
	.st61{fill:#B1ABA3;}
	.st62{fill:#C1BDB9;}
	.st63{fill:#7E6D57;}
	.st64{fill:#68543E;}
	.st65{fill:#7F5E39;}
	.st66{fill:#6D4E2F;}
	.st67{fill:#938270;}
</style>
<g id="_x34_">
	<g id="_x31__1370_">
		<g id="_x31__1377_">
			<g id="_x31__1380_">
				<polygon id="_x31__1381_" class="st24" points="315.43,572.58 264.75,572.58 259.86,529.73 320.32,529.73 				"/>
				<polygon id="_x32__1364_" class="st25" points="303.22,746.49 276.96,746.49 267.19,572.58 312.99,572.58 				"/>
				<rect id="_x33__596_" x="276.96" y="746.49" width="26.38" height="24.44"/>
			</g>
			<g id="_x32__1362_">
				<polygon id="_x31__1379_" class="st24" points="160.26,572.58 109.57,572.58 104.68,529.73 165.14,529.73 				"/>
				<polygon id="_x32__1363_" class="st25" points="148.04,746.49 121.78,746.49 112.01,572.58 157.81,572.58 				"/>
				<rect id="_x33__595_" x="121.78" y="746.49" width="26.38" height="24.44"/>
			</g>
			<g id="_x33__593_">
				<polygon id="_x31__1378_" class="st24" points="724.54,572.58 673.85,572.58 668.97,529.73 729.43,529.73 				"/>
				<polygon id="_x32__1361_" class="st25" points="712.33,746.49 686.07,746.49 676.3,572.58 722.1,572.58 				"/>
				<rect id="_x33__594_" x="686.07" y="746.49" width="26.38" height="24.44"/>
			</g>
			<rect id="_x34__230_" x="174.29" y="530.95" class="st24" width="484.79" height="16.88"/>
		</g>
		
			<rect id="_x32__1360_" x="603.36" y="91.56" transform="matrix(0.844 -0.5363 0.5363 0.844 -40.2712 364.7656)" class="st26" width="7.32" height="320.13"/>
		<g id="_x33__591_">
			
				<rect id="_x31__1376_" x="44.23" y="190.75" transform="matrix(0.8418 -0.5398 0.5398 0.8418 -49.8031 225.985)" class="st27" width="632.77" height="14.41"/>
			
				<rect id="_x32__1359_" x="30.44" y="186.32" transform="matrix(0.8418 -0.5398 0.5398 0.8418 -45.9385 221.7816)" class="st28" width="649.86" height="5.87"/>
			
				<rect id="_x33__592_" x="56.35" y="174.96" transform="matrix(0.8418 -0.5398 0.5398 0.8418 -43.5793 216.1541)" class="st29" width="581.2" height="14.92"/>
			
				<rect id="_x34__229_" x="42.29" y="203.37" transform="matrix(-0.8418 0.5398 -0.5398 -0.8418 786.2955 182.1471)" class="st28" width="648.33" height="5.87"/>
			
				<rect id="_x35__112_" x="84.92" y="205.27" transform="matrix(-0.8418 0.5398 -0.5398 -0.8418 806.4579 189.0889)" class="st29" width="581.2" height="14.92"/>
		</g>
		<g id="_x34__225_">
			<g id="_x31__1374_">
				<rect id="_x31__1375_" x="126.33" y="381.5" class="st25" width="580.71" height="67.47"/>
				<rect id="_x32__1358_" x="126.33" y="448.96" width="580.71" height="8.29"/>
				<rect id="_x33__590_" x="126.33" y="457.26" class="st29" width="580.71" height="39.93"/>
				<rect id="_x34__228_" x="126.33" y="497.18" class="st27" width="580.71" height="16.88"/>
				<rect id="_x35__111_" x="126.33" y="514.07" class="st25" width="580.71" height="16.88"/>
			</g>
			<g id="_x32__1354_">
				<g id="_x31__1372_">
					<rect id="_x31__1373_" x="707.04" y="381.5" class="st30" width="29.86" height="67.47"/>
					<rect id="_x32__1357_" x="707.04" y="457.26" class="st25" width="29.86" height="39.93"/>
					<rect id="_x33__589_" x="707.04" y="448.96" class="st28" width="29.86" height="8.29"/>
					<rect id="_x34__227_" x="707.04" y="497.18" class="st30" width="29.86" height="16.88"/>
					<rect id="_x35__110_" x="707.04" y="514.07" class="st25" width="29.86" height="16.88"/>
				</g>
				<g id="_x32__1355_">
					<rect id="_x31__1371_" x="97.08" y="381.5" class="st30" width="29.86" height="67.47"/>
					<rect id="_x32__1356_" x="97.08" y="457.26" class="st25" width="29.86" height="39.93"/>
					<rect id="_x33__588_" x="97.08" y="448.96" class="st28" width="29.86" height="8.29"/>
					<rect id="_x34__226_" x="97.08" y="497.18" class="st30" width="29.86" height="16.88"/>
					<rect id="_x35__109_" x="97.08" y="514.07" class="st25" width="29.86" height="16.88"/>
				</g>
			</g>
		</g>
	</g>
	<g id="_x32__1349_">
		<g id="_x31__1367_">
			<g id="_x31__1368_">
				<path id="_x31__1369_" class="st31" d="M334.39,724.66l19.22,39.93l-36.39,56.54c0,0-12.69,1.68-12.69,1.12
					c0-0.56-0.56-13.44,0.93-25.19c1.49-11.76,5.13-36.01,5.13-36.01s0.47-24.44,1.4-25.75S334.39,724.66,334.39,724.66z"/>
				<path id="_x32__1353_" class="st32" d="M314.42,788.85c0.37-1.12,2.05-23.33,11.01-29.11s17.91-3.92,21.09-1.87
					s7.09,6.72,7.09,6.72s1.87,11.94,0,18.85s-3.92,9.14-3.92,9.14h-3.92c0,0,4.85,17.73,6.16,24.82s-11.38,10.26-11.38,10.26
					l-34.89-1.31l-1.12-4.11c0,0,7.28-20.9,8.77-25.75C314.8,791.65,314.42,788.85,314.42,788.85z"/>
			</g>
			<path id="_x32__1352_" class="st33" d="M501.77,578.55c0,0,15.39,36.67,17.07,49.82c1.68,13.16-25.19,25.19-25.19,25.19
				l-18.47,68.02L354.26,653l-15.67,14.83c0,0,0,26.59,0,29.95s-2.8,8.4-2.8,8.4s7.84,8.68,8.4,12.88
				c0.56,4.2,0.71,26.59,0.71,27.43s-4.55-10.14-19.47-6.72c-8.96,2.05-14.83,21.27-14.83,21.27s-7.84-12.04-8.96-12.88
				c-1.12-0.84-2.8,2.8-3.36-3.92c-0.56-6.72,2.8-14,2.8-14.83s-9.39-20.15-10.99-24.91c-1.6-4.76-6.92-18.75-6.92-22.95
				s-1.68-15.11-1.68-15.11s-1.12-10.64,0-13.16c1.12-2.52-0.5-9.52-0.5-9.52s13.37-29.95,21.77-37.23
				c8.4-7.28,38.35-32.19,40.59-32.19S501.77,578.55,501.77,578.55z"/>
		</g>
		<g id="_x32__1350_">
			<path id="_x31__1366_" class="st34" d="M430.12,261.42c-1.12-0.56-9.52-3.36-11.2-1.12s-3.92,8.96-3.92,13.44
				s-0.84,12.88,0,13.72c0.84,0.84,4.2,0,4.2,0l0.84,14.28c0,0-5.32,20.43-3.36,20.43s53.46,8.4,53.46,6.72s5.88-20.15,5.88-20.15
				s0.84,4.2,4.2,3.08c3.36-1.12,10.36-12.32,10.36-13.16c0-0.84,4.2-4.48,3.08-7c-1.12-2.52-11.48-5.32-12.6-5.6
				C479.94,285.77,430.12,261.42,430.12,261.42z"/>
			<path id="_x32__1351_" class="st35" d="M422.28,258.62c0,0-0.56-32.19,28.27-38.91s41.43,10.64,41.43,10.64
				s14.55,20.71,9.52,35.55c-5.04,14.83-12.88,29.67-24.35,38.63s-24.44,8.4-28.36,7.56c-3.92-0.84-17.26-3.08-20.62-7
				c-3.36-3.92-5.88-16.23-5.88-20.71S422.28,258.62,422.28,258.62z"/>
		</g>
		<path id="_x33__587_" class="st31" d="M389.81,332.23c0,0,17.17-15.11,24.82-17.35s53.83,2.8,62.51,8.68
			c8.68,5.88,14.28,15.39,14.28,15.39s34.43,6.44,42.83,21.83s8.96,34.99,8.96,34.99s5.6,5.04,8.4,14.83c2.8,9.8,0,16.23,0,16.23
			s2.8,12.06,0.28,22.12c-2.52,10.07-13.72,31.34-22.39,41.98s-22.67,20.71-22.67,20.71l0.56,52.34l8.96,34.71l-40.59,41.15h-121.2
			c0,0-26.59-29.67-26.87-41.43c-0.28-11.76-0.28-15.11,1.4-17.91c1.68-2.8,15.95-29.11,15.95-29.11s-3.64-36.67-2.8-42.83
			c0.84-6.16-0.56-4.48-0.56-4.48s-30.23,3.36-35.55-0.84c-5.32-4.2-17.07-26.11-15.95-31.91c1.12-5.79,14.83-25.75,14.83-25.75
			s5.04-46.74,7.28-53.18c2.24-6.44,18.75-40.87,24.35-44.78C342.23,343.71,389.81,332.23,389.81,332.23z"/>
	</g>
	<g id="_x33__586_">
		<polygon class="st25" points="476.58,826.26 356.78,826.26 364.11,649.36 469.25,649.36 		"/>
		<path class="st30" d="M474.9,659.44H358.46c-8.04,0-14.55-6.52-14.55-14.55l0,0c0-8.04,6.52-14.55,14.55-14.55H474.9
			c8.04,0,14.55,6.52,14.55,14.55l0,0C489.46,652.92,482.94,659.44,474.9,659.44z"/>
	</g>
</g>
</svg>
