<?xml version="1.0" encoding="utf-8"?>
<!-- Generator: Adobe Illustrator 25.2.0, SVG Export Plug-In . SVG Version: 6.00 Build 0)  -->
<svg version="1.1" id="ILLUSTRATION" xmlns="http://www.w3.org/2000/svg" xmlns:xlink="http://www.w3.org/1999/xlink" x="0px"
	 y="0px" viewBox="0 0 595.28 841.89" style="enable-background:new 0 0 595.28 841.89;" xml:space="preserve">
<style type="text/css">
	.st0{fill:#EAA757;}
	.st1{fill:#E5E4E4;}
	.st2{fill:#DB953A;}
	.st3{fill:#B0867D;}
	.st4{fill:#CF9B88;}
	.st5{fill:#EEC0B2;}
	.st6{fill:#ADA850;}
	.st7{fill:#77823E;}
	.st8{fill:#5E6D39;}
	.st9{fill:#4B5B26;}
	.st10{fill:#68831E;}
	.st11{fill:#A6AA56;}
	.st12{fill:#626F2A;}
	.st13{fill:#979F50;}
	.st14{fill:#A8886D;}
	.st15{fill:#D0A98A;}
	.st16{fill:#E9CCB9;}
	.st17{fill:#B1BCA0;}
	.st18{fill:#487C4E;}
	.st19{fill:#95BC8B;}
	.st20{fill:#8C9678;}
	.st21{fill:#3C6841;}
	.st22{fill:#608858;}
	.st23{fill:#6E9865;}
	.st24{fill:#232323;}
	.st25{fill:#565656;}
	.st26{fill:#0F0F0F;}
	.st27{fill:#EAE9E8;}
	.st28{fill:#3B383D;}
	.st29{fill:#474747;}
	.st30{fill:#636363;}
	.st31{fill:#E0D4D2;}
	.st32{fill:#CCC2C0;}
	.st33{fill:#D7B0B1;}
	.st34{fill:#BC9280;}
	.st35{fill:#E7D3C1;}
	.st36{fill:#E0AA96;}
	.st37{fill:#CECAC8;}
	.st38{fill:#F1B8A0;}
	.st39{fill:#E4DCD8;}
	.st40{fill:#8E5E48;}
	.st41{fill:#8C7369;}
	.st42{fill:#C1A395;}
	.st43{fill:#9B8379;}
	.st44{fill:#E0E0E0;}
	.st45{fill:#77615A;}
	.st46{fill:#FFFFFF;}
	.st47{fill:#B1816E;}
	.st48{fill:#DDDAD7;}
	.st49{fill:#0A0A0A;}
	.st50{fill:#6D443C;}
	.st51{fill:#825044;}
	.st52{fill:#282828;}
	.st53{fill:#D3A190;}
	.st54{fill:#1B1E1F;}
	.st55{fill:#E5E2E1;}
	.st56{fill:#9E7364;}
	.st57{fill:#D3D3D3;}
	.st58{fill:#0F0A11;}
	.st59{fill:#7F5150;}
	.st60{opacity:0.72;fill:#1C1C1E;}
	.st61{fill:#B1ABA3;}
	.st62{fill:#C1BDB9;}
	.st63{fill:#7E6D57;}
	.st64{fill:#68543E;}
	.st65{fill:#7F5E39;}
	.st66{fill:#6D4E2F;}
	.st67{fill:#938270;}
</style>
<g id="_x33_">
	<g id="_x31__1362_">
		<g id="_x31__1364_">
			<path id="_x31__1365_" class="st36" d="M230.89,502.51c0,0,18.36,52.74,17.36,65.75c-1,13.02-11.98,65.75-8.66,83.45
				c3.32,17.69,19.01,85.11,19.01,85.11s28.37,5.67,29.04,4.01c0.67-1.67,0.33-125.17,1.67-136.18
				c1.34-11.01,11.68-105.81,9.35-105.81C296.31,498.84,230.89,502.51,230.89,502.51z"/>
			<path id="_x32__1348_" class="st37" d="M235.22,651.37c3.75,2.33,29.37,25.37,33.38,21.7s26.37-24.37,26.37-24.37l-5.01,78.44
				l-12.6,53.91c0,0-27.12,2.5-27.79,0.83s-8.01-8.01-7.68-13.68c0.33-5.67,3.24-11.01,3.24-11.01s-3.57-7.34-3.24-11.35
				c0.33-4.01,2.47-10.35,3.24-12.02S235.22,651.37,235.22,651.37z"/>
		</g>
		<g id="_x32__1346_">
			<path id="_x31__1363_" class="st38" d="M357.72,495.16c0,0-13.68,83.78-14.69,99.3c-1,15.52-3.84,77.27-9.6,94.29
				c-5.76,17.02-38.47,9.68-38.47,9.68s-0.33-81.44,0-88.45c0.33-7.01-3.34-45.39-4.67-57.08s0-57.08,0-57.08L357.72,495.16z"/>
			<path id="_x32__1347_" class="st39" d="M345.77,781.46c-1.54-2.25-6.16-8.59-16.1-13.6c-3.05-1.54-5.99-3.99-8.6-6.64
				c2.65-3.99,5.47-8.59,5.6-10.3c0.25-3.25-4.01-9.79-4.01-9.79s0.75-2.48,1.04-4.73c0.29-2.25,0-7.76,0-7.76s1.46-2.75,4.97-9.01
				s15.02-58.83,15.02-58.83l-36.05,21.78c0,0-19.34-24.53-21.28-27.29c0,0-2,63.08-2,64.09c0,1-4.01,25.03-4.51,27.04
				c-0.5,2-1.25,2.25-1.25,6.76s3,12.27,3,12.27s-0.25,7.51,0,11.47c0.25,3.96,3.5,15.31,3.5,15.31h21.03c0,0,1.37-2.23,2.79-5.04
				l1.04,1.04c0,0,15.75,7.26,22.6,7.01c6.85-0.25,13.19-4.01,13.19-4.01S347.31,783.72,345.77,781.46z"/>
		</g>
	</g>
	<path id="_x32__1345_" class="st39" d="M273.28,193.48c0,0-39.72,5.62-40.72,5.96c-1,0.33-44.06,18.36-48.4,39.72
		s24.68,140.86,24.68,140.86s-3.03,80.77,0,100.8c3.03,20.03,26.39,56.08,26.39,56.08s38.38-4.34,49.4-5.34
		c11.01-1,45.06,5.01,59.08,5.34c14.02,0.33,20.03-1.67,20.03-1.67s4.34-76.44,0-97.8s-22.8-91.46-22.8-91.46
		s22.8-132.84,20.8-136.85c-2-4.01-39.72-12.35-54.74-14.02S273.28,193.48,273.28,193.48z"/>
	<path id="_x33__585_" class="st40" d="M284.12,78.59c5.13,0.94,14.19,3.69,21.53,20.71s14.27,41.31,14.27,45.31
		c0,4.01-4.01,17.02-1.75,22.28s13.77,10.76,13.52,19.03s-5.51,16.02-4.26,22.03s6.01,13.02,6.01,13.02s-1.25-0.5-4.01-2.75
		c-2.75-2.25-6.51-11.27-6.51-11.27s-4.84,7.76-1.67,13.43c3.17,5.67,6.01,9.18,6.59,13.27c0.58,4.09-2.42,11.85-2.42,11.85
		s1.17-8.09,0.25-11.35c-0.92-3.25-7.01-8.34-8.93-10.93c-1.92-2.59-4.68-7.84-4.68-7.84s-2.03,3.59-0.91,13.98
		c1.13,10.39,5.51,13.14,7.26,18.4s0.75,8.76-0.63,14.77c-1.38,6.01-0.88,8.01,2,15.52c2.88,7.51,1.63,18.65,1.63,19.15
		s-85.36,11.39-85.36,11.39s1.75-11.64,1.13-16.65c-0.63-5.01-4.76-13.14-4.76-15.77s1-11.39,1-11.39s-5.51,9.76-3.88,14.39
		s3.13,10.89,2.75,13.02c-0.38,2.13-2.5,4.76-2.5,4.76s1-3.5,0.25-6.76s-2.13-5.51-3.38-10.01c-1.25-4.51-1.13-10.26,1-14.52
		c2.13-4.26,1.38-15.77,1.38-15.77s-3.5,5.88-5.38,9.51c-1.88,3.63-1.5,14.02-1.5,14.02s-3.25-9.89-2.25-15.02
		c1-5.13,5.26-12.89,4.76-15.4c-0.5-2.5-5.76-13.52-5.63-17.02c0.13-3.5,2.25-16.65,2.25-16.65s-4.38,5.38-5.51,8.39
		c-1.13,3,1.5,9.76,1.88,11.89c0.38,2.13-0.75,6.13-0.75,6.13s-1.5-8.89-4.26-13.39c-2.75-4.51-4.88-12.77-3.25-16.9
		c1.63-4.13,4.38-7.51,4.88-8.14s2.13-6.88,0.88-13.39c-1.25-6.51-2.38-10.64,0.38-16.27c2.75-5.63,8.39-9.76,10.01-16.02
		s5.76-38.18,9.89-47.69c4.13-9.51,13.14-19.78,20.9-22.91c7.76-3.13,18.4-0.88,18.4-0.88S278.99,77.65,284.12,78.59z"/>
	<g id="_x34__223_">
		<g id="_x31__1355_">
			<g id="_x31__1360_">
				<path id="_x31__1361_" class="st41" d="M296.55,277.1c-47.64-7.73-130.79,57.06-116.77,106.43
					c17.73,62.41,68.8,52.06,87.82,65.41c18.02,12.64,11.52,40.78,32.11,41.51l12.36-0.75L296.55,277.1z"/>
				<path id="_x33__584_" class="st42" d="M355.39,346.97c-0.33-1-15.69-63.08-53.4-69.43c-37.72-6.34-120.05,56.25-107.36,105.99
					s65.64,47.89,84.66,61.24c18.02,12.64,16.36,48.06,35.71,44.73c15.6-2.69,8.85-28.71,18.44-31.71c9.6-3,13.94,3.34,13.94,3.34
					l15.02,17.02l13.35-16.69L355.39,346.97z"/>
				<path class="st41" d="M333.44,457.78c-0.97,0.3-1.77,0.86-2.45,1.59l16.57,18.77h14.84l-15.02-17.02
					C347.37,461.12,343.04,454.78,333.44,457.78z"/>
			</g>
			<g id="_x32__1343_">
				
					<rect id="_x31__1359_" x="262.21" y="366.94" transform="matrix(0.7071 -0.7071 0.7071 0.7071 -179.3831 312.6194)" class="st43" width="50.93" height="11.8"/>
				
					<rect id="_x32__1344_" x="279.45" y="373.85" transform="matrix(0.7071 -0.7071 0.7071 0.7071 -180.2478 314.707)" class="st44" width="20.63" height="2.16"/>
			</g>
			<g id="_x33__583_">
				<path id="_x31__1358_" class="st43" d="M472.69,609.73L472.69,609.73c0,0,12.47,9.91,16.08,14.28s12.17,19.86,12.17,19.86
					s7.43-1.49,15.15-7.88c7.71-6.39,10.57-13.41,10.57-13.41s-11.17-9.28-16.34-15.39c-5.17-6.12-11.91-18.74-11.91-18.74
					c-4.33,3.58-11.12-0.74-15.26-5.74l-13.52,11.77C473.77,599.47,477.02,606.14,472.69,609.73z"/>
				<polygon id="_x32__1342_" class="st43" points="483.14,582.7 342.61,419.69 324.72,436.38 469.62,594.46 				"/>
			</g>
			<g id="_x34__224_">
				<circle id="_x31__1357_" class="st45" cx="328.35" cy="419.23" r="20.36"/>
				<path id="_x32__1341_" class="st43" d="M316.94,441.47c-6.86-3.64-12.01-10.12-13.39-17.77c-0.87-4.83-0.28-9.42,1.3-13.52
					l-11.42-12.96c-4.33-4.91-11.88-5.21-16.58-0.66c-7.97,7.71-15.09,14.6-20.56,19.87c-3.48,3.35-2.1,9.21,2.51,10.66
					c0.03,0.01,0.07,0.02,0.1,0.03c10.11,3.16,18.83,5.89,25.4,10.5c10.01,7.02,14.72,18.43,18.87,28.49
					c2.88,6.97,6.14,14.87,9.35,14.87c0.29,0,0.63-0.03,0.99-0.09c2.19-0.38,3.29-2.96,4.91-11.51c1.44-7.6,4.75-17.65,13.93-20.52
					l-4.01-4.42C324.75,444.43,320.93,443.59,316.94,441.47z"/>
			</g>
			<g id="_x35__108_">
				<g id="_x31__1356_">
					<circle class="st46" cx="484.95" cy="611.33" r="1.35"/>
					<circle class="st46" cx="497.25" cy="599.73" r="1.35"/>
					<circle class="st46" cx="494.56" cy="620.25" r="1.35"/>
					<circle class="st46" cx="506.26" cy="611.33" r="1.35"/>
					<circle class="st46" cx="505.29" cy="630.42" r="1.35"/>
					<circle class="st46" cx="513.87" cy="620.87" r="1.35"/>
				</g>
				<g id="_x32__1340_">
					<polygon class="st46" points="497.06,599.92 481.64,584.02 290.98,366.45 291.39,366.09 482.04,583.65 497.45,599.54 					"/>
					<polygon class="st46" points="505.08,630.58 474.62,590.09 284.41,373.02 284.82,372.66 475.04,589.74 505.51,630.25 					"/>
					<polygon class="st46" points="494.34,620.41 472.49,591.95 282.22,375.21 282.63,374.86 472.91,591.6 494.78,620.08 					"/>
					<polygon class="st46" points="484.74,611.5 470.54,593.65 280.02,377.41 280.43,377.05 470.96,593.3 485.17,611.16 					"/>
					<path class="st46" d="M506.05,611.5c-0.39-0.45-17.66-16.84-26.73-25.44l-190.5-217.39l0.41-0.36l190.48,217.37
						c2.7,2.55,26.5,25.13,26.77,25.48L506.05,611.5z"/>
					<path class="st46" d="M513.77,621.13c-0.69-0.27-30.76-27.57-36.78-33.04L286.6,370.83l0.41-0.36l190.37,217.24
						c12.27,11.14,35.74,32.4,36.61,32.92L513.77,621.13z"/>
				</g>
				<g id="_x33__582_">
					<circle class="st46" cx="291.19" cy="366.27" r="0.87"/>
					<circle class="st46" cx="289.02" cy="368.49" r="0.87"/>
					<circle class="st46" cx="286.8" cy="370.65" r="0.87"/>
					<circle class="st46" cx="284.61" cy="372.84" r="0.87"/>
					<circle class="st46" cx="282.42" cy="375.04" r="0.87"/>
					<circle class="st46" cx="280.23" cy="377.23" r="0.87"/>
				</g>
			</g>
		</g>
		<g id="_x32__1338_">
			<path id="_x31__1354_" class="st38" d="M405.29,441.59c0,0,1.5,28.96,1.08,31.21c-0.42,2.25-0.68,5.67-0.51,7.59
				c0.17,1.92-2.16,12.68-3.25,16.02s-4.76,10.73-4.84,10.66c-0.08-0.07-2.67,5.36-4.51,5.61c-1.84,0.25-2.09-4.92-1.59-7.18
				c0.5-2.25,2.42-5.76,2.75-7.09c0.33-1.34,2.25-10.93,2.25-10.93l1.25-7.18c0,0-4.42,12.77-5.17,13.77s-7.34,8.68-8.68,10.1
				c-1.34,1.42-7.34,5.84-7.34,5.84s-2.84-0.25-2.8-1.5s0.63-3.42,0.63-3.42s7.26-9.76,8.68-11.27c1.42-1.5,2.09-2.42,2.09-2.42
				l3.76-12.35c0,0-4.42,9.85-5.84,11.1c-1.42,1.25-10.26,9.35-12.02,10.51c-1.75,1.17-4.09,1.84-4.42,0.5
				c-0.33-1.34-0.33-3.34,1.08-4.67c1.42-1.34,7.01-9.6,7.01-9.6s4.84-8.59,5.51-9.76c0.67-1.17,1.08-3.34,1.08-3.34
				s-10.02,12.04-10.73,12.82c-0.71,0.78-4.21,3.45-5.71,1.61s1.43-6.28,1.43-6.28s9.58-15.25,9.25-15.5s0.75-17.27,0.75-17.27
				L405.29,441.59z"/>
			<path id="_x32__1339_" class="st39" d="M333.44,271.2c4.26-3.34,12.93-68.09,28.29-62.08s14.69,59.41,15.35,73.1
				c0.67,13.68,13.68,71.76,19.36,94.79s18.02,71.76,18.02,71.76s-13.02-1-24.03,0c-11.01,1-18.36,6.27-18.36,6.27
				s-15.02-67.02-16.36-76.7c-1.34-9.68-6.35-50.12-10.18-59.61C341.7,309.25,333.44,271.2,333.44,271.2z"/>
		</g>
	</g>
</g>
</svg>
