<?xml version="1.0" encoding="utf-8"?>
<!-- Generator: Adobe Illustrator 25.2.0, SVG Export Plug-In . SVG Version: 6.00 Build 0)  -->
<svg version="1.1" id="ILLUSTRATION" xmlns="http://www.w3.org/2000/svg" xmlns:xlink="http://www.w3.org/1999/xlink" x="0px"
	 y="0px" viewBox="0 0 595.28 841.89" style="enable-background:new 0 0 595.28 841.89;" xml:space="preserve">
<style type="text/css">
	.st0{fill:#EAA757;}
	.st1{fill:#E5E4E4;}
	.st2{fill:#DB953A;}
	.st3{fill:#B0867D;}
	.st4{fill:#CF9B88;}
	.st5{fill:#EEC0B2;}
	.st6{fill:#ADA850;}
	.st7{fill:#77823E;}
	.st8{fill:#5E6D39;}
	.st9{fill:#4B5B26;}
	.st10{fill:#68831E;}
	.st11{fill:#A6AA56;}
	.st12{fill:#626F2A;}
	.st13{fill:#979F50;}
	.st14{fill:#A8886D;}
	.st15{fill:#D0A98A;}
	.st16{fill:#E9CCB9;}
	.st17{fill:#B1BCA0;}
	.st18{fill:#487C4E;}
	.st19{fill:#95BC8B;}
	.st20{fill:#8C9678;}
	.st21{fill:#3C6841;}
	.st22{fill:#608858;}
	.st23{fill:#6E9865;}
	.st24{fill:#232323;}
	.st25{fill:#565656;}
	.st26{fill:#0F0F0F;}
	.st27{fill:#EAE9E8;}
	.st28{fill:#3B383D;}
	.st29{fill:#474747;}
	.st30{fill:#636363;}
	.st31{fill:#E0D4D2;}
	.st32{fill:#CCC2C0;}
	.st33{fill:#D7B0B1;}
	.st34{fill:#BC9280;}
	.st35{fill:#E7D3C1;}
	.st36{fill:#E0AA96;}
	.st37{fill:#CECAC8;}
	.st38{fill:#F1B8A0;}
	.st39{fill:#E4DCD8;}
	.st40{fill:#8E5E48;}
	.st41{fill:#8C7369;}
	.st42{fill:#C1A395;}
	.st43{fill:#9B8379;}
	.st44{fill:#E0E0E0;}
	.st45{fill:#77615A;}
	.st46{fill:#FFFFFF;}
	.st47{fill:#B1816E;}
	.st48{fill:#DDDAD7;}
	.st49{fill:#0A0A0A;}
	.st50{fill:#6D443C;}
	.st51{fill:#825044;}
	.st52{fill:#282828;}
	.st53{fill:#D3A190;}
	.st54{fill:#1B1E1F;}
	.st55{fill:#E5E2E1;}
	.st56{fill:#9E7364;}
	.st57{fill:#D3D3D3;}
	.st58{fill:#0F0A11;}
	.st59{fill:#7F5150;}
	.st60{opacity:0.72;fill:#1C1C1E;}
	.st61{fill:#B1ABA3;}
	.st62{fill:#C1BDB9;}
	.st63{fill:#7E6D57;}
	.st64{fill:#68543E;}
	.st65{fill:#7F5E39;}
	.st66{fill:#6D4E2F;}
	.st67{fill:#938270;}
</style>
<g id="_x38__15_">
	<g id="_x31__1431_">
		<g id="_x31__27_">
			<rect id="_x31__26_" x="155.78" y="469.7" class="st2" width="152.21" height="6.67"/>
			
				<rect id="_x32__19_" x="151.08" y="452.29" transform="matrix(-1.836970e-16 1 -1 -1.836970e-16 633.3948 312.675)" class="st0" width="18.56" height="41.48"/>
			
				<rect id="_x33__6_" x="176.79" y="471.31" transform="matrix(-1.836970e-16 1 -1 -1.836970e-16 655.8633 290.2066)" class="st0" width="12.08" height="3.46"/>
		</g>
		<circle id="_x32__20_" class="st1" cx="122.99" cy="473.03" r="22.74"/>
	</g>
	<g id="_x32__1408_">
		<g id="_x31__28_">
			<rect id="_x31__29_" x="307.99" y="535.92" class="st2" width="152.21" height="6.67"/>
			
				<rect id="_x32__22_" x="446.34" y="518.51" transform="matrix(-4.548291e-11 1 -1 -4.548291e-11 994.8678 83.6328)" class="st0" width="18.56" height="41.48"/>
			
				<rect id="_x33__7_" x="427.11" y="537.52" transform="matrix(-4.624586e-11 1 -1 -4.624586e-11 972.3993 106.1013)" class="st0" width="12.08" height="3.46"/>
		</g>
		<circle id="_x32__21_" class="st1" cx="492.99" cy="539.25" r="22.74"/>
	</g>
	<g id="_x33__611_">
		<g id="_x31__30_">
			<rect id="_x31__31_" x="309.4" y="400.51" class="st2" width="56.22" height="6.67"/>
			
				<rect id="_x32__24_" x="351.75" y="383.11" transform="matrix(-4.538521e-11 1 -1 -4.538521e-11 764.8757 42.822)" class="st0" width="18.56" height="41.48"/>
			
				<rect id="_x33__8_" x="332.52" y="402.12" transform="matrix(-4.428831e-11 1 -1 -4.428831e-11 742.4072 65.2905)" class="st0" width="12.08" height="3.46"/>
		</g>
		<circle id="_x32__23_" class="st1" cx="398.4" cy="403.85" r="22.74"/>
	</g>
	<g id="_x34__237_">
		<g id="_x31__32_">
			<rect id="_x31__33_" x="251.77" y="607.34" class="st2" width="56.22" height="6.67"/>
			
				<rect id="_x32__26_" x="247.08" y="589.94" transform="matrix(-1.836970e-16 1 -1 -1.836970e-16 867.0354 354.3185)" class="st0" width="18.56" height="41.48"/>
			
				<rect id="_x33__9_" x="272.79" y="608.95" transform="matrix(-1.836970e-16 1 -1 -1.836970e-16 889.5039 331.85)" class="st0" width="12.08" height="3.46"/>
		</g>
		<circle id="_x32__25_" class="st1" cx="218.99" cy="610.68" r="22.74"/>
	</g>
	<g id="_x34__247_">
		<g id="_x31__34_">
			<rect id="_x31__35_" x="251.77" y="342.08" class="st2" width="56.22" height="6.67"/>
			
				<rect id="_x32__28_" x="247.08" y="324.67" transform="matrix(-1.836970e-16 1 -1 -1.836970e-16 601.774 89.0571)" class="st0" width="18.56" height="41.48"/>
			
				<rect id="_x33__10_" x="272.79" y="343.69" transform="matrix(-1.836970e-16 1 -1 -1.836970e-16 624.2425 66.5886)" class="st0" width="12.08" height="3.46"/>
		</g>
		<circle id="_x32__27_" class="st1" cx="218.99" cy="345.42" r="22.74"/>
	</g>
	<g id="_x35__117_">
		<g>
			<rect x="304.43" y="519.31" class="st2" width="6.67" height="152.21"/>
			<rect x="298.49" y="646.2" class="st0" width="18.56" height="41.48"/>
			<rect x="301.73" y="642.74" class="st0" width="12.08" height="3.46"/>
		</g>
		<circle class="st1" cx="307.77" cy="704.31" r="22.74"/>
	</g>
	<g id="_x36__46_">
		<g id="_x31__36_">
			<rect id="_x31__37_" x="304.66" y="86.48" class="st2" width="6.67" height="395.14"/>
			<rect id="_x32__30_" x="298.71" y="456.29" class="st0" width="18.56" height="41.48"/>
			<rect id="_x33__11_" x="301.95" y="452.83" class="st0" width="12.08" height="3.46"/>
			<rect id="_x34__3_" x="299.45" y="64.5" class="st0" width="17.08" height="61.62"/>
		</g>
		<circle id="_x32__29_" class="st1" cx="307.99" cy="534.68" r="53.04"/>
	</g>
</g>
</svg>
