<?xml version="1.0" encoding="utf-8"?>
<!-- Generator: Adobe Illustrator 25.2.0, SVG Export Plug-In . SVG Version: 6.00 Build 0)  -->
<svg version="1.1" id="ILLUSTRATION" xmlns="http://www.w3.org/2000/svg" xmlns:xlink="http://www.w3.org/1999/xlink" x="0px"
	 y="0px" viewBox="0 0 1474.02 841.89" style="enable-background:new 0 0 1474.02 841.89;" xml:space="preserve">
<style type="text/css">
	.st0{fill:#EAA757;}
	.st1{fill:#E5E4E4;}
	.st2{fill:#DB953A;}
	.st3{fill:#B0867D;}
	.st4{fill:#CF9B88;}
	.st5{fill:#EEC0B2;}
	.st6{fill:#ADA850;}
	.st7{fill:#77823E;}
	.st8{fill:#5E6D39;}
	.st9{fill:#4B5B26;}
	.st10{fill:#68831E;}
	.st11{fill:#A6AA56;}
	.st12{fill:#626F2A;}
	.st13{fill:#979F50;}
	.st14{fill:#A8886D;}
	.st15{fill:#D0A98A;}
	.st16{fill:#E9CCB9;}
	.st17{fill:#B1BCA0;}
	.st18{fill:#487C4E;}
	.st19{fill:#95BC8B;}
	.st20{fill:#8C9678;}
	.st21{fill:#3C6841;}
	.st22{fill:#608858;}
	.st23{fill:#6E9865;}
	.st24{fill:#232323;}
	.st25{fill:#565656;}
	.st26{fill:#0F0F0F;}
	.st27{fill:#EAE9E8;}
	.st28{fill:#3B383D;}
	.st29{fill:#474747;}
	.st30{fill:#636363;}
	.st31{fill:#E0D4D2;}
	.st32{fill:#CCC2C0;}
	.st33{fill:#D7B0B1;}
	.st34{fill:#BC9280;}
	.st35{fill:#E7D3C1;}
	.st36{fill:#E0AA96;}
	.st37{fill:#CECAC8;}
	.st38{fill:#F1B8A0;}
	.st39{fill:#E4DCD8;}
	.st40{fill:#8E5E48;}
	.st41{fill:#8C7369;}
	.st42{fill:#C1A395;}
	.st43{fill:#9B8379;}
	.st44{fill:#E0E0E0;}
	.st45{fill:#77615A;}
	.st46{fill:#FFFFFF;}
	.st47{fill:#B1816E;}
	.st48{fill:#DDDAD7;}
	.st49{fill:#0A0A0A;}
	.st50{fill:#6D443C;}
	.st51{fill:#825044;}
	.st52{fill:#282828;}
	.st53{fill:#D3A190;}
	.st54{fill:#1B1E1F;}
	.st55{fill:#E5E2E1;}
	.st56{fill:#9E7364;}
	.st57{fill:#D3D3D3;}
	.st58{fill:#0F0A11;}
	.st59{fill:#7F5150;}
	.st60{opacity:0.72;fill:#1C1C1E;}
	.st61{fill:#B1ABA3;}
	.st62{fill:#C1BDB9;}
	.st63{fill:#7E6D57;}
	.st64{fill:#68543E;}
	.st65{fill:#7F5E39;}
	.st66{fill:#6D4E2F;}
	.st67{fill:#938270;}
</style>
<g id="_x39_">
	<g id="_x31__38_">
		<g id="_x31__39_">
			<polygon id="_x31__40_" class="st0" points="186.06,401.87 183.46,400.29 180.94,398.64 169.78,415.99 172.43,417.72 
				175.14,419.38 			"/>
			<polygon id="_x32__33_" class="st0" points="179.74,417.47 174.58,414.33 169.55,411.02 167.35,414.39 172.43,417.72 
				177.63,420.89 			"/>
			<path id="_x33__13_" class="st1" d="M182.17,454.01c-3.68,6.6-9.76,11.04-16.77,12.78c-3.52,0.92-7.17,0.94-10.87,0.34
				c-3.69-0.62-7.37-1.97-10.81-4.07c-3.39-2.21-6.2-4.99-8.36-8.06c-2.15-3.08-3.65-6.44-4.36-10.03
				c-1.46-7.11-0.03-14.49,4.41-20.61c4.44-6.12,10.94-9.89,17.67-11.19c3.34-0.61,6.86-0.73,10.24-0.16
				c3.39,0.57,6.66,1.82,9.68,3.79c3.09,1.88,5.62,4.31,7.59,7.13c1.98,2.8,3.34,6.08,4.23,9.36
				C186.54,439.94,185.86,447.41,182.17,454.01z"/>
		</g>
		<g id="_x32__32_">
			<polygon id="_x31__41_" class="st0" points="383.78,479.28 377.65,477.77 372.83,497.83 379.09,499.38 			"/>
			<polygon id="_x32__34_" class="st0" points="382.87,496.17 370.91,493.22 369.95,497.13 381.97,500.08 			"/>
			<path id="_x33__14_" class="st1" d="M396.63,530.09c-1.54,7.4-5.95,13.46-11.94,17.25c-5.97,3.75-13.55,5.43-21.11,3.48
				c-7.56-1.86-13.68-6.52-17.35-12.52c-3.69-5.96-4.87-13.52-2.92-20.78c1.97-7.33,6.64-13,12.61-16.69
				c5.96-3.63,13.15-5.02,20.28-3.27c7.1,1.85,12.98,6.06,16.67,11.96C396.59,515.36,398.17,522.69,396.63,530.09z"/>
		</g>
		<g id="_x33__12_">
			<polygon id="_x31__45_" class="st0" points="613.05,508.04 606.64,507.8 605.76,528.41 612.25,528.66 			"/>
			<polygon id="_x32__38_" class="st0" points="615.38,524.76 602.96,524.28 602.78,528.3 615.23,528.77 			"/>
			<path id="_x33__18_" class="st1" d="M635.19,555.77c-0.31,15.22-13.01,26.95-28.36,26.37c-7.65-0.31-14.44-3.59-19.17-8.79
				c-4.73-5.27-7.4-12.3-6.96-19.84s3.87-14.18,8.99-18.81c5.13-4.69,11.97-7.55,19.36-7.25C623.8,528,635.5,540.77,635.19,555.77z"
				/>
		</g>
		<g id="_x34__4_">
			<polygon id="_x31__44_" class="st0" points="831.89,499.84 825.57,500.57 828.04,521.06 834.47,520.31 			"/>
			<polygon id="_x32__37_" class="st0" points="836.91,515.98 824.62,517.41 825.09,521.4 837.42,519.96 			"/>
			<path id="_x33__17_" class="st1" d="M861.57,543.09c1.11,7.48-0.94,14.71-5.23,20.36c-2.15,2.81-4.84,5.31-7.97,7.08
				c-3.13,1.76-6.69,2.95-10.53,3.4c-7.67,0.9-14.98-1.34-20.49-5.68c-5.52-4.34-9.26-10.8-10.01-18.32
				c-0.75-7.52,1.59-14.68,5.89-20.17c4.31-5.49,10.58-9.31,17.9-10.16c3.66-0.43,7.25-0.07,10.61,0.93
				c3.36,0.99,6.47,2.47,9.23,4.58C856.45,529.3,860.46,535.61,861.57,543.09z"/>
		</g>
		<g id="_x35__2_">
			<polygon id="_x31__43_" class="st0" points="1054.73,445.87 1048.82,448.05 1055.95,467.41 1062,465.18 			"/>
			<polygon id="_x32__36_" class="st0" points="1063.35,460.4 1051.8,464.66 1053.18,468.43 1064.78,464.16 			"/>
			<path id="_x33__16_" class="st1" d="M1093.69,480.97c2.86,7,2.58,14.5-0.29,21.01c-1.44,3.23-3.49,6.31-6.16,8.78
				c-2.66,2.46-5.88,4.46-9.53,5.81c-7.32,2.68-14.98,2.3-21.38-0.71c-6.44-3.08-11.57-8.59-13.99-15.75
				c-2.42-7.16-1.73-14.6,1.25-20.8c2.96-6.29,8.12-11.52,15.01-14.04c3.44-1.27,6.99-1.76,10.48-1.57
				c3.49,0.19,6.86,0.9,10.03,2.31C1085.43,468.79,1090.83,473.98,1093.69,480.97z"/>
		</g>
		<g id="_x36__2_">
			<path id="_x31__42_" class="st0" d="M1242.81,343.9c-1.64,1.26-3.33,2.46-4.99,3.69l12.32,16.55c1.71-1.27,3.46-2.51,5.15-3.81
				L1242.81,343.9z"/>
			<path id="_x32__35_" class="st0" d="M1255.16,355.33c-3.17,2.54-6.51,4.89-9.77,7.31l2.38,3.23c3.29-2.44,6.64-4.8,9.83-7.36
				L1255.16,355.33z"/>
			<path id="_x33__15_" class="st1" d="M1290.17,366.22c4.79,5.83,6.75,13.13,5.84,20.23c-0.96,7-4.7,13.92-11.04,18.67
				c-3.18,2.34-6.68,3.96-10.24,4.86c-3.57,0.9-7.19,1.12-10.74,0.52c-7.07-1.13-13.52-4.99-17.81-11.21
				c-4.29-6.22-5.67-13.59-4.56-20.38c0.58-3.37,1.7-6.73,3.44-9.72c1.74-3,4.08-5.67,7.02-7.83c5.82-4.37,12.83-6.07,19.76-5.15
				C1278.68,357.06,1285.36,360.38,1290.17,366.22z"/>
		</g>
	</g>
	<path id="_x32__31_" class="st1" d="M1318.6,271l-1.31,1.65l-1.89,2.29c-1.3,1.55-2.7,3.15-4.07,4.73l-4.31,4.78l-4.5,4.77
		c-1.47,1.6-3.08,3.15-4.62,4.73c-1.57,1.56-3.07,3.16-4.7,4.7c-3.24,3.07-6.36,6.23-9.72,9.23
		c-13.18,12.17-27.12,23.78-41.59,34.81c-29.09,21.89-60.06,41.71-92.58,58.89c-32.47,17.28-66.29,32.27-101.02,45.05
		c-34.73,12.78-70.36,23.35-106.54,32.01l-27.26,6.04c-1.14,0.25-2.27,0.52-3.41,0.75l-3.44,0.64l-6.87,1.28l-13.74,2.56l-6.87,1.28
		l-3.44,0.64l-3.46,0.53l-13.84,2.09l-13.84,2.09c-2.31,0.33-4.61,0.75-6.93,1l-6.96,0.81l-27.85,3.25
		c-9.31,0.9-18.65,1.57-27.98,2.38l-13.99,1.16l-14.05,0.69l-28.09,1.36l-28.16,0.45l-14.08,0.23l-14.17-0.17l-28.34-0.35
		l-28.28-1.05l-14.14-0.54l-14.09-0.92l-14.09-0.92l-7.04-0.46c-2.35-0.14-4.7-0.3-7.03-0.54l-28.06-2.6
		c-2.34-0.23-4.68-0.4-7.01-0.68l-6.98-0.85l-13.95-1.69c-37.17-4.66-74.03-10.89-110.19-19.3c-36.15-8.4-71.59-18.99-105.66-32.21
		l-12.75-5l-12.53-5.4l-6.27-2.69l-6.14-2.91l-12.27-5.82c-16.12-8.1-31.8-16.85-46.76-26.41c-14.94-9.56-29.13-20-42.04-31.27
		l-4.81-4.24l-4.61-4.34l-2.3-2.17l-2.19-2.22c-1.43-1.49-2.99-2.93-4.33-4.44c-1.36-1.5-2.8-2.98-4.11-4.48
		c-1.26-1.49-2.65-3-3.82-4.47l-1.79-2.21c-0.6-0.74-1.08-1.42-1.64-2.13c-0.58-0.73-1-1.35-1.45-1.97l-0.34-0.47l-0.22-0.34
		l-0.21-0.31l-0.05-0.08l0.07,0.11l0.16,0.26l-3.35,2.02l0.13,0.19l0.25,0.38l0.36,0.5c0.47,0.66,0.93,1.32,1.52,2.07
		c0.57,0.73,1.08,1.45,1.69,2.21l1.84,2.27c1.21,1.52,2.62,3.05,3.91,4.58c1.34,1.53,2.8,3.04,4.19,4.57
		c1.37,1.54,2.94,3.01,4.4,4.52l2.22,2.26l2.34,2.2c1.57,1.47,3.1,2.95,4.68,4.41l4.88,4.3c13.08,11.42,27.42,21.97,42.49,31.62
		c15.09,9.65,30.9,18.47,47.14,26.63l12.35,5.86l6.18,2.93l6.31,2.71l12.61,5.44l12.83,5.03c34.27,13.3,69.89,23.94,106.19,32.38
		c36.31,8.44,73.3,14.69,110.59,19.37l14,1.7l7,0.85c2.33,0.27,4.69,0.45,7.03,0.68l28.14,2.61c2.34,0.24,4.7,0.4,7.05,0.54
		l7.06,0.46l14.13,0.92l14.13,0.92l14.17,0.54l28.35,1.06l28.41,0.35l14.2,0.17l14.12-0.23l28.25-0.45l28.18-1.37l14.09-0.69
		l14.04-1.16c9.36-0.81,18.73-1.48,28.07-2.39l27.95-3.26l6.99-0.81c2.33-0.26,4.64-0.68,6.95-1.01l13.89-2.1l13.89-2.1l3.47-0.53
		l3.45-0.64l6.9-1.29l13.79-2.57l6.9-1.28l3.45-0.64c1.15-0.23,2.28-0.5,3.42-0.75l27.36-6.06c36.32-8.69,72.1-19.3,106.99-32.15
		c34.89-12.83,68.87-27.9,101.51-45.27c32.7-17.27,63.84-37.2,93.11-59.23c14.56-11.1,28.6-22.79,41.88-35.06
		c3.39-3.02,6.53-6.21,9.8-9.31c1.64-1.55,3.16-3.17,4.74-4.74c1.56-1.59,3.18-3.16,4.66-4.78l4.55-4.82l4.37-4.85
		c1.39-1.6,2.81-3.23,4.14-4.81l1.93-2.34l1.4-1.77L1318.6,271z"/>
</g>
</svg>
