<?xml version="1.0" encoding="utf-8"?>
<!-- Generator: Adobe Illustrator 25.2.0, SVG Export Plug-In . SVG Version: 6.00 Build 0)  -->
<svg version="1.1" id="ILLUSTRATION" xmlns="http://www.w3.org/2000/svg" xmlns:xlink="http://www.w3.org/1999/xlink" x="0px"
	 y="0px" viewBox="0 0 595.28 841.89" style="enable-background:new 0 0 595.28 841.89;" xml:space="preserve">
<style type="text/css">
	.st0{fill:#EAA757;}
	.st1{fill:#E5E4E4;}
	.st2{fill:#DB953A;}
	.st3{fill:#B0867D;}
	.st4{fill:#CF9B88;}
	.st5{fill:#EEC0B2;}
	.st6{fill:#ADA850;}
	.st7{fill:#77823E;}
	.st8{fill:#5E6D39;}
	.st9{fill:#4B5B26;}
	.st10{fill:#68831E;}
	.st11{fill:#A6AA56;}
	.st12{fill:#626F2A;}
	.st13{fill:#979F50;}
	.st14{fill:#A8886D;}
	.st15{fill:#D0A98A;}
	.st16{fill:#E9CCB9;}
	.st17{fill:#B1BCA0;}
	.st18{fill:#487C4E;}
	.st19{fill:#95BC8B;}
	.st20{fill:#8C9678;}
	.st21{fill:#3C6841;}
	.st22{fill:#608858;}
	.st23{fill:#6E9865;}
	.st24{fill:#232323;}
	.st25{fill:#565656;}
	.st26{fill:#0F0F0F;}
	.st27{fill:#EAE9E8;}
	.st28{fill:#3B383D;}
	.st29{fill:#474747;}
	.st30{fill:#636363;}
	.st31{fill:#E0D4D2;}
	.st32{fill:#CCC2C0;}
	.st33{fill:#D7B0B1;}
	.st34{fill:#BC9280;}
	.st35{fill:#E7D3C1;}
	.st36{fill:#E0AA96;}
	.st37{fill:#CECAC8;}
	.st38{fill:#F1B8A0;}
	.st39{fill:#E4DCD8;}
	.st40{fill:#8E5E48;}
	.st41{fill:#8C7369;}
	.st42{fill:#C1A395;}
	.st43{fill:#9B8379;}
	.st44{fill:#E0E0E0;}
	.st45{fill:#77615A;}
	.st46{fill:#FFFFFF;}
	.st47{fill:#B1816E;}
	.st48{fill:#DDDAD7;}
	.st49{fill:#0A0A0A;}
	.st50{fill:#6D443C;}
	.st51{fill:#825044;}
	.st52{fill:#282828;}
	.st53{fill:#D3A190;}
	.st54{fill:#1B1E1F;}
	.st55{fill:#E5E2E1;}
	.st56{fill:#9E7364;}
	.st57{fill:#D3D3D3;}
	.st58{fill:#0F0A11;}
	.st59{fill:#7F5150;}
	.st60{opacity:0.72;fill:#1C1C1E;}
	.st61{fill:#B1ABA3;}
	.st62{fill:#C1BDB9;}
	.st63{fill:#7E6D57;}
	.st64{fill:#68543E;}
	.st65{fill:#7F5E39;}
	.st66{fill:#6D4E2F;}
	.st67{fill:#938270;}
</style>
<g id="_x32_">
	<path id="_x31__17_" class="st47" d="M244.99,130.02c0,0,5.6,23.55-3.98,37.12c-9.58,13.57-11.19,43.9-11.19,43.9l36.72,122.73
		l-3.79,38.12c0,0,70.25,8.38,96.19,1.2c25.94-7.18,30.53-21.95,30.53-21.95l-37.72-89.2l-20.36-89.33c0,0-31.93,5.71-34.13,5.31
		s-5.59-9.78-5.59-9.78l-29.2-37.32L244.99,130.02z"/>
	<g id="_x32__14_">
		<g id="_x31__15_">
			<path id="_x31__16_" class="st48" d="M244.19,183.7c-0.8-1-9.37-12.25-9.37-12.25s-32.04,26.22-36.69,39.08
				c-2.65,7.33,4.16,45.81,4.16,45.81l60.87,76.03l-4.99,20.95c0,0,36.72,14.37,68.05,11.38s61.26-18.3,61.26-18.3l-29.73-81.48
				l-26.34-92.32l-37.15,1.48c0,0,1.22,27.8-7.75,31.57c-8.97,3.77-21.55-2.59-21.55-2.59L244.19,183.7z"/>
			<path id="_x32__17_" class="st48" d="M331.4,172.61c2.16,0.24,42.37,24.49,57.74,37.06c15.37,12.57,28.84,25.74,28.84,25.74
				l41.61-41.93l20.36,10.53c0,0-32.03,75.11-45.2,80.49c-13.17,5.39-47.6-7.25-62.26-17.7s-37.42-39.78-37.42-39.78L331.4,172.61z"
				/>
		</g>
		<g id="_x32__15_">
			<polygon id="_x31__14_" class="st46" points="294.26,174.09 287.46,203.4 294.26,215.83 302.87,190.69 			"/>
			<path id="_x32__16_" class="st46" d="M239.2,161.15c0.4,1.2,11.44,26.94,23.28,34.72c11.84,7.78,17.23,9.78,17.83,9.98
				c0.6,0.2-12.57,14.37-12.57,14.37s-11.57-18.56-18.56-22.15s-22.55-7.38-22.55-7.38L239.2,161.15z"/>
		</g>
	</g>
	<g id="_x33__4_">
		<g id="_x31__10_">
			<g id="_x31__12_">
				<path id="_x31__13_" class="st47" d="M336.59,696.38c-2.99,4.79-17.96,29.64-17.96,29.64s6.29,16.76,14.37,24.55
					c8.08,7.78,8.08,7.78,8.08,7.78s-4.79,8.08-18.56,3.89c-13.77-4.19-38.62-22.45-38.62-22.45s5.69-14.37,5.99-16.16
					c0.3-1.8,10.48-35.32,10.48-35.32L336.59,696.38z"/>
				<path id="_x32__13_" class="st49" d="M283.91,735.63c0,0,19.86,16.83,28.59,20.82c8.73,3.99,14.52,2.79,18.11,2
					c3.59-0.8,4.68-5.68,4.68-5.68s21.26,12.06,24.65,15.86c3.39,3.79,3.39,9.18,3.39,9.18s-5.39,4.99-14.57,4.39
					c-9.18-0.6-44.1-15.37-44.1-15.37s-13.57,2.39-20.75,0.2s-8.58-10.38-7.38-13.97C277.72,749.46,283.91,735.63,283.91,735.63z"/>
			</g>
			<g id="_x32__11_">
				<path id="_x31__11_" class="st49" d="M160.65,754.21c0,0-3.46,18.8-7.65,24.39c-4.19,5.59-9.38,3.59-14.17,6.79
					c-4.79,3.19-25.74,17.56-34.52,22.95s-22.31,3.35-26.5-0.85c-4.19-4.19-0.25-19.57,13.12-29.99s27.88-16.18,27.88-16.18
					L160.65,754.21z"/>
				<path id="_x32__12_" class="st47" d="M154.59,690.69c0,0-17.06,49.09-17.96,49.99c-0.55,0.55-10.35,11.93-17.84,20.63h0h0
					c-1.05,1.22-2.05,2.38-2.97,3.46c-1.06,1.84-1.55,4.14,0.45,6.24c4.17,4.36,17.24,5.34,21.24,4.32c4-1.02,15.94-7.63,17.97-10.1
					c4.19-5.09,7.48-19.16,7.48-19.16l21.25-39.81L154.59,690.69z"/>
			</g>
		</g>
		<path id="_x32__10_" class="st49" d="M263.15,332.38c3.39,1.4,60.67,0.6,78.23-2.2s34.22-16.33,34.22-16.33
			s27.25,56.64,32.44,108.52c5.19,51.89-25.14,177.21-25.14,177.21l-47,108.16l-41.21-10.38c0,0,8.78-66.25,14.77-79.03
			c5.99-12.77,20.75-32.73,20.75-32.73l-5.59-130.51c0,0-49.75,110.96-56,124.53c-6.26,13.57-33,46.3-33,46.3l-47.5,92.6
			l-40.71-17.56c0,0,29.14-89.4,47.5-122.93c18.36-33.53,28.74-61.84,28.74-61.84s12.37-108.58,19.56-131.33
			C250.38,362.11,263.15,332.38,263.15,332.38z"/>
	</g>
	<g id="_x34__2_">
		<g id="_x31__3_">
			<g id="_x31__8_">
				<path id="_x31__9_" class="st50" d="M296.63,170.28c3.42-9.73,9.86-17.06,25.36-16.76c15.5,0.3,14.9,1.65,20.29,0.9
					c5.39-0.75,10.63-4.04,10.63-4.04s3.44,13.17,20.06,10.33c16.61-2.84,14.52-11.97,14.52-11.97s5.84,0.6,9.28,0
					c3.44-0.6,12.87-8.54,29.34-5.99c16.46,2.55,25.29,9.13,25.44,21.1c0.15,11.97,1.65,23.05-15.72,27.99
					c-17.36,4.94-23.8,3.59-28.29,5.54c-4.49,1.95-5.39,2.99-5.39,2.99s-1.95-9.43-17.36-6.88c-15.42,2.54-19.46,16.01-19.46,16.01
					s-4.64-0.96-8.08,0.87c-3.44,1.83-10.18,13.2-31.13,11.7c-20.95-1.5-29.34-16.86-31.13-25
					C293.19,188.94,293.21,180.01,296.63,170.28z"/>
				<path id="_x32__9_" class="st51" d="M296.63,158.61c3.42-9.73,9.86-17.06,25.36-16.76c15.5,0.3,14.9,1.65,20.29,0.9
					s10.63-4.04,10.63-4.04s3.44,13.17,20.06,10.33s14.52-11.97,14.52-11.97s5.84,0.6,9.28,0c3.44-0.6,12.87-8.54,29.34-5.99
					c16.46,2.55,25.29,9.13,25.44,21.1c0.15,11.97,1.65,23.05-15.72,27.99s-23.8,3.59-28.29,5.54c-4.49,1.95-5.39,2.99-5.39,2.99
					s-1.95-9.43-17.36-6.88c-15.42,2.54-19.46,16.01-19.46,16.01s-4.64-0.96-8.08,0.87s-10.18,13.2-31.13,11.7
					c-20.95-1.5-29.34-16.86-31.13-25C293.19,177.26,293.21,168.34,296.63,158.61z"/>
			</g>
			<g id="_x32__7_">
				<path id="_x31__7_" class="st52" d="M293.99,170.55c0.84,0.18,46.94-12.84,46.94-12.84l4.04,13.74l-48.98,9.08L293.99,170.55z"
					/>
				<path id="_x32__8_" class="st52" d="M381.09,149.78l2.99,13.17c0,0,64.46-8.78,78.23-9.98c13.77-1.2,48.09-0.2,48.09-0.2v-10.53
					c0,0-36.32-1.15-52.09,0C442.56,143.39,381.09,149.78,381.09,149.78z"/>
			</g>
			<g id="_x33__2_">
				<g id="_x31__5_">
					<path id="_x31__6_" class="st52" d="M529.82,146.49c0-0.45,4.79-6.44,2.25-9.13c-2.54-2.69-9.13-2.88-9.43-0.92
						c-0.3,1.96,1.8,8.7,1.8,8.7L529.82,146.49z"/>
					<path id="_x32__6_" class="st52" d="M516.5,143.49c0.15-0.9-1.35-13.63-3.14-13.48c-1.8,0.16-5.24,4.91-4.64,6.42
						s6.74,7.05,6.74,7.05H516.5z"/>
				</g>
				<path id="_x32__5_" class="st51" d="M539.1,145.59c0,0-2.69-5.54,1.8-7.63s11.08-1.95,12.42,0c1.35,1.95,4.04,10.63,4.04,10.63
					s-1.8,8.83-8.38,9.73c-6.59,0.9-18.41-2.39-23.8-3.44c-5.39-1.05-14.77-2.1-14.77-2.1v-10.53c0,0,9.83-1.44,16.41,0.65
					c6.59,2.1,12.42,6.74,12.42,6.74L539.1,145.59z"/>
				<g id="_x33__3_">
					<path id="_x31__4_" class="st52" d="M530.86,155.02c0,0,4.33,7.18,1.94,7.93s-9.73-1.5-9.43-2.99c0.3-1.5,0-7.6,0.9-7.62
						C525.18,152.32,530.86,155.02,530.86,155.02z"/>
					<path id="_x32__4_" class="st52" d="M543.59,155.32c0,0,3.14,4.79,1.5,7.78c-1.65,2.99-8.08,3.89-8.83,2.4s0-10.18,0-10.18
						H543.59z"/>
				</g>
			</g>
		</g>
		<path id="_x32__3_" class="st47" d="M478.77,203.4c0.8-0.8,11.09-21.46,18.47-31.95c7.38-10.5,15.83-26.65,11.41-30.64
			s-11.61-3.2-11.61-3.2s-0.94-6.79-3.86-5.19c-2.92,1.6-4.52,4.34-4.52,4.34s-2.99,3.13-5.59,4.05c-2.6,0.92-9.78,2.59-10.38,4.58
			s-6.01,0.73-5.39,3.99c0.62,3.26,8.58,11.38,8.58,11.38s-6.48,12.57-8.63,18.35c-2.15,5.79-5.4,15.54-5.4,15.54L478.77,203.4z"/>
	</g>
	<g id="_x35__1_">
		<g id="_x31__2_">
			<g>
				<polygon class="st53" points="392.82,269.25 355.1,45.72 356.39,45.5 394.11,269.04 				"/>
			</g>
			<g>
				
					<rect x="376.59" y="41.74" transform="matrix(0.9869 -0.1616 0.1616 0.9869 -19.9378 63.0902)" class="st54" width="2.61" height="224.77"/>
			</g>
			
				<rect x="390.71" y="263.69" transform="matrix(0.9818 -0.19 0.19 0.9818 -43.9375 79.9747)" class="st54" width="8.86" height="10.9"/>
			
				<rect x="353.88" y="42.35" transform="matrix(0.9818 -0.19 0.19 0.9818 -2.5699 68.9609)" class="st54" width="8.99" height="11.06"/>
		</g>
		<g id="_x32__2_">
			<path class="st47" d="M322.52,246.92c6.59-4.19,28.93-15.83,28.93-15.83s23.16-16.55,27.95-15.25c4.79,1.3,17.36,7.88,18.11,8.93
				c0.75,1.05,0.9,3.59,0.9,3.59s7.48,5.84,7.93,7.78c0.45,1.95-1.05,4.64-1.05,4.64s-11.97-1.35-11.52-0.6
				c0.45,0.75,11.38,12.87,11.67,15.42c0.3,2.54-1.95,5.54-3.89,4.19s-9.88-10.03-9.88-10.03s-10.48,2.54-20.36,4.64
				c-9.88,2.1-24.25,2.99-24.25,2.99l-16.91,7.63L322.52,246.92z"/>
			<path class="st55" d="M189.91,239.78c-1.4,22.35,9.78,76.52,20.16,87.3c10.38,10.78,29.84,22.97,39.51,18.96
				c32.75-13.57,96.99-77.26,96.99-77.26l-11.78-30.79l-81.31,42.31l-6.3-34.13c0,0-5.19-31.53-10.58-37.72
				c-5.39-6.19-21.06-11.33-29.68-6.16C198.32,207.45,191.31,217.43,189.91,239.78z"/>
		</g>
	</g>
	<g id="_x36__1_">
		<path id="_x31__1_" class="st56" d="M286.45,167.59c-2.96-1.97-16.75-14.21-23.57-20.8c0.73,7.42,5.94,14.03,12.15,19.76
			c9.58,8.86,18.56,10.53,18.56,10.53l2.23-4.58C294.25,172.65,293.99,172.6,286.45,167.59z"/>
		<path id="_x32__1_" class="st47" d="M304.26,72.55c0,0,9.58,13.47,9.88,22.75s0,15.87,0,15.87s8.68,13.77,7.78,18.26
			c-0.9,4.49-6.14,5.39-6.14,5.39l-0.3,6.29l-3.29,5.54c0,0,2.25,4.34,1.8,6.14c-0.45,1.8-1.65,4.19-1.65,4.19
			s1.65,10.03-0.45,11.38c-2.1,1.35-16.05,6.07-19.91,4.04c-25.89-13.62-31.58-27.99-31.58-27.99l-7.48-42.96L304.26,72.55z"/>
		<path id="_x33__1_" class="st49" d="M294.83,80.18c0,0-5.39,20.06-8.23,21.25s-9.58,2.99-12.27,6.14s-5.69,9.58-8.68,11.82
			c-2.99,2.25-6.88,3.18-6.88,3.18l-10.38,19.22l-3.99,24.45c0,0-13.77,20.95-20.21,21.25c-6.44,0.3-19.91,0.75-20.06-9.28
			s1.35-21.1,1.35-21.1s-10.63-10.03-5.99-16.31c4.64-6.29,9.13-6.9,9.13-6.9s1.8-7.17,4.64-7.91c2.84-0.75,6.14,0,6.14,0
			s-16.16-36.82,1.2-52.68s45.57-21.4,66.86-11.38s19.96,15.56,19.96,15.56L294.83,80.18z"/>
		<path id="_x34__1_" class="st47" d="M258.76,122.58c-0.6-0.34-7.03-7.37-11.23-5.88c-4.19,1.5-8.68,10.63-5.39,15.87
			c3.29,5.24,6.59,6.59,8.98,8.68c2.39,2.1,9.58,3.29,11.08,1.2C263.7,140.35,258.76,122.58,258.76,122.58z"/>
	</g>
</g>
</svg>
