<?xml version="1.0" encoding="UTF-8"?><svg xmlns="http://www.w3.org/2000/svg" viewBox="0 0 556.92 77.65"><defs><style>.c,.d{fill:#faffff;}.e{fill:#fff;}.f{fill:#268fcc;}.d{stroke:#fff;stroke-miterlimit:10;}.d,.g{opacity:.5;}.h{mix-blend-mode:darken;}.i{isolation:isolate;}</style></defs><g class="i"><g id="a"><g class="g"><polygon class="c" points=".89 76.68 19.59 45.64 .88 14.59 69.47 14.59 69.47 76.68 .89 76.68"/><path class="e" d="m68.97,15.09v61.09H1.77l18.09-30.03.31-.52-.31-.52L1.77,15.09h67.2m1-1H0l19.01,31.54L0,77.18h69.97V14.09h0Z"/></g><g class="g"><polygon class="c" points="487.44 76.68 487.44 14.59 556.03 14.59 537.33 45.64 556.03 76.68 487.44 76.68"/><path class="e" d="m555.15,15.09l-18.09,30.03-.31.52.31.52,18.09,30.03h-67.2V15.09h67.2m1.77-1h-69.97v63.09h69.97l-19.01-31.54,19.01-31.54h0Z"/></g><g class="g"><rect class="c" x="35.24" y=".5" width="488.93" height="62.09"/><path class="e" d="m523.67,1v61.09H35.74V1h487.93m1-1H34.74v63.09h489.93V0h0Z"/></g><line class="d" x1="34.74" y1="63.09" x2="69.97" y2="77.18"/><line class="d" x1="524.67" y1="63.09" x2="486.94" y2="77.18"/><path d="m236.39,10.61h-3.02v-.64h6.75v.64h-3.03v8.34h-.71v-8.34Z"/><path d="m248,16.55c-.42,1.42-1.48,2.5-3.38,2.5-2.58,0-3.94-2.05-3.94-4.58s1.33-4.63,3.95-4.63c1.94,0,3.08,1.08,3.38,2.58h-.69c-.41-1.17-1.17-1.94-2.72-1.94-2.23,0-3.17,2.04-3.17,3.98s.92,3.95,3.22,3.95c1.46,0,2.21-.76,2.66-1.86h.69Z"/><path d="m250.21,18.95v-5.81h-1.1v-.6h1.1v-.91c0-1.08.31-2.26,1.75-2.26.19,0,.48.04.63.09v.62c-.19-.05-.5-.08-.69-.08-.76,0-1.04.54-1.04,1.66v.89h1.4v.6h-1.4v5.81h-.64Z"/><path d="m254.03,16.53c.27,1.19,1.07,1.9,2.54,1.9,1.64,0,2.27-.82,2.27-1.8s-.45-1.64-2.42-2.13c-1.9-.48-2.72-1.09-2.72-2.39,0-1.18.86-2.28,2.78-2.28s2.81,1.21,2.93,2.3h-.72c-.21-.96-.83-1.66-2.25-1.66-1.3,0-2,.6-2,1.6s.59,1.37,2.25,1.78c2.53.63,2.9,1.64,2.9,2.72,0,1.32-.96,2.46-3.04,2.46-2.25,0-3.07-1.31-3.23-2.52h.72Z"/><path d="m262.25,9.96v8.98h-.69v-8.98h.69Z"/><path d="m275.4,13.17l-2.23,3.46c-1.09,1.68-1.87,2.44-3.31,2.44s-2.32-1.17-2.32-2.28.5-1.92,2.4-2.95c1.31-.85,1.8-1.21,1.8-2.03,0-.71-.45-1.39-1.31-1.39-.81,0-1.37.5-1.37,1.44,0,.58.4,1.12,1.17,1.85l5.31,5.24h-.96l-4.85-4.79c-.83-.8-1.32-1.39-1.32-2.3,0-1.01.68-2.03,2.05-2.03,1.15,0,1.95.87,1.95,1.98,0,.87-.47,1.44-2.05,2.41-1.81,1.03-2.12,1.66-2.12,2.52,0,.92.8,1.71,1.63,1.71,1.04,0,1.73-.36,2.89-2.21l1.91-3.07h.74Z"/><path d="m280.73,16.53c.27,1.19,1.07,1.9,2.54,1.9,1.64,0,2.27-.82,2.27-1.8s-.45-1.64-2.42-2.13c-1.9-.48-2.72-1.09-2.72-2.39,0-1.18.86-2.28,2.78-2.28s2.81,1.21,2.93,2.3h-.72c-.21-.96-.83-1.66-2.25-1.66-1.3,0-2,.6-2,1.6s.59,1.37,2.25,1.78c2.53.63,2.9,1.64,2.9,2.72,0,1.32-.96,2.46-3.04,2.46-2.25,0-3.07-1.31-3.23-2.52h.72Z"/><path d="m295.84,14.39c0,2.45-1.31,4.68-4.08,4.68-2.53,0-4-2.04-4-4.62s1.42-4.62,4.09-4.62c2.46,0,3.99,1.94,3.99,4.56Zm-7.34.03c0,2.07,1.14,4.02,3.3,4.02,2.32,0,3.3-1.9,3.3-4.03s-1.1-3.93-3.27-3.93c-2.31,0-3.32,1.91-3.32,3.94Z"/><path d="m297.84,16.53c.27,1.19,1.07,1.9,2.54,1.9,1.64,0,2.27-.82,2.27-1.8s-.45-1.64-2.42-2.13c-1.9-.48-2.72-1.09-2.72-2.39,0-1.18.86-2.28,2.78-2.28s2.81,1.21,2.93,2.3h-.72c-.21-.96-.83-1.66-2.25-1.66-1.3,0-2,.6-2,1.6s.59,1.37,2.25,1.78c2.53.63,2.9,1.64,2.9,2.72,0,1.32-.96,2.46-3.04,2.46-2.25,0-3.07-1.31-3.23-2.52h.72Z"/><path d="m136.51,26.51h-4.27v-1.68h10.54v1.68h-4.27v11.69h-2v-11.69Z"/><path d="m144.49,28.4c1.15,4.47,1.81,7.02,1.98,8.07h.03c.18-.95.79-3.22,2.15-8.07h1.83c1.45,5.41,1.88,6.98,2.04,7.9h.02c.23-1.04.61-2.51,2.06-7.9h1.9l-3,9.8h-2.04c-.93-3.6-1.78-6.65-1.99-7.76h-.02c-.18,1.1-.98,3.94-2.04,7.76h-2.09l-2.83-9.8h2Z"/><path d="m166.7,33.28c0,2.85-1.65,5.15-4.67,5.15-2.85,0-4.57-2.17-4.57-5.12s1.7-5.15,4.68-5.15c2.75,0,4.55,2.04,4.55,5.11Zm-7.29.02c0,2.1,1.02,3.58,2.7,3.58s2.66-1.42,2.66-3.57-.95-3.59-2.7-3.59-2.66,1.37-2.66,3.58Z"/><path d="m175.97,24.83v13.37h-1.99v-13.37h1.99Z"/><path d="m178.88,30.87c0-.85,0-1.72-.02-2.47h1.84c.05.28.08,1.24.07,1.54.38-.8,1.18-1.77,3.04-1.77s3.27,1.16,3.27,3.74v6.29h-1.89v-6.06c0-1.41-.54-2.37-1.98-2.37-1.71,0-2.44,1.26-2.44,3.18v5.24h-1.89v-7.33Z"/><path d="m189.87,24.08h1.89v2.17h-1.89v-2.17Zm0,4.32h1.89v9.8h-1.89v-9.8Z"/><path d="m193.45,28.4h1.66v-2.85h1.89v2.85h2.12v1.51h-2.12v5.57c0,.91.23,1.36,1.1,1.36.22,0,.55-.01.81-.07v1.39c-.44.16-1.05.18-1.54.18-1.6,0-2.27-.83-2.27-2.48v-5.95h-1.66v-1.51Z"/><path d="m200.85,24.08h1.89v2.17h-1.89v-2.17Zm0,4.32h1.89v9.8h-1.89v-9.8Z"/><path d="m212.89,35.99c0,.9.08,1.94.13,2.21h-1.81c-.08-.21-.13-.69-.16-1.22-.34.63-1.1,1.45-2.97,1.45-2.32,0-3.31-1.51-3.31-3.01,0-2.2,1.73-3.2,4.64-3.2h1.62v-.79c0-.83-.27-1.82-1.99-1.82-1.54,0-1.81.75-1.98,1.5h-1.82c.13-1.43,1.02-2.96,3.86-2.95,2.44,0,3.79.99,3.79,3.24v4.58Zm-1.84-2.5h-1.49c-1.89,0-2.85.53-2.85,1.83,0,.96.65,1.67,1.81,1.67,2.24,0,2.54-1.51,2.54-3.2v-.3Z"/><path d="m214.36,28.4h1.66v-2.85h1.89v2.85h2.12v1.51h-2.12v5.57c0,.91.23,1.36,1.1,1.36.22,0,.55-.01.81-.07v1.39c-.44.16-1.05.18-1.54.18-1.6,0-2.27-.83-2.27-2.48v-5.95h-1.66v-1.51Z"/><path d="m221.76,24.08h1.89v2.17h-1.89v-2.17Zm0,4.32h1.89v9.8h-1.89v-9.8Z"/><path d="m227.37,28.4c1.24,3.88,2.17,6.85,2.45,8.07h.02c.25-1.19,1.27-4.13,2.62-8.07h1.91l-3.58,9.8h-2.06l-3.4-9.8h2.03Z"/><path d="m237.13,33.66c.01,1.85.94,3.22,2.54,3.22,1.47,0,1.94-.73,2.24-1.42h1.9c-.38,1.24-1.43,2.98-4.2,2.98-3.11,0-4.4-2.49-4.4-5.02,0-2.95,1.49-5.24,4.5-5.24,3.2,0,4.26,2.52,4.26,4.68,0,.3,0,.55-.03.82h-6.82Zm4.94-1.29c-.02-1.52-.76-2.75-2.37-2.75s-2.36,1.14-2.51,2.75h4.88Z"/><path d="m247.26,35.37c.27,1.02,1.03,1.61,2.3,1.61,1.36,0,1.88-.57,1.88-1.4s-.44-1.25-2.22-1.68c-2.88-.7-3.45-1.58-3.45-2.92s1.02-2.8,3.62-2.8,3.64,1.49,3.76,2.85h-1.82c-.13-.58-.56-1.42-2.03-1.42-1.28,0-1.67.61-1.67,1.21,0,.68.38,1.02,2.14,1.44,3.03.72,3.6,1.73,3.6,3.19,0,1.7-1.34,3-3.88,3s-3.87-1.31-4.11-3.06h1.88Z"/><path d="m265.11,32.42v1.7h-5.12v-1.7h5.12Z"/><path d="m284.55,31.45c0,3.69-2.1,6.95-6.33,6.95-3.99,0-6.18-3.04-6.18-6.88s2.28-6.88,6.34-6.88c3.79,0,6.17,2.81,6.17,6.81Zm-10.45.01c0,2.84,1.42,5.27,4.2,5.27,3,0,4.18-2.48,4.18-5.25s-1.33-5.17-4.18-5.17-4.19,2.34-4.19,5.15Z"/><path d="m286.91,30.87c0-.85,0-1.72-.02-2.47h1.84c.05.28.08,1.24.07,1.54.38-.8,1.18-1.77,3.04-1.77s3.27,1.16,3.27,3.74v6.29h-1.89v-6.06c0-1.41-.54-2.37-1.98-2.37-1.71,0-2.44,1.26-2.44,3.18v5.24h-1.89v-7.33Z"/><path d="m299.13,33.66c.01,1.85.94,3.22,2.54,3.22,1.47,0,1.94-.73,2.24-1.42h1.9c-.38,1.24-1.43,2.98-4.2,2.98-3.11,0-4.4-2.49-4.4-5.02,0-2.95,1.49-5.24,4.5-5.24,3.2,0,4.26,2.52,4.26,4.68,0,.3,0,.55-.03.82h-6.82Zm4.94-1.29c-.02-1.52-.76-2.75-2.37-2.75s-2.36,1.14-2.51,2.75h4.88Z"/><path d="m323.88,34.35c-.58,2.31-2.31,4.03-5.41,4.03-4.05,0-6.06-3.03-6.06-6.81s2.03-6.93,6.14-6.93c3.23,0,4.95,1.85,5.33,4.09h-1.99c-.44-1.38-1.36-2.46-3.42-2.46-2.84,0-4,2.58-4,5.23s1.08,5.25,4.07,5.25c2.03,0,2.87-1.2,3.33-2.4h1.99Z"/><path d="m333.49,35.99c0,.9.08,1.94.14,2.21h-1.81c-.08-.21-.13-.69-.16-1.22-.34.63-1.1,1.45-2.97,1.45-2.32,0-3.31-1.51-3.31-3.01,0-2.2,1.73-3.2,4.64-3.2h1.62v-.79c0-.83-.27-1.82-1.99-1.82-1.54,0-1.81.75-1.98,1.5h-1.82c.13-1.43,1.02-2.96,3.87-2.95,2.44,0,3.79.99,3.79,3.24v4.58Zm-1.84-2.5h-1.49c-1.89,0-2.85.53-2.85,1.83,0,.96.65,1.67,1.81,1.67,2.24,0,2.54-1.51,2.54-3.2v-.3Z"/><path d="m336.32,30.93c0-.85,0-1.72-.02-2.53h1.82c.03.28.08.97.07,1.44.46-.85,1.3-1.67,2.83-1.67,1.39,0,2.31.71,2.68,1.71.53-.91,1.44-1.71,3.1-1.71s3.09.96,3.09,3.59v6.44h-1.86v-6.21c0-1.09-.39-2.22-1.84-2.22s-2.15,1.12-2.15,2.81v5.62h-1.85v-6.15c0-1.21-.34-2.28-1.8-2.28s-2.2,1.16-2.2,2.99v5.44h-1.87v-7.28Z"/><path d="m354.59,37.06v4.98h-1.88v-11.25c0-.8,0-1.62-.02-2.39h1.84c.04.31.07.91.07,1.48.51-.94,1.48-1.71,3.13-1.71,2.25,0,3.91,1.89,3.91,4.88,0,3.49-1.89,5.38-4.27,5.38-1.55,0-2.35-.64-2.78-1.38Zm5.11-3.93c0-2.02-.9-3.37-2.5-3.37-1.94,0-2.69,1.23-2.69,3.53s.63,3.58,2.56,3.58c1.72,0,2.63-1.41,2.63-3.74Z"/><path d="m371.22,35.99c0,.9.08,1.94.14,2.21h-1.81c-.08-.21-.13-.69-.16-1.22-.34.63-1.1,1.45-2.97,1.45-2.32,0-3.31-1.51-3.31-3.01,0-2.2,1.73-3.2,4.64-3.2h1.62v-.79c0-.83-.27-1.82-1.99-1.82-1.54,0-1.81.75-1.98,1.5h-1.82c.13-1.43,1.02-2.96,3.87-2.95,2.44,0,3.79.99,3.79,3.24v4.58Zm-1.84-2.5h-1.49c-1.89,0-2.85.53-2.85,1.83,0,.96.65,1.67,1.81,1.67,2.24,0,2.54-1.51,2.54-3.2v-.3Z"/><path d="m374.04,24.08h1.89v2.17h-1.89v-2.17Zm0,4.32h1.89v9.8h-1.89v-9.8Z"/><path d="m386.98,37.26c0,3.14-1.27,4.97-4.57,4.97-3.09,0-3.96-1.73-4.12-3.02h1.93c.27,1,1.06,1.54,2.28,1.54,2.14,0,2.65-1.35,2.65-3.54v-.73c-.52,1.05-1.4,1.65-3.01,1.65-2.45,0-4.06-2-4.06-4.82,0-3.17,1.86-5.15,4.24-5.15,1.83,0,2.61.86,2.82,1.48.02-.41.06-1.05.08-1.24h1.79c0,.63-.03,1.89-.03,2.83v6.03Zm-6.95-4.02c0,1.99,1.03,3.32,2.55,3.32,2.02,0,2.6-1.36,2.6-3.44s-.52-3.37-2.55-3.37c-1.69,0-2.61,1.4-2.61,3.49Z"/><path d="m389.78,30.87c0-.85,0-1.72-.02-2.47h1.84c.05.28.08,1.24.07,1.54.38-.8,1.18-1.77,3.04-1.77s3.27,1.16,3.27,3.74v6.29h-1.89v-6.06c0-1.41-.54-2.37-1.98-2.37-1.71,0-2.44,1.26-2.44,3.18v5.24h-1.89v-7.33Z"/><path d="m402.08,33.64l-.24-6.46v-2.34h2.03v2.35l-.23,6.45h-1.57Zm-.18,4.58v-2.75h1.87v2.75h-1.87Z"/><path class="f" d="m231.91,46.34h5.44v.64h-4.75v3.39h4.45v.64h-4.45v4.31h-.69v-8.98Z"/><path class="f" d="m238.74,45.86h.64v1.24h-.64v-1.24Zm0,3.04h.64v6.42h-.64v-6.42Z"/><path class="f" d="m241.49,50.52c0-.56,0-1.1-.01-1.62h.63c.03.21.04,1.04.03,1.22.28-.65.81-1.37,2.13-1.37,1.14,0,2.16.64,2.16,2.41v4.16h-.64v-4.06c0-1.14-.47-1.89-1.59-1.89-1.53,0-2.05,1.27-2.05,2.67v3.27h-.64v-4.8Z"/><path class="f" d="m253.48,45.86v7.61c0,.62,0,1.21.01,1.85h-.62c-.03-.15-.04-.76-.04-1.08-.32.78-1.04,1.23-2.16,1.23-1.67,0-2.67-1.36-2.67-3.29s1.09-3.44,2.84-3.44c1.28,0,1.8.55,1.99.96v-3.85h.64Zm-4.79,6.3c0,1.76.91,2.71,2.01,2.71,1.69,0,2.16-1.17,2.16-2.91,0-1.66-.4-2.6-2.04-2.6-1.27,0-2.13,1.01-2.13,2.81Z"/><path class="f" d="m264.12,52.1c0,1.78-.99,3.38-2.9,3.38-1.73,0-2.81-1.42-2.81-3.36,0-1.84,1.01-3.36,2.87-3.36,1.71,0,2.84,1.33,2.84,3.35Zm-5.03.01c0,1.53.82,2.76,2.18,2.76s2.17-1.14,2.17-2.76c0-1.51-.77-2.76-2.19-2.76s-2.16,1.22-2.16,2.76Z"/><path class="f" d="m270.51,53.45c0,.63.01,1.63.01,1.87h-.62c-.03-.17-.04-.59-.04-1.12-.27.76-.92,1.27-2.07,1.27-.92,0-2.1-.36-2.1-2.32v-4.25h.63v4.09c0,.94.3,1.85,1.57,1.85,1.44,0,1.98-.81,1.98-2.64v-3.3h.64v4.54Z"/><path class="f" d="m271.81,48.9h1.19v-2h.64v2h1.53v.6h-1.53v4.17c0,.72.15,1.13.77,1.13.19,0,.46-.01.67-.08v.56c-.22.09-.53.12-.8.12-.82,0-1.28-.41-1.28-1.44v-4.47h-1.19v-.6Z"/><path class="f" d="m279.82,50.56c0-.55,0-1.16-.01-1.66h.63c.01.22.04.77.03,1.14.27-.64.86-1.3,1.92-1.3.9,0,1.6.45,1.86,1.27.32-.67.96-1.27,2.09-1.27.99,0,2.01.56,2.01,2.35v4.22h-.64v-4.15c0-.86-.31-1.8-1.5-1.8s-1.81,1-1.81,2.25v3.7h-.63v-4.13c0-.94-.28-1.81-1.46-1.81-1.25,0-1.85,1.1-1.85,2.41v3.53h-.64v-4.76Z"/><path class="f" d="m295.66,52.1c0,1.78-.99,3.38-2.9,3.38-1.73,0-2.81-1.42-2.81-3.36,0-1.84,1.01-3.36,2.87-3.36,1.71,0,2.84,1.33,2.84,3.35Zm-5.03.01c0,1.53.82,2.76,2.18,2.76s2.17-1.14,2.17-2.76c0-1.51-.77-2.76-2.19-2.76s-2.16,1.22-2.16,2.76Z"/><path class="f" d="m297.26,50.65c0-1.08-.01-1.54-.01-1.75h.63c.01.21.03.62.03,1.44.37-.96,1.19-1.54,2.23-1.59v.69c-1.33.09-2.23,1.01-2.23,2.54v3.34h-.64v-4.67Z"/><path class="f" d="m301.45,52.19c.01,1.66.85,2.68,2.08,2.68s1.62-.68,1.85-1.21h.65c-.27.85-.95,1.81-2.53,1.81-1.95,0-2.71-1.68-2.71-3.31,0-1.83.91-3.41,2.78-3.41,1.98,0,2.61,1.71,2.61,2.91,0,.18,0,.36-.01.53h-4.72Zm4.07-.56c-.01-1.27-.71-2.27-1.96-2.27-1.32,0-1.92.92-2.07,2.27h4.03Z"/><path class="f" d="m230.65,56.92v-.64h76.05v.64h-76.05Z"/><g id="b" class="h"><path d="m111.55,40.91c.02.84-.1,2.23-.53,3.57-.81,2.48-2.56,3.02-4.6,1.4-1.68-1.34-2.82-3.11-3.83-4.96-2.03-3.76-3.39-7.75-4.07-11.96-.28-1.76-.41-3.55-.49-5.34-.06-1.29.13-2.59.57-3.83.82-2.29,2.45-2.8,4.41-1.34,1.42,1.06,2.43,2.48,3.34,3.98,2.12,3.52,3.48,7.34,4.38,11.33.49,2.17.8,4.36.81,7.15Zm-.56-.34c-.11-1.36-.13-2.31-.26-3.26-.43-3.18-1.23-6.27-2.37-9.27-.95-2.49-2.05-4.92-3.74-7.02-.52-.64-1.14-1.24-1.82-1.71-1.1-.77-2.13-.46-2.62.79-.32.83-.51,1.74-.58,2.62-.15,2.06.08,4.1.47,6.12.8,4.15,2.11,8.13,4.16,11.84.8,1.44,1.69,2.83,3,3.87,1.48,1.17,2.74.81,3.25-.99.31-1.09.38-2.25.5-3Z"/><path d="m104.19,44.26c-1.7-.88-3.46-1.52-5.31-1.92-3.99-.87-7.93-.57-11.82.62-1.2.37-2.25.11-3.14-.72-.46-.43-.8-.98-1.26-1.56,1.02-.28,1.89-.56,2.78-.75,2.65-.56,5.29-1.14,7.95-1.6,2.29-.39,4.61-.43,6.93-.3.17,0,.42.14.49.28.94,2.09,2,4.1,3.38,5.94Z"/><path d="m81.48,38.24c.31,1.37.81,2.57,1.62,3.63.78,1.02,1.81,1.55,3.11,1.47.3-.02.6-.12,1.03-.21-.47.42-.94.59-1.42.57-.61-.03-1.22-.21-1.83-.31-.19-.03-.39-.08-.57-.04-1.91.46-3.82.93-5.73,1.4-.05.01-.08.05-.17.1.15.22.3.44.48.7-.9.22-1.75.46-2.61.62-.71.13-1.37-.06-1.96-.47-1.37-.96-2.05-2.35-2.45-3.92-.08-.29.11-.35.34-.42,2.34-.71,4.67-1.43,7.01-2.15,1.03-.32,2.06-.63,3.16-.96Z"/><path d="m77.95,44.99c1.9-.47,3.69-.91,5.47-1.35.14-.03.3-.03.43,0,.44.12.88.26,1.35.4-.02.08-.04.18-.07.28-.16.44-.12.83.2,1.19.56.64,1.12,1.29,1.68,1.94,0,.02,0,.06-.02.08-.6.67-.5,1.26.07,1.94.76.92,1.42,1.93,2.09,2.92.24.36.54.53.96.6.32.05.63.18.94.27.36.11.44.35.24.64-.55.8-1.09,1.61-1.69,2.37-.4.51-.91.42-1.22-.15-.05-.09-.11-.18-.12-.27-.03-.72-.52-1.16-.97-1.63-.52-.55-1.03-1.11-1.54-1.67-.67-.75-1.29-1.52-1.7-2.46-.21-.47-.54-.9-.87-1.3-.3-.37-.71-.51-1.2-.38-.67.17-1.21,0-1.65-.56-.75-.95-1.55-1.87-2.39-2.87Z"/><path d="m97.6,22.7c0,.78.02,1.45-.01,2.11-.01.21-.16.43-.28.61-1.49,2.13-3.46,3.73-5.66,5.06-2.9,1.75-6.02,2.99-9.26,3.93-.1.03-.22.03-.36.04.31-.72.81-1.17,1.51-1.36,5.97-1.58,10.66-4.89,13.9-10.19.03-.04.06-.08.16-.21Z"/><path d="m89.9,56.4c.49-.7.98-1.4,1.47-2.09.5-.72.4-1.06-.42-1.35-.12-.04-.25-.12-.37-.12-.8,0-1.2-.53-1.59-1.12-.6-.9-1.23-1.79-1.89-2.65-.29-.38-.39-.69-.05-1.08.13-.15.2-.34.32-.53-.6-.69-1.21-1.38-1.79-2.09-.14-.17-.26-.44-.24-.66.05-.67.29-.83.98-.75-.09.31-.18.62-.3,1.01-.03,0-.18.03-.43.06.6.68,1.15,1.32,1.72,1.97.13-.12.23-.21.35-.32.38.19.5.44.18.79-.21.23-.19.45-.02.71.79,1.19,1.56,2.39,2.36,3.58.11.16.33.25.51.33.44.21.91.38,1.34.62.35.19.46.48.2.86-.62.87-1.21,1.76-1.83,2.63-.09.13-.26.2-.39.3-.03-.04-.07-.07-.1-.11Z"/><path d="m71.32,37.91c.31-.58.68-.95,1.19-1.14,3.28-1.25,6.56-2.49,9.84-3.72.41-.15.85-.21,1.32-.19-.09.04-.18.06-.26.11-.44.27-.89.53-1.32.81-.31.2-.57.49-.9.61-3.13,1.14-6.26,2.24-9.39,3.36-.12.04-.24.08-.47.16Z"/><path d="m69.76,43.99c.25-.08.51-.15.74-.25.1-.04.16-.17.23-.26-.12-.05-.24-.14-.36-.14-.14,0-.29.05-.42.11-.41.19-.61.04-.66-.44.26-.08.54-.15.8-.26.13-.06.22-.19.33-.29-.15-.04-.31-.14-.45-.12-.27.04-.53.14-.83.23-.06-.19-.11-.35-.19-.57.3-.09.58-.16.84-.28.14-.06.24-.21.36-.32-.17-.03-.34-.11-.51-.09-.21.02-.41.11-.63.17-.15-.36-.13-.61.3-.7.19-.04.38-.1.55-.19.09-.05.12-.19.18-.29-.1-.04-.2-.13-.29-.11-.24.04-.47.12-.71.19.1-1.16.74-1.93,1.75-2.11-.74,2.9-.03,5.39,2.15,7.46-.9.35-1.85.03-2.58-.86.2-.07.41-.12.59-.21.11-.06.18-.19.27-.29-.14-.04-.28-.12-.42-.12-.14,0-.29.06-.42.12-.36.15-.56.02-.64-.38Z"/><path d="m81.81,34.97c.18-.07.35-.16.53-.21,3.31-.95,6.49-2.2,9.46-3.95,2.12-1.26,4.06-2.74,5.62-4.66.05-.06.11-.1.21-.17.14.5.07.85-.31,1.21-2.65,2.53-5.74,4.38-9.11,5.76-1.91.78-3.89,1.38-5.84,2.06-.16.06-.34.08-.51.12-.02-.05-.04-.1-.07-.16Z"/><path d="m82.27,39.56c.51-.15,1.01-.33,1.52-.45,3.73-.89,7.46-1.79,11.2-2.63,1.39-.31,2.81-.49,4.22-.71.27-.04.66-.2.69.4-5.96.69-11.78,2.08-17.59,3.6-.02-.07-.04-.14-.05-.21Z"/><path d="m82.52,40.16c.75-.21,1.5-.44,2.25-.64,3.68-.97,7.41-1.76,11.18-2.26,1.29-.17,2.58-.26,3.87-.42.5-.06.5.28.62.64-6.14-.05-12.03,1.26-17.87,2.9-.02-.07-.03-.15-.05-.22Z"/><path d="m77.82,8.2c.07.06.23.16.31.3,1.09,1.87,2.18,3.74,3.26,5.61.15.25.21.51-.09.68-.3.17-.49-.02-.63-.27-1.08-1.87-2.17-3.74-3.25-5.61-.22-.38-.06-.72.4-.71Z"/><path d="m89.73,11.71c-.07.07-.21.32-.33.31-.17-.01-.43-.2-.46-.35-.25-1.29-.47-2.58-.68-3.88-.15-.87-.3-1.75-.41-2.63-.02-.16.15-.44.3-.49.29-.1.44.12.49.4.36,2.12.72,4.24,1.08,6.36,0,.05,0,.1.02.28Z"/><path d="m69.23,15.44c.17.1.3.16.41.25,1.59,1.33,3.18,2.66,4.75,4.01.14.12.23.47.15.61-.16.29-.45.18-.67,0-1.6-1.34-3.2-2.68-4.79-4.04-.12-.1-.19-.34-.18-.51,0-.11.2-.21.33-.33Z"/><path d="m109.97,63.67c-.09.11-.17.28-.3.34-.1.05-.29.02-.4-.05-.11-.07-.19-.22-.26-.35-.97-1.67-1.94-3.35-2.91-5.02-.02-.03-.03-.06-.05-.08-.16-.26-.24-.55.08-.72.29-.16.48.04.63.29.76,1.32,1.53,2.64,2.3,3.96.24.41.48.82.72,1.23.06.11.12.23.2.4Z"/><path d="m69.19,56.98c-.14-.12-.32-.21-.35-.33-.03-.15.03-.37.14-.47.34-.33.72-.62,1.09-.93,1.15-.96,2.3-1.91,3.44-2.87.24-.2.5-.43.75-.09.23.31.01.53-.24.74-1.45,1.2-2.9,2.42-4.36,3.62-.13.11-.29.2-.48.32Z"/><path d="m64.01,25.22c.39.14.68.24.98.35,1.57.57,3.14,1.15,4.71,1.72.08.03.18.04.22.09.12.17.22.35.32.53-.2.08-.44.27-.6.22-1.14-.38-2.26-.8-3.38-1.21-.77-.28-1.55-.55-2.3-.87-.14-.06-.27-.32-.27-.48,0-.12.22-.25.32-.35Z"/><path d="m117.73,56.32c-.12.16-.19.33-.32.38-.12.05-.33,0-.44-.07-.54-.43-1.06-.89-1.58-1.34-.99-.84-1.97-1.69-2.96-2.53-.22-.19-.46-.4-.21-.7.26-.32.52-.13.76.08,1.46,1.25,2.92,2.5,4.38,3.75.13.11.23.26.37.43Z"/><path d="m99.51,5.57c-.15.82-.28,1.53-.41,2.24-.23,1.29-.47,2.57-.7,3.86-.05.3-.19.51-.52.45-.3-.06-.34-.3-.29-.58.36-1.96.7-3.93,1.08-5.89.03-.16.28-.36.45-.39.12-.02.28.22.39.31Z"/><path d="m81.24,58.17c-.07.15-.11.24-.16.33-.94,1.65-1.89,3.31-2.83,4.96-.15.26-.34.43-.64.25-.27-.16-.23-.4-.09-.64.95-1.67,1.9-3.34,2.87-4.99.08-.14.34-.24.51-.24.12,0,.23.22.34.33Z"/><path d="m69.66,45.35c-2.02.75-4,1.49-5.98,2.19-.15.05-.47-.09-.55-.23-.16-.3.09-.47.35-.57,1.67-.61,3.35-1.23,5.02-1.84.68-.25.68-.25,1.15.45Z"/><path d="m105.97,15.13c-.46-.02-.59-.33-.38-.7.48-.88.97-1.75,1.46-2.62.44-.79.89-1.57,1.33-2.35.15-.26.33-.5.66-.32.33.18.23.45.08.72-.93,1.64-1.86,3.28-2.79,4.91-.09.17-.27.28-.35.37Z"/><path d="m89.45,61.06c-.16.91-.29,1.71-.43,2.5-.19,1.1-.4,2.19-.59,3.29-.05.3-.13.6-.49.54-.39-.06-.38-.37-.32-.69.32-1.79.63-3.59.94-5.38.02-.1.02-.22.08-.28.13-.12.3-.31.43-.29.15.02.28.23.38.31Z"/><path d="m99.4,67c-.09.08-.27.32-.37.3-.19-.06-.44-.24-.48-.42-.17-.72-.27-1.45-.4-2.17-.2-1.13-.41-2.26-.57-3.39-.03-.18.13-.5.28-.57.31-.13.47.13.52.42.33,1.87.66,3.74.99,5.61,0,.03,0,.06.03.22Z"/><path d="m93.95,63.58c0,.84,0,1.67,0,2.51,0,.31-.08.6-.43.6-.35,0-.43-.29-.43-.6,0-1.71,0-3.41,0-5.12,0-.3.07-.58.45-.56.34.02.4.27.4.56,0,.87,0,1.74,0,2.61Z"/><path d="m65.36,35.75c.92,0,1.84,0,2.76,0,.29,0,.58.02.59.42,0,.41-.3.41-.59.41-1.85,0-3.71-.03-5.56-.04-.29,0-.55-.07-.55-.41,0-.34.26-.4.55-.4.93,0,1.87,0,2.8,0,0,0,0,0,0,0Z"/><path d="m116.99,44.46c.35.11.6.19.84.27,1.47.52,2.94,1.04,4.4,1.56.06.02.12.05.18.07.29.09.5.29.34.57-.08.14-.42.24-.6.19-.62-.17-1.21-.41-1.81-.62-1.11-.39-2.23-.77-3.33-1.2-.16-.06-.31-.31-.34-.49-.02-.1.22-.25.32-.35Z"/><path d="m112.43,20.76c-.13-.11-.32-.19-.35-.31-.04-.15,0-.38.11-.48.3-.3.65-.55.98-.82,1.07-.88,2.13-1.76,3.19-2.64.24-.2.51-.38.76-.06.23.3,0,.51-.23.69-1.34,1.11-2.69,2.22-4.03,3.33-.12.1-.27.18-.44.3Z"/><path d="m121.11,36.82c-.85,0-1.71,0-2.56,0-.31,0-.53-.08-.53-.42,0-.32.24-.37.52-.38,1.71-.02,3.41-.05,5.12-.08.1,0,.22-.04.29.01.16.11.29.25.44.38-.14.15-.26.4-.43.43-.42.07-.85.03-1.28.04-.53,0-1.05,0-1.58,0h0Z"/><path d="m85.65,13.34c-.11.1-.23.3-.37.31-.15.01-.38-.13-.45-.27-.19-.4-.31-.83-.47-1.24-.45-1.23-.9-2.47-1.35-3.7-.11-.29-.16-.58.18-.71.35-.14.49.13.59.42.58,1.59,1.16,3.17,1.73,4.76.04.11.07.22.13.42Z"/><path d="m112.91,13.41c-.09.15-.14.28-.22.37-1.13,1.35-2.25,2.69-3.4,4.02-.11.12-.39.21-.53.16-.31-.12-.31-.4-.11-.64,1.15-1.37,2.29-2.74,3.46-4.1.1-.12.35-.18.51-.16.11.01.19.22.29.35Z"/><path d="m114.53,48.04c.15.06.24.09.33.14,1.52.87,3.04,1.75,4.56,2.63.24.14.4.32.25.6-.19.34-.46.23-.72.08-1.38-.8-2.75-1.59-4.13-2.39-.17-.1-.38-.17-.5-.31-.1-.11-.14-.33-.11-.47.03-.12.22-.19.32-.28Z"/><path d="m109.22,54.32c.16.13.3.21.4.33,1.11,1.32,2.22,2.64,3.33,3.96.19.22.3.45.05.69-.26.25-.48.09-.66-.13-1.13-1.35-2.26-2.69-3.38-4.05-.1-.12-.14-.33-.11-.48.03-.12.22-.2.37-.33Z"/><path d="m122.75,26.06c-.07.06-.18.22-.33.28-1.69.62-3.38,1.23-5.09,1.81-.15.05-.47-.07-.55-.21-.15-.25.01-.46.29-.56,1.68-.6,3.36-1.2,5.04-1.79.37-.13.65.06.63.47Z"/><path d="m77.62,54.72c.14.11.32.19.34.29.02.17,0,.4-.1.53-.57.72-1.17,1.42-1.76,2.12-.52.62-1.03,1.23-1.55,1.85-.18.22-.38.47-.69.21-.29-.24-.16-.48.04-.72,1.11-1.32,2.22-2.64,3.33-3.96.1-.12.24-.19.4-.31Z"/><path d="m74.24,12.72c.16.11.31.18.41.3,1.13,1.33,2.25,2.66,3.35,4.01.11.14.14.51.04.63-.2.24-.47.12-.66-.11-1.12-1.34-2.25-2.67-3.35-4.01-.1-.13-.14-.36-.12-.53.01-.1.2-.18.33-.3Z"/><path d="m102.18,58.92c.06.07.22.19.28.35.61,1.64,1.2,3.29,1.8,4.93.1.28.08.5-.19.62-.32.14-.49-.07-.59-.34-.6-1.63-1.19-3.26-1.77-4.89-.15-.42,0-.68.47-.67Z"/><path d="m114.42,24.81c-.11-.11-.31-.21-.31-.32-.01-.16.06-.4.19-.49.36-.26.76-.45,1.14-.68,1.09-.63,2.18-1.26,3.28-1.9.07-.04.15-.12.22-.11.22.02.52,0,.63.12.21.23,0,.45-.22.59-1.08.63-2.16,1.25-3.24,1.87-.43.25-.85.49-1.28.73-.11.06-.23.11-.4.18Z"/><path d="m117.19,32.51c-.09-.09-.34-.23-.33-.35.02-.17.2-.43.35-.46,1.77-.35,3.54-.66,5.32-.95.14-.02.33.22.5.34-.15.16-.28.43-.46.47-1.16.24-2.32.42-3.48.63-.6.1-1.19.21-1.91.33Z"/><path d="m72.64,23.91c-.02.46-.34.61-.71.41-.67-.37-1.34-.77-2-1.15-.81-.47-1.61-.94-2.43-1.4-.3-.17-.57-.36-.35-.72.2-.33.48-.16.73-.02,1.46.84,2.92,1.68,4.38,2.54.17.1.29.27.37.35Z"/><path d="m122.6,41.88c-1.33-.23-2.54-.45-3.76-.66-.53-.09-1.07-.18-1.6-.28-.28-.05-.53-.15-.48-.5.06-.34.31-.38.6-.32,1.66.29,3.33.58,4.99.87.1.02.22.02.28.09.13.14.32.32.3.46-.02.15-.26.26-.34.34Z"/><path d="m67.35,51.74c-.11-.1-.33-.22-.32-.31.02-.2.11-.46.25-.56.73-.46,1.5-.88,2.25-1.32.74-.43,1.47-.85,2.21-1.28.26-.15.54-.26.73.06.2.33-.04.51-.3.66-1.48.85-2.95,1.7-4.43,2.55-.11.06-.23.11-.4.19Z"/><path d="m82.85,64.43c.13-.37.24-.67.34-.96.5-1.37.99-2.74,1.49-4.11.03-.08.04-.18.1-.22.17-.1.36-.18.54-.27.07.18.25.39.21.53-.6,1.71-1.22,3.42-1.87,5.11-.05.13-.33.23-.5.23-.11,0-.21-.22-.31-.32Z"/><path d="m63.78,30.65c1.39.24,2.65.46,3.91.68.48.08.97.18,1.45.26.3.05.52.17.46.51-.06.35-.33.35-.61.3-1.73-.31-3.46-.6-5.18-.93-.16-.03-.37-.29-.38-.45,0-.13.26-.28.36-.37Z"/><path d="m104.18,8.45c-.08.23-.12.38-.17.51-.55,1.52-1.11,3.05-1.66,4.57-.02.06-.06.12-.08.18-.09.28-.28.42-.56.31-.3-.12-.29-.36-.2-.62.29-.78.57-1.57.85-2.35.31-.86.61-1.73.96-2.58.07-.16.31-.31.49-.34.1-.02.25.22.36.32Z"/><path d="m93.18,9.23c0-.86,0-1.71,0-2.57,0-.3.06-.54.41-.54.32,0,.39.24.39.52,0,1.76,0,3.52,0,5.28,0,.29-.11.5-.41.49-.3-.01-.39-.23-.39-.52,0-.89,0-1.78,0-2.66Z"/><path d="m68.16,40.23c.06.82.06.82-.69.95-1,.18-2,.37-3,.53-.32.05-.77.23-.87-.26-.11-.51.38-.49.69-.55,1.29-.23,2.58-.45,3.87-.68Z"/><path d="m93.95,69.23c0,.49.04.99-.02,1.48-.02.19-.23.48-.39.51-.31.06-.45-.22-.45-.51,0-1,0-2,0-3,0-.29.13-.57.45-.5.16.03.37.32.39.51.05.5.02,1.02.02,1.52Z"/><path d="m93.95,55.85c0,.51,0,1.02,0,1.52,0,.29-.11.58-.42.53-.17-.03-.41-.34-.42-.53-.04-.98-.02-1.97-.02-2.95,0-.28.08-.54.43-.54.34,0,.43.25.43.54,0,.48,0,.95,0,1.43Z"/><path d="m70.82,40.87c3.5-1.14,7.02-2.21,10.53-3.32l.1.17c-.14.09-.28.21-.43.26-2.03.64-4.07,1.26-6.1,1.89-1.22.38-2.44.75-3.66,1.13-.12.04-.24.06-.37.08-.02-.07-.05-.15-.07-.22Z"/><path d="m112.83,29.79c-.09-.08-.3-.19-.3-.3,0-.17.1-.43.23-.5.38-.19.79-.31,1.19-.45.57-.21,1.14-.41,1.71-.62.28-.11.53-.11.65.21.11.3-.08.46-.34.55-.96.35-1.91.7-2.87,1.04-.06.02-.13.04-.28.08Z"/><path d="m123.27,53.94c-.18-.09-.3-.14-.41-.2-.82-.47-1.65-.95-2.47-1.42-.27-.15-.47-.35-.29-.67.17-.29.43-.22.68-.07.86.51,1.74.99,2.59,1.51.14.09.25.34.25.51,0,.11-.22.22-.34.33Z"/><path d="m123.86,31.33c-.09-.09-.32-.23-.33-.36,0-.15.18-.41.32-.44,1.06-.22,2.12-.41,3.19-.57.13-.02.31.22.46.33-.15.17-.27.44-.44.48-.81.18-1.64.3-2.47.45-.21.04-.42.07-.75.13Z"/><path d="m66.88,52.14c-.17.07-.36.12-.51.21-.88.5-1.75,1.03-2.65,1.51-.15.08-.48.03-.58-.08-.19-.21-.09-.46.17-.61.89-.52,1.79-1.04,2.69-1.54.34-.19.69-.02.69.32.07.07.14.14.21.21Z"/><path d="m106.29,57.21c-.17.07-.34.2-.5.19-.18-.02-.42-.12-.51-.26-.53-.87-1.03-1.75-1.53-2.63-.02-.04-.07-.1-.06-.13.05-.17.06-.43.18-.49.12-.07.44,0,.5.1.58.95,1.13,1.92,1.69,2.89.02.04.03.09.04.14.06.07.13.13.19.2Z"/><path d="m79.87,19.44c.16.11.31.18.41.29.65.76,1.29,1.53,1.94,2.3.19.23.29.46,0,.68-.25.2-.46.07-.63-.14-.65-.78-1.32-1.55-1.95-2.34-.09-.12-.13-.33-.1-.48.02-.11.2-.18.33-.3Z"/><path d="m120.29,21.41c-.1-.08-.27-.16-.32-.29-.04-.12,0-.38.09-.43.98-.59,1.98-1.16,2.98-1.71.09-.05.39.08.43.18.05.14,0,.44-.1.5-.95.58-1.92,1.13-2.89,1.68-.04.02-.09.03-.2.06Z"/><path d="m63.54,18.56c.13.06.27.12.39.19.82.47,1.64.95,2.47,1.41.28.16.46.36.28.67-.17.3-.44.21-.68.07-.86-.5-1.74-.99-2.58-1.51-.14-.09-.22-.34-.24-.52-.01-.13.13-.28.21-.42l.15.12Z"/><path d="m109.04,48.93c.15.09.27.15.37.23.76.63,1.51,1.26,2.27,1.89.24.2.4.43.16.71-.22.26-.46.13-.69-.06-.75-.63-1.52-1.25-2.25-1.9-.13-.12-.2-.36-.19-.55,0-.1.21-.2.34-.32Z"/><path d="m62.59,31.27c-1.19-.21-2.27-.38-3.35-.6-.13-.03-.33-.31-.29-.42.05-.15.29-.35.43-.34.72.08,1.43.21,2.14.33.36.06.72.09,1.06.21.16.06.35.29.35.44,0,.14-.23.28-.32.38Z"/><path d="m73.85,12.26c-.07.09-.14.26-.25.29-.13.04-.36.03-.44-.05-.73-.84-1.45-1.69-2.15-2.56-.08-.1-.02-.41.09-.51.09-.09.42-.09.5,0,.74.83,1.45,1.69,2.16,2.55.05.06.05.15.09.28Z"/><path d="m88.05,19.6c-.17.07-.34.2-.5.18-.17-.02-.42-.14-.48-.28-.29-.69-.54-1.41-.8-2.11-.11-.31-.26-.61-.31-.93-.02-.14.11-.4.23-.45.13-.05.44.05.48.16.41,1.03.78,2.08,1.17,3.13.01.03,0,.07,0,.1.07.07.13.13.2.2Z"/><path d="m105.9,68.8c-.09.08-.21.29-.32.29-.17,0-.43-.12-.5-.26-.23-.5-.39-1.04-.58-1.56-.17-.48-.38-.95-.51-1.43-.04-.15.1-.44.23-.5.12-.05.45.08.5.21.41,1.02.77,2.05,1.14,3.08.01.03.01.06.04.18Z"/><path d="m116.1,62.55c-.09.1-.19.3-.3.3-.17.01-.4-.06-.51-.18-.42-.46-.81-.95-1.2-1.43-.27-.33-.58-.63-.81-.99-.08-.13-.06-.46.05-.54.11-.09.45-.07.54.03.73.82,1.43,1.67,2.13,2.52.05.06.06.15.1.28Z"/><path d="m105,49.35c.15.1.31.17.41.29.65.76,1.29,1.53,1.93,2.29.19.23.29.51,0,.67-.14.08-.49,0-.61-.14-.67-.74-1.31-1.51-1.93-2.29-.11-.13-.15-.36-.13-.53.01-.1.2-.18.33-.29Z"/><path d="m108.88,23.63c-.09-.08-.25-.16-.28-.27-.04-.14-.01-.36.08-.44.83-.72,1.67-1.43,2.53-2.12.1-.08.42-.04.51.06.09.1.09.43,0,.51-.83.74-1.7,1.45-2.55,2.16-.06.05-.15.05-.28.09Z"/><path d="m81.85,15.15c.08.07.23.17.32.31.51.86,1.02,1.72,1.49,2.6.09.16.05.52-.07.63-.23.2-.48.06-.63-.21-.5-.87-1-1.73-1.5-2.6-.21-.37-.05-.73.39-.72Z"/><path d="m72.38,32.16c.97.17,1.82.32,2.68.47.23.04.48.04.66.15.14.08.28.31.28.47,0,.11-.28.31-.41.29-1.08-.16-2.16-.36-3.24-.58-.13-.03-.28-.31-.27-.47,0-.13.22-.25.3-.33Z"/><path d="m98.15,59.89c-.09.09-.24.34-.38.33-.16,0-.41-.21-.44-.37-.22-1.01-.4-2.02-.55-3.04-.02-.16.18-.36.28-.54.17.11.46.2.49.34.22,1.04.39,2.09.6,3.28Z"/><path d="m127.09,42.67c-.96-.17-1.8-.31-2.64-.46-.24-.04-.5-.05-.71-.16-.14-.07-.32-.33-.29-.42.06-.15.3-.36.44-.34,1.07.16,2.13.35,3.19.57.14.03.32.29.32.44,0,.14-.23.28-.31.37Z"/><path d="m90.54,16.16c-.09.09-.22.31-.37.32-.15,0-.41-.17-.44-.31-.22-1.05-.42-2.12-.58-3.18-.02-.13.19-.41.33-.43.13-.02.41.17.44.31.22,1.05.4,2.12.61,3.3Z"/><path d="m81.55,34.99c-.18.11-.34.27-.54.33-2.61.87-5.23,1.72-7.85,2.58-.68.22-1.36.45-2.04.67-.03-.04-.05-.09-.08-.13.16-.08.31-.18.48-.24,2.08-.72,4.15-1.43,6.23-2.14,1.22-.42,2.45-.82,3.67-1.24.04.06.08.11.12.17Z"/><path d="m78.12,22.93c0,.39-.38.6-.65.39-.86-.69-1.7-1.39-2.52-2.12-.1-.09-.03-.37-.04-.56.22,0,.51-.07.65.04.79.61,1.54,1.27,2.3,1.92.12.1.19.25.25.33Z"/><path d="m115.82,9.95c-.07.12-.13.25-.22.36-.63.76-1.26,1.51-1.89,2.26-.18.22-.39.39-.66.16-.26-.22-.16-.46.02-.69.63-.75,1.25-1.51,1.9-2.25.12-.13.35-.2.54-.22.14-.01.3.11.45.17-.05.07-.1.14-.14.2Z"/><path d="m59.49,42.59c-.09-.09-.31-.22-.35-.39-.08-.3.15-.41.44-.45,1-.17,1.99-.37,3-.51.16-.02.36.19.53.29-.12.17-.22.45-.36.48-1.02.22-2.06.38-3.25.59Z"/><path d="m115.83,44.89c-.81-.29-1.52-.54-2.23-.8-.32-.12-.66-.21-.96-.38-.14-.08-.28-.37-.23-.49.06-.13.36-.29.49-.25,1.03.34,2.04.71,3.05,1.11.13.05.24.34.22.5-.02.13-.25.22-.35.3Z"/><path d="m75.05,25.22c.16.07.24.09.3.13.88.5,1.77.99,2.63,1.53.15.09.17.39.25.6-.22.04-.49.17-.64.09-.91-.48-1.8-1-2.68-1.54-.13-.08-.2-.35-.19-.52,0-.11.23-.2.33-.28Z"/><path d="m83.51,54.24c-.09.18-.14.3-.2.42-.47.82-.95,1.64-1.42,2.47-.16.27-.35.47-.66.29-.3-.17-.21-.44-.07-.68.5-.86.99-1.74,1.51-2.58.09-.14.34-.24.51-.24.12,0,.23.22.33.33Z"/><path d="m101.34,56.27c-.08.09-.17.31-.3.32-.15.02-.4-.07-.48-.2-.16-.24-.23-.54-.33-.82-.26-.71-.51-1.41-.77-2.12-.1-.27-.13-.54.2-.65.32-.11.48.09.58.37.32.91.66,1.81.99,2.72.03.09.05.19.1.37Z"/><path d="m82.25,50.22c-.07.12-.13.25-.22.36-.62.76-1.25,1.51-1.88,2.27-.18.22-.44.4-.65.14-.11-.13-.08-.51.03-.67.61-.79,1.26-1.55,1.92-2.3.1-.12.33-.18.5-.18.15,0,.31.1.47.16-.05.07-.11.14-.16.22Z"/><path d="m74.91,52.17c-.12-.1-.3-.18-.33-.29-.03-.15.02-.37.12-.47.35-.34.74-.64,1.12-.96.43-.36.85-.72,1.28-1.07.22-.18.49-.23.63.04.07.14.01.47-.11.58-.77.69-1.57,1.34-2.36,2-.08.07-.2.11-.35.18Z"/><path d="m105.74,4.21c-.17.47-.3.84-.44,1.21-.23.63-.43,1.27-.7,1.89-.07.17-.35.25-.53.37-.08-.2-.27-.44-.22-.6.32-1,.69-1.98,1.08-2.95.05-.13.33-.26.49-.24.13,0,.24.24.32.34Z"/><path d="m74.16,29.77c-.19-.06-.29-.09-.38-.12-.91-.33-1.81-.66-2.72-.98-.28-.1-.48-.26-.37-.58.12-.33.38-.29.66-.19.94.34,1.88.67,2.8,1.04.16.06.31.31.33.5.01.11-.23.25-.32.34Z"/><path d="m98.17,12.98c-.21,1.18-.38,2.24-.61,3.3-.03.13-.31.28-.47.28-.11,0-.31-.28-.29-.41.16-1.08.34-2.16.56-3.24.03-.13.32-.29.47-.28.14.01.25.25.34.35Z"/><path d="m81.99,3.27c.06.15.12.31.18.46.37,1,.74,2,1.08,3.01.05.14-.12.36-.19.54-.19-.08-.49-.12-.54-.26-.4-1-.77-2.02-1.12-3.04-.1-.3.07-.5.4-.52l.2-.18Z"/><path d="m73.71,60.37c-.11.18-.18.33-.28.45-.61.73-1.22,1.45-1.83,2.18-.2.24-.41.42-.7.17-.27-.23-.14-.47.05-.68.64-.76,1.28-1.53,1.94-2.28.11-.12.34-.19.5-.17.11,0,.2.21.31.34Z"/><path d="m83.26,65.59c-.05.2-.07.3-.1.39-.33.89-.65,1.79-.98,2.68-.1.26-.23.51-.56.4-.36-.12-.32-.4-.21-.69.34-.92.66-1.86,1.03-2.77.06-.16.32-.3.5-.33.1-.01.24.23.33.32Z"/><path d="m115.52,36.82c-.51,0-1.02,0-1.53,0-.29,0-.5-.09-.49-.41,0-.32.22-.39.51-.39,1,0,2.01,0,3.01,0,.28,0,.51.07.52.38,0,.34-.23.43-.53.42-.49-.01-.99,0-1.48,0Z"/><path d="m93.98,3.64c0,.51.03,1.02-.02,1.53-.02.16-.25.3-.38.46-.13-.15-.38-.3-.38-.45-.03-1.04-.02-2.07-.02-3.11,0-.29.12-.53.42-.46.15.04.35.29.36.46.05.52.02,1.05.02,1.58Z"/><path d="m93.98,16.94c0,.49,0,.99,0,1.48,0,.28-.08.51-.39.52-.31,0-.42-.2-.41-.49,0-1.02,0-2.04,0-3.06,0-.29.1-.49.42-.48.34,0,.38.24.38.51,0,.51,0,1.02,0,1.53Z"/><path d="m70.82,40.3c3.49-1.12,6.98-2.23,10.55-3.38-.21.35-9.92,3.5-10.53,3.49,0-.04-.02-.08-.02-.12Z"/><path d="m104.21,18.44c-.23-.2-.41-.35-.63-.55.44-.76.87-1.53,1.34-2.27.07-.11.45-.16.48-.11.1.16.21.44.14.58-.41.78-.87,1.54-1.33,2.35Z"/><path d="m72.79,35.75c-.51.29-.9.64-1.34.72-.66.12-1.35.06-2.03.04-.08,0-.24-.31-.2-.42.05-.14.26-.31.41-.32.6-.04,1.21-.02,1.82-.02.42,0,.84,0,1.34,0Z"/><path d="m111.48,33.51c-.06-.29-.11-.5-.18-.81.92-.15,1.8-.31,2.68-.42.13-.02.41.21.4.31-.02.17-.18.42-.32.45-.83.18-1.68.31-2.57.47Z"/><path d="m90.11,57.3c-.15.87-.28,1.69-.43,2.51-.05.28-.18.51-.53.43-.34-.08-.34-.35-.29-.63.09-.48.18-.96.26-1.45.13-.76.13-.76.98-.86Z"/><path d="m109.69,27.59c-.12-.3-.2-.52-.3-.78.67-.39,1.32-.78,1.99-1.12.14-.07.39.06.59.1-.06.2-.06.48-.19.57-.66.43-1.35.8-2.09,1.23Z"/><path d="m112.34,40.07v-.82c.57.09,1.12.15,1.64.29.14.04.22.33.33.5-.16.1-.33.29-.49.28-.48-.04-.96-.15-1.48-.25Z"/><path d="m86.49,54.44c.22.3.55.55.53.76-.04.42-.25.83-.44,1.22-.05.09-.35.14-.47.08-.12-.06-.17-.28-.21-.44-.02-.08.06-.18.09-.27.16-.42.31-.85.51-1.36Z"/><path d="m87.87,45.82c-.05.16-.06.21-.08.25-.15.19-.31.39-.5.63-.41-.48-.81-.94-1.21-1.4.02-.04.05-.08.07-.12.57.22,1.15.44,1.73.66Z"/><path d="m93.95,59.26s.04.2-.03.29c-.1.14-.27.34-.41.34-.45-.03-.43-.4-.42-.74,0-.31-.02-.68.42-.7.4-.02.45.3.44.62,0,.03,0,.07,0,.19Z"/><path d="m79.23,24.86c-.36-.39-.65-.68-.89-1-.02-.03.37-.43.38-.42.32.25.63.52.9.82.03.04-.19.3-.38.59Z"/><path d="m75.24,29.4c.58,0,1.19.36,1.11.61-.05.16-.28.37-.44.38-.5.03-1.02-.34-.95-.63.04-.16.22-.29.29-.37Z"/><path d="m90.87,18.02c-.01.05,0,.14-.05.17-.13.1-.29.27-.42.25-.52-.09-.37-.58-.45-.91-.03-.14.13-.4.27-.48.09-.05.39.08.45.21.12.22.12.5.18.77Z"/><path d="m103.82,53.02c-.02.08-.01.12-.03.14-.14.11-.4.32-.42.3-.25-.27-.5-.56-.69-.88-.05-.08.14-.41.21-.41.19,0,.43.08.56.21.17.18.27.44.37.63Z"/><path d="m115.27,32.85c-.09-.09-.33-.22-.34-.36-.01-.15.17-.37.32-.45.17-.1.42-.15.62-.11.17.03.32.21.48.32-.11.15-.19.36-.35.45-.17.1-.41.1-.73.16Z"/><path d="m86.25,57.31c-.02.57-.4,1.17-.64,1.09-.17-.05-.38-.28-.39-.44-.02-.49.37-1.02.64-.95.17.04.3.22.39.29Z"/><path d="m78.52,17.97c.38.01,1,.71.91.95-.05.15-.39.36-.4.35-.29-.28-.57-.58-.79-.91-.04-.05.21-.29.28-.39Z"/><path d="m73.99,25.39c-.55-.05-1.12-.52-1.01-.77.06-.15.29-.32.45-.32.41,0,.96.48.87.75-.05.16-.24.27-.31.34Z"/><path d="m113.81,47.85s0,.12-.03.15c-.11.09-.28.25-.34.21-.33-.16-.64-.35-.93-.58-.06-.05.03-.29.07-.43,0-.04.07-.07.11-.09.31-.15,1.12.35,1.13.73Z"/><path d="m113.73,24.9c0,.46-.85.99-1.12.8-.13-.09-.25-.43-.21-.46.31-.24.64-.45,1-.62.07-.03.26.21.34.27Z"/><path d="m108.05,49.15c-.36-.4-.65-.68-.88-1-.03-.04.22-.28.34-.42.32.27.64.53.93.83.03.03-.19.3-.4.59Z"/><path d="m97.37,17.47c-.05.31-.07.5-.13.69-.04.12-.11.28-.2.3-.15.04-.46-.02-.47-.04-.02-.37-.02-.75.04-1.11.02-.09.32-.23.43-.19.15.06.25.26.33.36Z"/><path d="m83.58,53.53c-.06-.09-.23-.24-.26-.41-.05-.32.48-1.02.7-.96.16.05.36.24.4.41.07.29-.47.95-.84.96Z"/><path d="m73.27,48.37c-.17-.15-.33-.23-.38-.36-.04-.11,0-.32.09-.39.23-.18.49-.33.76-.42.11-.04.33.05.41.15.07.08.08.34.02.4-.27.22-.57.4-.9.62Z"/><path d="m101.17,15.98c-.15-.16-.38-.3-.36-.39.08-.35.21-.7.38-1.02.04-.07.32,0,.48,0,.03,0,.09.08.09.11-.06.32-.1.65-.21.96-.04.12-.22.2-.38.34Z"/><path d="m102.16,58.07c-.27.2-.4.37-.57.4-.28.06-.66-.51-.61-.97.02-.16.26-.3.4-.44.24.31.48.61.78,1.01Z"/><path d="m97.36,55.39c-.11.1-.26.36-.39.35-.16,0-.35-.22-.44-.39-.09-.18-.13-.42-.1-.62.03-.15.2-.35.35-.39.11-.03.34.13.4.26.1.2.11.44.18.79Z"/><path d="m86.27,15.24c-.08.06-.22.22-.38.25-.27.05-.66-.54-.61-.98.02-.15.22-.36.38-.39.28-.07.62.51.61,1.11Z"/><path d="m107.54,19.53c-.06-.09-.27-.3-.23-.36.2-.33.45-.64.72-.91.03-.03.36.12.43.26.14.29-.47,1.04-.91,1.02Z"/><path d="m115.25,39.74c.32.07.55.07.73.17.13.07.28.27.27.4,0,.13-.2.34-.32.35-.3,0-.62-.05-.91-.16-.1-.04-.21-.34-.16-.44.07-.15.29-.24.39-.31Z"/><path d="m71.24,32.76c-.74.02-1.21-.22-1.14-.53.04-.15.25-.36.41-.38.57-.07,1.06.18,1.01.49-.03.17-.22.32-.28.41Z"/><path d="m108.77,53.7c-.01.15,0,.2-.02.21-.13.1-.35.3-.39.28-.28-.22-.55-.47-.77-.76-.06-.08.06-.42.15-.44.17-.04.42,0,.55.11.21.18.36.44.48.6Z"/><path d="m84.97,20.06c-.29.19-.43.35-.6.39-.24.05-.78-.62-.72-.93.03-.16.25-.28.39-.41.28.29.56.57.93.95Z"/><path d="m111.17,46.04c.27.16.55.27.74.45.12.12.21.41.14.53-.06.12-.37.2-.52.15-.3-.1-.57-.3-.87-.47.18-.23.33-.42.51-.66Z"/><path d="m79.34,48.23c.03.44-.7,1.02-1.02.94-.02,0-.04,0-.05-.01-.07-.16-.25-.43-.2-.47.27-.26.57-.5.9-.68.07-.04.28.17.37.22Z"/><path d="m79.01,53.31c.06.09.28.33.24.38-.23.32-.52.61-.79.9-.13-.13-.34-.25-.38-.41-.06-.27.53-.87.93-.88Z"/><path d="m93.98,13.68c0,.11.04.26,0,.34-.1.14-.25.33-.39.34-.33.01-.43-.25-.39-.55.04-.32-.18-.79.36-.87.12-.02.32.16.41.3.07.1.01.29.01.43,0,0,0,0,0,0Z"/><path d="m110.93,30.42c-.06-.08-.24-.21-.28-.37-.07-.28.48-.66.96-.62.15.01.37.2.41.36.08.28-.48.63-1.09.64Z"/><path d="m106.48,21.18c-.19-.27-.33-.47-.48-.7.16-.19.29-.42.48-.55.16-.1.4-.08.6-.12.01.21.1.45.01.61-.14.27-.38.48-.61.76Z"/><path d="m112.09,36.9c-.06-.37-.09-.58-.15-.92.35.07.66.11.94.22.06.02.08.39.02.42-.23.13-.51.18-.81.28Z"/><path d="m100.22,16.75c.19-.14.37-.35.58-.4.1-.02.28.24.42.38l-.08.12c-.27.02-.54.03-.81.05-.04-.05-.08-.1-.12-.15Z"/><path d="m74.61,46.99c.34-.02.65-.05.99-.07-.46.47-.73.5-.99.07Z"/><path d="m108.78,30.65c-.86.24-1.68.49-2.5.69-.12.03-.34-.11-.43-.23-.36-.47-.65-.98-1.02-1.43-.26-.31-.64-.4-1.08-.31-.98.2-1.97.33-3.03.51-.16-.95-.35-1.88-.48-2.81-.26-1.89-.44-3.79-.03-5.68.09-.43.26-.85.48-1.23.4-.68,1-.84,1.73-.52.83.36,1.4,1.02,1.93,1.71,1.68,2.2,2.78,4.71,3.73,7.28.24.66.46,1.33.69,2.01Z"/><path d="m102.58,36.4c-.56-1.74-1.09-3.42-1.65-5.16.53-.13.99-.21,1.43-.38.38-.14.93.02,1.16-.63-.76.15-1.43.28-2.1.4-.11.02-.23.08-.33.05-.1-.02-.19-.13-.28-.2.07-.09.12-.24.2-.26,1-.18,2-.37,3-.5.19-.02.47.11.6.26,1.11,1.29,1.6,2.79,1.41,4.5-.04.36-.24.58-.58.72-.91.36-1.81.75-2.85,1.18Zm3.16-2.51c-.09-1.23-.37-2.23-.95-3.14-.12-.2-.39-.3-.59-.45-.09.23-.25.46-.25.69.03,1.07.33,2.07.89,2.98.13.22.42.34.64.51.1-.24.2-.48.25-.59Z"/><path d="m109.3,32.5c-.98.2-1.89.39-2.83.59-.09-.33-.16-.63-.25-.96.92-.24,1.82-.48,2.76-.72.1.36.2.7.32,1.1Z"/><path d="m104.58,36.05c.63-.47,1.4-.44,2.15-.48.97-.05,1.94-.02,2.91-.05.33,0,.45.13.39.53h-5.44Z"/><path d="m106.55,34.65c-.08-.47.04-.68.51-.73.81-.08,1.62-.24,2.48-.38.06.23.12.44.19.71-1.08.13-2.12.26-3.18.39Z"/></g></g></g></svg>