<?xml version="1.0" encoding="utf-8"?>
<!-- Generator: Adobe Illustrator 25.2.0, SVG Export Plug-In . SVG Version: 6.00 Build 0)  -->
<svg version="1.1" id="Layer_1" xmlns="http://www.w3.org/2000/svg" xmlns:xlink="http://www.w3.org/1999/xlink" x="0px" y="0px"
	 viewBox="0 0 595.28 841.89" style="enable-background:new 0 0 595.28 841.89;" xml:space="preserve">
<style type="text/css">
	.st0{fill:#313534;}
	.st1{fill:#EDB256;}
	.st2{fill:#DB953A;}
	.st3{fill:#8C6D64;}
	.st4{fill:#604A45;}
	.st5{fill:#DBC4B1;}
	.st6{fill:#D0A78E;}
	.st7{fill:#788D9E;}
	.st8{fill:#443232;}
	.st9{fill:#E1D9D5;}
	.st10{fill:#FFFFFF;}
	.st11{fill:#BA4F4F;}
	.st12{fill:#E6DCDA;}
	.st13{fill:#856149;}
	.st14{fill:#475968;}
	.st15{fill:#838D8F;}
	.st16{fill:#2A3145;}
	.st17{fill:#4E3631;}
	.st18{fill:#181E1C;}
	.st19{opacity:0.75;fill:#EDB256;}
	.st20{fill:#C6C6C6;}
	.st21{fill:#98918D;}
	.st22{fill:#221F23;}
	.st23{fill:#1C1B1D;}
	.st24{fill:#754742;}
	.st25{fill:#CE996A;}
	.st26{fill:#3C4E4E;}
	.st27{fill:#383F3C;}
	.st28{fill:#DBB9AC;}
	.st29{fill:#CC9A56;}
	.st30{fill:#6B7265;}
</style>
<g id="_x33__2_">
	<g id="_x31__43_">
		<path id="_x31__31_" class="st12" d="M81.34,608.67c1.03-2.57,342.82-146.19,342.82-146.19s142.58,80.11,138.46,79.18
			c-4.12-0.93-327.15,149.37-327.15,149.37L81.34,608.67z"/>
		<path id="_x32__31_" d="M216.11,653.57c-4.81,0-8.83-1.49-11.65-4.48c-4.75-5.03-4.96-13.56-0.57-23.41
			c2.46-5.52,6.18-11.04,10.83-15.9c-11.38-4.5-20.39-10.28-18.17-19.68c1.24-5.27,4.89-9.74,10.85-13.29
			c16.3-9.72,46.22-10.38,64.6-5.42c8.94,2.41,14.86,0.93,16.67-4.17c1.95-5.5-1.65-13.58-7.13-16.02c-0.38-0.17-0.56-0.62-0.38-1
			c0.17-0.38,0.62-0.55,1-0.38c6.23,2.77,10.17,11.64,7.95,17.91c-0.99,2.78-4.76,8.84-18.49,5.13
			c-18.08-4.88-47.47-4.26-63.43,5.25c-5.59,3.33-9,7.48-10.15,12.33c-2,8.47,6.81,13.87,17.85,18.15
			c8.91-8.81,20.91-15.14,33.94-14.84c10.59,0.25,24.21,3.27,38.63,6.47c29.51,6.54,62.96,13.95,82.93,0.78
			c21.61-14.25,38.99-42.01,37.2-59.4c-0.63-6.14-3.62-10.31-8.88-12.4c-16.18-6.41-33.72-3.94-42.69,1.81
			c-4.52,2.9-7.02,6.59-7.24,10.68c-0.34,6.37,4.48,10.71,9.14,14.91c5.46,4.92,11.11,10.01,6.18,17.85
			c-8.67,13.79-32.95,9.42-33.98,9.22c-0.41-0.08-0.68-0.47-0.61-0.88c0.08-0.41,0.46-0.68,0.88-0.61
			c0.24,0.04,24.3,4.38,32.42-8.54c4.25-6.76-0.46-11-5.92-15.92c-4.7-4.23-10.01-9.02-9.64-16.11c0.24-4.6,2.98-8.71,7.93-11.88
			c10.84-6.95,29.37-7.77,44.07-1.94c5.74,2.28,9.14,7,9.83,13.65c1.84,17.88-15.85,46.3-37.87,60.82
			c-20.5,13.52-54.28,6.04-84.09-0.56c-14.35-3.18-27.9-6.18-38.34-6.43c-12.38-0.31-23.77,5.62-32.35,13.91
			c3.83,1.43,7.87,2.74,11.79,4.01c12.03,3.9,22.43,7.27,23.64,12.82c1.58,7.2-8.58,16.91-18.94,22.38
			C227.39,651.84,221.29,653.57,216.11,653.57z M216.24,610.37c-4.72,4.83-8.49,10.38-10.97,15.93c-4.06,9.13-3.96,17.26,0.29,21.75
			c6.32,6.69,18.42,3.88,27.64-0.99c11.41-6.03,19.39-15.13,18.16-20.71c-1.03-4.7-11.52-8.1-22.63-11.7
			C224.59,613.29,220.29,611.9,216.24,610.37z"/>
	</g>
	<g id="_x32__3_">
		<path id="_x31__36_" class="st13" d="M163.78,230.16c0.76-1.52-1.26-9.36,7.83-11.12s30.06,4.55,36.63,17.69
			c6.57,13.14,9.35,17.12,6.57,32.05c-2.78,14.93-14.15,53.84-15.16,55.35s-11.37,14.65-12.13,12.13S163.78,230.16,163.78,230.16z"
			/>
		<g id="_x32__36_">
			<g id="_x31__37_">
				<path id="_x31__38_" class="st6" d="M294.19,482.56c1.29-0.77,10.55-7.72,10.55-7.72s19.82-6.69,24.19-7.21
					c4.38-0.51,10.55-5.4,10.55-5.4s-7.72-12.87-10.04-12.61c-2.32,0.26-18.02,4.38-19.56,4.38s-5.66,2.33-13.38,1.29
					c-7.72-1.04-17.76-9.27-24.19-4.12s-6.18,16.73-6.18,16.73L294.19,482.56z"/>
				<path id="_x32__38_" class="st6" d="M338.97,414.98c0.26,1.95,6.95,28.2,6.95,28.2l13.9,16.99c0,0,27.02,13.38,28.83,13.64
					c1.8,0.26,10.81,1.03,11.58,1.29c0.77,0.26,5.66,3.6,6.95,3.86c1.29,0.26,6.43,1.8,6.43,1.8s2.57,1.29,1.8,2.83
					c-0.77,1.54-9.27,5.92-16.73,6.95c-7.46,1.03-32.94-1.87-33.72-1.71c-0.77,0.16-9.27,4.02-16.99,5.31
					c-7.72,1.29-19.3,3.35-21.88-2.32s-1.22-19.31-1.22-20.34s-14.99-35.51-14.99-35.51L338.97,414.98z"/>
			</g>
			<g id="_x32__37_">
				<path id="_x31__39_" class="st14" d="M282.99,464.8c-6.18-1.54-17.37,9.65-20.85,10.42c-3.47,0.77-42.47,0-43.79,0
					s-24.93-12.35-24.93-12.35l41.22-53.26l-0.01,0c4.94,3.95,8.2,6.55,8.2,6.55l29.34-25.67c0,0,5.98,10.62,5.98,11.2
					c0,0.58,11,20.07,10.59,21.04c-0.41,0.97,10.83,5.98,10.83,5.98l35.9-33.59l-9.27-28.57c0,0-21.04-38.61-31.85-47.1
					c-10.81-8.49-32.62,4.05-35.32,4.83c-2.7,0.77-70.78,43.36-73.35,44.78c0,0-70.65,130.49-72.19,132.03s6.18,25.87,5.79,27.02
					c-0.39,1.16,107.71,6.56,108.87,7.85c1.16,1.29,58.29,7.98,74.12,4.89s16.47-20.63,16.47-30.26c0-9.63-9.52-31.12-9.52-31.12
					S289.17,466.35,282.99,464.8z"/>
				<path id="_x32__39_" class="st15" d="M330.86,387.4c-0.77,0.39-11.39,19.5-18.72,24.13c-7.34,4.63-28.18,11.77-27.22,11.97
					c0.97,0.19,8.69,10.81,8.69,10.81l9.84,11.77c0,0,17.37-2.7,22.97-7.14c5.6-4.44,28.38-25.67,26.06-29.92
					c-2.32-4.25-8.88-11-11.39-14.09c-2.51-3.09-6.82-11.69-7.91-11C332.09,384.61,330.86,387.4,330.86,387.4z"/>
			</g>
		</g>
		<g id="_x33__20_">
			<path id="_x31__40_" class="st16" d="M142.86,297.64c0,0-29.91,15.01-40.46,34.82s-21.05,30.11-29.81,79.83
				C67.9,438.91,78,477.16,85.2,491.57c7.21,14.41,12.1,16.99,21.1,18.79s32.69-9.27,34.74-10.29s14.16-6.69,26.51-22.13
				c12.35-15.44,28.05-31.66,28.83-31.91c0.77-0.26,3.6,10.81,3.6,10.81l24.96,19.05l15.18,11.07l9.27,13.64
				c0,0,37.06-3.6,38.61-4.63s0.26-11.84,0-12.87c-0.26-1.03,0.51-6.43-0.51-7.21c-1.03-0.77-5.66-5.66-11.58-6.95
				c-5.92-1.29-5.92-1.29-5.92-1.29s1.8-6.43-4.12-11.32c-5.92-4.89-9.52-6.18-9.52-7.21s3.35-6.69,0.26-11.58s-6.43-8.49-6.43-9.27
				c0-0.77,3.35-5.15,3.35-9.27c0-4.12-20.59-65.37-20.59-65.37s0.62-8.64-2.47-16.1c-3.09-7.46-14.51-17.44-16.15-21.56
				c-1.64-4.12-17.34-13.9-17.34-13.9L142.86,297.64z"/>
			<path id="_x32__40_" class="st6" d="M114.29,472.53c0,0,2.32,1.16,11.97,2.32c9.65,1.16,25.35-4.38,25.35-4.38l-21.36,74.89
				l-5.53,22.91c0,0-1.74,9.55-10.42,15.15c-1.89,1.22-11.58,5.31-11.58,5.31l-11.07,4.63c0,0-3.09,0-4.63-1.8
				c-1.54-1.8-1.16-3.22-1.16-3.22s-9.39,3.22-9.91,3.6c-0.51,0.39-7.08,5.28-7.08,5.28s-6.56,3.09-7.98,1.93
				c-1.42-1.16-1.03-3.99,0.9-5.02c1.93-1.03,6.82-5.28,7.08-5.66s-4.76,1.8-8.24,3.73c-3.47,1.93-6.82,4.63-9.39,3.6
				c-2.57-1.03-1.16-3.73-1.16-3.73s-1.16-0.9-1.03-2.32s9.52-9.78,9.52-9.78s5.92-8.36,8.75-9.14c2.83-0.77,15.44-1.8,18.79-2.57
				c3.35-0.77,16.6-4.38,18.4-5.92C106.31,560.8,114.29,472.53,114.29,472.53z"/>
			<g id="_x33__21_">
				<path id="_x31__41_" d="M255.1,530.01c-0.44,0-0.88-0.08-1.32-0.24c-1.96-0.73-2.96-2.91-2.24-4.87l7.45-20.08
					c0.73-1.96,2.91-2.96,4.87-2.24c1.96,0.73,2.96,2.91,2.24,4.87l-7.45,20.08C258.08,529.07,256.63,530.01,255.1,530.01z"/>
				<path id="_x32__41_" class="st6" d="M262.63,489.03c-3.38,0.48-10.91,6.95-11.29,8.59c-0.39,1.64,0.32,12.94,0.32,12.94
					s-4.34,8.2-3.57,10.13c0.77,1.93,2.48,2.56,4.04,1.93c1.56-0.63,3.84-5.8,4.32-6.38c0.48-0.58,2.41-5.69,2.41-5.69l3.76,0.77
					L261.57,523c0,0-2.99,5.98-1.83,7.72s3.47,1.74,3.76,1.54c0.29-0.19,4.15-4.63,4.15-4.63l7.14-5.02c0,0,5.5-0.39,6.47-1.54
					c0.97-1.16,0.48-3.09,1.25-3.18c0.77-0.1,2.03,0.19,2.99-0.77c0.97-0.97,2.8-13.03,0.87-17.13c-1.93-4.1-5.4-7.77-8.69-9.41
					C274.4,488.93,266.01,488.55,262.63,489.03z"/>
			</g>
		</g>
		<g id="_x34__8_">
			<path id="_x31__42_" class="st6" d="M209.66,252.99c0,1.03,0.82,2.24,0.05,8.94c0,0,1.01,8.4,0.57,11.56
				c-0.44,3.16-4.48,11.56-4.48,11.56s1.22,4.44-0.76,12.6s-7.95,20.56-12.58,23.9c-4.63,3.35-11.88-1.13-11.88-1.13l-3.22,19.82
				c0,0-3.35-2.06-10.04-9.01c-5.43-5.64-24.06-32.08-24.06-33.59c0-1.51,18.79-43.88,20.33-44.65S209.66,252.99,209.66,252.99z"/>
			<path id="_x32__42_" class="st13" d="M189.7,249.61c0,0-0.76,7.74-14.65,16.12s-20.46,8.28-24,14.9
				c-3.54,6.62,11.35,27.72-14.15,40.22c-25.51,12.5-36.63,21.98-40.79,28.55s-12.2,19.88-11.83,18.91
				c0.37-0.96,4.63-26.75,14.73-46.45s21.22-18.95,25.51-30.31s2.27-36.63,7.96-48.38s20.46-31.07,38.65-21.6
				S189.7,249.61,189.7,249.61z"/>
			<path id="_x33__22_" class="st6" d="M156.2,281.24c-0.77-0.77-4.76-4.48-6.49-6.8c-1.74-2.32-4.63-7.14-8.11-5.21
				c-3.47,1.93-2.32,13.7-1.16,15.06c1.16,1.35,4.3,5.19,4.17,6.35c-0.13,1.16,1.71,5.34,4.55,4.83c1.26-0.22,1.78-1.3,3.32-3.98
				C154.41,288.1,156.2,281.24,156.2,281.24z"/>
			<path id="_x34__9_" class="st13" d="M186.26,249.86c1.01,0,9.47,2.02,15.16,8.59s9.36,13.63,9.36,13.63s2.77-11.35,2.13-14.38
				c-0.63-3.03-4.8-14.4-4.8-14.4L186.26,249.86z"/>
		</g>
	</g>
	<g id="_x33__3_">
		<g id="_x31__32_">
			<path id="_x31__33_" class="st17" d="M521.2,501.31c1.35-0.19,19.61,1.74,19.61,1.74s1.6,3-0.04,10.66
				c-1.64,7.66-3.47,13.97-3.47,13.97s-17.46,0.09-17.77-0.77s-3.44-6.06-2.78-13.96C517.4,505.05,521.2,501.31,521.2,501.31z"/>
			<path id="_x32__33_" class="st0" d="M520.4,555.51c2.71,0.48,9.84,1.08,9.84,1.08l0.83,2.74l-7.66,86.72c0,0-0.24,1.89-1.01,2.61
				c-0.8,0.76-2.12,0.34-2.12-1.05C520.28,644.9,520.4,555.51,520.4,555.51z"/>
			<path id="_x33__17_" class="st10" d="M518.21,523.86c3.22,0.41,19.74,1.64,19.74,1.64l-6.98,34.88c0,0-1.18,1.6-5.37,1.34
				c-3.79-0.23-5.29-1.74-5.29-1.74L518.21,523.86z"/>
		</g>
		<g id="_x32__32_">
			<path id="_x31__34_" class="st18" d="M495.01,560.9l0.87-0.33l1.14-0.96c0,0,1.87-9.12,19.9,81.83c0.29,1.47-0.74,2.89-2.24,3.05
				l0,0c-1.86,0.19-3.56-1.05-3.92-2.88C503.64,605.5,495.01,560.9,495.01,560.9z"/>
			<path id="_x32__34_" class="st17" d="M496.61,560.91c1.12-0.54,3.14-3.01,2.41-5.64s-0.88-4.25-3.13-6.29
				c-2.26-2.04-4.15-2.55-4.15-2.55s1.52,2.44,1.74,3.93c0.22,1.48-2.83,5.65-2.47,7.87C491.37,560.45,495.49,561.46,496.61,560.91z
				"/>
			<path id="_x33__18_" class="st10" d="M502.44,586.3c0.64,0.01,1.55-0.33,2.63-0.92c-7.1-30.39-8.05-25.78-8.05-25.78l-1.14,0.96
				l-0.87,0.33c0,0,1.96,10.13,4.78,24.62C501.06,586,502.01,586.3,502.44,586.3z"/>
		</g>
		<g id="_x33__16_">
			<path id="_x31__35_" class="st0" d="M498.52,498.34l9.8-1.02l12.04,144.66c0.09,1.05-0.68,1.98-1.73,2.08h0
				c-1.05,0.11-1.99-0.64-2.12-1.68L498.52,498.34z"/>
			<path id="_x32__35_" class="st17" d="M505.22,481.2l-3.5,0.36l-3.5,0.36c-1.75,0.18-2.96,1.85-2.58,3.57
				c0.98,4.49,2.67,12.15,2.87,12.84l4.9-0.51l4.9-0.51c0.06-0.72,0.13-8.56,0.17-13.16C508.5,482.4,506.98,481.02,505.22,481.2z"/>
			<polygon id="_x33__19_" class="st10" points="501.39,521.28 510.24,520.36 508.32,497.32 498.52,498.34 			"/>
		</g>
		<path id="_x34__7_" class="st19" d="M533.71,647.36v-37.93c0-9.2,2.55-18.05,4.68-27c0.03-0.15,0.05-0.29,0.05-0.44
			c0-3.77-11.28-6.82-25.2-6.82c-13.92,0-25.2,3.05-25.2,6.82c0,0.15,0.02,0.3,0.05,0.44c2.13,8.95,4.68,17.8,4.68,27v37.93
			c-2.97,1.12-4.74,2.49-4.74,3.97c0,3.77,11.28,6.82,25.2,6.82c13.92,0,25.2-3.05,25.2-6.82
			C538.45,649.84,536.68,648.48,533.71,647.36z"/>
	</g>
</g>
</svg>
