<?xml version="1.0" encoding="utf-8"?>
<!-- Generator: Adobe Illustrator 25.2.0, SVG Export Plug-In . SVG Version: 6.00 Build 0)  -->
<svg version="1.1" id="Layer_1" xmlns="http://www.w3.org/2000/svg" xmlns:xlink="http://www.w3.org/1999/xlink" x="0px" y="0px"
	 viewBox="0 0 595.28 841.89" style="enable-background:new 0 0 595.28 841.89;" xml:space="preserve">
<style type="text/css">
	.st0{fill:#313534;}
	.st1{fill:#EDB256;}
	.st2{fill:#DB953A;}
	.st3{fill:#8C6D64;}
	.st4{fill:#604A45;}
	.st5{fill:#DBC4B1;}
	.st6{fill:#D0A78E;}
	.st7{fill:#788D9E;}
	.st8{fill:#443232;}
	.st9{fill:#E1D9D5;}
	.st10{fill:#FFFFFF;}
	.st11{fill:#BA4F4F;}
	.st12{fill:#E6DCDA;}
	.st13{fill:#856149;}
	.st14{fill:#475968;}
	.st15{fill:#838D8F;}
	.st16{fill:#2A3145;}
	.st17{fill:#4E3631;}
	.st18{fill:#181E1C;}
	.st19{opacity:0.75;fill:#EDB256;}
	.st20{fill:#C6C6C6;}
	.st21{fill:#98918D;}
	.st22{fill:#221F23;}
	.st23{fill:#1C1B1D;}
	.st24{fill:#754742;}
	.st25{fill:#CE996A;}
	.st26{fill:#3C4E4E;}
	.st27{fill:#383F3C;}
	.st28{fill:#DBB9AC;}
	.st29{fill:#CC9A56;}
	.st30{fill:#6B7265;}
</style>
<g id="_x31_">
	<g id="_x31__5_">
		<g id="_x31__6_">
			<g id="_x31__1_">
				<rect id="_x31__7_" x="282.16" y="232.77" width="1.18" height="9.11"/>
				<path id="_x32__7_" class="st22" d="M288.18,229.92c0,0-9.87,0-10.55,0v2.84h3.21v2.56c0.34,0,3.88,0,3.88,0v-2.56h3.46V229.92z
					"/>
			</g>
			<g id="_x32__1_">
				<rect id="_x31__8_" x="218.88" y="232.77" width="1.18" height="9.11"/>
				<path id="_x32__8_" class="st22" d="M224.9,229.92c0,0-9.87,0-10.55,0v2.84h3.21v2.56c0.34,0,3.88,0,3.88,0v-2.56h3.46V229.92z"
					/>
			</g>
			<g id="_x33__6_">
				
					<rect id="_x31__9_" x="151.73" y="456.85" transform="matrix(0.9944 -0.106 0.106 0.9944 -47.6495 19.3775)" width="13.53" height="2.35"/>
				<path id="_x32__9_" class="st22" d="M146.72,451.17c0,0,1.55,14.58,1.66,15.58l4.2-0.45l-0.5-4.74l3.78-0.4
					c-0.05-0.5-0.61-5.73-0.61-5.73l-3.78,0.4l-0.54-5.11L146.72,451.17z"/>
			</g>
		</g>
		<g id="_x32__6_">
			<g id="_x31__10_">
				
					<rect id="_x31__11_" x="140.37" y="685.43" transform="matrix(0.9884 -0.1517 0.1517 0.9884 -102.4312 42.1639)" class="st3" width="169.31" height="13.5"/>
				<polygon id="_x32__11_" class="st3" points="212.66,794.83 112.29,705.26 112.29,695.47 136.81,690.15 237.18,779.72 
					237.18,789.51 				"/>
				<polygon id="_x33__8_" class="st3" points="376.14,758.46 279.15,672.68 279.15,662.89 303.67,657.57 400.66,743.35 
					400.66,753.14 				"/>
				
					<rect id="_x34__5_" x="197.67" y="743.85" transform="matrix(0.9884 -0.1517 0.1517 0.9884 -110.5848 52.1726)" class="st3" width="177.71" height="13.5"/>
			</g>
			<g id="_x32__12_">
				<path id="_x31__13_" class="st3" d="M164.37,413.07l2.37,75.01c0,0,173.28-9.76,172.61-11.14c-0.67-1.38-5.13-69.98-5.13-69.98
					L164.37,413.07z"/>
				<path id="_x32__13_" class="st4" d="M157.51,418.44l-0.34-4.29l-1.28-6.38c0.59-0.12,17.75-0.43,178.21-4.76l0.29,10.8
					C291,414.98,161.82,418.1,157.51,418.44z"/>
				<path id="_x33__7_" class="st3" d="M153.12,316.2c0.68-0.05,1.09-0.14,1.26-0.18l-4.5-22.51c1.24-0.25,21.17-0.53,182.15-4.88
					l0.28,22.95C270.27,313.26,158,315.88,153.12,316.2z"/>
			</g>
			<g id="_x33__9_">
				<polygon id="_x31__14_" class="st4" points="144.26,715.81 132.98,708.17 161.52,479.03 176.23,481.13 173.53,534.17 
					151.13,714.52 				"/>
				<polygon id="_x32__14_" class="st3" points="162.68,246.75 151.9,247.37 146.71,253.36 174.5,734.5 180.25,740.21 
					191.04,739.59 				"/>
			</g>
			<g id="_x34__6_">
				<polygon id="_x31__12_" class="st4" points="322.46,693.95 308.7,683.92 328.92,460.41 343.63,462.51 343.63,539.98 
					328.7,692.18 				"/>
				<polygon id="_x32__10_" class="st3" points="332.03,246.75 321.24,247.37 316.06,253.36 343.85,711.68 349.6,717.39 
					360.38,716.77 				"/>
			</g>
		</g>
		<g id="_x33__5_">
			<path class="st12" d="M310.77,244.24c0,0-129.17,0.11-130.19-0.72l-3.21,2.41l9.79,161.02l3.52,0.08l129.35-3.1L310.77,244.24z"
				/>
			<g>
				<path class="st26" d="M196.6,285.84c0,0,11.51,8.37,17.03,9.92c5.52,1.56,6.26-0.27,11.14,4.81
					c4.88,5.08,4.76,12.68,12.35,17.52c7.59,4.84,25.15,9.38,33.19,15.93c8.03,6.55,18.07,18.07,18.07,18.07l22.75,15.04
					c0,0-4.92,0.66-4.61,1.35s2.69,5,2.69,5l-3.43,1.39l-9.86-2.9c0,0-11.56-7.02-25.36-8.38c-13.8-1.36-20.95,4.79-20.95,4.79
					l-4.03-0.66c0,0,2.65-3.11,0.52-4.88c-2.13-1.77-15.68-5.14-21.39-10.76s-11.87-16.83-11.86-26.11
					c0.01-7.83,1.66-12.94-1.98-19.33C207.21,300.26,196.6,285.84,196.6,285.84z"/>
				<path class="st27" d="M249.79,366c-0.16-0.28-0.51-0.39-0.8-0.23l-0.14,0.07c-3.7,2-10.13,5.77-11.7,8.55
					c-1.88,3.32-1.74,5.37-1.73,5.45c0.02,0.31,0.28,0.54,0.59,0.54c0.01,0,0.03,0,0.04,0c0.32-0.02,0.57-0.3,0.54-0.63
					c0-0.02-0.1-1.82,1.58-4.79c0.15-0.27,0.39-0.57,0.68-0.89c0.44-0.02,3.72-0.1,6.12,2.8c0.91,1.1,1.34,2.11,1.23,2.94
					c-0.1,0.76-0.6,1.14-0.63,1.16c-0.26,0.19-0.33,0.55-0.15,0.81c0.11,0.17,0.3,0.25,0.49,0.25c0.11,0,0.23-0.03,0.33-0.1
					c0.04-0.03,0.94-0.66,1.12-1.94c0.16-1.19-0.34-2.49-1.49-3.88c-1.96-2.36-4.39-3.01-5.86-3.17c1.98-1.7,5.26-3.83,9.39-6.07
					l0.14-0.08C249.85,366.65,249.95,366.29,249.79,366z"/>
				<path class="st28" d="M208.78,303.27l5.39-1.12l-0.35-6.33c-0.07-0.02-0.13-0.03-0.2-0.05c-5.52-1.56-17.03-9.92-17.03-9.92
					S204.24,296.23,208.78,303.27z"/>
				<path class="st29" d="M270.55,363.59c13.8,1.36,25.36,8.38,25.36,8.38l9.86,2.9l3.43-1.39c0,0-2.37-4.31-2.69-5
					s4.61-1.35,4.61-1.35l-22.75-15.04c0,0-10.04-11.52-18.07-18.07c-8.03-6.55-25.6-11.09-33.19-15.93
					c-0.97-0.62-1.82-1.29-2.57-1.99c-4.8-0.44-9.43,0.05-11.99,2.8c-3.6,3.86-4.98,13.91-5.49,22.38
					c2.19,4.31,4.96,8.18,7.63,10.81c5.7,5.62,19.26,8.99,21.39,10.76c2.13,1.77-0.52,4.88-0.52,4.88l4.03,0.66
					C249.59,368.38,256.75,362.23,270.55,363.59z"/>
			</g>
		</g>
		<g id="_x34__1_">
			<polygon class="st4" points="260.57,242.49 248.19,15.42 229.32,16.45 224.9,16.45 235.46,231.86 241.06,231.86 241.69,243.52 
							"/>
			<path class="st3" d="M297.49,237.89h-21.62l-1.05-13.62c-0.29-3.8-3.4-6.77-7.21-6.88c-8.49-0.24-23.1-0.65-32.15-0.85
				c-4.32-0.09-7.81,3.48-7.61,7.79c0.26,5.66,0.59,12.47,0.74,13.56h-12.23c0,0-6.58,2.31-7.26,2.64c0,0,0,3.33,0,3.55
				c0,0.22,4.89,0,4.89,0v2.66h2.36c0,0,81.18,0.03,81.52-0.48C298.22,245.76,297.49,237.89,297.49,237.89z"/>
		</g>
		<g id="_x35_">
			<circle class="st22" cx="253.33" cy="229.92" r="5.4"/>
			<circle class="st22" cx="265.97" cy="449.73" r="5.4"/>
		</g>
	</g>
	<g id="_x32__5_">
		<g id="_x31__15_">
			<g id="_x31__16_">
				<path id="_x31__17_" class="st28" d="M469.98,637.07c0,0,4.73,23.97,4.05,39.16c-0.68,15.19-10.46,84.05-10.46,84.05
					s3.38,24.64,2.03,30.72c-1.35,6.08-7.65,5.38-13.84,5.4c-6.19,0.02-5.74-3.38-18.9-5.06c-13.17-1.69-32.41-4.39-32.41-4.39
					s20.93-9.45,25.99-13.84c5.06-4.39,8.78-11.14,11.48-17.89c2.7-6.75,3.38-35.78,3.38-42.87s-4.02-71.23-4.02-71.23
					L469.98,637.07z"/>
				<path id="_x32__17_" class="st28" d="M429.47,659.69c0,0,4.73,20.59,5.06,31.06c0.34,10.46-2.53,63.8-2.53,63.8
					s-0.82,23.97,0.01,30.38s5.63,19.02-1.31,23.07c-6.93,4.05-30.27-2.48-30.27-2.48s-20.59-0.34-24.3-3.38
					c-3.71-3.04-3.43-3.54-3.6-4.56c-0.17-1.01,1.13-1.97,1.13-1.97s-1.46-1.97-0.73-3.54s3.04-2.14,3.04-2.14s-1.41-1.29-0.51-2.42
					c0.9-1.13,5.29-1.13,7.88-1.58c2.59-0.45,10.8-0.68,13.39-1.69c2.59-1.01,7.65-3.15,9-6.41c1.35-3.26,3.6-3.83,0-28.36
					c-3.6-24.53-12.83-71.11-12.83-71.11L429.47,659.69z"/>
			</g>
			<g id="_x32__16_">
				<path id="_x31__18_" class="st18" d="M374.42,457.49l-12.49,131.65c0,0-3.07,44.04-1.55,58.88c1.52,14.84,1.77,35.3,10.1,32.94
					s8.33-2.36,8.33-2.36s14.85,7.43,20.25,6.41c5.4-1.01,15.87-5.4,15.87-5.4s6.08,3.71,18.57,3.38
					c12.49-0.34,16.73-3.32,18.98-5.91s2.62-6.92,2.62-6.92s2.64,2.66,6.98,1.49c7.16-1.94,10.6-5.88,10.6-5.88
					s4.69,0.68,13.13-0.34c8.44-1.01,8.44-1.01,8.44-1.01l-12.04-99.84l-5.35-38.56c0,0-12.66-45.74-13.84-46.25
					c-1.18-0.51-5.34-24.64-5.34-24.64l-0.73-11.98l-75.78,2.7L374.42,457.49z"/>
				<path id="_x32__18_" class="st11" d="M457.68,455.13c0,0-1.24,3.04-6.3,7.43s-5.06,4.39-5.06,4.39l-41.19-13.05l-28.62-3.68
					c0,0-12.22,43.06-12.22,54.87s-2.36,62.11-2.36,62.11s11.48,5.74,31.73,3.04c20.25-2.7,28.36-1.01,28.36-1.01
					s2.7-32.07,6.75-47.93c4.05-15.87,9.45-45.23,11.14-45.23c1.69,0,5.06,0.34,5.06,0.34s14.52,6.08,22.62,22.95
					s14.85,66.84,14.85,66.84l8.1-1.35c0,0-3.38-5.74-6.75-18.57c-3.38-12.83-12.49-44.56-12.49-44.56s-3.71-24.3-7.09-33.42
					C460.83,459.18,457.68,455.13,457.68,455.13z"/>
			</g>
		</g>
		<g id="_x32__15_">
			<path class="st28" d="M459.32,317.57c0,0-14.35-6.58-17.55-14.01s-6.75-34.77-6.75-34.77s-28.52-8.1-30.21-8.44
				c-1.69-0.34-20.09-5.57-20.09-5.57s-6.75,5.23-6.75,9.62c0,4.39,4.56,10.97,5.4,14.68c0.84,3.71,0.39,8.5,2.19,10.97
				c1.8,2.48,4.73,5.74,6.08,8.78c1.35,3.04,2.16,6.76,4.81,8.38c3.55,2.16,13.82,0.14,15.93-0.31
				c3.71,11.81,11.66,34.62,11.66,34.62s37.64-9.62,37.81-9.96C462.02,331.24,459.32,317.57,459.32,317.57z"/>
			<g id="_x32__19_">
				<g id="_x31__19_">
					<path id="_x31__20_" class="st28" d="M314.53,338.72c-1.2-2.13-0.27-6.22-0.27-6.22s2.54-8.2,4.63-9.53s14.69-3.17,15.67-2.87
						c5.85,1.78,10.76,4.89,16.71,12.35c1.27,1.59,5.17,5.31,5.17,5.31s48.53,14.57,48.08,15.14s-10.78,22.71-10.97,22.14
						s-27.94-18.94-34.88-21.48c-6.94-2.54-13.19-2.36-15.4-3.32c-2.21-0.95-10.18-4.91-10.56-5.2s-9.48-2.73-10.52-5.03
						c-1.3-2.86-1.08-4.17,2.46-4.08c3.54,0.09,9.64,0.74,9.64,0.74s2.01-0.42,1.97-1.39c-0.04-0.97-2.01-4.56-3.94-5.33
						c-1.93-0.76-3.62-1.92-5.1-1.29c-1.47,0.63-5.7,3.05-5.7,3.05s-1.35,5.18-3.04,6.86C316.79,340.25,315.72,340.85,314.53,338.72
						z"/>
					<g id="_x32__21_">
						<path id="_x31__21_" class="st18" d="M308.94,348.49l-0.43-0.36l-0.84-0.32c0,0-5.31,1.7,36.91-34.43
							c0.68-0.58,1.73-0.46,2.25,0.27h0c0.65,0.92,0.5,2.17-0.36,2.9C329.7,330.87,308.94,348.49,308.94,348.49z"/>
						<path id="_x32__22_" class="st30" d="M308.47,347.64c-0.61-0.43-2.49-0.75-3.66,0.4c-1.16,1.15-1.96,1.71-2.36,3.48
							s-0.12,2.92-0.12,2.92s0.83-1.51,1.54-2.06c0.71-0.55,3.78-0.18,4.84-1.02C309.77,350.52,309.09,348.07,308.47,347.64z"/>
						<path id="_x33__1_" class="st10" d="M320.03,337.14c-0.18-0.34-0.63-0.71-1.25-1.11c-13.79,12.64-11.1,11.78-11.1,11.78
							l0.84,0.32l0.43,0.36c0,0,4.72-4,11.46-9.73C320.28,337.95,320.15,337.37,320.03,337.14z"/>
					</g>
				</g>
				<path id="_x32__20_" class="st30" d="M420.85,317.6c-0.46,0.06-0.9,0.19-1.31,0.41c-3.38,1.81-28.77,9.79-31.62,13.9
					c-2.42,3.49-13.3,21.57-17.66,28.82c-1.02,1.7-0.56,3.9,1.07,5.05l1.68,1.19l22.46,14.99c1.48,0.98,2.07,2.86,1.44,4.51
					l-22.52,58.89c-0.86,2.26,0.57,4.73,2.95,5.11c9.57,1.51,31.59,4.67,42.57,3.63c11.77-1.12,17.74-3.84,19.46-4.76
					c0.4-0.21,0.82-0.34,1.26-0.4c3.18-0.41,15.78-2.1,17.84-3.28c1.94-1.11,0.7-12.2,0.19-16.16c-0.12-0.9,0.09-1.81,0.59-2.57
					c1.66-2.51,5.41-8.34,5.8-10.3c0.35-1.76,0.21-3.92,0.1-5.08c-0.06-0.56,0.01-1.11,0.19-1.64c1.41-4.01,7.52-21.77,9.16-31.76
					c1.86-11.31,3.88-42.03,1.01-49.79s-11.75-14.18-17.89-14.68C452.12,313.24,426.14,316.85,420.85,317.6z"/>
				<path id="_x33__11_" class="st28" d="M373.01,366.98L398,383.65c0,0-11.8,43.06-15.18,48.2c-3.38,5.14-11.32,13.93-15.82,13.93
					c-4.5,0-7.53,1.54-16.64-2.43c-11.75-5.11-15.13-10.96-15.13-10.96s-15.15-8.8-16.88-10.69c-1.73-1.89-6.01-11.64-6.01-11.64
					s-0.04-1.48,1.14-1.98c1.18-0.51,2.66,1.22,2.66,1.22l-1.41-4.67c0,0,0.11-1.86,1.18-2.36c1.07-0.51,3.66,0.28,3.77,0.11
					s-0.51-2.08,1.24-2.87c1.74-0.79,5.04,2.68,5.04,2.68s1.49-2.36,2.84-2.11s4.39,4.07,4.39,4.07l5.4,7.26l2.45,1.69
					c0,0-1.43-4.98-0.42-5.65c1.01-0.68,1.69-0.68,2.7,0.34s3.38,4.22,3.38,4.22s5.23,5.4,5.4,7.09c0.17,1.69,0.17,3.38,0.17,3.38
					l5.4-2.03l10.63-29.37L373.01,366.98z"/>
			</g>
			<path id="_x33__10_" class="st18" d="M407.67,226.09c-1.01-0.17-5.78,0.55-8.48,1.4c-2.7,0.84-6.37,2.99-6.37,2.99
				s-5.12,2.15-9.17,6c-1.15,1.1-4.5,6.15-4.5,6.15s-7.09,7.93-8.1,12.15c-1.01,4.22-0.84,12.15,2.03,15.87
				c2.87,3.71,8.44,7.26,8.44,7.26l-3.54-5.74l7.6,5.74c0,0,0-4.39,0.51-4.05s4.89,4.05,4.89,4.05l4.63,0.91
				c0,0,6.01,3.81,9.21,8.88c3.21,5.06,4.56,9.11,4.22,13.33s-3.54,14.01-3.88,19.92c-0.34,5.91,1.52,13.17,1.52,13.17l2.41-5.57
				c0,0,1.47-0.34,2.48,3.71s-2.19,11.81-2.53,15.19s0.68,8.61,0.68,8.61l2.05-4.73c0,0-2.56,4.89-1.04,8.61
				c1.52,3.71,6.81,9.62,6.81,9.62s-0.39-1.86,0.96-6.58c1.35-4.73,2.7-6.75,2.7-6.75l1.01,4.39c0,0,2.36-8.61,5.23-12.83
				c2.87-4.22,7.09-16.37,6.92-23.97c-0.17-7.6-1.35-11.31-1.35-11.31s2.7,4.89,8.27,7.76s13.5,2.87,13.5,2.87s-6.24-1.01-9.45-4.22
				c-3.21-3.21-6.08-8.95-6.98-12.77c-0.9-3.83-0.27-6.87,1.21-10.3c1.49-3.43,6.44-16.48,6.66-23.46
				c0.23-6.98-3.83-22.28-3.83-22.28s4.28-8.33-1.13-18.9c-5.4-10.58-12.76-18.23-21.35-15.98
				C411.33,217.48,407.67,226.09,407.67,226.09z"/>
			<path id="_x34__4_" class="st28" d="M396.53,278.4c0,0-3.59-5.65,0-5.38c3.59,0.28,6.76,2.21,7.45,5.38s0.83,5.52,0.83,8
				c0,2.48,2.76,4.41,0,5.38c-2.76,0.97-4.14-6.07-5.24-7.86C398.46,282.12,396.53,278.4,396.53,278.4z"/>
		</g>
	</g>
</g>
</svg>
