<?xml version="1.0" encoding="utf-8"?>
<!-- Generator: Adobe Illustrator 25.2.0, SVG Export Plug-In . SVG Version: 6.00 Build 0)  -->
<svg version="1.1" id="Layer_1" xmlns="http://www.w3.org/2000/svg" xmlns:xlink="http://www.w3.org/1999/xlink" x="0px" y="0px"
	 viewBox="0 0 595.28 841.89" style="enable-background:new 0 0 595.28 841.89;" xml:space="preserve">
<style type="text/css">
	.st0{fill:#313534;}
	.st1{fill:#EDB256;}
	.st2{fill:#DB953A;}
	.st3{fill:#8C6D64;}
	.st4{fill:#604A45;}
	.st5{fill:#DBC4B1;}
	.st6{fill:#D0A78E;}
	.st7{fill:#788D9E;}
	.st8{fill:#443232;}
	.st9{fill:#E1D9D5;}
	.st10{fill:#FFFFFF;}
	.st11{fill:#BA4F4F;}
	.st12{fill:#E6DCDA;}
	.st13{fill:#856149;}
	.st14{fill:#475968;}
	.st15{fill:#838D8F;}
	.st16{fill:#2A3145;}
	.st17{fill:#4E3631;}
	.st18{fill:#181E1C;}
	.st19{opacity:0.75;fill:#EDB256;}
	.st20{fill:#C6C6C6;}
	.st21{fill:#98918D;}
	.st22{fill:#221F23;}
	.st23{fill:#1C1B1D;}
	.st24{fill:#754742;}
	.st25{fill:#CE996A;}
	.st26{fill:#3C4E4E;}
	.st27{fill:#383F3C;}
	.st28{fill:#DBB9AC;}
	.st29{fill:#CC9A56;}
	.st30{fill:#6B7265;}
</style>
<g id="_x34__2_">
	<g id="_x31__3_">
		<g id="_x31__4_">
			<path id="_x31__44_" class="st0" d="M530.32,593.36c0-9.68-17.2-17.53-38.41-17.53c-21.21,0-38.41,7.85-38.41,17.53
				c0,1.33,0,6.4,0,7.73c0,9.68,17.2,17.53,38.41,17.53c21.21,0,38.41-7.85,38.41-17.53C530.32,599.77,530.32,594.69,530.32,593.36z
				"/>
			<path id="_x32__44_" class="st1" d="M513.88,582.02c0-5.25-9.93-9.5-22.17-9.5s-22.17,4.25-22.17,9.5c0,0.8,0,3.84,0,4.64
				c0,5.25,9.93,9.5,22.17,9.5s22.17-4.25,22.17-9.5C513.88,585.86,513.88,582.82,513.88,582.02z"/>
		</g>
		<g id="_x32__4_">
			<path id="_x31__45_" class="st2" d="M529.87,318.83c-0.98,0-1.95-0.42-2.64-1.23L368.96,129.98h-31.91
				c-1.9,0-3.45-1.54-3.45-3.45s1.54-3.45,3.45-3.45h33.51c1.02,0,1.98,0.45,2.64,1.23L532.5,313.16c1.23,1.46,1.04,3.63-0.41,4.86
				C531.44,318.56,530.65,318.83,529.87,318.83z"/>
			<path id="_x32__45_" class="st0" d="M353.29,135.5c-0.07,0-0.14,0-0.21,0c-34-0.78-85.67-1.89-90.41-1.82
				c-4.26,0.32-8.27-2.48-9.34-6.77c-1.2-4.8,1.72-9.67,6.52-10.87c1.56-0.39,2.21-0.55,93.63,1.54c4.95,0.11,8.87,4.22,8.76,9.17
				C362.14,131.62,358.15,135.5,353.29,135.5z M264.19,133.43C264.19,133.43,264.19,133.43,264.19,133.43
				C264.19,133.43,264.19,133.43,264.19,133.43z M264.2,133.43C264.2,133.43,264.2,133.43,264.2,133.43
				C264.2,133.43,264.2,133.43,264.2,133.43z M264.21,133.43C264.21,133.43,264.21,133.43,264.21,133.43
				C264.21,133.43,264.21,133.43,264.21,133.43z"/>
		</g>
		<g id="_x33__23_">
			<path id="_x31__46_" class="st2" d="M491.71,574.75c-1.9,0-3.45-1.54-3.45-3.45V258.26c0-1.9,1.54-3.45,3.45-3.45
				s3.45,1.54,3.45,3.45V571.3C495.16,573.2,493.62,574.75,491.71,574.75z"/>
			<path id="_x32__46_" class="st0" d="M491.71,589.61c-4.19,0-7.59-3.4-7.59-7.59V412.6c0-4.19,3.4-7.59,7.59-7.59
				c4.19,0,7.59,3.4,7.59,7.59v169.42C499.3,586.21,495.9,589.61,491.71,589.61z"/>
		</g>
	</g>
	<g id="_x32__43_">
		<path id="_x31__47_" class="st3" d="M114.59,627.88c-3.05,0-5.52-2.47-5.52-5.52V461.62c0-3.05,2.47-5.52,5.52-5.52
			c3.05,0,5.52,2.47,5.52,5.52v160.75C120.11,625.41,117.64,627.88,114.59,627.88z"/>
		<path id="_x32__47_" class="st3" d="M299.8,610.87c-3.05,0-5.52-2.47-5.52-5.52v-97.82c0-3.05,2.47-5.52,5.52-5.52
			s5.52,2.47,5.52,5.52v97.82C305.32,608.4,302.85,610.87,299.8,610.87z"/>
		<path id="_x33__24_" class="st4" d="M115.75,521.06c0,0,181.34-17.4,184.05-17.01c2.71,0.39,59.66,35.57,59.66,35.57l-222.01,9.29
			L115.75,521.06z"/>
		<path id="_x34__10_" class="st3" d="M137.45,554.43c-1.7,0-3.31-0.78-4.35-2.13l-21.7-27.85c-1.87-2.4-1.44-5.87,0.96-7.75
			c2.4-1.87,5.87-1.44,7.75,0.96l19.98,25.64c20.33-0.73,149.29-6.21,219.14-9.21c3.01-0.15,5.62,2.23,5.75,5.28
			c0.13,3.04-2.23,5.62-5.28,5.75C350.83,545.51,142.54,554.43,137.45,554.43z"/>
		<path id="_x35__2_" class="st3" d="M358.76,666.55c-0.02,0-0.03,0-0.05,0c-3.05-0.03-5.5-2.52-5.47-5.57
			c0.51-60.71,1.04-152.76,0.41-160.39c-0.41-1.85,0.15-3.86,1.64-5.24c2.23-2.07,5.73-1.94,7.8,0.3c1.84,1.98,1.84,1.98,1.88,29.49
			c0.02,13.47-0.03,32.15-0.15,55.54c-0.2,39.81-0.54,80-0.54,80.4C364.26,664.11,361.79,666.55,358.76,666.55z M355,503.15h0.01
			H355z M354.99,503.15C354.99,503.15,354.99,503.15,354.99,503.15C354.99,503.15,354.99,503.15,354.99,503.15z"/>
		<path id="_x36__1_" class="st3" d="M110.34,428.84c-3.05,0-5.52-2.47-5.52-5.52v-80.13c0-3.05,2.47-5.52,5.52-5.52
			c3.05,0,5.52,2.47,5.52,5.52v80.13C115.86,426.37,113.38,428.84,110.34,428.84z"/>
		<path id="_x37_" class="st5" d="M131.6,400.81c-3.09,1.93-85.45,92.8-83.91,92.8s28.61,18.69,68.05,27.45s69.21,9.01,70.37,8.76
			c1.16-0.25,100.53-53.61,99.37-61.35c-1.16-7.73,42.53-78.49,44.47-88.16c1.93-9.67,3.15-63.8-8.51-68.44
			C309.8,307.23,131.6,400.81,131.6,400.81z"/>
	</g>
	<g id="_x33__4_">
		<g id="_x31__48_">
			<g id="_x31__49_">
				<path id="_x31__50_" class="st6" d="M432.04,582.15c0.77,1.16,13.53,22.04,14.69,22.81c1.16,0.77,17.4,15.85,17.4,15.85
					s9.28,5.9,11.6,8.94c2.32,3.04,13.53,12.71,17.79,13.87c4.25,1.16,23.46,10.96,25,13.79c1.55,2.84,0.64,5.8-1.8,6.7
					s-3.87,0.52-3.87,0.52s0.9,1.68-1.29,2.58c-2.19,0.9-4.9,0.77-4.9,0.77s-0.64,0.77-3.09,1.42c-2.45,0.64-5.03-1.03-5.03-1.03
					s-0.9,2.23-3.61,1.18s-5.67-1.31-5.67-1.31s-1.42,0.9-5.93,0.26c-4.51-0.64-9.28-0.26-14.95-2.19
					c-5.68-1.93-17.27-10.96-23.33-12.37c-6.06-1.42-13.58-0.74-19.64-4.74c-6.06-4-3.04-25.55-3.04-25.55l-16.24-29.13
					L432.04,582.15z"/>
				<path id="_x32__50_" class="st6" d="M338.21,617.77c-0.3,0.89-3.41,32.58-3.41,32.58s5.48,4.15,8.44,8.87
					c2.95,4.73,9.53,9.72,9.53,9.72l13,14.77c0,0,1.66,5.47,0.66,6.79c-1,1.33-2.22,1.55-2.22,1.55s1.22,3.21-0.11,4.1
					c-1.33,0.89-2.33,1-2.33,1s0.55,1.55-0.78,2.55c-1.33,1-2.99,1.22-2.99,1.22s-0.11,1.55-1.77,1.99s-4.21,0-4.21,0
					s-1.88,2.1-4.32,2.44c0,0-3.32,0.33-6.87-2.1s-11.85-17.06-11.85-17.06s-7.4-8.8-8.43-9.69c-1.03-0.89-7.82-2.24-12.25-5.63
					s-0.15-29.98,0-30.43c0.15-0.44,3.84-29.54,4.43-29.54C313.33,610.89,338.21,617.77,338.21,617.77z"/>
			</g>
			<path id="_x32__49_" class="st7" d="M191.92,528.02c7.73,5.16,23.07,7.48,31.8,7.68c27.4,0.63,47.85-5.91,47.85-5.91
				s15.4,0.63,26.29,1.71c10.89,1.08,22.04,1.55,22.04,1.55s-5.41,21.65-6.57,36.73c-1.16,15.08-5.03,47.17-3.87,48.72
				c1.16,1.55,1.55,7.35,15.85,9.67c14.31,2.32,16.97,1.93,17.77,0c0.79-1.93,25.93-91.25,26.7-89.71
				c0.77,1.55,18.95,67.28,18.95,67.28s18.95-0.39,27.07-3.87s27.07-9.28,24.75-11.21c-2.32-1.93-3.09-9.86-7.35-12.91
				c-4.25-3.04-6.57-2.95-6.57-2.95s-1.64-8.6-3.09-11.21s-6.19-3.87-6.19-3.87s0-11.99-0.77-13.53c-0.77-1.55-4.25-6.19-5.03-7.35
				c-0.77-1.16-5.42-25.34-9.67-44.68c-4.25-19.33-14.3-57.4-24.36-63.39S236,448.88,226.72,450.69
				c-9.28,1.8-44.34,21.65-46.79,39.05C177.49,507.14,184.19,522.86,191.92,528.02z"/>
		</g>
		<g id="_x32__48_">
			<path id="_x31__51_" class="st8" d="M220.53,254.91c1.16,1.43,9.54,13.02,11.73,21.65c2.19,8.64-1.8,17.4,2.32,30.42
				c4.12,13.02-4.25,22.17-7.48,30.68s-8.25,12.76-8.76,11.86c-0.52-0.9-47.43-17.01-47.43-17.01s-14.44-36.09-11.21-40.34
				c3.22-4.25,21.59-24.62,22.52-25C183.16,266.76,220.53,254.91,220.53,254.91z"/>
			<path id="_x32__51_" class="st6" d="M209.97,298.92c-0.64,1.35-9.92,52.78-10.5,52.78c-0.58,0-24.84-6.38-24.36-11.99
				c0.48-5.61-1.17-40.79-1.17-40.79H209.97z"/>
		</g>
		<g id="_x33__25_">
			<path id="_x31__52_" class="st9" d="M173.93,319.22c0,0,12.64,7.26,20.7,11.6s18.98,1.69,18.98,1.69l-0.36,5.73
				c-0.27,4.37,3.81,7.71,8.04,6.59c7.06-1.88,16.74-3.82,22.19-2.16c0,0,26.04,11.6,32.48,17.79c6.44,6.19,34.28,31.67,36.22,32.14
				c1.93,0.47,27.45-4.17,34.03,3.18c6.57,7.35,16.63,10.05,10.83,20.88s-15.47,15.85-17.79,15.85c-2.32,0-73.21,16.24-73.21,16.24
				s-25.91,2.84-35.79,9.92c-5.17,3.71-42.57,37.64-38.71,50.01c3.87,12.37,15.85,25.24,15.85,25.24s-14.31,3.98-21.27,0
				c-6.96-3.98-36.35-50.38-37.12-57.34c-0.77-6.96,0-9.67,0-9.67l-11.21-11.21l-3.09-11.21l-11.57-4.41c0,0-7.76,13.3-13.95,16.78
				c-6.19,3.48-33.22-0.77-36.7-4.38c-3.48-3.61-1.58-14.62,3.06-25.61c4.64-10.99,29-48.11,31.71-51.21
				c2.71-3.09,10.44-29.64,17.4-32.87c6.96-3.22,25.13-4.64,26.68-5.8C152.87,335.85,173.93,319.22,173.93,319.22z"/>
			<g id="_x32__52_">
				<g id="_x31__53_">
					<path id="_x31__54_" class="st10" d="M214.49,368.97c1.66,0.26,30.79,2.32,41.87,4.9c11.08,2.58,25.26,12.12,25,9.8
						c-0.26-2.32,3.47-6.55,9.73-9.2c6.26-2.65,42.09-11.03,42.09-11.03l-15.47,59.93l-49.87,18.56c0,0-57.82-8.44-57.88-11.15
						C209.9,428.07,214.49,368.97,214.49,368.97z"/>
					<path id="_x32__54_" class="st11" d="M211.51,366.13c7.22,0.26,66.25,19.85,66.25,19.85h8.25c0,0,53.36-25,52.59-24.23
						c-0.77,0.77-18.04,65.13-18.04,65.13l-54.39,23.81l-69.07-18.82L211.51,366.13z"/>
				</g>
				<path id="_x32__53_" class="st6" d="M156.35,413.31c-0.77,1.03-11.86,3.87-9.67,17.53c0.95,5.92,5.8,8.76,6.83,7.99
					c1.03-0.77,14.95-5.93,14.95-5.93s14.97-0.98,17.03-1.78s7.2-1.57,7.2-1.57s13.15,1.22,15.08,0.84
					c1.93-0.39,2.13-2.32,2.13-2.32l9.28,2.51c0,0,2.32,0.39,2.9-1.35c0.58-1.74-2.71-5.61-2.71-5.61l-5.99-2.9l7.73,1.35
					c0,0,6.38,2.71,7.54,1.74c1.16-0.97,2.9-5.03,0-6.96c-2.9-1.93-13.53-7.15-14.5-7.35c-0.97-0.19-10.83-2.9-10.83-2.9l5.99-1.35
					c0,0,7.15,2.51,7.73,2.51c0.58,0,7.93,4.64,9.67,2.51c1.74-2.13-5.61-9.67-5.61-9.67l-8.12-4.06c0,0-17.79,0.18-21.05,1.49
					s-12.59,8.37-12.59,8.37l-8.7,2.13L156.35,413.31z"/>
				<path id="_x33__26_" class="st6" d="M356.24,409.47c0.61,1.63,1.36,9.18,0.01,13.44c-1.35,4.25-8.51,7.73-8.51,7.73l-19.91,2.32
					c0,0-3.67,0-3.87-1.35c-0.19-1.35,1.16-2.54,1.16-2.54h-5.03c0,0-1.35-0.55-2.13-1.91c-0.77-1.35,0.39-2.32,1.16-2.32
					s4.45,0.77,8.51-0.58c4.06-1.35,6.77-2.13,6.77-2.13l-4.83-2.19h-8.89c0,0-3.02-1.48-2.96-2.83c0.06-1.35,2.77-2.51,3.54-2.51
					s11.99,0.19,11.99,0.19s9.47-0.39,10.44-1.93c0.97-1.55-0.77-3.87-0.77-3.87h-8.31h-4.64c0,0-3.67-0.77-3.48-2.71
					s4.45-3.29,6.19-3.29s8.31,0,13.34,0S355.64,407.84,356.24,409.47z"/>
			</g>
		</g>
		<g id="_x34__12_">
			<path id="_x31__56_" class="st6" d="M223.89,270.5c0,0,5.41,13.66,5.41,15.72s-1.03,6.19-1.03,6.19s0.54,5.66,0.3,10.43
				c-0.17,3.35-5.2,20.11-5.2,20.11s-0.94,5.5-1.93,7.6c-1.89,4-11.23,5.93-21.28,2.2c-10.05-3.74-16.48-12.38-17.64-15.08
				s-3.09-8.12-3.09-8.76s-3.35-24.23-3.35-24.23s35.7-19.2,36.6-18.82C213.58,266.25,223.89,270.5,223.89,270.5z"/>
			<path id="_x32__56_" class="st8" d="M195.66,246.01c0.52-0.77,1.93-2.99,4.12-3.75s13.4-1.02,20.75,12.64
				c7.35,13.66,7.61,27.02,7.15,25.72s-1.86-6.13-5.99-7.67c-4.12-1.55-7.22-1.68-7.22-1.68L195.66,246.01z"/>
		</g>
		<g id="_x35__3_">
			<path id="_x31__55_" class="st8" d="M214.48,271.27c0,0-19.08,5.93-23.59,11.34s-11.18,14.89-11.18,14.89l0.37,13.71
				c0,0,2.69,12,1.4,18.71c-1.29,6.7-3.76,18.56-7.55,25.52c-3.79,6.96-5.59,7.99-5.59,7.99s2.58-2.96,2.96-10.05
				s-2.19-15.72-2.19-15.72s-1.03,4.51-15.08,4.25c-14.05-0.26-22.85-1.12-22.85-1.12s7-4.94,11.51-16.41
				c4.51-11.47,0.77-21.52,5.28-29.39s11.6-15.21,16.37-27.07s7.99-19.33,11.08-21.78c3.09-2.45,14.18-5.16,18.56-3.22
				c4.38,1.93,10.05,3.61,13.92,9.67C211.77,258.64,214.74,272.05,214.48,271.27z"/>
			<path id="_x32__55_" class="st6" d="M181.61,300.51c0,0-4.25-7.32-6.83-8.48c-2.58-1.16-5.54-2.45-6.83-1.93
				c-1.29,0.52-3.48,5.16-1.55,8.76c1.93,3.61,5.29,6.44,7.22,8.89c1.93,2.45,1.28,4.12,3.6,4.12s4.51-1.16,4.9-3.22
				S181.61,300.51,181.61,300.51z"/>
		</g>
	</g>
	<path id="_x34__3_" class="st3" d="M137.45,687.81c-3.05,0-5.52-2.47-5.52-5.52V457.89l-12.37-10.43
		c-2.33-1.97-2.62-5.45-0.66-7.78c1.97-2.33,5.45-2.62,7.78-0.66l14.33,12.09c1.24,1.05,1.96,2.59,1.96,4.22V682.3
		C142.97,685.34,140.5,687.81,137.45,687.81z"/>
</g>
</svg>
