<?xml version="1.0" encoding="utf-8"?>
<!-- Generator: Adobe Illustrator 25.2.0, SVG Export Plug-In . SVG Version: 6.00 Build 0)  -->
<svg version="1.1" id="Layer_1" xmlns="http://www.w3.org/2000/svg" xmlns:xlink="http://www.w3.org/1999/xlink" x="0px" y="0px"
	 viewBox="0 0 595.28 841.89" style="enable-background:new 0 0 595.28 841.89;" xml:space="preserve">
<style type="text/css">
	.st0{fill:#313534;}
	.st1{fill:#EDB256;}
	.st2{fill:#DB953A;}
	.st3{fill:#8C6D64;}
	.st4{fill:#604A45;}
	.st5{fill:#DBC4B1;}
	.st6{fill:#D0A78E;}
	.st7{fill:#788D9E;}
	.st8{fill:#443232;}
	.st9{fill:#E1D9D5;}
	.st10{fill:#FFFFFF;}
	.st11{fill:#BA4F4F;}
	.st12{fill:#E6DCDA;}
	.st13{fill:#856149;}
	.st14{fill:#475968;}
	.st15{fill:#838D8F;}
	.st16{fill:#2A3145;}
	.st17{fill:#4E3631;}
	.st18{fill:#181E1C;}
	.st19{opacity:0.75;fill:#EDB256;}
	.st20{fill:#C6C6C6;}
	.st21{fill:#98918D;}
	.st22{fill:#221F23;}
	.st23{fill:#1C1B1D;}
	.st24{fill:#754742;}
	.st25{fill:#CE996A;}
	.st26{fill:#3C4E4E;}
	.st27{fill:#383F3C;}
	.st28{fill:#DBB9AC;}
	.st29{fill:#CC9A56;}
	.st30{fill:#6B7265;}
</style>
<g id="_x32_">
	<g id="_x31__22_">
		<polygon id="_x31__2_" class="st20" points="318.77,456.47 318.77,465.47 318.77,470.67 318.77,485.17 494.25,485.17 
			494.25,470.67 494.25,465.47 494.25,456.47 		"/>
		<g id="_x32__24_">
			<g id="_x31__23_">
				<path id="_x60_" class="st0" d="M466.95,755.99c0.44,0.04,0.9,0.01,1.36-0.09c2.51-0.54,4.11-3.01,3.57-5.52l-58.84-274.17
					c-0.54-2.51-3-4.11-5.52-3.57c-2.51,0.54-4.11,3.01-3.57,5.52l58.84,274.17C463.24,754.38,464.97,755.83,466.95,755.99z"/>
				<path id="_x31__24_" class="st0" d="M346.07,755.99c-0.44,0.04-0.9,0.01-1.36-0.09c-2.51-0.54-4.11-3.01-3.57-5.52l58.84-274.17
					c0.54-2.51,3-4.11,5.52-3.57c2.51,0.54,4.11,3.01,3.57,5.52l-58.84,274.17C349.78,754.38,348.05,755.83,346.07,755.99z"/>
			</g>
			<circle id="_x32__2_" class="st0" cx="406.51" cy="477" r="6.53"/>
		</g>
		<path id="_x33__12_" class="st21" d="M456.74,374.9l-14.38-3.14l-31.29,78.67c-26.18-0.63-76.32-1.8-76.89-1.51l-23.91,5.43v5.65
			l96.13,2.16c0,0,10.68-3.27,16.22-6.61l2.96-1.21l1.03-3.54h0C434.62,435.15,456.74,374.9,456.74,374.9z"/>
	</g>
	<g id="_x32__23_">
		<g id="_x31__29_">
			<rect id="_x31__30_" x="175.87" y="614.27" width="17.08" height="2.65"/>
			<path id="_x32__30_" class="st22" d="M169.36,603.16c0,0,0,22.62,0,24.17h6.51v-7.35h5.86c0-0.77,0-8.89,0-8.89h-5.86v-7.93
				H169.36z"/>
		</g>
		<path id="_x32__29_" class="st0" d="M267.97,712.73l-69.45-6.74V576.1c0-2.68-2.17-4.86-4.86-4.86s-4.86,2.17-4.86,4.86v129.89
			l-69.45,6.74c-2.67,0.26-4.62,2.63-4.36,5.3c0.24,2.51,2.36,4.39,4.83,4.39c0.16,0,0.32-0.01,0.47-0.02l68.51-6.65v14.77
			c0,2.68,2.17,4.86,4.86,4.86s4.86-2.17,4.86-4.86v-14.77l68.51,6.65c0.16,0.02,0.32,0.02,0.47,0.02c2.47,0,4.58-1.88,4.83-4.39
			C272.6,715.37,270.64,712.99,267.97,712.73z"/>
		<path id="_x33__15_" class="st20" d="M267.51,561.32c0-9.66-33.06-11.95-73.84-11.95c-40.78,0-73.84,2.28-73.84,11.95
			c0,1.74,0,19.5,0,21.24c0,9.66,33.06,16.11,73.84,16.11c40.78,0,73.84-6.45,73.84-16.11
			C267.51,580.82,267.51,563.06,267.51,561.32z"/>
	</g>
	<g id="_x33_">
		<g id="_x31__25_">
			<path id="_x31__26_" class="st23" d="M186.2,277.98c0.54,0.36,12.97,5.04,14.77,10.25c1.8,5.21,4.59,27.3,2.43,35.04
				s-4.02,18.26-3.12,26.71c0.9,8.45-4.19,15.2-4.19,15.2s-18.16,10.25-18.34,6.83c-0.18-3.42-6.2-78.21-5.98-79.29
				C171.99,291.64,186.2,277.98,186.2,277.98z"/>
			<path id="_x32__26_" class="st24" d="M186.32,286.43c0,0,7.19,2.88,9.35,11.75s3.22,11.18,2.74,15.25
				c-0.48,4.08-1.37,6.83-1.37,6.83s0.69,2.92,0.87,10.2s-3.42,17.69-3.42,17.69s-0.51,5.7-1.96,6.91
				c-3.82,3.18-12.44,0.81-12.44,0.81v5.59c0,0,7.1-0.95,12.23-1.41c4.05-0.37,5.27,11.72,5.27,11.72s-25.41,15.82-26.85,15.34
				c-1.44-0.48-27.81-9.59-27.81-9.59s-1.44-57.54-0.24-59.69c1.2-2.16,21.58-29.73,22.3-29.97
				C165.7,287.63,186.32,286.43,186.32,286.43z"/>
		</g>
		<g id="_x32__25_">
			<path id="_x31__27_" class="st24" d="M314.21,436.02c4.49-2.76,13.72-5.75,14.5-5.75c0.78,0,12.11,0.72,13.9,1.8
				c1.8,1.08,8.09,7.71,8.63,9.52c0.54,1.81,1.44,3.07,0,4.15c-1.44,1.08-3.24,0-3.24,0l-4.13-5.21c0,0-0.55,8.99-0.91,10.43
				c-0.36,1.44-2.34,2.7-2.34,2.7s-1.8-1.62-1.98-1.08c-0.18,0.54,0.9,0.18-0.9,1.08c-1.8,0.9-4.32,0-4.32,0l-2.58-8.45
				c0,0-2.46,2.16-3.36,2.16s-6.29,2.52-6.29,2.52s5.21,0.18,4.49,3.06c-0.72,2.88-4.32,2.34-4.32,2.34s-5.09-2.83-9.89-4.49
				C306.72,449.1,309.72,438.78,314.21,436.02z"/>
			<path id="_x32__27_" class="st12" d="M149.16,360.99c0.96,0.96,4.46,14.68,14.29,14.68s23.18-15.01,23.18-15.01
				s17.55-4.01,25.1,5.85c4.64,6.06,35.72,53.94,43.39,59.69c7.67,5.75,28.29,10.31,28.29,10.31s25.65-1.44,30.69-3.12
				c5.03-1.68,14.62-3.12,14.62-3.12s-7.19,3.84-10.79,9.11c-3.6,5.27-6.23,15.1-6.23,15.1s-39.32,6.47-50.1,3.12
				c-10.79-3.36-21.34-11.27-21.34-11.27l-43.87-6.47l-30.45,23.25l-1.92,4.79l-33.56,55.19c0,0-7.43,0-20.86-11.55
				c-8.65-7.45-26.07-110.4-11.15-132.33C113.38,357.27,149.16,360.99,149.16,360.99z"/>
		</g>
		<g id="_x33__13_">
			<path id="_x31__28_" class="st24" d="M329.14,621.58c0,0.9-9.71,37.04-9.89,39.56c-0.18,2.52,0,22.83,0,22.83
				s9.17,22.65,12.41,26.25c3.24,3.6,7.19,7.91,7.37,8.99s-0.9,1.8-0.9,1.8s4.14,3.24,3.96,4.85c-0.18,1.62-1.8,3.06-1.8,3.06
				s0.54,2.16-0.36,2.88c-0.9,0.72-3.06,0-3.06,0s-0.18,1.98-2.16,2.34c-1.98,0.36-5.93,0.36-8.45,0c-2.52-0.36-5.75-3.6-5.75-3.6
				s-7.37-1.8-9.89-5.21s-8.63-30.03-11.15-33.26c-2.52-3.24-11.69-7.46-11.51-14.07c0.18-6.61,8.09-16.32,8.09-16.32
				s2.7-43.33,3.42-43.69C300.19,617.62,329.14,621.58,329.14,621.58z"/>
			<path id="_x32__28_" class="st25" d="M228.99,370.93c0,0,10.79,3.96,14.38,12.23s4.49,96.55,4.49,96.55l-8.03,2.34
				c0,0-1.85,7.65-0.78,8.32s91.34,24.4,98.89,41.3c7.55,16.9,5.75,33.44,5.75,34.52s-6.47,61.13-7.55,61.13s-39.92-1.8-39.92-3.96
				s-0.36-42.43,0-44.23c0.36-1.8,2.16-12.23,2.16-12.23s-9.71,0.18-17.98-1.44c-8.27-1.62-53.22-21.58-53.22-21.58
				s-16.56,8.63-33.27,10.43c-16.71,1.8-35.41,5.03-45.12-1.8c-9.71-6.83-18.34-29.44-18.34-29.44L166.78,454
				c0,0,32.36-77.36,42.07-81.29C218.56,368.78,228.99,370.93,228.99,370.93z"/>
			<path id="_x33__14_" class="st24" d="M212.25,501.47l6.84,29.85c0,0-9.53,19.06-8.09,24.45c1.44,5.39,13.66,8.27,13.66,8.27
				l21.3,19.42c0,0,4.95,3.06,5.85,3.06s2.34,2.88,5.75,3.6c3.42,0.72,5.57-0.9,5.57-0.9s4.49,3.24,5.57,3.24s1.8-1.26,2.52-1.26
				s3.78,2.88,5.93,2.34c2.16-0.54,1.8-1.98,3.24-1.8c1.44,0.18,1.08,1.62,5.03,0.54s5.21-3.96,4.67-4.32
				c-0.54-0.36-8.63-5.93-9.17-6.11s-26.25-36.86-26.97-38.48c-0.72-1.62-6.47-14.53-6.47-14.53s-4.49-10.64-5.57-21.43
				s-1.53-25.64-2.1-25.35c-0.57,0.29-6.71,7.07-13.72,9.05s-15.25,2.82-15.25,2.82L212.25,501.47z"/>
		</g>
		<path id="_x34_" class="st24" d="M177.93,466.95c0,0,8.45-2.34,11.15-5.03c2.7-2.7,6.47-8.63,8.81-9.71
			c2.34-1.08,13.64-10.11,14.37-10s10.44-1.27,11.7-0.22c1.26,1.05,0,3.75,0,3.75l-10.61,6.29l11.17-0.9c0,0,12.65-3.51,14.72-3.78
			s3.84,1.02,3.84,1.68s0,2.76,0,2.76s1.5,0.3,1.8,1.62c0.3,1.32-0.42,3.96-0.42,3.96s1.5,0.42,1.44,1.8
			c-0.06,1.38-2.04,4.91-2.04,4.91s2.63-0.96,2.04,1.44c-0.59,2.4-12.23,11.15-12.23,11.15s-10.67,5.15-15.58,5.87
			c-4.91,0.72-26.25,1.32-26.97,1.32s-17.62,5.27-18.58,5.51C171.57,489.6,177.93,466.95,177.93,466.95z"/>
		<path id="_x35__1_" class="st12" d="M137.29,425.21c1.08,1.46,0,44.61,0,44.61s16.42,1.92,21.58,0
			c5.15-1.92,24.09-7.19,24.09-7.19s-3.24,14.02,0,19.06s3.66,8.68,3.66,8.68s-35.67,15.41-54.01,14.33s-23.37-5.39-23.37-6.47
			s-10.93-40.28-12.12-48.91c-1.19-8.63,1.33-70.12,1.33-70.12L137.29,425.21z"/>
		<path id="_x36_" class="st23" d="M191.35,285.47c0,0,3.36-0.96,2.4-5.27c-0.96-4.32-7.9-8.2-14.37-9.4
			c-6.47-1.2-12.96,0.53-12.96,0.53s-5.39-3-11.51-1.68c-6.11,1.32-19.46,15.97-22.22,21.73c-2.76,5.75-6.43,23.31-9.66,28.89
			c-3.24,5.57-9.59,8.95-15.78,25.1c-2.75,7.18-11.13,13.17-12.57,19.11c-1.44,5.93-5.57,9.35-5.57,9.35l9.35-1.44l-5.57,10.25
			c0,0,4.85-1.08,7.73-3.78s7.73-10.25,7.73-10.25s0.18,4.32-2.7,9.35s-9.89,15.28-9.89,15.28s6.65-5.93,10.97-9.35
			c4.32-3.42,16-5.75,19.96-12.41s3.78-7.91,3.78-7.91s1.26,5.93,0.18,13.66s-4.67,24.45-4.49,23.73c0.18-0.72,4.14-8.27,4.14-8.27
			s-1.44,14.92,1.44,19.24c2.88,4.32,4.49,5.03,4.49,5.03s-2.88-7.91-2.16-15.46c0.72-7.55,11.51-19.96,13.48-26.43
			c1.98-6.47,1.26-10.25,1.26-10.25s1.8,13.31,1.44,20.86c-0.36,7.55-2.52,12.59-2.52,12.59s7.15-6.23,9.14-12.64
			c1.99-6.42,4.83-10.55,6.14-15.28c2.16-7.79,3.6-18.65,4.32-24.76s10.43-15.28,12.41-21.58c1.98-6.29,12.04-34.28,14.2-36.62
			C196.08,285.05,191.35,285.47,191.35,285.47z"/>
	</g>
</g>
</svg>
