<?xml version="1.0" encoding="utf-8"?>
<!-- Generator: Adobe Illustrator 27.5.0, SVG Export Plug-In . SVG Version: 6.00 Build 0)  -->
<svg version="1.1" id="Layer_1" xmlns="http://www.w3.org/2000/svg" xmlns:xlink="http://www.w3.org/1999/xlink" x="0px" y="0px"
	 viewBox="0 0 416.3 966.5" style="enable-background:new 0 0 416.3 966.5;" xml:space="preserve">
<style type="text/css">
	.st0{fill:#390052;stroke:#FFFFFF;stroke-miterlimit:10;}
	.st1{fill:none;stroke:#FFFFFF;stroke-miterlimit:10;}
	.st2{fill:none;}
	.st3{opacity:0.2;fill:#FFFFFF;enable-background:new    ;}
	.st4{opacity:0.1;fill:#A4DF53;stroke:#FFFFFF;stroke-miterlimit:10;enable-background:new    ;}
	.st5{opacity:0.1;fill:none;stroke:#FFFFFF;stroke-miterlimit:10;enable-background:new    ;}
	.st6{opacity:0.1;fill:#FEE201;stroke:#FFFFFF;stroke-miterlimit:10;enable-background:new    ;}
	.st7{fill:#232323;}
	.st8{fill:#565656;}
	.st9{fill:#0F0F0F;}
	.st10{fill:#EAE9E8;}
	.st11{fill:#3B383D;}
	.st12{fill:#474747;}
	.st13{fill:#636363;}
	.st14{fill:#E0D4D2;}
	.st15{fill:#CCC2C0;}
	.st16{fill:#D7B0B1;}
	.st17{fill:#BC9280;}
	.st18{fill:#E7D3C1;}
	.st19{fill:#CDCEC3;}
	.st20{fill:#7F90A4;}
	.st21{fill:#0F1834;}
	.st22{fill:#3A2E42;}
	.st23{fill:#E8BCAF;}
	.st24{fill:#2E3047;}
	.st25{fill:#2E3046;}
	.st26{fill:#ABB3BD;}
	.st27{fill:#4A3E50;}
	.st28{fill:#938994;}
	.st29{fill:#E5E3E5;}
	.st30{fill:#908590;}
	.st31{fill:#4C3D4D;}
	.st32{fill:#95A2B3;}
	.st33{fill:#E2E2E2;}
	.st34{fill:#B2AFA9;}
	.st35{fill:#E2B8AB;}
	.st36{fill:#DDDCE0;}
	.st37{fill:#101935;}
	.st38{fill:#F4F4F4;}
	.st39{fill:#EAEAE7;}
	.st40{fill:#F0EEEC;}
	.st41{fill:#FAFAF9;}
	.st42{fill:#292826;}
	.st43{fill:#E9A751;}
	.st44{fill:#30395A;}
	.st45{fill:#B76D38;}
	.st46{fill:#865A45;}
	.st47{fill:#B66E38;}
	.st48{fill:#E5DFD3;}
	.st49{fill:#261D13;}
	.st50{fill:#060B0D;}
	.st51{fill:#F6F5F5;}
	.st52{fill:#F1F0EF;}
	.st53{fill:#292017;}
	.st54{fill:#1B1C1F;}
	.st55{fill:#B56E38;}
	.st56{fill:#A22F25;}
	.st57{fill:#B7B099;}
	.st58{fill:#E6DFD4;}
	.st59{fill:#E6E0D4;}
	.st60{fill:#505568;}
	.st61{fill:#E1DBD0;}
	.st62{fill:#AF6A37;}
	.st63{fill:#A76535;}
	.st64{fill:#EAE3DF;}
	.st65{fill:#E6DCDA;}
	.st66{fill:#856149;}
	.st67{fill:#D0A78E;}
	.st68{fill:#475968;}
	.st69{fill:#838D8F;}
	.st70{fill:#2A3145;}
	.st71{fill:#4E3631;}
	.st72{fill:#313534;}
	.st73{fill:#FFFFFF;}
	.st74{fill:#181E1C;}
	.st75{opacity:0.75;fill:#EDB256;enable-background:new    ;}
	.st76{display:none;}
	.st77{display:inline;}
	.st78{fill:#B1816E;}
	.st79{fill:#DDDAD7;}
	.st80{fill:#0A0A0A;}
	.st81{fill:#6D443C;}
	.st82{fill:#825044;}
	.st83{fill:#282828;}
	.st84{fill:#D3A190;}
	.st85{fill:#1B1E1F;}
	.st86{fill:#E5E2E1;}
	.st87{fill:#9E7364;}
	.st88{fill:#654437;}
	.st89{fill:#EF9369;}
	.st90{fill:#BEA093;}
	.st91{fill:#887C80;}
	.st92{fill:#483940;}
	.st93{fill:#DDD3C9;}
	.st94{fill:#EF9469;}
	.st95{fill:#87492E;}
	.st96{fill:#483830;}
	.st97{fill:#523933;}
	.st98{fill:#DCD2C8;}
	.st99{fill:#3E2D2E;}
	.st100{fill:#EF9368;}
	.st101{fill:#88492E;}
</style>
<path class="st0" d="M213.2,95.8c-111,0-200.9,90-200.9,200.9s90,200.9,200.9,200.9s200.9-90,200.9-200.9S324.2,95.8,213.2,95.8z
	 M213.2,430.3c-73.8,0-133.6-59.8-133.6-133.6s59.8-133.6,133.6-133.6s133.6,59.8,133.6,133.6S287,430.3,213.2,430.3z"/>
<path class="st1" d="M213.2,95.8c-111,0-200.9,90-200.9,200.9s90,200.9,200.9,200.9s200.9-90,200.9-200.9S324.2,95.8,213.2,95.8z"/>
<path class="st1" d="M213.2,140.7c-86.2,0-156,69.9-156,156s69.9,156,156,156s156-69.9,156-156S299.4,140.7,213.2,140.7z
	 M213.2,430.3c-73.8,0-133.6-59.8-133.6-133.6s59.8-133.6,133.6-133.6s133.6,59.8,133.6,133.6S287,430.3,213.2,430.3z"/>
<path class="st1" d="M213.2,118.2c-98.6,0-178.5,79.9-178.5,178.5s79.9,178.5,178.5,178.5s178.5-79.9,178.5-178.5
	S311.8,118.2,213.2,118.2z M213.2,430.3c-73.8,0-133.6-59.8-133.6-133.6s59.8-133.6,133.6-133.6s133.6,59.8,133.6,133.6
	S287,430.3,213.2,430.3z"/>
<g id="Layer_12">
	<rect class="st2" width="204.3" height="392"/>
	<path class="st3" d="M1.1,155.5c17.2,0,31.3,14,31.3,31.3s-14,31.3-31.3,31.3s-31.3-14-31.3-31.3S-16.1,155.5,1.1,155.5 M1.1,154.5
		c-17.8,0-32.3,14.5-32.3,32.3s14.5,32.3,32.3,32.3s32.3-14.5,32.3-32.3S19,154.5,1.1,154.5L1.1,154.5z"/>
	<path class="st3" d="M1.1,138.9c26.4,0,47.9,21.5,47.9,47.9s-21.5,47.9-47.9,47.9s-47.9-21.5-47.9-47.9S-25.3,138.9,1.1,138.9
		 M1.1,137.9c-27,0-48.9,21.9-48.9,48.9s21.9,48.9,48.9,48.9S50,213.9,50,186.8S28.1,137.9,1.1,137.9L1.1,137.9z"/>
	<path class="st3" d="M1.1,122.3c35.6,0,64.6,29,64.6,64.6s-29,64.6-64.6,64.6s-64.6-29-64.6-64.6S-34.5,122.3,1.1,122.3 M1.1,121.3
		c-36.2,0-65.6,29.3-65.6,65.6s29.3,65.6,65.6,65.6s65.6-29.4,65.6-65.6S37.3,121.3,1.1,121.3L1.1,121.3z"/>
	<path class="st3" d="M1.1,105.6c44.8,0,81.2,36.4,81.2,81.2S45.9,268,1.1,268s-81.2-36.4-81.2-81.2S-43.7,105.6,1.1,105.6
		 M1.1,104.6c-45.4,0-82.2,36.8-82.2,82.2S-44.3,269,1.1,269s82.2-36.8,82.2-82.2S46.5,104.6,1.1,104.6L1.1,104.6z"/>
	<path class="st3" d="M1.1,89c53.9,0,97.8,43.9,97.8,97.8S55,284.6,1.1,284.6s-97.8-43.9-97.8-97.8S-52.8,89,1.1,89 M1.1,88
		c-54.6,0-98.8,44.2-98.8,98.8s44.2,98.8,98.8,98.8s98.8-44.2,98.8-98.8S55.7,88,1.1,88L1.1,88z"/>
	<path class="st3" d="M1.1,72.4c30.6,0,59.3,11.9,80.9,33.5s33.5,50.4,33.5,80.9s-11.9,59.3-33.5,80.9s-50.4,33.5-80.9,33.5
		s-59.3-11.9-80.9-33.5s-33.5-50.4-33.5-80.9s11.9-59.3,33.5-80.9S-29.5,72.4,1.1,72.4 M1.1,71.4c-63.8,0-115.5,51.7-115.5,115.5
		S-62.7,302.3,1.1,302.3s115.5-51.7,115.5-115.5S64.9,71.4,1.1,71.4L1.1,71.4z"/>
	<path class="st3" d="M1.1,55.7c35,0,67.9,13.6,92.7,38.4s38.4,57.7,38.4,92.7s-13.6,67.9-38.4,92.7s-57.7,38.4-92.7,38.4
		s-67.9-13.6-92.7-38.4s-38.4-57.7-38.4-92.7s13.6-67.9,38.4-92.7C-66.8,69.4-33.9,55.7,1.1,55.7 M1.1,54.7
		c-72.9,0-132.1,59.1-132.1,132.1S-71.8,318.9,1.1,318.9s132.1-59.1,132.1-132.1S74.1,54.7,1.1,54.7L1.1,54.7z"/>
	<path class="st3" d="M1.1,39.1c39.5,0,76.6,15.4,104.5,43.3s43.3,65,43.3,104.5s-15.4,76.6-43.3,104.5s-65,43.3-104.5,43.3
		s-76.6-15.4-104.5-43.3s-43.3-65-43.3-104.5s15.4-76.6,43.3-104.5C-75.4,54.5-38.3,39.1,1.1,39.1 M1.1,38.1
		c-82.1,0-148.7,66.6-148.7,148.7S-81,335.5,1.1,335.5S149.8,269,149.8,186.8S83.2,38.1,1.1,38.1L1.1,38.1z"/>
</g>
<g id="Layer_8">
	<path class="st4" d="M213.2,163.1c-73.8,0-133.6,59.8-133.6,133.6s59.8,133.6,133.6,133.6s133.6-59.8,133.6-133.6
		S287,163.1,213.2,163.1z M213.2,363c-36.6,0-66.3-29.7-66.3-66.3s29.7-66.3,66.3-66.3s66.3,29.7,66.3,66.3S249.8,363,213.2,363z"/>
</g>
<g id="Layer_10">
	<path class="st5" d="M213.2,185.5c-61.4,0-111.2,49.8-111.2,111.2s49.8,111.2,111.2,111.2s111.2-49.8,111.2-111.2
		S274.6,185.5,213.2,185.5z M213.2,385.4c-49,0-88.7-39.7-88.7-88.7s39.7-88.7,88.7-88.7s88.7,39.7,88.7,88.7
		S262.2,385.4,213.2,385.4z"/>
</g>
<g id="Layer_5">
	<circle class="st6" cx="213.2" cy="296.7" r="66.3"/>
	<circle class="st6" cx="213.2" cy="296.7" r="43.9"/>
	<circle class="st6" cx="213.2" cy="296.7" r="21.4"/>
</g>
<g id="Layer_9">
	<path class="st0" d="M213.2,95.8c-111,0-200.9,90-200.9,200.9s90,200.9,200.9,200.9s200.9-90,200.9-200.9S324.2,95.8,213.2,95.8z
		 M213.2,430.3c-73.8,0-133.6-59.8-133.6-133.6s59.8-133.6,133.6-133.6s133.6,59.8,133.6,133.6S287,430.3,213.2,430.3z"/>
</g>
<g id="Layer_7">
	<path class="st0" d="M213.2,118.2c-98.6,0-178.5,79.9-178.5,178.5s79.9,178.5,178.5,178.5s178.5-79.9,178.5-178.5
		S311.8,118.2,213.2,118.2z M213.2,430.3c-73.8,0-133.6-59.8-133.6-133.6s59.8-133.6,133.6-133.6s133.6,59.8,133.6,133.6
		S287,430.3,213.2,430.3z"/>
</g>
<g id="Layer_6">
	<path class="st0" d="M213.2,140.7c-86.2,0-156,69.9-156,156s69.9,156,156,156s156-69.9,156-156S299.4,140.7,213.2,140.7z
		 M213.2,430.3c-73.8,0-133.6-59.8-133.6-133.6s59.8-133.6,133.6-133.6s133.6,59.8,133.6,133.6S287,430.3,213.2,430.3z"/>
</g>
<g id="_x34__00000052099924022012759790000000297318171725709457_">
	<g id="_x31__1370_">
		<g id="_x31__1377_">
			<g id="_x31__1380_">
				<polygon id="_x31__1381_" class="st7" points="122,555.2 97.4,555.2 95.1,534.5 124.4,534.5 				"/>
				<polygon id="_x32__1364_" class="st8" points="116.1,639.5 103.4,639.5 98.6,555.2 120.8,555.2 				"/>
				<rect id="_x33__596_" x="103.4" y="639.5" width="12.8" height="11.9"/>
			</g>
			<g id="_x32__1362_">
				<polygon id="_x31__1379_" class="st7" points="46.8,555.2 22.2,555.2 19.8,534.5 49.1,534.5 				"/>
				<polygon id="_x32__1363_" class="st8" points="40.9,639.5 28.1,639.5 23.4,555.2 45.6,555.2 				"/>
				<rect id="_x33__595_" x="28.1" y="639.5" width="12.8" height="11.9"/>
			</g>
			<g id="_x33__593_">
				<polygon id="_x31__1378_" class="st7" points="320.3,555.2 295.8,555.2 293.4,534.5 322.7,534.5 				"/>
				<polygon id="_x32__1361_" class="st8" points="314.4,639.5 301.7,639.5 297,555.2 319.2,555.2 				"/>
				<rect id="_x33__594_" x="301.7" y="639.5" width="12.8" height="11.9"/>
			</g>
			<rect id="_x34__230_" x="53.6" y="535" class="st7" width="235" height="8.2"/>
		</g>
		
			<rect id="_x32__1360_" x="261.6" y="322" transform="matrix(0.844 -0.5363 0.5363 0.844 -173.207 203.5788)" class="st9" width="3.6" height="155.2"/>
		<g id="_x33__591_">
			
				<rect id="_x31__1376_" x="-9.5" y="370.1" transform="matrix(0.8418 -0.5398 0.5398 0.8418 -178.9123 136.7818)" class="st10" width="306.8" height="7"/>
			
				<rect id="_x32__1359_" x="-16.2" y="368" transform="matrix(0.8418 -0.5398 0.5398 0.8418 -177.0487 134.7467)" class="st11" width="315.1" height="2.8"/>
			
				<rect id="_x33__592_" x="-3.6" y="362.5" transform="matrix(0.8418 -0.5398 0.5398 0.8418 -175.8968 132.0369)" class="st12" width="281.8" height="7.2"/>
			
				<rect id="_x34__229_" x="-10.4" y="376.3" transform="matrix(0.8418 -0.5398 0.5398 0.8418 -180.6574 138.9798)" class="st11" width="314.3" height="2.8"/>
			
				<rect id="_x35__112_" x="10.2" y="377.2" transform="matrix(0.8418 -0.5398 0.5398 0.8418 -181.6361 141.788)" class="st12" width="281.8" height="7.2"/>
		</g>
		<g id="_x34__225_">
			<g id="_x31__1374_">
				<rect id="_x31__1375_" x="30.3" y="462.6" class="st8" width="281.5" height="32.7"/>
				<rect id="_x32__1358_" x="30.3" y="495.3" width="281.5" height="4"/>
				<rect id="_x33__590_" x="30.3" y="499.3" class="st12" width="281.5" height="19.4"/>
				<rect id="_x34__228_" x="30.3" y="518.7" class="st10" width="281.5" height="8.2"/>
				<rect id="_x35__111_" x="30.3" y="526.9" class="st8" width="281.5" height="8.2"/>
			</g>
			<g id="_x32__1354_">
				<g id="_x31__1372_">
					<rect id="_x31__1373_" x="311.9" y="462.6" class="st13" width="14.5" height="32.7"/>
					<rect id="_x32__1357_" x="311.9" y="499.3" class="st8" width="14.5" height="19.4"/>
					<rect id="_x33__589_" x="311.9" y="495.3" class="st11" width="14.5" height="4"/>
					<rect id="_x34__227_" x="311.9" y="518.7" class="st13" width="14.5" height="8.2"/>
					<rect id="_x35__110_" x="311.9" y="526.9" class="st8" width="14.5" height="8.2"/>
				</g>
				<g id="_x32__1355_">
					<rect id="_x31__1371_" x="16.2" y="462.6" class="st13" width="14.5" height="32.7"/>
					<rect id="_x32__1356_" x="16.2" y="499.3" class="st8" width="14.5" height="19.4"/>
					<rect id="_x33__588_" x="16.2" y="495.3" class="st11" width="14.5" height="4"/>
					<rect id="_x34__226_" x="16.2" y="518.7" class="st13" width="14.5" height="8.2"/>
					<rect id="_x35__109_" x="16.2" y="526.9" class="st8" width="14.5" height="8.2"/>
				</g>
			</g>
		</g>
	</g>
	<g id="_x32__1349_">
		<g id="_x31__1367_">
			<g id="_x31__1368_">
				<path id="_x31__1369_" class="st14" d="M131.2,629l9.3,19.4l-17.6,27.4c0,0-6.2,0.8-6.2,0.5s-0.3-6.5,0.5-12.2
					c0.7-5.7,2.5-17.5,2.5-17.5s0.2-11.9,0.7-12.5C120.8,633.5,131.2,629,131.2,629z"/>
				<path id="_x32__1353_" class="st15" d="M121.5,660.1c0.2-0.5,1-11.3,5.3-14.1s8.7-1.9,10.2-0.9s3.4,3.3,3.4,3.3s0.9,5.8,0,9.1
					s-1.9,4.4-1.9,4.4h-1.9c0,0,2.4,8.6,3,12s-5.5,5-5.5,5l-16.9-0.6l-0.5-2c0,0,3.5-10.1,4.3-12.5
					C121.7,661.4,121.5,660.1,121.5,660.1z"/>
			</g>
			<path id="_x32__1352_" class="st16" d="M212.3,558.1c0,0,7.5,17.8,8.3,24.2s-12.2,12.2-12.2,12.2l-9,33l-58.6-33.2l-7.6,7.2
				c0,0,0,12.9,0,14.5s-1.4,4.1-1.4,4.1s3.8,4.2,4.1,6.2s0.3,12.9,0.3,13.3s-2.2-4.9-9.4-3.3c-4.3,1-7.2,10.3-7.2,10.3
				s-3.8-5.8-4.3-6.2s-1.4,1.4-1.6-1.9c-0.3-3.3,1.4-6.8,1.4-7.2s-4.6-9.8-5.3-12.1s-3.4-9.1-3.4-11.1s-0.8-7.3-0.8-7.3
				s-0.5-5.2,0-6.4s-0.2-4.6-0.2-4.6s6.5-14.5,10.6-18s18.6-15.6,19.7-15.6C136.6,556.1,212.3,558.1,212.3,558.1z"/>
		</g>
		<g id="_x32__1350_">
			<path id="_x31__1366_" class="st17" d="M177.6,404.4c-0.5-0.3-4.6-1.6-5.4-0.5s-1.9,4.3-1.9,6.5s-0.4,6.2,0,6.6s2,0,2,0l0.4,6.9
				c0,0-2.6,9.9-1.6,9.9s25.9,4.1,25.9,3.3c0-0.8,2.8-9.8,2.8-9.8s0.4,2,2,1.5s5-6,5-6.4s2-2.2,1.5-3.4c-0.5-1.2-5.6-2.6-6.1-2.7
				C201.8,416.2,177.6,404.4,177.6,404.4z"/>
			<path id="_x32__1351_" class="st18" d="M173.8,403c0,0-0.3-15.6,13.7-18.9s20.1,5.2,20.1,5.2s7.1,10,4.6,17.2
				s-6.2,14.4-11.8,18.7s-11.9,4.1-13.8,3.7c-1.9-0.4-8.4-1.5-10-3.4s-2.9-7.9-2.9-10C173.8,413.3,173.8,403,173.8,403z"/>
		</g>
		<path id="_x33__587_" class="st14" d="M158.1,438.7c0,0,8.3-7.3,12-8.4s26.1,1.4,30.3,4.2c4.2,2.8,6.9,7.5,6.9,7.5
			s16.7,3.1,20.8,10.6s4.3,17,4.3,17s2.7,2.4,4.1,7.2c1.4,4.7,0,7.9,0,7.9s1.4,5.8,0.1,10.7c-1.2,4.9-6.6,15.2-10.9,20.3
			c-4.2,5.2-11,10-11,10l0.3,25.4l4.3,16.8l-19.7,19.9H141c0,0-12.9-14.4-13-20.1c-0.1-5.7-0.1-7.3,0.7-8.7
			c0.8-1.4,7.7-14.1,7.7-14.1s-1.8-17.8-1.4-20.8c0.4-3-0.3-2.2-0.3-2.2s-14.7,1.6-17.2-0.4c-2.6-2-8.3-12.7-7.7-15.5
			c0.5-2.8,7.2-12.5,7.2-12.5s2.4-22.7,3.5-25.8c1.1-3.1,9.1-19.8,11.8-21.7C135,444.3,158.1,438.7,158.1,438.7z"/>
	</g>
	<g id="_x33__586_">
		<polygon class="st8" points="200.1,678.2 142.1,678.2 145.6,592.5 196.6,592.5 		"/>
		<path class="st13" d="M199.3,597.3h-56.5c-3.9,0-7.1-3.2-7.1-7.1l0,0c0-3.9,3.2-7.1,7.1-7.1h56.5c3.9,0,7.1,3.2,7.1,7.1l0,0
			C206.4,594.2,203.2,597.3,199.3,597.3z"/>
	</g>
</g>
<g id="XMLID_4_">
	<path id="XMLID_311_" class="st19" d="M404.1,542.8c-2,3-5.1,4.1-8.4,4.8c-3.5,0.7-7,1.2-10.5,1.5c-1.7,0.2-3.3-0.1-4.9-0.5
		c-4-1-7.6-2.9-10.9-5.3c-2.4-1.8-5-3.3-7.8-4.4c-2.1-0.8-4.1-1.8-5.9-3.1c-1.9-1.3-3.2-4.5-1.5-6.5c0.6-0.2,0.8,0.1,0.8,0.6
		c0,0.6,0.3,1,0.7,1.3c1.6,1.3,3.3,2.6,5.3,3.2c3.4,1,6.4,2.6,9.4,4.6c4.4,3.1,9.4,4.6,14.7,5c1,0.1,2-0.1,3-0.4
		c1.1-0.4,1.9-1.1,2.3-2.3c0.9-2.4,2.4-4.5,4.5-6.1c0.6-0.4,1.6-0.4,2-1.2c1.1,0.5,2.3,1,3.4,1.6c2.2,1.2,4.2,2.6,3.7,5.6
		c0,0.2,0,0.5,0.2,0.7C404.1,542.2,404.1,542.5,404.1,542.8z"/>
	<path id="XMLID_310_" class="st19" d="M276.7,546.8c0.6,2.2,0.9,4.5,0.7,6.8c-0.3,2.7-2.2,4.1-4.4,5.1c-0.7,0.3-1.4,0.5-2.1,0.8
		c-1,0-2,0-2.9,0c-1.4-0.4-2.9-0.7-4.3-1.2c-1.7-0.5-3.3-1.2-4.6-2.4c-1-0.9-1.5-2-1.6-3.2c-0.1-2.2-0.4-4.4,0.6-6.4
		c0.9,0.6,1.3,1.6,1.8,2.6c0.3,0.6,0.6,0.7,1.2,0.4c3.7-1.6,7.3-1.2,10.7,0.7c0.9,0.5,1.4,0.4,2-0.2c0.8-0.7,1.2-1.7,1.6-2.7
		C275.7,546.6,276,545.9,276.7,546.8z"/>
	<path id="XMLID_309_" class="st20" d="M332.9,493c-2.1-2.7-2.8-5.9-3.7-9c-1.2-4.2-2.3-8.4-4.2-12.4c-0.3-0.7-0.3-1.6-0.9-2.4
		c-0.8,1.6-1.8,3.1-1.8,4.9c0,0.2,0,0.5-0.2,0.6c-1.7,1.4-2.2,3.6-3.9,5c-1.5,1.2-2.7,2.9-3.5,4.7c-1.1,2.2-2.9,3.9-4.4,5.8
		c-3.3,3.9-6.8,7.6-10,11.7c-0.8,1-1.2,2.1-1.5,3.3c-0.6,0.7-1.3,1.4-2,2c-0.9,0.8-2,0.6-3.1,0.3c-3.7-1-7-2.8-10.2-4.8
		c-1.9-1.2-3.4-2.6-4.6-4.4c-0.9-1.4-1.2-2.8-0.2-4.3c0.5-0.7,0.6-1.6,0.6-2.4c0.7-2.2,2-4.1,3.4-5.8c1.7-2,3.2-4,4.4-6.4
		c1.2-2.2,2.5-4.3,3.9-6.4c1-1.5,0.6-3.1,0.9-4.7c0.1-0.4-0.4-0.7-0.8-0.8c-2.6-0.9-4-3-5-5.3c-0.3-0.6-0.6-0.8-1.1-0.4
		c-2.4,1.8-5.3,2.4-7.9,3.5c-3.8,1.6-7.7,2.5-11.9,1.1c-2.2-0.7-4.7-0.6-7-1.3c-9.8-2.8-16.9-8.4-19.2-19c-1.2-5.5-1.2-11-1.1-16.6
		c0-1.1-0.1-2.3,0.6-3.3c0.4-0.7,1.1-0.9,1.9-0.9c4.2,0.2,8.3-0.7,12.5-1.2c0.6-0.1,1.2-0.1,1.8,0.1c5.9,1.7,11.7,0.7,17.5-0.6
		c2.5-0.5,5-0.8,7.5-0.6c2,0.2,4.1-0.1,6.1-0.3c0.8-0.1,1.6-0.4,2.2-1c0.6-0.5,1.2-0.9,1.9-1.3c1.4-0.8,2.8-0.9,4.3-0.2
		c2.7,1.1,5.6,1.2,8.4,1.9c0.9,0.2,1.7,0.5,2.6,0.8c1,2,1.5,2.3,4.4,1.9c3.1-0.4,6.1-0.3,9.1,0.6c1.7,0.5,3.4,0.2,5.1,0.8
		c2.3,0.8,4.1,2.3,5.8,3.9c1.2,1.1,2.7,2.1,3.7,3.5c1.3,1.9,2.5,3.8,3.2,6c1.1,3.6,3.1,7,4.3,10.6c0.3,0.8,0.5,1.6,0.8,2.4
		c0.6,1.9,1.2,3.8,2.3,5.6c1.3,2.2,2.4,4.6,3.2,7.1c1.3,3.7,3.5,6.8,6,9.7c0.6,0.6,1.1,1.3,1.7,1.9c0.2,0.7-0.3,1.1-0.7,1.5
		c-3.7,3.4-7.3,6.8-10.9,10.3c-1.5,1.5-3.4,2.5-5.4,3.2C336.3,492.4,334.5,492.2,332.9,493z"/>
	<path id="XMLID_308_" class="st21" d="M305.2,422.9c-0.1,0.1-0.3,0.4-0.4,0.4c-2.9-1.6-6.2-1.3-9.2-2.3c-0.4-0.1-0.9-0.2-1.3-0.4
		c-2.4-1.3-4.3-0.3-6.1,1.3c-0.8,0.7-1.7,1.1-2.7,1.2c-1.9,0.2-3.9,0.3-5.8,0.2c-3-0.2-6,0.3-8.9,0.9c-3.8,0.8-7.5,1.6-11.4,1.1
		c-1.4-0.2-2.8-0.5-4.2-0.7c-1-0.2-2.1-0.1-3.1,0c-4,0.4-8,1.4-12,1c-0.7-0.1-1,0.7-1.6,0.6c-2-0.7-2.2-0.8-1.9-3.1
		c0.2-2.5,0.4-4.9,0.2-7.4c-0.3-4.8-0.4-9.5-1.1-14.2c-0.3-2.3-0.2-4.7-0.7-7.1c-1.8,1.9-3.6,3.8-4.8,6.1c-1,1.9-2.8,3.3-4.4,4.8
		c-0.5,0.5-1.2,0.7-1.9,0.6c-2.1-0.3-4.3-0.8-5.4-2.8c-1.5-2.7-3.4-5.1-4.2-8.2c-0.2-0.9-0.2-1.9-0.1-2.8c0.2-1.7-0.4-3.4,0.2-5.1
		c0.7-1.6,1.5-3.1,2-4.7c0.9-2.7,2.4-5.2,2.8-8c0.1-0.4,0.2-0.8,0.6-0.9c1-0.3,1-1.1,1.2-2c1.7-6.7,3.3-13.3,5.8-19.8
		c0.9-2.4,2.3-4.6,4.4-6.2c0.6,0.3,0.4,0.7,0.2,1.1c-0.3,0.7-0.6,1.4-1,2.1c-1.8,3.1-2.9,6.5-3.5,10.1c-0.8,5.2-2.7,9.9-4.5,14.8
		c-0.8,2.1-0.7,2,0.8,3.6c2.2,2.5,4.8,2,7.5,1.3c0.5-0.1,0.6-0.6,0.6-1.1c0.5-3.8,0.7-7.7,1.2-11.5c0.4-2.9,0.8-5.9,1.1-8.8
		c0.3-2.3,1.7-4.1,3.3-5.5c1.7-1.5,3.4-3.1,5.3-4.5c1.5-1.1,1.6-1.2,2.1,0.7c0.5-0.3,0.6-0.8,0.9-1.2c0.5-0.6,0.9-0.6,1.3,0.1
		c0.3,0.4,0.2,1.1,0.9,1.3c0.4-1.1,0.4-2.2,0.7-3.3c0.2-0.8,0.7-1,1.2-0.4c1.1,1.4,2.8,2.1,3.5,3.9c0.5,2.3,1,4.7,1.8,6.9
		c1.3,3.7,2.4,7.4,4.5,10.8c0.8,1.2,1.3,2.6,2.1,3.8c0.2,0.4,0.3,0.8,0.3,1.3s0.1,0.9,0.6,1.1s0.8-0.2,1.2-0.4
		c4-2.9,5.8-7.2,7.1-11.7c0.8-2.8,1.1-5.6,1.1-8.5c0-0.6,0.1-1,0.7-1.2c0.4,0.1,0.4,0.5,0.4,0.8c0.5,4.7,0.2,9.3-0.8,13.9
		c-0.5,2.5-0.9,5.1-2,7.5c-1.2,2.5-2.3,5-3.8,7.2c-0.4,0.6-0.8,1.1-1.4,1.6c-0.6,0.4-1,1.2-1.9,0.4c-1.5,0.6-1.7-0.7-2.2-1.5
		c-1.7-2.5-2.8-5.3-3.6-8.2c-0.6-1.9-1.6-3.7-1.9-5.8c-0.6-3.7-1.8-7.2-2.5-10.9c-0.4-2.2-0.5-4.4-0.8-6.1c0.4,4.4,1.4,9.3,2.5,14.1
		c0.9,4.1,2.4,7.9,3.7,11.8c0.8,2.5,2.2,4.7,3.7,6.8c0.4,0.6,0.4,1.4,1.2,1.7c0.1-0.1,0.2-0.1,0.3-0.2c0.2-0.4,0.1-0.9,0.6-1.3
		c2.5-2,3.7-4.8,5.1-7.5c2.2-4.2,2.9-8.7,3.6-13.3c0.2-1.6,0.5-3.2,0.5-4.8c0-2.3-0.2-4.5-0.5-6.8c0.2-0.5,0.4-1.1,0.5-1.6
		c0.4-1.7-0.2-2.9-1.4-4c-0.2-0.2-0.3-0.4-0.3-0.7c0.1-0.6-0.1-1.4,0.7-1.7c1.2,0.1,2.3,0.5,3,1.3c1.7,1.7,3.8,2,6,2.4
		c3.1,0.6,6.3,0.6,9.4,1.4c5,1.2,7.8,4.5,8.9,9.4c0.7,3.1,0.9,6.3,1.3,9.4c0.6,5.5,0.9,10.9,0.8,16.4c0,2.3,0.3,4.6,0.1,6.9
		c-0.1,0.5-0.2,1.2-1,0.7c-1.1-0.6-2.3-1.1-3.5-1.2c-0.3,0-0.5-0.3-0.6-0.5c-0.3-1.2,0.1-2.3,0.3-3.5c0.2-1,0.3-2.1,0.4-3.1
		c0-0.6-0.1-0.9-0.7-1.1c-1.4-0.5-2.8-1-4.3-1.2c-2-0.2-4-0.8-6-1c-0.5,0-1-0.1-1.4,0.2c-3.7,2.6-7.8,4.1-11.9,5.8
		c-1.5,0.6-1.6,0.7-1.6,2.3c0.1,5.5,0.6,11,0.2,16.5c-0.5,5.9-0.3,11.8-0.4,17.8c0,1.5,0,1.6,1.3,0.9c2.4-1.2,4.5-2.8,6.9-4
		c1.8-0.9,3.5-1.3,5.6-0.5c3,1.1,6,1.9,9.1,2.6c1.1,0.3,1.4,0.1,1.6-1c0.3-1.3,0.4-2.6,1.1-3.7c1.1-1.4,2.7-2.2,3.7-3.6
		c0.1-0.2,0.3-0.2,0.6-0.1c1.8,1.1,2.6,3,3.3,4.8C305.2,417.9,305.5,420.4,305.2,422.9z"/>
	<path id="XMLID_307_" class="st22" d="M272.2,336.3c0,1,0,2.1,0,3.1c-0.1,0.1-0.2,0.1-0.3,0.1c-0.9-0.5-0.5-1.4-0.8-2.2
		c0-0.1,0.1-0.4,0-0.4c-1.3,0.2-0.9-1-1.3-1.6c-0.2-0.4,0.1-1.5-1-0.6c-0.2,0.2-0.5-0.1-0.6-0.4c-0.2-0.4-0.3-0.9-0.5-1.4
		c-0.4-1.1-1.5-1.4-2.3-0.4c-0.4,0.4-0.9,0.8-0.8,1.6c0,0.5-0.3,1-0.8,0.6c-1-0.7-1.9,0.3-2.8-0.1c-0.3-0.1-0.4,0.5-0.4,0.8
		c-0.1,0.8-0.6,1.2-1.3,1c-0.7-0.2-1,0-1.1,0.6c-0.2,0.8-0.6,0.7-1.2,0.4c-0.4-0.2-0.9-0.7-1.4-0.4c-0.4,0.2-0.9-0.1-1,0.8
		c-0.1,1-1.4,1.2-2.2,0.3c-0.4-0.4-0.5-1-1.1-1.3c-0.3,0.4-0.1,0.7,0,1c0.2,1.5-0.7,2.3-2.1,1.7c-0.7-0.3-0.8,0.2-0.9,0.6
		c-0.3,1-0.9,1-1.6,0.6c-0.9-0.5-1.8-1-2.4-1.8c-1-1.3-2.3-2.2-3.8-2.7c-0.9-0.3-1.9-0.5-2.3-1.6c-1.8-3.5-2.3-7.3-2.6-11.1
		c-0.1-1.3-0.1-2.7,0.3-3.8c0.7-1.7,0.5-3.7,1.6-5.3c0.4-0.6,0.7-1.2,1.3-1.6c0.7-0.5,1.2-1.1,1.5-1.9c0.1-0.1,0.1-0.3,0.2-0.4
		c1.7-1.5,3-3.3,4.6-4.9c0.5-0.5,1.3-0.8,1.8-1.4c0.3-0.3,0.7-0.6,1.2-0.5c1.3,0.1,2.6-0.2,3.8-0.5c0.8-0.2,1.5-0.1,2.2-0.9
		c0.9-0.9,2.2-0.3,3.3,0c2.5,0.7,4.6,2,5.8,4.5c0.4,0.9,0.9,1.8,1.7,2.5c0.2,0.1,0.3,0.2,0.3,0c0.3-0.1,0.4,0.2,0.6,0.4
		c0.3,0.2,0.4,0.6,0.6,0.9c2,3.2,3.8,6.6,4.2,10.3c0.2,2.1,0.9,3.8,1.7,5.6c0.3,0.6,0.7,1.3,0.6,1.8s-0.1,0.9-0.1,1.3
		s-0.3,0.5-0.6,0.3c-0.6,0.4-0.2,0.8-0.1,1.2c0.4,1.4,1,2.8,1,4.3c0,0.2,0.2,0.5-0.3,0.5c-0.1,0-0.2-0.2-0.3-0.4
		c-0.2-0.2-0.4-0.3-0.3-0.5C272.2,335.2,272,335.8,272.2,336.3z"/>
	<path id="XMLID_306_" class="st23" d="M238.1,334.5c0.7,0.7,1.7,1.1,2.6,1.4c1.6,0.4,2.7,1.4,3.6,2.6c0.7,1,1.8,1.4,2.8,2
		c0.3,0.2,0.8,0.3,0.6-0.5c-0.1-0.5,0.7-0.7,0.7-1.3c0-0.2,0.5-0.2,0.7,0.1c0.2,0.3,0.4,1,0.8,0.6c0.5-0.4,1.5-0.7,1-1.8
		c-0.2-0.5-0.2-1-0.2-1.6c1-0.2,1,0.7,1.5,1.2c0.4,0.4,0.4,1.2,1.2,0.9c0.7-0.3,1.2-0.8,0.8-1.7c-0.1-0.1,0-0.3,0-0.6
		c0.5,0.3,0.7,1.3,1.5,0.4c0.1-0.1,1.4,0.4,1.9,1.1c0.3-0.2,0.2-0.4,0.2-0.6c0-0.8,0.5-1.2,1.2-0.9c0.8,0.3,1.2,0,1.1-0.8
		c-0.1-0.6,0.9-0.8,0.4-1.6c0.6,1,1.4,0.8,2,0.5c0.6-0.2,1-0.5,1.3,0.3c0,0.1,0.2,0.3,0.4,0.1c0.2-0.2,0.2-0.4,0.1-0.7
		c-0.3-0.6-0.1-0.9,0.5-1.1c0.7-0.2,0.2-0.7,0.4-1.1c0.4,0.1,1.7-0.1,1.9-0.4c0.4-0.5,0.3,0.2,0.3,0.2c0.5,1,0.7,2.1,1.1,3.1
		c0.4,0,0.3-0.3,0.3-0.4c-0.2-0.6,0.4-0.3,0.6-0.4c0.4-0.2,0.3,0.1,0.4,0.4c0.1,0.7,0.3,1.4,0.5,2.1c0.1,0.3,0.1,0.6,0.5,0.6
		s0.1-0.5,0.4-0.6c0.4,1,0,2.2,0.9,3c0.1,0.4,0.2,0.8,0,1.2c0,0.2,0,0.5,0,0.7c-0.4,0.5-0.4,1.2-0.6,1.7c0.1,0.7-0.1,1.4-0.2,2.2
		c-0.3,0.7-0.6,1.4-0.9,2.1c-0.9,2.6-2.7,4.5-4.7,6.2c-1.9,0.3-3.8,1.1-5.8,0c-0.2-0.1-0.4-0.1-0.6-0.1c-2.5-0.3-4.4-1.6-5.9-3.5
		c-0.4-0.6,0-1.4-0.7-1.8c-0.7-1.7-2.6-2.3-3.5-3.9c-0.1-0.2-0.3-0.3-0.5-0.2c-0.2,0.1-0.2,0.3-0.2,0.5c-0.1,1.2-0.3,2.3-0.4,3.5
		c0,0.2,0.1,0.5-0.2,0.6s-0.4-0.1-0.6-0.2c-0.4-0.3-0.6-0.7-0.7-1.2c0-0.3-0.1-0.7-0.5-0.8c-0.4-0.1-0.4,0.4-0.6,0.6
		c-0.2,0.5-0.4,1-0.8,1.3c-0.1,0.1-0.3,0.3-0.5,0.3c-0.3,0-0.2-0.3-0.2-0.5c-0.1-0.5,0.4-1.3-0.2-1.5c-0.5-0.2-0.9,0.6-1.3,1
		c-2.6,2.2-5.4,4.1-7.3,6.9c-0.8,1.1-1.1,2.3-1.2,3.6c-0.3,2.3-0.6,4.6-0.9,6.8c-0.3,2.4-0.7,4.8-0.8,7.2c-0.1,2.1-0.5,4.1-0.5,6.2
		c0,0.3-0.1,0.7-0.5,0.7c-1.8,0.2-3.6,0.7-5.4,0.5c-0.9-0.1-1.4-0.8-2-1.3c-0.7-0.5-1.2-1.2-1.9-1.7c-0.8-0.6-0.4-1.3-0.1-2
		c1.4-3.3,2.5-6.8,3.7-10.2c0.9-2.6,1.2-5.3,1.7-8c0.7-3.4,2.4-6.5,4-9.5c0.2-0.4,0.6-0.8,0.1-1.3c0.6-2.7,1.8-5.3,2.3-8
		c0-0.2,0.1-0.3,0.1-0.5c0.6-2.4,1-2.6,3.3-2.3C237.4,334.6,237.7,334.8,238.1,334.5z"/>
	<path id="XMLID_305_" class="st24" d="M396.8,534.1c0.2,0.9-0.3,0.9-1,1.1c-1.2,0.3-2.1,1.2-2.8,2.2c-1.1,1.5-2.1,3-2.7,4.8
		c-0.4,1.5-2.1,2.1-3.7,2.1c-4.1,0.2-8.1-0.7-11.9-2.3c-2.8-1.2-5.3-3-7.8-4.6c-2.1-1.3-4.3-2-6.6-2.8c-2.1-0.7-3.9-2-5.5-3.5
		c-0.3-0.3-0.9-0.6-0.3-1.3c0.3-0.3-0.3-0.4-0.5-0.5c0.2-2.8,0.6-5.7,0.5-8.5c0-0.6,0.4-0.5,0.7-0.5c0.8,1.6,1.7,3.2,2.9,4.6
		c0.2,0.2,0.3,0.4,0.5,0.6c1.2,1,2.4,2.1,4.1,1.4c1.2-0.5,2.4-3.3,2.2-4.7c-0.3-1.8,0.2-3.2,1.8-4.2c1.2-0.7,2.3-1.6,3.6-1.9
		c0.9-0.5,1.5-1.4,2.2-2c0.8-0.7,1.2-0.6,1.6,0.4c1.6,4.1,4.2,7.5,7.5,10.4c1.4,1.2,2.7,2.6,4.1,3.7c1.1,0.9,2.4,1.4,3.5,2.3
		C391.5,532.8,394.3,533,396.8,534.1z"/>
	<path id="XMLID_304_" class="st23" d="M370.4,516.2c-1.2,0.7-2.4,1.4-3.6,2.2c-1.4,0.9-1.9,2-1.6,3.7c0.3,1.4-1,4.4-2.2,5.1
		c-0.8,0.5-1.7,0.4-2.6,0c-1.2-0.5-2.1-1.3-2.9-2.4c-1-1.4-2.3-2.6-2.4-4.5c-0.8-3.1-2.7-5.6-4.8-7.9c-3.2-3.4-6.1-7.1-8.8-10.9
		c-0.3-0.4-0.7-0.8-1-1.2c-0.3-0.2-0.4-0.5-0.4-0.9c-0.2-1.3,1.3-4.2,2.6-4.7c1.3-0.5,2.5-1.4,3.8-1.6c2.2-0.4,3.8-1.7,5.5-2.9
		c0.5-0.4,1.2-0.9,1.8,0c1,3.3,2.5,6.4,4.2,9.4c0.7,1.4,1.8,2.6,3,3.7c3,2.8,5.8,5.8,7.9,9.4C369.5,513.9,370.4,514.9,370.4,516.2z"
		/>
	<path id="XMLID_303_" class="st25" d="M276.7,546.8c-0.5-0.3-0.8-0.4-1,0.3c-0.4,1.3-1,2.5-2.2,3.4c-0.6,0.4-0.9,0.4-1.5,0
		c-3.1-2.1-6.4-2.3-9.9-1.4c-0.1,0-0.2,0.1-0.4,0.1c-0.6,0.1-1,1.1-1.6,0.7c-0.5-0.3-0.7-1.1-0.9-1.7c-0.2-0.8-1.2-1.1-1.2-2
		c0.3-1.5,1.1-2.9,1.6-4.3c0.4-0.9,0.7-1.8,0.9-2.7c0.4-1.2,0.2-2.4,0-3.6c-0.2-2-0.2-4-0.4-5.9c-0.1-1.1-0.6-2.1-0.5-3.2
		c0.3-2.1,1.6-3.6,2.8-5.1c0.4-0.4,0.8-0.8,1.1-1.3c0.7-0.1,0.9,0.3,0.9,1c0,0.6-0.2,1.2-0.2,1.8c0,1.1,0.6,1.6,1.6,1.3
		c1.5-0.4,2.9-1,4.4-1.2c2-0.3,4.5,0.9,5.5,2.6c0.5,0.5,0.2,1,0,1.4c-0.7,1.6-1.6,3.1-1.9,4.8c-1,5-0.9,9.8,2.4,14.1
		C276.6,546.1,277.3,546.3,276.7,546.8z"/>
	<path id="XMLID_302_" class="st23" d="M300.9,410.7c-1.2,1.3-2.5,2.6-4,3.7c-1.4,0.3-2.8,0.7-4.2,0.4c-2.2-0.4-2.9-1.3-3.1-3.6
		c-0.2-2.2,0.1-4.4,1.5-6.3c0.3-0.4,0.6-0.9,0.8-1.3c1.4-2.1,1.5-1.6-0.4-3.7c-0.4-0.5-1-0.8-1.5-1.2c-0.5-0.3-0.7-0.7-0.6-1.3
		c0.1-0.6,0.5-1,1.1-1.2c0.4-0.1,1,0,1.5-0.5c-0.8-0.2-1.6-0.2-2.3-0.3c-0.7-0.2-1.2-0.5-1.2-1.3c-0.1-0.7,0.4-1.1,1-1.4
		c1.4-0.5,2.9-0.4,4.3-0.6c0.6-0.1,1.1-0.1,1.7-0.3c0.3-0.1,0.7-0.2,0.6-0.7c-0.1-0.3-0.4-0.3-0.7-0.3c-0.7-0.1-1.5,0-2.2-0.1
		s-1.5-0.4-1.5-1.3c0-0.8,0.4-1.4,1.2-1.6c1.3-0.4,2.6-0.4,3.8-0.2c1.5,0.3,2.9,0.6,4.2,1.5c0.6,0.4,0-1,0.7-0.6
		c0.7,0.9,1.7,1.6,1.1,3c-0.1,0.2,0.2,0.5,0.4,0.7c0.6,0.9,1.1,1.7,0.3,2.8c-0.2,0.3,0,0.5,0.1,0.8c0.2,0.7,0.5,1.3,0.5,2
		C303.7,402.2,303.5,406.8,300.9,410.7z"/>
	<path id="XMLID_301_" class="st23" d="M275.9,525.5c-0.5-0.4-0.9-0.8-1.5-1.2c-2.2-1.6-4.4-1.2-6.8-0.4c-0.5,0.2-1,0.4-1.6,0.6
		c-1.4,0.5-2.4-0.4-2.1-1.8c0.1-0.5,0-1.1,0.3-1.5c0.4-0.7-0.2-0.8-0.6-1c1.7-3,3.9-5.5,5.8-8.3c1.8-2.7,3.7-5.4,5.2-8.3
		c0.2-0.4,0.4-0.7,0.9-0.7c0.9,1,1.4,2.1,2.2,3.2c0.7,1.1,1.6,1.9,2.6,2.7c1.9,1.7,4,3,6.3,4.1c0.2,0.1,0.4,0.2,0.5,0.5
		c-2.4,1.8-5,3.5-6.9,5.8C278.6,521.1,276.8,523,275.9,525.5z"/>
	<path id="XMLID_300_" class="st26" d="M353.9,490.4c-0.5-0.4-1-0.2-1.4,0.1c-0.4,0.3-0.9,0.5-1.2,0.8c-2.1,2.2-5.2,2.2-7.7,3.5
		c-1.8,1-3.3,3.2-2.9,5.2c0,0.1,0,0.2,0,0.4c-0.5,0.4-0.9,0.5-1.3-0.2c-0.3-0.5-0.9-0.9-1.5-1.2c-2-1.1-3.2-2.9-4.5-4.6
		c-0.3-0.4-0.5-0.8-0.4-1.3c1-0.9,2.2-0.8,3.4-1.1c2.7-0.5,5.1-1.8,7-3.7c3.4-3.3,6.9-6.7,10.4-9.8c0.5-0.4,0.9-0.9,1.2-1.5
		c1.6,0.3,2.3,1.7,3.5,2.6c0.9,0.6,1.5,1.5,2.4,2.1c0.5,0.3,0.6,0.7,0.2,1.2c-0.7,1-1.6,1.9-2.5,2.8
		C356.7,487,355.1,488.5,353.9,490.4z"/>
	<path id="XMLID_299_" class="st26" d="M287.2,513.3c-3-1.1-5.5-3-7.8-5.1c-1.7-1.5-2.8-3.4-3.7-5.5c-0.4-1.2-0.8-2.4-1.2-3.7
		c-0.2-0.7-0.3-1.3,0.2-1.8c1.3-1.4,1.8-3.4,3.2-4.8c0.4-0.4,0.8-0.9,1.4-1c0.9,1,0.1,1.9-0.4,2.7c-0.7,1.3-0.8,2.5,0.1,3.7
		c1.3,1.9,2.8,3.4,4.8,4.6c3.2,2,6.4,3.7,10.1,4.8c1.8,0.5,2.6,0.4,3.6-1.2c0.4-0.6,1-0.5,1.4-0.8c0.5,1.1,0.2,2.2-0.3,3.2
		c-0.5,0.9-0.9,1.9-1.2,2.9c-0.4,1.3-1.1,2-2.4,2C292.4,513.5,289.8,514.3,287.2,513.3z"/>
	<path id="XMLID_298_" class="st19" d="M259.8,526.5c1,1.5,0.8,3.3,1,4.9c0.3,2.3,0.2,4.6,0.3,6.9c0,0.4,0.2,0.9-0.5,0.9
		c-0.5-2.5-0.3-5.1-1.4-7.5c-0.6-1.5-0.7-2.9-0.6-4.4C258.6,526.7,258.8,525.9,259.8,526.5z"/>
	<path id="XMLID_297_" class="st27" d="M265.4,309.6c-0.1-0.2-0.3-0.3-0.4-0.5c-0.1-0.1-0.2-0.3-0.2-0.4c-0.1-0.3-0.2-0.7,0.1-0.8
		c0.4-0.2,0.5,0.2,0.7,0.5c0.1,0.1,0.1,0.3,0.2,0.4C265.9,309.2,265.8,309.5,265.4,309.6z"/>
	<path id="XMLID_296_" class="st28" d="M265.4,309.6c0.1-0.3,0.2-0.5,0.3-0.8c0.5,0.4,0.5,1,0.4,1.5
		C265.9,310.1,265.7,309.9,265.4,309.6z"/>
	<path id="XMLID_295_" class="st29" d="M272.2,336.3c-0.3-0.6-0.2-1.2-0.1-1.9c0.1,0.3,0.2,0.6,0.3,0.9
		C272.2,335.6,272.4,336,272.2,336.3z"/>
	<path id="XMLID_294_" class="st30" d="M272,329.7c0.2-0.1,0.5,0,0.6-0.3c0.4,0.3,0.1,0.9,0,0.9C272.1,330.4,272.1,330,272,329.7z"
		/>
	<path id="XMLID_293_" class="st31" d="M272,340.6c0-0.4,0-0.8,0-1.2c0.1,0,0.1,0,0.2,0C272.1,339.8,272.5,340.3,272,340.6z"/>
	<path id="XMLID_292_" class="st32" d="M238.3,432c0.2,0.2,0.4,0.4,0.3,0.6h-0.2C238.4,432.4,238.4,432.2,238.3,432z"/>
	<path id="XMLID_291_" class="st33" d="M296.6,387.6c-0.7,0.4-1.4,0.2-2.2,0.2c-0.6,0-1.1,0.1-1.7,0.3c-0.7,0.2-1,0.7-1,1.4
		c0,0.8,0.7,0.9,1.2,1c0.8,0.1,1.6,0.1,2.4,0.1c0.5,0,1.1,0,1.2,0.6c0,0.5-0.4,1-1,1.1c-1.4,0.2-2.9,0.4-4.3,0.5
		c-0.7,0-1.3,0.2-1.9,0.4c-0.5,0.2-0.8,0.5-0.7,1.1c0.1,0.6,0.5,1,1.1,0.9c0.6,0,1.1,0.4,1.8,0.1c0.3-0.1,0.9,0,1,0.5
		c0.1,0.6-0.4,0.6-0.8,0.7s-0.7,0.1-1.1,0.1c-0.5,0-0.9,0.3-1,0.9s0,0.9,0.5,1.1c1.3,0.6,2.1,1.9,3.1,2.8c0.4,0.4,0.2,0.6-0.1,0.9
		c-0.8,1.3-1.7,2.6-2.5,3.9c-1.2,2.2-1.2,4.5-0.4,6.8c0.4,1,2.3,1.7,3.7,1.6c0.9-0.1,1.9-0.7,2.8-0.2c-0.7,1.4-0.9,2.9-1.2,4.4
		c-0.2,0.9-0.6,1.2-1.5,0.9c-3.8-1-7.5-2-11.2-3.3c-0.6-0.2-1.2-0.2-1.9,0.1c-2.3,0.9-4.4,2.1-6.5,3.5c-1,0.7-2.2,1.2-3.2,1.8
		c-0.3,0.2-0.6,0.3-0.9,0.1c-0.4-0.2,0-0.6,0-0.9c0-3.1,0-6.2,0-9.3c0-1.7-0.2-3.4,0-5c0.7-4.7,0.4-9.3,0.4-14
		c0-2.6-0.2-5.1-0.2-7.7c0-0.9,0.3-1.3,1.1-1.6c3.9-1.3,7.6-2.9,11-5.1c2.2-1.5,4.2-1.2,6.4-0.7c2.5,0.5,5,0.7,7.4,1.6
		c0.7,0.3,1,0.4,0.9,1.3C297.4,383,296.6,385.2,296.6,387.6z"/>
	<path id="XMLID_290_" class="st34" d="M263.2,383.4c-0.2,0.4-0.8,0.7-0.9,0.2c-0.3-1.7-1.5-2.9-2.3-4.3c-1.2-2.1-2.2-4.3-2.9-6.6
		c-0.7-2.4-1.8-4.6-2.4-7.1c-0.8-3.7-1.8-7.4-2.5-11.1c-0.5-2.4-0.4-4.9-1-7.4c0.6,0.6,0.7,1.2,0.8,2c0.4,3.5,0.9,6.9,1.7,10.3
		c1.2,5.2,2.7,10.2,4.5,15.2c0.8,2.3,2.1,4.2,3.3,6.3c0.3,0.5,0.5,0.2,0.7,0.1c0.6-0.2,1.3-0.6,1.2,0.7c2.7-2,3.8-4.9,5.3-7.7
		c2.2-4,2.8-8.5,3.5-12.9c0.3-2.1,0.6-4.3,0.5-6.4c-0.1-1.6-0.3-3.1-0.4-4.7c-0.1,0-0.1-0.1-0.2-0.1c-0.4-1.2-0.6-2.4-0.7-3.7
		c0-0.3,0-0.8,0.4-0.8c0.4-0.1,0.5,0.4,0.6,0.7c0.2,1.1,0.7,2.1,0.4,3.2c0.2,2,0.4,3.9,0.4,5.9c0.1,3.1-0.5,6.2-1,9.2
		c-0.5,2.7-0.9,5.4-2.1,7.9c-1.3,2.7-2.4,5.4-4.3,7.8c-0.3,0.4-0.7,0.7-1.1,1.1c-0.5,0.5-1.3,0.9-1,1.9
		C263.8,383.4,263.5,383.4,263.2,383.4c-0.2-0.3-0.1-0.7-0.1-1.1C263.2,382.7,263,383,263.2,383.4z"/>
	<path id="XMLID_289_" class="st34" d="M252.7,348c0.2-0.2,0.4-0.3,0.5,0c0.1,0.5,0.2,1.1,0.3,1.6c1.1,1.6,1.3,3.6,1.9,5.4
		c1.5,4.8,3.5,9.4,6.2,13.6c1,1.6,2.4,1.6,3.6,0.3c3.1-3.3,4.2-7.5,5.3-11.7c0.5-2,0.5-4.1,0.4-6.2c0.1-1.5,0-2.9-0.2-4.4
		c-0.1-0.5,0.1-1,0.3-1.4c0-0.8,0.1-1.5,0.4-2.2c0.1,0.2,0.2,0.3,0.3,0.5c0.1,0.5,0.2,1-0.1,1.6c-0.5,1.2,0.1,2.4,0.2,3.6
		c0,0.4,0,0.8,0.3,1.1l0.1,0.1c-0.8,1-0.4,2.3-0.5,3.4c-0.3,5-1.7,9.6-4.2,13.8c-0.9,1.6-2,3.1-3.7,4c-0.2,0.1-0.3,0.4-0.4,0.5
		c-0.3,0.5-0.7,0.5-1.3,0.4c-0.5-0.1-0.9-0.6-0.8-0.9c0.2-1.7-1-2.9-1.7-4.1c-2.7-4.6-4.4-9.6-6-14.7
		C253.3,351,253.1,349.5,252.7,348z"/>
	<path id="XMLID_288_" class="st35" d="M272.2,349.9c-0.1,0-0.3-0.1-0.3-0.1c-0.2-1.7-1.1-3.4-0.2-5.1c0.2-0.4-0.4-0.8,0.1-1.1
		c1.9,1.5,2.3,3.4,1,5.7c-0.3-1.2-0.5-2.5-0.9-4C271.6,347,272.4,348.4,272.2,349.9z"/>
	<path id="XMLID_287_" class="st36" d="M228.7,350c-0.3-0.8,0.4-1,0.7-1.5C229.3,349.1,229.1,349.5,228.7,350z"/>
	<path id="XMLID_286_" class="st37" d="M271.3,351.2c0.3,5.4-1.2,10.4-3.7,15.2c-0.7,1.3-1.7,2.4-2.8,3.5c-0.5,0.6-0.9,0.6-1.8,0.3
		c-1.6-0.6-2.1-2-2.8-3.3c-2.9-4.9-4.8-10.3-6.3-15.8c-0.1-0.5-0.5-0.8-0.5-1.4c1.2,1,2.2,2.3,3.7,2.8c2.8,1,5.6,1.7,8.5,0.8
		C267.6,352.7,269.5,352,271.3,351.2z"/>
	<path id="XMLID_285_" class="st35" d="M271.3,351.2c-1.6,1.4-3.5,1.9-5.6,2.1c1.4-1.6,3.1-3,4-5.1c0.4-1,0.5-2.1,1.3-2.9
		C271,347.2,271.5,349.2,271.3,351.2z"/>
	<path id="XMLID_284_" class="st38" d="M278.7,492.8c-0.1,0.9-0.6,1.1-1,1.5C277.8,493.7,278,493.2,278.7,492.8z"/>
	<path id="XMLID_283_" class="st39" d="M259.2,528.6c-0.2-0.4-0.2-0.6-0.1-0.9C259.4,527.9,259.3,528.2,259.2,528.6z"/>
	<path id="XMLID_282_" class="st40" d="M263.2,383.4c-0.4-0.4-0.3-0.8,0-1.3C263.2,382.5,263.2,383,263.2,383.4L263.2,383.4z"/>
	<path id="XMLID_281_" class="st41" d="M263,371c0,0.4-0.2,0.6-0.5,0.6c-0.4,0-0.4-0.3-0.5-0.6c0-0.3,0-0.6,0.4-0.6
		C262.8,370.5,262.9,370.8,263,371z"/>
</g>
<g id="XMLID_1217_">
	<path id="XMLID_962_" class="st42" d="M208.8,568.4c-0.8-1.8-2.4-2.9-3.7-4.4c-1.8-2.1-2.8-4.5-3.2-7.1c-0.2-1.2-0.4-2.4-1.1-3.5
		c-1.9-3.4-2.2-7-1.5-10.8c0.7-3.5,0.8-7.1,3.2-10c2.1-2.6,4.3-5.1,7.2-6.9c1.2-0.8,2.5-1.3,4-1.2c1.9,0.1,3.5-0.9,5.3-1.4
		c2.6-0.7,5.2-1.4,7.8-2.2c1.6,0,3.1,0,4.7,0c2.9,1.4,5.8,3,8.8,4.3c3.1,1.4,5.2,3.6,6.7,6.5c0.8,1.6,2.1,2.9,1.8,4.9
		c0,0.2-0.1,0.5-0.3,0.6c-0.3,0.3-0.4,0.8-1,0.7c-0.4-0.1-0.4-0.5-0.4-0.9c-0.4-2.2-1.4-3.3-3.6-3.6c-1.5-0.2-3-0.3-4.5,0.1
		c-1.6,0.4-3.1,0.6-4.6,0.1c-1-0.3-1.4,0.1-1.6,1.1c-0.2,0.8-0.1,1.7,0.2,2.5c1.3,3.2,0.6,5.9-1.9,8.3c-1.6,1.5-1.5,2.1,0,3.7
		c0.1,0.4,0.1,0.7,0,1.1c-0.3,0.7-0.3,1.5-0.3,2.3c0.1,1.5-0.6,2.1-2.2,2.1c-0.9,0-1.7-0.4-2.5-1c-2.3-1.7-5.1-1.7-7.6-2.6
		c-1.9-0.6-4.2,1.9-4.5,4.4c-0.2,2.1,0.2,4.1,0.7,6c0.5,2,0.4,3.9,0.3,5.9c-0.1,1.6-0.7,2-2.2,1.4c-1.1-0.4-2.1-0.6-3.1,0
		C209.3,568.7,209,568.6,208.8,568.4z"/>
	<path id="XMLID_960_" class="st43" d="M208.8,568.4c0.2,0,0.4,0,0.6,0.1c0.7,1.8,0.8,3.7,1.1,5.6c0.5,3.2,1.8,6,3.6,8.7
		c1,1.4,1.9,2.9,1.9,4.7c0,0-0.1,0.2,0,0.1c0.8-0.4,1.1-0.3,1.3,0.8c0.3,1.8,0.8,3.6,0.9,5.5c0.2,1.7,0.6,3.3,1.3,4.8
		c3.7,7.7,4.6,15.8,2.6,24.2c-1.1,4.6-1.1,9.2-0.7,13.9c0,0.4,0.1,0.8,0.3,1.2c0.1,0.3,0.1,0.7,0.6,1.1c0.6-3.2,1.8-6.2,1.4-9.5
		c-0.5-3.5,0.2-6.9,1.5-10.2c1.4-3.5,2.1-7.1,2-10.9c-0.1-4.1,0.1-8.1,0.6-12.2c0.1-1.2-0.2-2.3-0.4-3.4c-0.3-0.9-0.4-1.6,0.8-2.1
		c1-0.4,1.9-1.3,2.2-2.5c0.2-0.9,0.6-1.2,1.3-0.3c2.9,2.6,4.8,5.9,6.3,9.4c1.4,3.2,2.1,6.4,1.4,9.9c-0.2,0.9-0.2,1.8,0,2.7
		c0.7,3.1-0.1,6.1-0.7,9.1c-0.2,0.8,0.1,1.5,0.4,2.3c0.7,1.9,0.8,3.8,0.4,5.8c-0.3,1.6-0.6,3.3,0.8,4.7c0.4,0.4,0.5,1,0.5,1.7
		c0,2.1-0.1,4,1.3,5.9c1.1,1.3,1.5,3.2,2.2,4.8c1.1,2.4,2.1,4.7,3.5,6.9c-0.3,1.6-1.3,2.4-2.9,2.8c-3,0.6-5.7,2.3-8.8,2.6
		c-3,0.3-6,0.5-8.9-0.7c-1.3-0.5-2.5-0.6-3.9-0.1c-1.2,0.4-2.4,0.2-3.5-0.1c-1.5-0.4-2.8-0.3-4.2,0.4c-2.3,1.2-4.7,2.1-7.2,2.8
		c-0.5,0.1-1,0.4-1.6,0.4c-3.7-0.4-6.8,1.6-10.2,2.6c-1.4,0.4-2.6,1.2-3.7,2.2c-1,1-2.3,1.8-3.6,2.3c-2.5,0.9-4.1,2.7-4.9,5.2
		c-0.5,1.5-1.1,2.9-1.4,4.5c-0.4,1.9-1,3.5-2.5,4.8c-0.9,0.8-1.1,2-1.4,3.1c-1.5,4.8-1.6,9.8-2.2,14.7c-0.2,1.9-0.5,3.7-0.9,5.5
		c-0.6,2.6-2.3,3.9-4.9,3.3c-2.3-0.5-4.3-0.3-6.5,0.3c-3.5,1-9.4-1.7-11.6-5.1c-1.2-1.9-2.2-3.9-3.8-5.5c-0.7-0.7-0.6-1.7-0.8-2.5
		c-0.1-0.5,0-1-0.7-1.1c-1.1-1.4-2.1-2.9-2.7-4.6c-0.4-1.3-0.4-2.5,0.3-3.6c0.7-1,0.6-1.9,0.1-2.9c-0.4-0.7-0.8-1.5-1.3-2.1
		c-2.5-2.9-3-6.1-2.2-9.7c0.6-2.6,0.5-5.2,0.2-7.7c-0.4-3.2,0.1-6.2,0.6-9.2c0.4-2.6,0.7-5.2,0.9-7.8c0.3-5.3,2.2-10,4.2-14.8
		c2-5,5.5-9.1,8.2-13.6c3.3-5.4,6-11.1,9.9-16.2c2.3-3,5.3-5.3,8.2-7.7c3.1-2.6,6.2-5.3,9.8-7.2c0.2-0.1,0.4-0.3,0.6-0.4
		c4.6-1.2,7.5-4.9,10.9-7.9c2.8-2.6,6-4.5,9.2-6.5C206.1,570.4,207.6,569.6,208.8,568.4z"/>
	<path id="XMLID_959_" class="st44" d="M147.9,693.1c0.1-0.2,0.1-0.5,0.3-0.6c0.5-0.3,0.5,0.2,0.5,0.4c-0.1,3,2.5,4.5,3.6,6.9
		c2.2,4.7,6.1,6.6,10.9,7.3c0.9,0.1,1.8-0.2,2.6-0.5c1.5-0.6,2.9-0.7,4.5-0.2c0.8,0.2,1.7,0.5,2.8,0.2c1.6-0.4,2.3-1.2,2.6-2.8
		c1-4.4,1.2-8.8,1.7-13.3c0.3-3.1,1-6.1,2-9c0.1-0.2,0.1-0.5,0.3-0.6c3.3-2.4,3.1-6.5,4.5-9.8c1.1-2.7,2.7-4.7,5.5-5.6
		c0.9-0.3,1.8-0.7,2.5-1.3c4.1-3.6,9-5.1,14.4-5.6c2.9-0.3,5.8-1.3,8.4-2.9c1.9-1.2,3.8-1.3,5.8-0.6c0.8,0.3,1.6,0.3,2.4,0
		c1.3-0.5,2.7-0.6,4-0.1c5,1.9,9.8,1.2,14.5-0.7c1.1-0.5,2.3-0.7,3.5-1.2c0.8-0.3,2.4,0.1,1.8-1.8c-0.1-0.3,0.5-0.3,0.9-0.4
		c1.5,0.8,2.9,1.7,4.4,2.5c1.5,0.9,2.7,2.1,3.6,3.6c2,2.6,2.5,5.6,2.3,8.8c-0.2,3.1,1.7,4.8,4.8,4.2c1.6-0.3,3.1,0.1,4.6,0.3
		c0.6,0.1,0.9,0.5,0.9,1.2c-0.2,0.7-0.8,1.3-0.5,2.2c0.2,0.6-0.2,1-0.5,1.4c-1.7,1.9-2.6,4.1-3.3,6.5c-0.4,1.2-1,2.3-1.7,3.3
		c-0.8,1.1-1.6,2.3-2.1,3.6c-1.8,2.2-2.3,5-3.5,7.5c-1.3,2.6-2.8,4.9-5.3,6.3c-0.5,0.3-0.4,0.6-0.5,1c-0.5,2.2-0.9,4.5-1.5,6.7
		c-0.2,0.8-0.6,1.3-1.5,1.3c-4,0-8.1-0.2-12,1c-1.5,0.5-3.3,0.3-4.8-0.6c-0.4-0.3-0.9-0.1-1.4,0.1c-1,0.4-1.3,1.4-2,2.1
		c-2,1.9-4.5,3-7,3.9c-0.6,0.2-1.2,0.4-1.8,0.3c-1.4-0.3-2.6,0.1-3.8,0.6c-1.4,0.6-2.8,0.6-4.1-0.2c-3.8-0.1-7.4-1.1-10.9-2.5
		c-1.1-0.4-2.1-0.8-3-1.6c-0.5-0.4-0.9-1-0.7-1.7c0-0.8,0-1.5,0-2.2c-4.5,1.2-8.4,3.9-13,4.8c-2.3,0.5-4.4,2-6.8,2.5
		c-3.9,0.8-7.6,0.3-10.7-2c-3.8-2.9-7.6-6-10.9-9.5C151.6,702.5,148.8,698.4,147.9,693.1z"/>
	<path id="XMLID_958_" class="st45" d="M389.5,737.3c0.3,1.7,0.8,3.3,2.2,4.5c1.1,1,1.6,2.1,1.5,3.6c-0.1,2-0.1,3.9-0.1,5.9
		c-0.3,2-0.4,4-0.3,6c0,1.2-0.2,2.1-1.6,2.4c-1.7,0.3-3-0.1-3.6-1.3c-0.6-1.1-0.7-2.3-0.9-3.4c-1.1-2-1.2-4.3-2.1-6.4
		c-0.2-0.6-0.2-1.4-0.7-1.9c-0.9-1.8-1.7-3.8-3-5.4c-1.4-2.1-2.5-4.4-2.9-7c-0.9-3.3-1.7-6.7-3.2-9.9c-0.7-1.5-0.8-3.1-1.3-4.6
		c-1.5-4.9-3.2-9.7-6.2-13.9c-0.4-0.6-0.7-1.2-0.9-1.9c-0.7-2.7-2.4-4.9-4.5-6.8c-2.1-1.8-4.6-1.1-7.7,0.8c-1.8,1.1-3,2.9-4.2,4.6
		c-1,1.5-2.4,2.3-4.1,2.5c-2,0.3-3.6,1.5-5.3,2.5c-7.1,4.1-14.8,6.3-22.7,7.9c-1.1,0.2-2.3,0.3-3.3-0.3c-0.1-0.6-0.5-0.7-1.1-0.9
		c-2.6-0.7-4.7-2.2-6.9-3.6c-0.4-0.2-0.6-0.6-0.6-1.1c2.1-8.4,3.1-17.2,6.7-25.2c2.7-5.9,5.8-11.7,11.4-15.7c1.1-0.8,1.9-1.8,3-2.6
		c0.5-0.3,0.9-0.9,1.6-0.7c2.7-0.8,5.6-0.8,8.4-1c3.6-0.2,7.2-0.6,10.9-0.2c3.8,0.4,7.6-0.5,11.3-1.7c0.7-0.8,1.6-0.8,2.5-0.5
		c2.9,0.7,5.6,1.9,7.8,3.9c2.9,2.6,6.1,3.1,9.6,1.6c2.3-1,4.6-1.4,7-0.7c1.3,0.4,2.4,1.2,2.9,2.5c0.9,2.2,1.5,4.4,1.7,6.8
		c0.2,3.1,0.8,6,2.5,8.7c2.8,4.5,4.1,9.5,4.3,14.8c0.1,3.2-0.6,6.1-2.4,8.7c-1,1.4-1.5,3.2-3.1,4.2c-0.4,0.3-1,0.4-1,1
		c-0.1,1.2-0.3,2.5-0.7,3.6c-0.7,2.1-1.2,4.2-1.9,6.3c-0.3,1-0.2,1.9,0.2,2.7c0-1.6,0.3-3.3,1.3-4.7c1,0.1,0.9,0.9,0.9,1.6
		c-0.5,1.7-0.7,3.4-0.6,5.1c-0.1,2.2-0.3,4.4-0.8,6.5C389.3,735.7,389.1,736.5,389.5,737.3z"/>
	<path id="XMLID_957_" class="st46" d="M231.7,587.8c-0.3-0.1-0.8-0.7-0.9,0.1c-0.2,1.9-1.3,2.8-3,3.3c-0.8,0.2,0,0.7-0.1,1
		c-0.8,1.7-2.5,2.7-3.3,4.5c-0.1,0.2-0.3,0.3-0.4,0.3c-1.3,0.4-5.5-1.8-6.1-3.1c0-0.1,0-0.2,0.1-0.3c-0.5-1.8-1-3.5-1.1-5.4
		c0-0.3-0.1-0.7-0.4-0.7c-0.5,0-0.1,0.6-0.6,0.8c-0.3-2.4-1.5-4.4-2.9-6.3c-2.8-4-3.5-8.7-3.7-13.5c1-1.4,2.3-0.9,3.3-0.3
		c1.5,0.9,1.7,0.3,1.7-1c0.2-2.9-0.4-5.7-1-8.5c-0.8-3.6,0.3-6.3,3-7.9c1-0.6,1.9-0.7,2.9-0.2c2.6,1.3,5.7,1.1,8,3.2
		c0.6,0.6,1.8,0.5,2.5,0s0.4-1.3,0.1-2c-0.3-0.8,0.1-1.2,0.6-1.7c0.9-0.7,2-0.6,2.9-0.4c2.2,0.3,4.4,0.3,6.6,0.3
		c2.4,0,2.5,0.2,2.9,2.4c0.1,0.8,0.2,1.7,0.3,2.5c0.2,1.1,0.5,2.2,1.8,2.5s2.4-0.3,3.2-1.3c0.7-0.8,0.9-1.8,1.2-2.8
		c0.3-0.8,0.4-1.8,1.4-1.9c1.1-0.1,1.2,1,1.6,1.7c0.2,0.4,0.3,0.9,0.6,1.3c0.5,1.1,1.1,2.1,1.6,3.2c0.7,1.4,0.5,2.8-0.8,3.9
		c-1.1,1-1.8,2-1.1,3.6c0.2,0.5,0.2,1.1-0.2,1.5c-0.6,0.7-0.7,1.4-0.5,2.3c0.1,0.4,0.1,1-0.1,1.2c-1.7,1.2-1.5,3.1-1.9,4.8
		c-0.8,3.3-3.1,4.5-6.8,3.6c-0.5-0.1-1-0.3-1.5-0.4c-2.5-0.6-2.9-0.4-4.2,1.7C236,582.6,233.8,585.2,231.7,587.8z"/>
	<path id="XMLID_956_" class="st47" d="M280.1,639c3.1-1.9,6.2-3.8,10-3.7c1.2,0,1.7-1.1,2.3-1.8c1.2-1.5,2.3-3,3.7-4.4
		c0.8-0.8,1.4-0.9,1.6,0.5c0.2,1.1,0.4,2.2,0.8,3.3c0.3,0.8,0.6,1.9,1.7,1.8c1.1-0.1,2.3-0.1,3-1.4c1.1-1.8,2-3.8,3.5-5.4
		c0.6-0.6,1.2-1.4,2.1-1.1c0.9,0.2,1,1.2,1.2,2c0.6,3.4,1.2,6.8-0.6,10.1c-0.2,0.4-0.2,1.1-0.1,1.6c1.7,6.3,4.4,12.1,9.3,16.5
		c1.8,1.6,3.7,3.1,5.1,5.1c0.2,0.3,0.3,0.6,0.5,1c0.4,1.2,0.1,2-1.2,2.5c-3.8,1.4-6.4,4.4-8.9,7.3c-1.6,1.8-3.4,3.3-4.1,5.8
		c-0.3,1.1-1.3,1-2-0.1c-1.1-1.6-1.9-3.5-2.9-5.1c-0.2-0.4-0.4-0.7-0.6-1.1c-1.7-2.8-1.7-2.8,0.5-5.1c1.9-1.9,4-3.8,5.7-6.3
		c-3.8,2-7.8,2.9-11.7,4.1c-2.7,0.8-4.9,2.4-6.6,4.7c-0.6,0.8-1.2,1.5-2.1,2c-2.8-0.6-5.6-1.2-7.9-3.1c-0.3-0.2-0.4-0.6-0.6-0.9
		c-1.2-1.1-1.8-2.3-1.1-3.8c0.7-1.5,2.1-1.4,3.4-1.3c1.2,0.1,1.3-0.6,0.9-1.5c-0.8-1.8-1.4-3.6-3.5-4.3c-0.2-0.1-0.3-0.3-0.4-0.6
		c0.2-1.4,1.3-2.3,2.1-3.4c1.8-2.4,1.7-2.8,0-5.2c-0.8-1.1-1.9-2-2.9-2.9C278,643,278,640.6,280.1,639z"/>
	<path id="XMLID_955_" class="st48" d="M391.7,712.5c3.5-4.2,5.8-8.7,5.1-14.6c-0.6-5.3-2.4-10-5.1-14.5c-1.2-2-1.4-4.4-1.5-6.7
		c-0.1-2.5-1-4.9-1.8-7.2c-0.7-2.1-4.5-2.8-6.6-2.2c-1,0.3-1.9,0.6-2.9,1c-3.6,1.6-6.8,1-9.7-1.7c-2.3-2.2-5.2-3.3-8.2-4.1
		c-0.6-0.2-1.3,0.2-1.9,0.2c-0.1-0.6,0.3-0.9,0.8-1.3c3-2.1,5.9-4.2,8.9-6.3c4.8-3.4,10-5.3,15.8-3.8c2.7,0.7,4.9,2.6,6.7,4.6
		c3.3,3.7,4.6,8.3,4.6,13.2c0.1,7.2,0.7,14.4,3.6,21.2c2,4.6,1.7,9.3,1.2,14.2c-0.4,3.8-2.5,6.4-4.4,9.3c-0.6,1-1.3,2-1.6,3.2
		c-1,1.7-1.8,3.5-3,5c-0.3,0.5-0.5,1.1-1.3,1.1c-0.2-0.5,0.3-1.4-0.8-1.4c-0.7-0.8-0.4-1.7-0.2-2.5c0.1-0.7,0.5-1.4,0.2-2.2
		c0.4-1.2,0.9-2.4,0.7-3.8C390.9,712.9,391.4,712.8,391.7,712.5z"/>
	<path id="XMLID_954_" class="st49" d="M290.1,671.4c0.4-0.4,0.9-0.6,1.2-1.1c2.6-4.1,6.7-5.6,11.2-6.7c3.1-0.7,6.1-2,9.2-3.1
		c-1,1.2-1.9,2.4-3,3.5c-1.6,1.7-3.3,3.4-5.1,5c-0.5,0.4-0.7,0.7-0.3,1.1c2,2.5,3.2,5.5,4.9,8.1c0.2,0.3,0.3,1.1,1,0.8
		c0.4-0.2,0.5-0.6,0.6-1.1c0.1-0.8,0.6-1.7,1.2-2.3c2.9-3,5.4-6.4,8.8-8.9c1.1-0.7,2.3-1.2,3.5-1.8c0.5-0.3,1.6-0.4,0.3-1.3
		c-0.6-0.4,0.3-0.5,0.6-0.5c0.6,0.7,1.4,0.2,2.2,0.5c1,0.4,1.9,0.8,2.3,1.9c-3.4,3.2-7.3,5.8-10.1,9.7c-5.3,7.4-8,15.7-9.7,24.5
		c-0.6,3.4-1.7,6.8-2.5,10.2c-1.1,0.4-1.7-0.4-2.4-1.1c-0.5-0.4-0.8-1-1.5-1.2c-0.9-0.6-0.8-1.6-0.9-2.6c-0.3-5,0.7-9.8,1.8-14.6
		c0.4-2,0.8-4,2-5.7c0.5-0.8,0.4-1.6-0.1-2.4c-1.3-2.5-2.8-4.9-3.7-7.6c-0.4-1-0.9-0.8-1.4-0.1c-1.5,1.8-3.2,3.4-4.7,5.2
		c-2.2,2.5-4.6,4.9-7,7.3c-0.7,0.7-1.2,1.5-1.5,2.4c-0.2,0.6-0.4,1.3-1.2,1.3c-0.7-0.3-0.9-1.1-0.8-1.6c0.5-2.1-0.5-4-0.3-6
		c-0.2-0.2-0.2-0.5,0-0.6c1.2-0.6,1.1-1.7,1.2-2.7c0.2-2.1,1.4-3.8,2.8-5.3C289.4,673.7,289.3,672.4,290.1,671.4z"/>
	<path id="XMLID_953_" class="st46" d="M290.1,671.4c-0.1,1.5-0.4,2.9-1.6,4c-1.3,1.2-1.9,2.9-2.4,4.6c-1.2,1.7-3.1,2.1-5,2.5
		c-1,0.2-1.7,0-1.7-1.2c0-0.4,0-0.7-0.2-1.1c-1.7-3.3-1.4-6.3,0.7-9.3c0.4-0.6-0.5-3.4-1.1-3.8c-1.2-0.7-2.9-0.3-3.6,1
		c-0.7,1.4-1.9,2.2-3.3,2.5c-1.3,0.3-2.3,1.2-3.7,1.1c-0.1-0.4,0-1-0.5-1c-1.7,0.1-3.4-0.9-5.1-0.1c-1.4,0.6-2.7,0.1-3.4-1.1
		c-0.6-1-1.9-1.4-1.5-3.2c0.5-2.3,0.6-4.8-0.9-7c-0.4-0.7-0.5-1.6-0.7-2.4c2.2-0.2,3.8,0.9,5.5,2.1c3.7,2.7,7.7,2.4,11.8,1.6
		c1.4-0.3,2.4-1.2,2.8-2.6c0.2-1.7,1.6-2.2,2.9-2.7c0.8-0.3,1.8-0.3,2.2,0.8c2.3,0.9,3.4,2.8,4.2,4.9c0.2,0.6,0.7,1.2,0.1,1.8
		c-0.5,0.5-1,0.5-1.6,0.3c-1.1-0.3-2.3-0.3-2.9,0.8c-0.5,1-0.1,2,0.7,3.2c1.3,1.9,3,2.7,5,3C287.9,670.4,288.7,671.8,290.1,671.4z"
		/>
	<path id="XMLID_952_" class="st46" d="M230.7,548.9c-1.5-0.4-1.9-1.4-1.1-2.7c0.4-0.6,0.8-1.2,1.4-1.6c2.2-1.9,2.6-4.2,1.7-6.9
		c-0.3-0.7-0.6-1.4-0.5-2.3c0.1-0.8,0.1-1.7,0.5-2.4c0.7-1.2,1.4,0.1,2.1,0.2c1.3,0.2,2.5,0.1,3.8-0.1c2.8-0.5,5.7-1,8,1.5
		c0.7,0.8,1.4,1.6,0.6,2.8c0.6,0.4,0.8-0.3,1.2-0.2c1.3,2.6,2.2,5.5,3.2,8.2c0.9,1.2,0.2,1.7-0.9,2.1c-0.9,0.3-1.7-0.2-2.5-0.6
		c-1.8-1-2.8-1-4.1,0.6c-1.1,1.4-2.4,1.8-4.1,1.7c-2-0.1-3.9,0-5.9,0.3C233,549.5,231.7,549.8,230.7,548.9z"/>
	<path id="XMLID_951_" class="st48" d="M281.1,656.2c-2.2-0.9-3.2-0.5-5.1,1.9c-1.5,0.1-2.8-0.2-4.1-1c-0.2-0.2-0.5-0.3-0.8-0.4
		c-3-0.7-4.4-2.3-4.5-5.3c0.6-1.8,1-3.6,2.2-5.1c0.8-1,2.1-1,3.2-1.4c1.3-0.4,2.1-1.2,2.8-2.3c1.2-2,2.9-3.2,5.2-3.5
		c-2.1,2.6-1,4.6,1.2,6.2c1.5,1.1,2.5,2.7,3.6,4.2c0.6,0.7,0.1,1.5-0.3,2.2C283.6,653.2,282.3,654.7,281.1,656.2z"/>
	<path id="XMLID_950_" class="st50" d="M230.7,548.9c3.7,0.2,7.3-0.6,11-0.3c0.8,0.1,1.1-0.5,1.5-1c1.7-2.3,3.1-2.6,5.5-0.9
		c0.8,0.5,1.6,0.6,2.5,0.2c0.9-0.4,0.3-1,0.4-1.5c1.6-0.1,2.4,1,2.8,2.3c0.8,2.4,0.6,4.7-1.1,6.8c-1.2-0.1-0.7-1.4-1.3-1.9
		c-0.3-0.2-0.2-0.9-0.8-0.9s-0.7,0.6-0.8,1c-0.2,0.7-0.4,1.4-0.6,2c-0.4,1.1-0.9,2-2,2.7c-2.5,1.4-4.6,0.4-4.8-2.5
		c-0.4-4.4-0.4-4.4-4.8-4.4c-2.5,0-5-0.6-7.5-0.4C230.7,549.7,230.7,549.3,230.7,548.9z"/>
	<path id="XMLID_949_" class="st51" d="M389.5,737.3c-1-1.9,0-3.9,0.1-5.8c0-1,0.2-2.1,0.3-3.2c1.2-1.7,2.2-3.5,4.3-4.3
		c0.5,0.3,0.3,0.8,0.4,1.2c0.2,0.7,0.5,1.3,1.4,0.9c0,0.6-0.4,1-0.8,1.3c-2.5,2.2-3.6,5.3-5.4,7.9
		C389.3,735.9,389.5,736.6,389.5,737.3z"/>
	<path id="XMLID_823_" class="st52" d="M394.2,724c-1.4,1.4-2.8,2.9-4.3,4.3c-0.2-1.7-0.2-3.5,0.7-5c1.4-2,2.8-4.1,4.3-6.1
		c0,1.3-1,2.2-1.5,3.3c-0.5,1.2-0.9,2.3-1.1,3.5C393,724.7,393.5,722,394.2,724z"/>
	<path id="XMLID_822_" class="st53" d="M268.8,646.2c-0.4,0.7-1,1.3-0.4,2.3c0.2,0.3,0,0.9-0.4,1c-0.8,0.3-0.9,1.2-1.3,1.8
		c-1.1-0.8-1.2-1.8-0.7-3S267.3,646.2,268.8,646.2z"/>
	<path id="XMLID_821_" class="st54" d="M211.2,718.2c1.6,1.1,3.2,0.4,4.7-0.3c0.5-0.2,0.9-0.6,1.5-0.5c4.6,0.6,7.8-2.2,11-4.8
		c0.4-0.3,0.2-0.6,0.2-1c-0.1-0.3,0.1-0.6,0.4-0.6c0.5,0,0.5,0.4,0.6,0.7c0.3,0.3,0.3,0.8,0.3,1.2c0.2,2.7,0.2,2.7,2.9,2.7
		c2.4,0,4.8,0,7.2,0c2.2,0.1,3.9,1.1,5.3,2.8c2.1,2.5,0.2,5.7-2,7.4c-2.4,1.8-5.3,2-8.1,2.4c-2.3,0.4-4.4,1.1-6.6,1.7
		c-6.8,2-13.3,5-20.6,4.8c-2.3-0.1-2.8,0.6-1.4,2.4c2.1,2.7,3.6,6.3,7,7.6c2.9,1.1,4.4,3.3,6,5.7c0.1,1.8-0.3,2.2-2.2,1.9
		c-3.9-0.7-7.9-1.3-11.8-2.1c-0.9-0.2-1.8-0.6-2.7-0.9c-2.5-0.7-4.9-1.5-7.5-1.7c-1.1-0.1-2.3-0.3-3.3-0.7
		c-4.3-1.8-8.7-2.4-13.3-2.8c-1.6-0.1-3-0.9-4.3-1.7c-2.4-1.4-2.6-2.3-1.3-4.5c2.2-3.1,5.1-5.6,8.2-7.8c1.1-0.8,2.1-1.4,3.4-0.9
		c2.3,0.9,4.3,0.2,6.5-0.4c3.5-1,7.1-0.7,10.6-0.2c2.8,0.4,3.6-0.1,4.6-2.8c0.9-2.6,2.7-4.6,3.7-7.1
		C210.5,718.4,210.8,718.2,211.2,718.2z"/>
	<path id="XMLID_820_" class="st55" d="M285.8,691c0.1-0.1,0.2-0.1,0.3-0.2c1.5-4.7,5.8-7.1,8.7-10.7c1.7-2.1,3.7-4,5.5-6.2
		c0.7-0.9,1.2-1.1,1.5,0.2c0.9,3.1,2.6,5.9,4.1,8.7c0.3,0.6,0.6,1.1,0.1,1.8c-2.3,3.3-2.4,7.2-3.3,10.8c-0.8,3.3-0.8,6.7-0.8,10.1
		c0,0.8,0.2,1.5,0.8,2.1c0,0.1-0.1,0.2-0.1,0.2c-0.8,0.7-1.9,0.9-2.9,1.1c-0.7,0.1-0.8,0.7-0.9,1.2c-0.3,1.6-1,3.2-2.1,4.3
		c-2.6,2.5-2.8,5.7-2.9,9c0,2.6-0.4,5.3-0.4,7.9c-0.1,3.3-2,5.6-4.4,7.5c-0.6,0.4-0.9,0.2-1-0.4c-0.2-0.6,0.2-1.3,0-1.9
		c1-5.4-0.1-10.8-0.9-16.1c-0.3-2,0.1-3.9,0.3-5.9c0.1-1.3,0.1-2.5-0.2-3.7c-0.8-3.7-1.1-7.4-1-11.2
		C286.3,696.8,285.8,693.9,285.8,691z"/>
	<path id="XMLID_819_" class="st48" d="M288,736.5c1.2,0.6-0.3,1.7,0.4,2.4c1.9-1.8,4.2-3.5,4.5-6.5c0.2-2,0.5-3.9,0.4-5.9
		c-0.1-2.6,0.4-5.1,0.4-7.7c0-1.1,0.6-2,1.3-2.7c1.8-2,3.2-4.3,3.8-7c0.1-0.7,0.3-1.6,1.1-0.4c0.3,0.5,0.1,0.9-0.1,1.4
		c-1.2,4.5-1.8,9.1-2,13.8c-0.3,6-1,11.9-2.6,17.7c-0.2,0.6-0.3,1.2-0.3,1.8c-0.1,0.6-0.3,1.3,0.4,1.6c0.7,0.2,1.1-0.4,1.4-0.9
		c3.2-4.8,5.1-10,5.6-15.7c0.5-6.4,0.3-12.8,0.3-19.2c0-0.5-0.1-1,0.2-1.4v-0.2c1.5,0.4,2,2.2,3.6,2.3c2.5,1.7,5,3.7,8.1,4.1
		c1.7,0.2,0.9,0.6,0.3,1.2c-1.3,0.1-1.2,1.3-1.5,2.1c-2.3,5.6-2.8,11.6-3.9,17.5c-1,5.2-4.1,9.2-7.2,13.2c-1.8,2.3-4.6,2.9-7.5,2.8
		c-1.4-0.1-2.4,0.2-2.9,1.6c-0.6,1.7-2.5,1.7-3.8,2.3c-2.3,1.1-4.5,2.1-7.1,1.8c-2.3-0.2-3.4-1.1-3.4-2.8c0-1,0.6-1.5,1.1-2.1
		c0.3-0.3,0.7-0.5,1-0.7c4.8-2.4,7.3-6.4,7.9-11.7C287.3,738.5,287.5,737.5,288,736.5z"/>
	<path id="XMLID_119_" class="st56" d="M268.2,671.7c1-0.6,2.1-1.1,3.3-1.4c1.5-0.4,2.8-1,3.5-2.7c0.6-1.4,3.9-1.8,4.9-0.7
		c0.2,0.3,0.2,0.5,0.1,0.8c-0.2,0.4-0.3,1,0.1,1.1c1.9,0.8,0.6,1.8,0.1,2.6c-1.6,2.5-2,5-0.7,7.8c0.3,0.7,0.9,1.4,0.5,2.4
		c-0.2,0.5,0.3,0.6,0.6,0.5c1.3-0.3,2.6-0.7,3.9-1.1c0.4-0.1,0.7-0.5,0.8-1c0.3-1.5,0.6,0.1,0.9,0c0.8,1.6-0.5,2.4-1.4,3.3
		c-4.6,2.6-8.8,5.6-12.3,9.6c-1.5,1.7-3.3,2-5.4,1.2c-1-0.4-2.2,0.1-3-0.3c-1.8-0.9-3.5-2.1-3.7-4.4c0-0.3,0-0.6-0.1-0.9
		c0.1-1.1,0-2.1,1.2-3.1c1.3-1.1,2-2.9,2.5-4.6c0.7-2.1,1.4-4.1,2.9-5.8c0.5-0.5,1.3-1,0.4-2C266.8,672.7,267.6,672.1,268.2,671.7z"
		/>
	<path id="XMLID_118_" class="st46" d="M211.2,718.2c-1.3,3.1-3.5,5.7-4.4,8.9c-0.4,1.5-2.1,2.6-4.1,2.2c-4.5-0.8-9.1-1-13.5,0.8
		c-1.5,0.6-3,0.5-4.3-0.8c1-1.3,2-2.7,2.5-4.3c1.1-3.2,3.4-5.6,5.2-8.4c0.8-1.3,1.8-2.5,2.5-3.9c0.5-1,0.8-0.5,1.3,0
		c0.4,1.1,1.2,1.8,2.3,2.3c3.4,1.4,6.9,2.5,10.5,3.1c0.6,0.1,0.9-0.2,1.3-0.5C211.1,717.4,211.2,717.8,211.2,718.2z"/>
	<path id="XMLID_117_" class="st57" d="M173.3,738c-0.6,3-0.4,3.2,2.7,4.7c2.1,1,4.3,1.2,6.6,1.4c2,0.1,4.1,0.3,5.9,1.1
		c3.7,1.6,7.7,1.8,11.5,2.9c4.1,1.2,8.3,2.3,12.5,3c2.3,0.4,4.7,0.8,7,1c0.5-0.5-1.2-1.3,0.3-1.6c0.9,1.1,2,1.9,2.5,3.2
		c0.2,0.6,0.8,1.3,0.2,1.8c-0.7,0.5-1.5,1.4-2.5,1c-3.7-1.6-7.6-1.5-11.5-1.5c-2.1,0-4.2-1.1-6.4-1.5c-4.3-0.8-8.4-2.4-12.6-3.4
		c-2.2-0.6-4.6-0.6-6.8-1.4c-3.3-1.2-6.7-2.1-9.7-3.9c-2.7-1.6-2.9-3.3-0.9-5.7C172.4,738.8,172.9,738.4,173.3,738z"/>
	<path id="XMLID_116_" class="st58" d="M378,734.4c0.2,0.1,0.6,0.2,0.6,0.3c0.1,2.5,1.7,4.4,2.7,6.6c0.3,0.5,0.4,1,0.4,1.5
		c0,4,0.2,8-0.1,11.3c0.5-1.9,1.5-4.3,2-6.9c0-0.3,0.2-0.6,0.6-0.5c1.3,0.2,0.4,1.2,0.7,1.8c-0.3,3.2-1.6,6.1-2.8,9.1
		c-0.2,0.5-0.6,0.9-1.2,1c-2.4,4-7.3,3.1-11.1,1.6c-0.9-0.4-2-0.7-2.2-1.9c-0.3-1.6,0.3-3,1.9-3.3c3.9-0.7,5.7-3.2,6.4-6.7
		C376.7,743.7,378,739.1,378,734.4z"/>
	<path id="XMLID_115_" class="st59" d="M387,754.6c0.6,1.1,0.5,2.3,1,3.5c0.4,0.8,0.8,1.2,1.7,1.2c2.5,0.1,2.7-0.1,2.7-2.6
		c0-1.8-0.2-3.7,0.7-5.4c0.8,1,0,2.1,0,3.1c0,2.4,0,4.9,0,7.3c0.1,1.8-0.6,3.5-1,5.2c-0.4,1.5-1.4,2.4-2.7,3.1
		c-1.4,0-2.7,0.4-3.9-1.1c-0.6-0.7-2.2-0.8-3.4-0.6c-1.9,0.2-3-1-2.3-2.8c0.3-0.8,0.6-1.7,1.3-2.3c2.4-2,4.3-4.3,4.6-7.6
		C385.9,755.2,386.2,754.5,387,754.6z"/>
	<path id="XMLID_114_" class="st51" d="M387,754.6c-0.8,0.8-1.2,1.8-1.2,2.9c0,3.1-2.4,4.4-4.6,5.8c-0.2-1.5,0.4-3.2-0.3-4.7
		c1.9-2.9,2.5-6.2,3.6-9.4c0.1-0.3,0.1-0.6,0.4-0.7c0.9,1.2,0.9,2.8,1.4,4.2C386.5,753.3,386.7,753.9,387,754.6z"/>
	<path id="XMLID_113_" class="st60" d="M218.1,593.5c0.9,1.8,2.6,2.2,4.3,2.5c0.5,0.1,0.9-0.2,1.3,0.5c0.4,0.7,0.6-0.1,0.8-0.4
		c0.7-1.6,2-2.8,3.4-3.9c1.3,2.7,0.3,5.5,0.3,8.3c0,0.6-0.2,1.3-0.2,1.9c0.4,6.9-0.3,13.5-2.9,20c-0.9,2.1-0.9,4.4-0.6,6.5
		c0.6,4-1,7.6-1.7,11.9c-1-1.6-1.4-2.9-1.6-4.3c-0.6-5.3-0.3-10.5,1.2-15.6c1.1-4.2,0.4-8.3,0.1-12.4c-0.3-4.4-2.6-8.1-3.9-12.1
		C218,595.4,217.5,594.5,218.1,593.5z"/>
	<path id="XMLID_112_" class="st61" d="M384.1,746.6c-0.4,3.2-1.6,6.1-2.9,9c0-4.8,0-9.6,0-14.4
		C382.6,742.8,383.5,744.6,384.1,746.6z"/>
	<path id="XMLID_111_" class="st62" d="M389.9,717.1c0.9,1.6-0.4,3.2,0,4.8c0,2-1.2,3.8-0.9,5.9c-0.7-1.5-1.6-2.9-0.8-4.7
		C388.9,721.1,389.3,719.1,389.9,717.1z"/>
	<path id="XMLID_110_" class="st63" d="M391.7,712.5c0,0.8-0.6,0.7-1.2,0.8C390.7,712.7,391.1,712.4,391.7,712.5z"/>
	<path id="XMLID_109_" class="st64" d="M281.7,668.6c-0.6,0.1-1.2,0.2-1.3-0.5c0-0.1,0.1-0.4,0.3-0.4
		C281.5,667.4,281.4,668.2,281.7,668.6z"/>
</g>
<g id="_x33__00000142138276383911153850000004784796579257318806_">
	<g id="_x31__43_">
		<path id="_x31__31_" class="st65" d="M31.7,900.9c0.8-2,267.4-114,267.4-114s111.2,62.5,108,61.8S152,965.1,152,965.1L31.7,900.9z
			"/>
		<path id="_x32__31_" d="M136.9,935.9c-3.8,0-6.9-1.2-9.1-3.5c-3.7-3.9-3.9-10.6-0.4-18.3c1.9-4.3,4.8-8.6,8.4-12.4
			c-8.9-3.5-15.9-8-14.2-15.4c1-4.1,3.8-7.6,8.5-10.4c12.7-7.6,36.1-8.1,50.4-4.2c7,1.9,11.6,0.7,13-3.3c1.5-4.3-1.3-10.6-5.6-12.5
			c-0.3-0.1-0.4-0.5-0.3-0.8c0.1-0.3,0.5-0.4,0.8-0.3c4.9,2.2,7.9,9.1,6.2,14c-0.8,2.2-3.7,6.9-14.4,4c-14.1-3.8-37-3.3-49.5,4.1
			c-4.4,2.6-7,5.8-7.9,9.6c-1.6,6.6,5.3,10.8,13.9,14.2c6.9-6.9,16.3-11.8,26.5-11.6c8.3,0.2,18.9,2.6,30.1,5
			c23,5.1,49.1,10.9,64.7,0.6c16.9-11.1,30.4-32.8,29-46.3c-0.5-4.8-2.8-8-6.9-9.7c-12.6-5-26.3-3.1-33.3,1.4
			c-3.5,2.3-5.5,5.1-5.6,8.3c-0.3,5,3.5,8.4,7.1,11.6c4.3,3.8,8.7,7.8,4.8,13.9c-6.8,10.8-25.7,7.3-26.5,7.2
			c-0.3-0.1-0.5-0.4-0.5-0.7c0.1-0.3,0.4-0.5,0.7-0.5c0.2,0,19,3.4,25.3-6.7c3.3-5.3-0.4-8.6-4.6-12.4c-3.7-3.3-7.8-7-7.5-12.6
			c0.2-3.6,2.3-6.8,6.2-9.3c8.5-5.4,22.9-6.1,34.4-1.5c4.5,1.8,7.1,5.5,7.7,10.7c1.4,13.9-12.4,36.1-29.5,47.4
			c-16,10.5-42.3,4.7-65.6-0.4c-11.2-2.5-21.8-4.8-29.9-5c-9.7-0.2-18.5,4.4-25.2,10.9c3,1.1,6.1,2.1,9.2,3.1
			c9.4,3,17.5,5.7,18.4,10c1.2,5.6-6.7,13.2-14.8,17.5C145.7,934.5,140.9,935.9,136.9,935.9z M137,902.2c-3.7,3.8-6.6,8.1-8.6,12.4
			c-3.2,7.1-3.1,13.5,0.2,17c4.9,5.2,14.4,3,21.6-0.8c8.9-4.7,15.1-11.8,14.2-16.2c-0.8-3.7-9-6.3-17.7-9.1
			C143.5,904.5,140.1,903.4,137,902.2z"/>
	</g>
	<g id="_x32__00000168075862725531942980000009378935747220445866_">
		<path id="_x31__36_" class="st66" d="M96,605.6c0.6-1.2-1-7.3,6.1-8.7s23.5,3.6,28.6,13.8c5.1,10.2,7.3,13.4,5.1,25
			s-11,42-11.8,43.2s-8.9,11.4-9.5,9.5C114,686.4,96,605.6,96,605.6z"/>
		<g id="_x32__36_">
			<g id="_x31__37_">
				<path id="_x31__38_" class="st67" d="M197.8,802.5c1-0.6,8.2-6,8.2-6s15.5-5.2,18.9-5.6s8.2-4.2,8.2-4.2s-6-10-7.8-9.8
					s-14.1,3.4-15.3,3.4s-4.4,1.8-10.4,1s-13.9-7.2-18.9-3.2s-4.8,13.1-4.8,13.1L197.8,802.5z"/>
				<path id="_x32__38_" class="st67" d="M232.7,749.8c0.2,1.5,5.4,22,5.4,22L249,785c0,0,21.1,10.4,22.5,10.6c1.4,0.2,8.4,0.8,9,1
					s4.4,2.8,5.4,3s5,1.4,5,1.4s2,1,1.4,2.2s-7.2,4.6-13.1,5.4c-5.8,0.8-25.7-1.5-26.3-1.3c-0.6,0.1-7.2,3.1-13.3,4.1
					c-6,1-15.1,2.6-17.1-1.8c-2-4.4-1-15.1-1-15.9S210,766.1,210,766.1L232.7,749.8z"/>
			</g>
			<g id="_x32__37_">
				<path id="_x31__39_" class="st68" d="M189,788.6c-4.8-1.2-13.6,7.5-16.3,8.1s-33.1,0-34.2,0c-1,0-19.4-9.6-19.4-9.6l32.2-41.5
					l0,0c3.9,3.1,6.4,5.1,6.4,5.1l22.9-20c0,0,4.7,8.3,4.7,8.7c0,0.5,8.6,15.7,8.3,16.4c-0.3,0.8,8.5,4.7,8.5,4.7l28-26.2l-7.2-22.3
					c0,0-16.4-30.1-24.8-36.7c-8.4-6.6-25.4,3.2-27.6,3.8c-2.1,0.6-55.2,33.8-57.2,34.9c0,0-55.1,101.8-56.3,103s4.8,20.2,4.5,21.1
					c-0.3,0.9,84,5.1,84.9,6.1c0.9,1,45.5,6.2,57.8,3.8s12.9-16.1,12.9-23.6s-7.4-24.3-7.4-24.3S193.8,789.8,189,788.6z"/>
				<path id="_x32__39_" class="st69" d="M226.4,728.2c-0.6,0.3-8.9,15.2-14.6,18.8c-5.7,3.6-22,9.2-21.2,9.3s6.8,8.4,6.8,8.4
					l7.7,9.2c0,0,13.6-2.1,17.9-5.6c4.4-3.5,22.1-20,20.3-23.3s-6.9-8.6-8.9-11s-5.3-9.1-6.2-8.6S226.4,728.2,226.4,728.2z"/>
			</g>
		</g>
		<g id="_x33__20_">
			<path id="_x31__40_" class="st70" d="M79.7,658.2c0,0-23.3,11.7-31.6,27.2c-8.2,15.5-16.4,23.5-23.3,62.3
				c-3.7,20.8,4.2,50.6,9.8,61.8s9.4,13.3,16.5,14.7c7,1.4,25.5-7.2,27.1-8s11-5.2,20.7-17.3s21.9-24.7,22.5-24.9s2.8,8.4,2.8,8.4
				l19.5,14.9l11.8,8.6l7.2,10.6c0,0,28.9-2.8,30.1-3.6s0.2-9.2,0-10s0.4-5-0.4-5.6c-0.8-0.6-4.4-4.4-9-5.4s-4.6-1-4.6-1
				s1.4-5-3.2-8.8c-4.6-3.8-7.4-4.8-7.4-5.6s2.6-5.2,0.2-9c-2.4-3.8-5-6.6-5-7.2s2.6-4,2.6-7.2s-16.1-51-16.1-51s0.5-6.7-1.9-12.6
				c-2.4-5.8-11.3-13.6-12.6-16.8s-13.5-10.8-13.5-10.8L79.7,658.2z"/>
			<path id="_x32__40_" class="st67" d="M57.4,794.6c0,0,1.8,0.9,9.3,1.8c7.5,0.9,19.8-3.4,19.8-3.4l-16.7,58.4l-4.3,17.9
				c0,0-1.4,7.5-8.1,11.8c-1.5,1-9,4.1-9,4.1l-8.6,3.6c0,0-2.4,0-3.6-1.4c-1.2-1.4-0.9-2.5-0.9-2.5s-7.3,2.5-7.7,2.8
				s-5.5,4.1-5.5,4.1s-5.1,2.4-6.2,1.5s-0.8-3.1,0.7-3.9s5.3-4.1,5.5-4.4c0.2-0.3-3.7,1.4-6.4,2.9s-5.3,3.6-7.3,2.8
				s-0.9-2.9-0.9-2.9s-0.9-0.7-0.8-1.8s7.4-7.6,7.4-7.6s4.6-6.5,6.8-7.1s12-1.4,14.7-2c2.6-0.6,13-3.4,14.4-4.6
				C51.2,863.5,57.4,794.6,57.4,794.6z"/>
			<g id="_x33__21_">
				<path id="_x31__41_" d="M167.3,839.5c-0.3,0-0.7-0.1-1-0.2c-1.5-0.6-2.3-2.3-1.7-3.8l5.8-15.7c0.6-1.5,2.3-2.3,3.8-1.7
					s2.3,2.3,1.7,3.8l-5.8,15.7C169.6,838.7,168.5,839.5,167.3,839.5z"/>
				<path id="_x32__41_" class="st67" d="M173.1,807.5c-2.6,0.4-8.5,5.4-8.8,6.7s0.2,10.1,0.2,10.1s-3.4,6.4-2.8,7.9
					c0.6,1.5,1.9,2,3.2,1.5c1.2-0.5,3-4.5,3.4-5s1.9-4.4,1.9-4.4l2.9,0.6l-0.8,9.1c0,0-2.3,4.7-1.4,6c0.9,1.4,2.7,1.4,2.9,1.2
					s3.2-3.6,3.2-3.6l5.6-3.9c0,0,4.3-0.3,5-1.2s0.4-2.4,1-2.5s1.6,0.2,2.3-0.6c0.8-0.8,2.2-10.2,0.7-13.4s-4.2-6.1-6.8-7.3
					S175.8,807.1,173.1,807.5z"/>
			</g>
		</g>
		<g id="_x34__8_">
			<path id="_x31__42_" class="st67" d="M131.8,623.4c0,0.8,0.6,1.8,0,7c0,0,0.8,6.6,0.4,9s-3.5,9-3.5,9s0.9,3.5-0.6,9.8
				c-1.5,6.4-6.2,16-9.8,18.6s-9.3-0.9-9.3-0.9l-2.5,15.5c0,0-2.6-1.6-7.8-7c-4.2-4.4-18.8-25-18.8-26.2s14.7-34.2,15.9-34.8
				C97.1,622.8,131.8,623.4,131.8,623.4z"/>
			<path id="_x32__42_" class="st66" d="M116.3,620.7c0,0-0.6,6-11.4,12.6s-16,6.5-18.7,11.6c-2.8,5.2,8.9,21.6-11,31.4
				s-28.6,17.1-31.8,22.3s-9.5,15.5-9.2,14.8c0.3-0.8,3.6-20.9,11.5-36.2c7.9-15.4,16.6-14.8,19.9-23.6c3.4-8.9,1.8-28.6,6.2-37.7
				c4.4-9.2,16-24.2,30.2-16.8C116,606.3,116.3,620.7,116.3,620.7z"/>
			<path id="_x33__22_" class="st67" d="M90.1,645.4c-0.6-0.6-3.7-3.5-5.1-5.3s-3.6-5.6-6.3-4.1c-2.7,1.5-1.8,10.7-0.9,11.7
				s3.4,4,3.3,5c-0.1,0.9,1.3,4.2,3.5,3.8c1-0.2,1.4-1,2.6-3.1C88.7,650.8,90.1,645.4,90.1,645.4z"/>
			<path id="_x34__9_" class="st66" d="M113.6,620.9c0.8,0,7.4,1.6,11.8,6.7c4.4,5.1,7.3,10.6,7.3,10.6s2.2-8.9,1.7-11.2
				c-0.5-2.4-3.7-11.2-3.7-11.2L113.6,620.9z"/>
		</g>
	</g>
	<g id="_x33__00000139283616469129988340000005259982703120189099_">
		<g id="_x31__32_">
			<path id="_x31__33_" class="st71" d="M374.9,817.1c1.1-0.1,15.3,1.4,15.3,1.4s1.2,2.3,0,8.3c-1.3,6-2.7,10.9-2.7,10.9
				s-13.6,0.1-13.9-0.6c-0.2-0.7-2.7-4.7-2.2-10.9C371.9,820,374.9,817.1,374.9,817.1z"/>
			<path id="_x32__33_" class="st72" d="M374.2,859.4c2.1,0.4,7.7,0.8,7.7,0.8l0.6,2.1l-6,67.7c0,0-0.2,1.5-0.8,2
				c-0.6,0.6-1.7,0.3-1.7-0.8C374.1,929.1,374.2,859.4,374.2,859.4z"/>
			<path id="_x33__17_" class="st73" d="M372.5,834.7c2.5,0.3,15.4,1.3,15.4,1.3l-5.4,27.2c0,0-0.9,1.2-4.2,1
				c-3-0.2-4.1-1.4-4.1-1.4L372.5,834.7z"/>
		</g>
		<g id="_x32__32_">
			<path id="_x31__34_" class="st74" d="M354.4,863.6l0.7-0.3l0.9-0.7c0,0,1.5-7.1,15.5,63.8c0.2,1.1-0.6,2.3-1.7,2.4l0,0
				c-1.5,0.1-2.8-0.8-3.1-2.3C361.2,898.4,354.4,863.6,354.4,863.6z"/>
			<path id="_x32__34_" class="st71" d="M355.7,863.6c0.9-0.4,2.4-2.3,1.9-4.4c-0.6-2.1-0.7-3.3-2.4-4.9c-1.8-1.6-3.2-2-3.2-2
				s1.2,1.9,1.4,3.1c0.2,1.2-2.2,4.4-1.9,6.1C351.6,863.2,354.8,864,355.7,863.6z"/>
			<path id="_x33__18_" class="st73" d="M360.2,883.4c0.5,0,1.2-0.3,2.1-0.7c-5.5-23.7-6.3-20.1-6.3-20.1l-0.9,0.7l-0.7,0.3
				c0,0,1.5,7.9,3.7,19.2C359.1,883.2,359.9,883.4,360.2,883.4z"/>
		</g>
		<g id="_x33__16_">
			<path id="_x31__35_" class="st72" d="M357.2,814.8l7.6-0.8l9.4,112.8c0.1,0.8-0.5,1.5-1.3,1.6l0,0c-0.8,0.1-1.6-0.5-1.7-1.3
				L357.2,814.8z"/>
			<path id="_x32__35_" class="st71" d="M362.4,801.4l-2.7,0.3L357,802c-1.4,0.1-2.3,1.4-2,2.8c0.8,3.5,2.1,9.5,2.2,10l3.8-0.4
				l3.8-0.4c0-0.6,0.1-6.7,0.1-10.3C365,802.3,363.8,801.3,362.4,801.4z"/>
			<polygon id="_x33__19_" class="st73" points="359.4,832.7 366.3,832 364.8,814 357.2,814.8 			"/>
		</g>
		<path id="_x34__7_" class="st75" d="M384.6,931v-29.6c0-7.2,2-14.1,3.7-21.1c0-0.1,0-0.2,0-0.3c0-2.9-8.8-5.3-19.7-5.3
			S349,877.1,349,880c0,0.1,0,0.2,0,0.3c1.7,7,3.7,13.9,3.7,21.1V931c-2.3,0.9-3.7,1.9-3.7,3.1c0,2.9,8.8,5.3,19.7,5.3
			s19.7-2.4,19.7-5.3C388.3,933,386.9,931.9,384.6,931z"/>
	</g>
</g>
<g id="Layer_4" class="st76">
	<g id="_x32_" class="st77">
		<path id="_x31__17_" class="st78" d="M119.9,369.8c0,0,3.2,13.3-2.2,20.9c-5.4,7.6-6.3,24.7-6.3,24.7l20.7,69.1L130,506
			c0,0,39.6,4.7,54.2,0.7s17.2-12.4,17.2-12.4L180,444.1l-11.5-50.3c0,0-18,3.2-19.2,3s-3.1-5.5-3.1-5.5l-16.5-21L119.9,369.8z"/>
		<g id="_x32__14_">
			<g id="_x31__15_">
				<path id="_x31__16_" class="st79" d="M119.4,400.1c-0.4-0.6-5.3-6.9-5.3-6.9s-18,14.8-20.7,22c-1.5,4.1,2.3,25.8,2.3,25.8
					l34.3,42.8l-2.8,11.8c0,0,20.7,8.1,38.3,6.4s34.5-10.3,34.5-10.3l-16.7-45.9l-14.8-52l-20.9,0.8c0,0,0.7,15.7-4.4,17.8
					s-12.1-1.5-12.1-1.5L119.4,400.1z"/>
				<path id="_x32__17_" class="st79" d="M168.6,393.8c1.2,0.1,23.9,13.8,32.5,20.9s16.2,14.5,16.2,14.5l23.4-23.6l11.5,5.9
					c0,0-18,42.3-25.5,45.3c-7.4,3-26.8-4.1-35.1-10c-8.3-5.9-21.1-22.4-21.1-22.4L168.6,393.8z"/>
			</g>
			<g id="_x32__15_">
				<polygon id="_x31__14_" class="st73" points="147.6,394.7 143.8,411.2 147.6,418.2 152.5,404 				"/>
				<path id="_x32__16_" class="st73" d="M116.6,387.4c0.2,0.7,6.4,15.2,13.1,19.6s9.7,5.5,10,5.6s-7.1,8.1-7.1,8.1
					s-6.5-10.5-10.5-12.5c-3.9-2-12.7-4.2-12.7-4.2L116.6,387.4z"/>
			</g>
		</g>
		<g id="_x33__4_">
			<g id="_x31__10_">
				<g id="_x31__12_">
					<path id="_x31__13_" class="st78" d="M171.5,688.9c-1.7,2.7-10.1,16.7-10.1,16.7s3.5,9.4,8.1,13.8c4.6,4.4,4.6,4.4,4.6,4.4
						s-2.7,4.6-10.5,2.2c-7.8-2.4-21.8-12.6-21.8-12.6s3.2-8.1,3.4-9.1s5.9-19.9,5.9-19.9L171.5,688.9z"/>
					<path id="_x32__13_" class="st80" d="M141.8,711c0,0,11.2,9.5,16.1,11.7s8.2,1.6,10.2,1.1c2-0.4,2.6-3.2,2.6-3.2
						s12,6.8,13.9,8.9c1.9,2.1,1.9,5.2,1.9,5.2s-3,2.8-8.2,2.5s-24.8-8.7-24.8-8.7s-7.6,1.3-11.7,0.1s-4.8-5.8-4.2-7.9
						S141.8,711,141.8,711z"/>
				</g>
				<g id="_x32__11_">
					<path id="_x31__11_" class="st80" d="M72.4,721.4c0,0-2,10.6-4.3,13.7c-2.4,3.1-5.3,2-8,3.8s-14.5,9.9-19.4,12.9
						s-12.6,1.9-14.9-0.5c-2.4-2.4-0.1-11,7.4-16.9s15.7-9.1,15.7-9.1L72.4,721.4z"/>
					<path id="_x32__12_" class="st78" d="M69,685.7c0,0-9.6,27.7-10.1,28.2c-0.3,0.3-5.8,6.7-10,11.6l0,0l0,0
						c-0.6,0.7-1.2,1.3-1.7,1.9c-0.6,1-0.9,2.3,0.3,3.5c2.3,2.5,9.7,3,12,2.4s9-4.3,10.1-5.7c2.4-2.9,4.2-10.8,4.2-10.8l12-22.4
						L69,685.7z"/>
				</g>
			</g>
			<path id="_x32__10_" class="st80" d="M130.1,483.8c1.9,0.8,34.2,0.3,44.1-1.2c9.9-1.6,19.3-9.2,19.3-9.2s15.3,31.9,18.3,61.1
				c3,29.2-14.2,99.8-14.2,99.8l-26.5,60.9l-23.2-5.8c0,0,4.9-37.3,8.3-44.5c3.4-7.2,11.7-18.4,11.7-18.4l-3.1-73.5
				c0,0-28,62.5-31.5,70.1s-18.6,26.1-18.6,26.1l-26.8,52.2L65,691.5c0,0,16.4-50.4,26.8-69.2s16.2-34.8,16.2-34.8s7-61.2,11-74
				C122.9,500.6,130.1,483.8,130.1,483.8z"/>
		</g>
		<g id="_x34__2_">
			<g id="_x31__3_">
				<g id="_x31__8_">
					<path id="_x31__9_" class="st81" d="M149,392.5c1.9-5.5,5.6-9.6,14.3-9.4s8.4,0.9,11.4,0.5s6-2.3,6-2.3s1.9,7.4,11.3,5.8
						c9.4-1.6,8.2-6.7,8.2-6.7s3.3,0.3,5.2,0s7.3-4.8,16.5-3.4c9.3,1.4,14.2,5.1,14.3,11.9c0.1,6.7,0.9,13-8.9,15.8
						c-9.8,2.8-13.4,2-15.9,3.1s-3,1.7-3,1.7s-1.1-5.3-9.8-3.9s-11,9-11,9s-2.6-0.5-4.6,0.5c-1.9,1-5.7,7.4-17.5,6.6
						s-16.5-9.5-17.5-14.1S147.1,398,149,392.5z"/>
					<path id="_x32__9_" class="st82" d="M149,385.9c1.9-5.5,5.6-9.6,14.3-9.4s8.4,0.9,11.4,0.5s6-2.3,6-2.3s1.9,7.4,11.3,5.8
						c9.4-1.6,8.2-6.7,8.2-6.7s3.3,0.3,5.2,0s7.3-4.8,16.5-3.4c9.3,1.4,14.2,5.1,14.3,11.9c0.1,6.7,0.9,13-8.9,15.8
						c-9.8,2.8-13.4,2-15.9,3.1s-3,1.7-3,1.7s-1.1-5.3-9.8-3.9s-11,9-11,9s-2.6-0.5-4.6,0.5c-1.9,1-5.7,7.4-17.5,6.6
						S149,405.6,148,401S147.1,391.4,149,385.9z"/>
				</g>
				<g id="_x32__7_">
					<path id="_x31__7_" class="st83" d="M147.5,392.7c0.5,0.1,26.4-7.2,26.4-7.2l2.3,7.7l-27.6,5.1L147.5,392.7z"/>
					<path id="_x32__8_" class="st83" d="M196.6,381l1.7,7.4c0,0,36.3-4.9,44.1-5.6c7.8-0.7,27.1-0.1,27.1-0.1v-5.9
						c0,0-20.5-0.6-29.3,0C231.2,377.4,196.6,381,196.6,381z"/>
				</g>
				<g id="_x33__2_">
					<g id="_x31__5_">
						<path id="_x31__6_" class="st83" d="M280.3,379.1c0-0.3,2.7-3.6,1.3-5.1c-1.4-1.5-5.1-1.6-5.3-0.5c-0.2,1.1,1,4.9,1,4.9
							L280.3,379.1z"/>
						<path id="_x32__6_" class="st83" d="M272.8,377.4c0.1-0.5-0.8-7.7-1.8-7.6s-3,2.8-2.6,3.6c0.3,0.9,3.8,4,3.8,4H272.8z"/>
					</g>
					<path id="_x32__5_" class="st82" d="M285.6,378.6c0,0-1.5-3.1,1-4.3c2.5-1.2,6.2-1.1,7,0s2.3,6,2.3,6s-1,5-4.7,5.5
						s-10.4-1.3-13.4-1.9s-8.3-1.2-8.3-1.2v-5.9c0,0,5.5-0.8,9.2,0.4s7,3.8,7,3.8L285.6,378.6z"/>
					<g id="_x33__3_">
						<path id="_x31__4_" class="st83" d="M280.9,383.9c0,0,2.4,4,1.1,4.5c-1.3,0.4-5.5-0.8-5.3-1.7c0.2-0.8,0-4.3,0.5-4.3
							S280.9,383.9,280.9,383.9z"/>
						<path id="_x32__4_" class="st83" d="M288.1,384.1c0,0,1.8,2.7,0.8,4.4c-0.9,1.7-4.6,2.2-5,1.3c-0.4-0.8,0-5.7,0-5.7
							L288.1,384.1L288.1,384.1z"/>
					</g>
				</g>
			</g>
			<path id="_x32__3_" class="st78" d="M251.6,411.2c0.4-0.4,6.2-12.1,10.4-18c4.2-5.9,8.9-15,6.4-17.3s-6.5-1.8-6.5-1.8
				s-0.5-3.8-2.2-2.9c-1.6,0.9-2.5,2.4-2.5,2.4s-1.7,1.8-3.1,2.3c-1.5,0.5-5.5,1.5-5.8,2.6s-3.4,0.4-3,2.2c0.3,1.8,4.8,6.4,4.8,6.4
				s-3.7,7.1-4.9,10.3c-1.2,3.3-3,8.8-3,8.8L251.6,411.2z"/>
		</g>
		<g id="_x35__1_">
			<g id="_x31__2_">
				<g>
					<polygon class="st84" points="203.2,448.3 181.9,322.3 182.6,322.2 203.9,448.1 					"/>
				</g>
				<g>
					
						<rect x="194" y="320.1" transform="matrix(0.9869 -0.1616 0.1616 0.9869 -59.3977 36.5112)" class="st85" width="1.5" height="126.6"/>
				</g>
				<rect x="202" y="445.1" transform="matrix(0.9818 -0.19 0.19 0.9818 -81.4222 47.017)" class="st85" width="5" height="6.1"/>
				
					<rect x="181.2" y="320.4" transform="matrix(0.9818 -0.19 0.19 0.9818 -58.1184 40.8036)" class="st85" width="5.1" height="6.2"/>
			</g>
			<g id="_x32__2_">
				<path class="st78" d="M163.6,435.7c3.7-2.4,16.3-8.9,16.3-8.9s13-9.3,15.7-8.6s9.8,4.4,10.2,5s0.5,2,0.5,2s4.2,3.3,4.5,4.4
					s-0.6,2.6-0.6,2.6s-6.7-0.8-6.5-0.3c0.3,0.4,6.4,7.3,6.6,8.7s-1.1,3.1-2.2,2.4c-1.1-0.8-5.6-5.6-5.6-5.6s-5.9,1.4-11.5,2.6
					s-13.7,1.7-13.7,1.7l-9.5,4.3L163.6,435.7z"/>
				<path class="st86" d="M88.9,431.7c-0.8,12.6,5.5,43.1,11.4,49.2s16.8,12.9,22.3,10.7c18.4-7.6,54.6-43.5,54.6-43.5l-6.6-17.3
					l-45.8,23.8l-3.5-19.2c0,0-2.9-17.8-6-21.2c-3-3.5-11.9-6.4-16.7-3.5C93.6,413.4,89.7,419.1,88.9,431.7z"/>
			</g>
		</g>
		<g id="_x36__1_">
			<path id="_x31__1_" class="st87" d="M143.2,391c-1.7-1.1-9.4-8-13.3-11.7c0.4,4.2,3.3,7.9,6.8,11.1c5.4,5,10.5,5.9,10.5,5.9
				l1.3-2.6C147.6,393.8,147.5,393.8,143.2,391z"/>
			<path id="_x32__1_" class="st78" d="M153.3,337.5c0,0,5.4,7.6,5.6,12.8s0,8.9,0,8.9s4.9,7.8,4.4,10.3s-3.5,3-3.5,3l-0.2,3.5
				l-1.9,3.1c0,0,1.3,2.4,1,3.5c-0.3,1-0.9,2.4-0.9,2.4s0.9,5.6-0.3,6.4s-9,3.4-11.2,2.3c-14.6-7.7-17.8-15.8-17.8-15.8l-4.2-24.2
				L153.3,337.5z"/>
			<path id="_x33__1_" class="st80" d="M148,341.8c0,0-3,11.3-4.6,12s-5.4,1.7-6.9,3.5s-3.2,5.4-4.9,6.7s-3.9,1.8-3.9,1.8l-5.8,10.8
				l-2.2,13.8c0,0-7.8,11.8-11.4,12s-11.2,0.4-11.3-5.2c-0.1-5.6,0.8-11.9,0.8-11.9s-6-5.6-3.4-9.2c2.6-3.5,5.1-3.9,5.1-3.9
				s1-4,2.6-4.5s3.5,0,3.5,0s-9.1-20.7,0.7-29.7c9.8-8.9,25.7-12.1,37.7-6.4c12,5.6,11.2,8.8,11.2,8.8L148,341.8z"/>
			<path id="_x34__1_" class="st78" d="M127.6,365.6c-0.3-0.2-4-4.2-6.3-3.3c-2.4,0.8-4.9,6-3,8.9c1.9,3,3.7,3.7,5.1,4.9
				c1.3,1.2,5.4,1.9,6.2,0.7C130.4,375.6,127.6,365.6,127.6,365.6z"/>
		</g>
	</g>
	<g id="XMLID_51_" class="st77">
		<path id="XMLID_2090_" class="st88" d="M338,492.3c1.1-9.9,6-18.3,11-26.6c4.3-7.1,10.9-10.5,19.3-10.3c1.5,0,2.9-0.3,4.3-0.7
			c5.3-1.3,10-0.5,13.8,3.6c0.3,0.3,0.7,0.6,1.1,0.7c4.9,1.6,7.5,5.6,10.2,9.6c1.3,1.9,2.8,3.7,4.3,5.5c3.5,4,4.5,8.8,5.3,13.8
			c0.5,3.4,0.8,6.8,1.9,10c0,4.2,0,8.4,0,12.6c-0.8,3.4-1.8,6.7-1.9,10.3c0,3.4-0.2,6.8-0.9,10.2c-0.3,1.5-0.9,2.9-2.9,2.6
			c-0.6-0.1-0.6,0.6-0.7,0.9c-0.5,1.1-1,2.3-1.2,3.5c-0.4,2.9-2.6,4-4.9,4.6c-0.7,0.2-1.3,0.4-1.9,0.6c-2.3,0.7-3.6-0.2-4.8-3.2
			c-1.4-1.4-1.4-3.2-1.5-5c0-3.6-0.5-7.1-1.4-10.6c-1.3-5.3-5.1-8.4-9.6-10.9c-1.8-1-3.8-0.3-5.8-0.3c-1.5-0.4-1.6-1.6-1.4-2.8
			c0.2-2,1.1-3.8,2.8-5c2.4-1.8,4.1-4,5.3-6.7c0.8-1.9,2.1-3.2,4.2-3.7c1.3-0.4,2.7-0.8,3.9-1.4c1.7-0.9,2.8-2.2,3.4-4
			c1-3.2-0.4-4.9-3.7-4.4c-1.9,0.3-2.8-0.4-3-2.2c-0.3-2.1-0.8-4.1-1.1-6.2c-0.4-2.1-1.4-3.4-3.5-3.8c-2.8-0.5-4.5-2.2-5.8-4.6
			c-1.8-3.3-4.2-4.5-7.9-3.7c-1.6,0.4-3.2,0.6-4.8,0.4c-1.7-0.2-3,0.5-4,1.9c-2.6,3.7-4.8,7.6-6.1,11.8c-1,3.5-1.2,7.3,0.8,10.7
			c1.9,3.2,1.9,6.3,0.3,9.6c-1,2.1-1.9,4.2-2.6,6.5c-1.1,0.5-2-0.2-2.9-0.5c-1.7-0.6-3.2-1.5-5.3-1.3c-1.9,0.2-2.8-1.6-3.1-3.3
			C336.8,497.7,336.4,494.9,338,492.3z"/>
		<path id="XMLID_2089_" class="st89" d="M341.3,416.5c1.7,1.7,0.3,3.4,0.1,5.4c0.8-0.2,1.6-1.3,2.4-0.4s0.5,2,0.3,2.9
			c-0.3,1.4-0.4,2.3,1,3.3c1.5,1.2,1,3.9-0.9,5.8c-2.5,2.5-5.1,4.8-7.2,7.6c-2.6,3.5-4.8,7.2-6.5,11.2c-3,7.2-6.7,14-10.6,20.7
			c-2.3,3.9-2.1,4,1.1,7c4.7,4.3,9.6,8.4,12.8,14.1c0.1,0.1,0.1,0.3,0.2,0.4c1,0.9,1,2,0.8,3.2c-0.3,1.7-0.8,3.3-1.7,4.8
			c-1.1,1.9-1.8,3.9-1.9,6.2c-0.1,2.5-0.3,2.5-2.5,1.6c-2.5-0.7-4.1-2.6-6.1-4.1c-0.7-0.6-1.4-1.2-2.2-1.7c-0.5-0.4-0.8-0.9-0.9-1.6
			c-1.2-8.1-4.1-15.7-7.1-23.3c-0.8-2-2.5-2.5-4.3-3.2c-1.4-0.5-3.2,0.1-4.2-1.6c1.7-6.8,5.1-12.7,9.2-18.3
			c3.2-4.4,6.7-8.7,10.1-13.1c3.7-4.6,4.7-10.3,5.5-16c0.3-2.2,1-4.3,1.9-6.4c0.3-0.7,0.7-1.4,1.6-1.5c1.1,0,1.1,0.9,1.4,1.6
			c0.6-1,0.7-2.7,2.1-2.9c0.9-0.1,0.8,1.3,1.3,2.1c0.6-1.8,2.1-2.8,3-4.2C340.4,416.5,340.8,416.5,341.3,416.5z"/>
		<path id="XMLID_2088_" class="st90" d="M303.8,475c1.9,0.5,3.9,0.9,5.8,1.4c1.4,0.4,2.5,1.1,3.1,2.6c2.9,7.1,5.2,14.4,7.2,21.9
			c0.3,1.2-0.5,2.7,0.8,3.6c1.8,4.5,3.9,8.9,5.4,13.5c0.7,2.4,0.2,3.2-2,4c-0.4-0.1-0.8-0.3-0.8-0.7c-0.1-2.4-1.6-2.4-3.6-2.3
			c-3.2,0.2-6.3,0-9.4,0.9c-0.3,0.1-0.6-0.1-0.8,0.3c0.5,0.1,0.7,0.4,0.6,0.9c-0.2,0.7-0.8,1.1-1.4,1.4c-1.8,1.2-2.7,2.8-2.3,5
			c0.1,0.6-0.1,1.3,0.1,1.9c1.6,5.4,0.3,10.7-0.7,15.9c-1.1,5.3-0.2,10.2,2.5,14.8c1.2,2,1.2,4.2,0.9,6.4c-0.7,5.6-1,11.1-0.9,16.8
			c0,1.3,0,2.8-1.9,3c-1.7-0.4-3.4-0.1-5.1,0.2c-5.6,1.2-11.1,0.7-16.5-1.3c-9.7-3.6-19.6-5.8-30-5.4c-0.7,0-1.4-0.2-2.1-0.3
			c-1.8-0.2-3.6-0.3-5.3-0.5c-2.1-0.2-2.7-1.1-2.3-3.3c0.6-2.9,1.5-5.9,1.8-8.8c0.6-5.7,2.3-10.9,4.9-15.9c0.4-0.9,0.5-1.9,0.6-2.9
			c1.2-7.4,2.9-14.7,2.3-22.3c-0.3-3.3,0.3-6.6,0.7-9.9c0.3-3.1-0.1-6.3-1.6-9.3c-2.1-3.9-3.5-8.2-4-12.5c-0.5-3.8,1.6-10,7.3-12.4
			c3.2-1.4,6.2-3.1,8.8-5.4c1.6,0.1,2.5,1.4,2.3,3.3c-0.1,0.9-0.5,1.8-0.6,2.7c-0.3,2.3,0.3,3.4,2.3,4.6s4.2,1.5,6.5,1.4
			c5.6-0.3,10.8-1.9,15.4-5.3c2.4-1.8,2.5-2.6,0.6-4.9c-0.7-0.9-1.3-1.9-2-2.9c-0.3-0.4-0.8-1.1,0.3-1.3
			C295.1,474,299.5,474.5,303.8,475z"/>
		<path id="XMLID_2086_" class="st91" d="M252.8,579.4c0.4-1.8,1.3-0.1,1.9-0.2c4.8-0.9,9.5,0.3,14.2,0.8c6.2,0.7,11.9,3.1,17.8,5
			c4.7,1.4,9.5,2,14.4,0.7c1.5-0.4,3.1,0,4.6-0.6c0.3-0.1,0.4,0.4,0.5,0.7c0.2,2.7-0.9,5.2-1.6,7.8c-0.1,0.1-0.2,0.2-0.3,0.3
			c-1.8,5.3-2.9,10.8-4.2,16.2c-1.5,6.2-2.4,12.5-4.5,18.6c-1.5,4.4-2.4,9-3.7,13.6c-1.1,4.1,0.1,8,2,11.6c3,5.7,4.8,11.7,4.3,18.2
			c-0.1,1.9,0.6,3.8,1.6,5.3c2.3,3.4,2.5,7.6,4.9,10.9c1.2,1.8-0.7,2.4-1.8,3.3c-0.6,2-2.1,3-4.1,3.3c-2.2,0.3-4.2,1.1-6.2,1.9
			c-1.7,0.7-3.4,1.7-5.2,0.4c-1.5-2.3-4.1-4-4.1-7.4c-1.3,2.5-1.7,5.1-2.6,7.5c-0.8,1.9-1.5,2.4-3.1,0.8c-2.7-0.1-4.9-1.5-7.4-2.1
			c-3.1-0.8-6.3-0.3-9.4-0.7c-0.5-0.2-0.5-0.6-0.4-0.9c1.8-6.7,2.2-13.7,5.8-19.9c0.9-1.5,1.2-3.3,1.1-5.2
			c-0.2-6.2,0.8-12.2,1.4-18.3c0.5-5-1-9.6-2.3-14.3c-1.8-6.6-2.1-13.6-5-19.9c-2.8-6.1-4.6-12.4-6-18.9c-0.4-1.9-0.7-3.8-0.7-5.8
			C255,587.7,254,583.6,252.8,579.4z"/>
		<path id="XMLID_2085_" class="st92" d="M378.3,606c-0.2,3.1-0.3,6.2-0.8,9.3c-0.8,4.6-3.5,8.3-6.6,11.7
			c-6.4,7-10.6,15.2-13.1,24.3c-1,3.4,0.6,6.5,1.3,9.7c0.1,0.4,0.3,0.9,0.4,1.3c0.5,10.5,4.5,19.8,9.6,28.8c4.6,8.3,8.3,17,7.8,26.9
			c-0.1,2.6,1.2,5.1,0.9,7.7c-0.7,1.5-2.1,1.9-3.5,1.9c-2.9,0-5.7,0.7-8.5,1.5c-2.2,0.6-2.7,0.3-3.4-1.9c-0.6-2-1.2-4-1.2-6.2
			c-0.9,1.2-2.1,1.1-3.3,1.1c-3.5,0.1-6.9-0.8-10.4-0.6c-1.4-0.3-2-1.2-1.9-2.7c0.4-6.5-1.3-12.8-2.5-19.2c-0.2-1.3-0.8-2.5-1.4-3.7
			c-1.9-3.8-2.6-7.9-2.7-12.1c-0.1-3-0.2-6.1,0-9.1c0.3-4.1-1.2-7.5-3.5-10.8c-2-2.8-3.4-5.9-4.3-9.4c-0.8-3.1,0.3-6,0.8-8.9
			c0.7-4.1-0.2-7.8-0.9-11.7c-1.1-5.6-2.7-11.2-3.4-16.9c-0.5-3.9,0.9-7.3,2.5-10.6c1.2-2.6,2.4-5.1,2.2-8.1
			c0.5-2.3,0.4-2.2,2.6-1.1c1.6,0.9,3.5,1.1,5.3,1.7c4.6,1.5,9.1,3.1,14.2,2.7c4.1-0.3,8.3,0.8,12.4,2c3.2,0.9,6.4,1.8,9.8,1.4
			C377.3,605.2,378.2,604.9,378.3,606z"/>
		<path id="XMLID_2084_" class="st93" d="M328.6,510c0.6-0.7,0.6-0.7,2,1c-0.5-4.2,1.1-7.4,2.7-10.7c0.9-1.8,1.4-3.8,0.6-5.8
			c1.2-1.1,2.6-1.8,4.1-2.3c-0.2,2.1-0.5,4.1-0.4,6.2c0.1,3.8,0.9,4.3,4.7,4.6c2.1,0.1,4,1.5,6.1,2.3c1.7,1.6,2.9,3.6,5.1,4.7
			c5.8,3,11.9,4.5,18.4,2.9c2.3-0.8,4.5-0.9,6.7,0.3c6.3,3.5,9.6,8.8,10.3,16.1c0.3,3.6-0.3,7.3,1.2,10.7c-0.7,0.7-0.4,1.6-0.5,2.4
			c-0.4,4.7-3.5,6.7-7.5,7.8c-1.3-0.8-0.3-1.6,0-2.4c0.8-2.4,1.7-4.7,0.2-7.4c-2.3-4.1-6.7-5.6-10.9-3.3c-4.2,2.3-6.2,6-6.3,10.7
			c0,3.9-0.1,7.8,0,11.7c0.1,2.9-1.2,4.9-3.6,6.3c-6.1,3.6-12.1,7.4-18.3,10.8c-7.2,3.8-14.9,5.9-22.8,7.5c-0.5,0.1-1.1,0.1-1.5-0.4
			c-0.6-2,0.1-4,0.4-5.9c0.9-4.6,1.7-9.3,3-13.8c1.6-6.3,2.2-12.8,3.1-19.3c0.4-2.8,0.6-5.7,1.2-8.5c1.4-4.3,1.9-8.8,3.3-13.1
			c0.4-1.3-0.2-2.4-0.7-3.5C327.5,516.6,327.6,513.3,328.6,510z"/>
		<path id="XMLID_2082_" class="st94" d="M318.8,583.9c7.3-1.6,14.7-3,21.4-6.5c6.3-3.2,12.4-6.7,18.4-10.6c0.8-0.5,1.6-0.9,2.4-1.4
			c2.1-1.2,3.3-2.9,3.2-5.5c-0.1-3.8,0.1-7.6,0-11.5c-0.1-5.1,1.9-8.9,6.3-11.6c4.3-2.7,9.6-1,12.1,3.4c1.9,3.3,0.7,6-0.6,8.9
			c-0.2,0.4-0.6,0.7-0.1,1.2c-1.5,5.5-1.8,11.1-2.1,16.7c-0.2,2.8-1.1,4.7-3.4,6.1c-2.5,2.7-6,3.6-9.2,4.8
			c-10.5,4.1-20.9,8.5-31.2,13c-3,1.3-5,3.8-7.2,6.1c-2.4,2.9-5.5,4.9-9.1,6.2c-1.2,0.5-2.7,1.1-3.7-0.7c-0.3-0.5-0.8-0.4-1.2-0.4
			c-0.2,0-0.3,0.1-0.4,0.1c-2.4,1-2.9-2.3-4.2-2.2c-2.4,0.1-3.3-0.5-3.5-2.7c0-0.4-0.1-0.8-0.6-0.8c-2.1,0-1.6-1.6-1.7-2.9l0,0
			c0.4-1.2,1-2.2,2-3.1c1.3-1.2,2.5-2.3,3.2-4.1C310.5,584,315.6,582.8,318.8,583.9z"/>
		<path id="XMLID_2080_" class="st95" d="M290.8,473.6c0.1,0.8,1.4,3.1,2.7,4.3c1.7,1.5,1.4,3.1,0.1,4.2c-6.2,5-13.3,7.6-21.4,6
			c-5.1-1-6.2-3.4-4.6-8.3c0.6-1.9-0.2-2.9-1.6-3.8c-0.8-0.6-0.3-1.4-0.4-2.2c-0.1-0.4,0.1-1-0.6-1.1c-2.4-0.3-2.4-2-2.2-3.8
			c0.1-1-0.2-1.8-1.1-2.4c-1.7-1.1-2.4-2.8-2.2-4.8c0.1-1.9-0.2-3.7-0.9-5.4c-0.6-1.7,0.3-3.4-0.4-5.3c-0.6-1.7-0.4-3.7-0.6-5.5
			c-1-3.2-0.6-3.9,2.7-4.1c3.2-0.2,6.4,0.8,9.7,0.4c0.8-0.1,1.7-0.1,2.5-0.1c6.6-0.6,11,0.3,11.1,7.6c0,0.5,0,1,0.2,1.4
			c0.6,1.4,0.3,3.8,1.6,4.2c1.3,0.5,1.9-1.9,3-2.8c1.3-1.2,2.6-2.4,4.5-1.7c2.1,0.7,3,2.3,3.3,4.4c0.2,1.3,0.1,2.6-0.5,3.9
			c-1.1,2-2.6,3.7-3.9,5.6c-1.6,2.2-1.4,5.2-1,8C290.6,472.7,290.7,473.1,290.8,473.6z"/>
		<path id="XMLID_2078_" class="st96" d="M347.4,721.5c0.4-0.5,0.3-1.2,1.6-0.9c3.4,0.8,7,1,10.6,0.9c1.2,0,1.4-1,1.6-2.5
			c0.8,3.3,1.1,6.1,2.1,8.8c0.4,1.1,0.7,1.3,1.8,1c3.1-0.9,6.2-1.9,9.6-1.6c1.2,0.1,2.1-0.9,3.2-1.3c2.1,3.9,4.6,7.6,7,11.4
			c1.8,2.9,1.8,6.4,3,9.5c0.6,1.5,0.5,2.8-0.1,4.3c-0.4,1.1-1,1.9-2,2.4c-4,2.5-7.5,1.9-11.5-0.9c-3-2.1-5.5-4.5-7.1-7.8
			c-0.9-1.8-1.7-3.8-2.3-5.8c-0.4-1.3-1.8-1.8-1.9-3.4c-0.1-0.8-1.1,0-1.4,0.3c-2.1,2.1-4.5,3.9-5.8,6.6c-2.2,4.5-6,6.8-10.5,8.2
			c-4.3,1.4-9.3-2.6-9.5-7.5c-0.1-1.5,0.1-2.9,0.7-4.3c0.8-2.1,1.6-4.2,2.5-6.2c1.3-3.2,3.4-5.9,6.8-7.3
			C347.3,724.6,346.6,722.7,347.4,721.5z"/>
		<path id="XMLID_2076_" class="st97" d="M295.5,458.7c-0.4-1,0-2.1,0-3.2c-0.1-2.1-0.8-3.8-2.9-4.6c-1.9-0.8-3,0.7-4.1,1.9
			c-1.2,1.2-1.9,2.8-3.7,3.8c-0.7-2.6-2.1-4.9-1.9-7.5c0.1-1.9-0.7-3.4-1.5-5.1c-0.6-1.3-1.9-1.1-3-1.2c-2.3-0.4-4.6-1.6-6.8,0.2
			c-0.1,0.1-0.4,0.2-0.4,0.2c-2-1.6-4.2,0-6.3-0.4c-1.7-0.3-3.4-0.5-5.2-0.6c-2.5-0.1-2.4,0.8-2,2.5c0.1,0.4,0.1,0.7-0.3,1
			c-2.8-2.1-3.5-5.5-1.7-9.2c0.4-0.9,0.8-1.8,0.9-2.8c0-2.7,1.8-4.6,3.6-6.1c2.7-2.2,5.6-4.5,9.5-4.4c0.8,0,0.6-1.1,1.4-1.4
			c4.2-1.7,8.4-2.5,12.8-0.8c0.3,0.1,0.9,0.4,1,0.3c1.8-1.9,3.1,0,4.3,0.7c2.7,1.6,4.8,4,6.6,6.5c0.6,0.8,0.4,1.8,0.7,2.6
			c0.3,1-0.8,3.2,1.8,2.6c-0.2,1.8,2.3,1.6,2.3,3.3c0,2.5-0.3,5,0.9,7.4c0.5,1-0.8,1.7-0.9,2.7c-0.2,2.4-0.1,5.1-1.4,7.1
			C298.1,455.7,297.5,457.8,295.5,458.7z"/>
		<path id="XMLID_2074_" class="st98" d="M328.8,597.1c0.9-1.6,1.7-3.3,3.4-4.4c4.1-2.8,8.8-4.5,13.4-6.4c8.9-3.7,17.7-7.3,26.6-11
			c1.5-0.6,2.9-1.4,4.3-2.1c-0.2,4.4,0.4,8.6,1.6,12.9c1.7,6.2,1.2,12.6,1.2,19c0,0.6-0.3,0.8-0.8,0.9c-7.8,0.6-15-3-22.7-3.6
			c-0.2,0-0.5-0.1-0.7-0.1c-6,1.5-11.2-1.5-16.7-3.2c-0.9-0.3-1.8-0.4-2.7-0.6c-0.4-0.1-0.9-0.2-1.3-0.4c-1.3-0.9-1.2-0.9-1.9,0.5
			C331.5,597.1,330,597.5,328.8,597.1z"/>
		<path id="XMLID_2070_" class="st99" d="M260.8,695.3c0.5-0.1,0.5-0.9,1-0.7c4,1.1,8.5-0.4,12.2,2.4c0.6,0.5,1.8,1.2,3,0.2
			c0.5-0.4,0.6-0.3,0.6,1c-4.3,4.7-4.8,10.4-4,16.4c0.1,0.9,0.2,1.8,0.3,2.8c0.4,4.7,0,6.5-5.6,8c-4.5,1.2-8.9,1-12.6-2.8
			c-2.2-2.3-2.4-4.8-1.7-7.5c0.8-3.4,2.8-6.4,2.8-10.1c0-1.8,1-3.7,2.5-5.1C260.6,698.6,260.9,697,260.8,695.3z"/>
		<path id="XMLID_2069_" class="st99" d="M287.4,697.2c5.5-0.8,10.9-2,15.5-5.6c0.8,1.8,2.1,2.5,4.1,2.3c5.9-0.5,6.4,4.1,4.3,7.8
			c-1.5,2.7-3.3,5.4-2.7,8.8c0.1,0.7-0.2,1.2-0.7,1.6c-2.3,2.2-4.9,4-8.1,4.7c-1.8,0.4-5.1-1.6-6.1-4.3c-1.2-3.1-3.5-5.7-3.6-9.4
			C290.1,701.1,287.6,699.5,287.4,697.2z"/>
		<path id="XMLID_2065_" class="st100" d="M371.7,513c-2.3,1.7-5,1.7-7.4,1.2c-4.2-0.8-8.5-1.5-12.1-4.1c-1.7-1.2-3.4-2.5-3.9-4.7
			c-0.5-2.5,1.1-4.3,2.1-6.3c1.6-3.3,1.7-6.2-0.2-9.4c-2.3-4.1-2-8.5-0.2-12.7c1.5-3.7,3.4-7.1,5.6-10.4c1.2-1.9,2.9-2.4,5-2
			c0.8,0.1,1.7,0.4,2.3,0.1c2.3-1.3,4.7-0.3,7-0.4c1.2,0,2,0.5,2.5,1.7c0.3,0.9,0.7,1.7,1.2,2.5c1.1,1.9,2.4,3.5,4.9,3.8
			s4,1.7,4.2,4.4c0.2,2.3,1,4.5,1.3,6.8c0.2,1.2,0.6,1.5,1.6,1.2c1.7-0.5,3.6-0.8,4.7,0.8c1.3,1.9,0.8,4-0.3,5.9
			c-1.7,3-4.8,3.5-7.6,4.4c-1.6,0.5-2.5,1.3-3.1,2.8c-1.2,2.8-2.8,5.4-5.5,7.1c-1.5,1-2.4,2.5-2.7,4.2
			C370.7,510.9,370.3,512.2,371.7,513z"/>
		<path id="XMLID_2062_" class="st101" d="M322.6,564.3c-3-3.9-2.9-8.9-4.2-13.3c-2.8-9.1-5.6-18.2-8.3-27.3c-0.3-1-1.1-1.1-1.5-1.8
			c0.6-0.1,1.3-0.2,1.2-1c0-0.5-0.7-0.2-1.3-0.3c2.3-1.9,4.9-1.7,7.3-2c1.9-0.2,3.8,0.1,5.8-0.3c1.2-0.2,2,0.3,2.2,1.7
			c0.1,0.6-0.6,1.4,0.3,1.8c0.3,5,0.9,9.9,2.9,14.5c-0.8,5.5-1.2,11-2.2,16.5C323.9,556.6,323.9,560.5,322.6,564.3z"/>
	</g>
</g>
</svg>
